<?xml version="1.0" encoding="utf-8"?>
<svg version="1.1" xmlns:xlink="http://www.w3.org/1999/xlink" width="20px" height="14px" xmlns="http://www.w3.org/2000/svg">
  <g transform="matrix(1 0 0 1 -10 -13 )">
    <path d="M 17.4074074001736 12.0256410186298  C 18.5185185112847 12.0256410186298  19.3518518446181 11.1282051141827  19.2592592664931 10.0512820582933  L 18.6111111111111 4.66666667367789  C 18.5185185112847 3.76923076923077  17.6851851779514 3.05128205829327  16.7592592664931 3.05128205829327  L 13.7037037109375 3.05128205829327  C 13.7037037109375 1.52564103966346  12.5 0.358974365985577  10.9259259331597 0.358974365985577  L 3.51851851128472 0.358974365985577  C 1.94444444444444 0.358974365985577  0.740740733506944 1.52564101862981  0.740740733506944 3.05128205829327  L 0.740740733506944 9.33333332632212  C 0.740740733506944 10.5  1.48148146701389 11.4871794801683  2.59259259982639 11.8461538461538  L 2.68518517795139 11.8461538461538  C 3.05555555555556 13.0128205198317  4.07407406684028 13.820512827524  5.37037037760417 13.820512827524  C 6.57407408854167 13.820512827524  7.59259259982639 13.1025641165865  7.96296295572917 12.0256410186298  L 11.0185185112847 12.0256410186298  C 11.3888888888889 13.1025640955529  12.4074074001736 13.8205128064904  13.6111111111111 13.820512827524  C 14.8148148220486 13.8205128485577  15.8333333333333 13.1025641165865  16.2037037109375 12.0256410186298  L 17.4074074001736 12.0256410186298  Z M 13.7037037109375 5.74358975060096  L 13.7037037109375 4.84615384615385  L 16.7592592664931 4.84615384615385  L 16.8518518446181 5.74358975060096  L 13.7037037109375 5.74358975060096  Z M 6.2962962890625 11.1282051352163  C 6.29629626736111 11.6666666736779  5.92592591145833 12.0256410396635  5.37037037760417 12.0256410186298  C 4.81481482204861 12.0256410186298  4.44444444444444 11.6666666526442  4.44444444444444 11.1282051352163  C 4.44444444444444 10.5897436177885  4.81481482204861 10.2307692307692  5.37037037760417 10.2307692307692  C 5.92592593315972 10.2307692307692  6.29629631076389 10.5897435967548  6.2962962890625 11.1282051352163  Z M 11.8518518446181 3.05128205829327  L 11.8518518446181 9.15384615384616  C 11.4814814670139 9.42307692307692  11.2037036892361 9.87179486478365  11.1111111111111 10.2307692307692  L 7.96296295572917 10.2307692307692  C 7.592592578125 9.15384615384616  6.57407406684028 8.43589744290865  5.37037037760417 8.43589744290865  C 4.25925926649305 8.43589744290865  3.33333333333333 9.064102578125  2.87037037760417 9.96153846153846  C 2.68518519965278 9.7820512890625  2.59259259982639 9.60256409555288  2.59259259982639 9.33333332632212  L 2.59259259982639 3.05128205829327  C 2.59259259982639 2.7820512890625  2.68518519965278 2.60256411658654  2.87037037760417 2.42307692307692  C 3.05555555555556 2.24358972956731  3.24074073350694 2.15384615384615  3.51851851128472 2.15384615384615  L 10.9259259331597 2.15384615384615  C 11.2037037109375 2.15384615384615  11.3888888888889 2.24358975060096  11.5740740668403 2.42307692307692  C 11.7592592447917 2.60256409555289  11.8518518446181 2.7820512890625  11.8518518446181 3.05128205829327  Z M 14.6296296223958 11.1282051352163  C 14.6296296006944 11.6666666736779  14.2592592447917 12.0256410396635  13.7037037109375 12.0256410186298  C 13.1481481553819 12.0256410186298  12.7777777777778 11.6666666526442  12.7777777777778 11.1282051352163  C 12.7777777777778 10.5897436177885  13.1481481553819 10.2307692307692  13.7037037109375 10.2307692307692  C 14.2592592664931 10.2307692307692  14.6296296440972 10.5897435967548  14.6296296223958 11.1282051352163  Z M 17.4074074001736 10.2307692307692  L 16.2962962890625 10.2307692307692  C 15.9259259114583 9.15384615384615  14.9074074001736 8.43589744290865  13.7037037109375 8.43589744290865  L 13.7037037109375 7.53846153846154  L 17.1296296223958 7.53846153846154  L 17.4074074001736 10.2307692307692  Z " fill-rule="nonzero" fill="#000000" stroke="none" transform="matrix(1 0 0 1 10 13 )" />
  </g>
</svg>