<?xml version="1.0" encoding="utf-8"?>
<svg version="1.1" xmlns:xlink="http://www.w3.org/1999/xlink" width="20px" height="20px" xmlns="http://www.w3.org/2000/svg">
  <g transform="matrix(1 0 0 1 -10 -10 )">
    <path d="M 4.93425926649306 13.0277777777778  L 1.30092593315972 4.39814815538194  C 1.27438271846065 4.33641975549769  1.2537037037037 4.27592592592593  1.23888888888889 4.21666666666667  L 1.0287037109375 3.71666666666667  C 0.977848601473911 3.59997236589047  0.951601347279175 3.47404545123656  0.951601347279175 3.34675129586328  C 0.951601347279175 2.83537652350632  1.36615250808194 2.42082536270356  1.8775272804389 2.42082536270356  C 2.0548927106717 2.42082536270356  2.22852629621422 2.47176728431557  2.37777777777778 2.56759259982639  C 3.62222222222222 1.68611111834491  5.10925925925926 1.24537037760417  6.83888888888889 1.24537037760417  C 7.95648148871528 1.24537037760417  9.33981482204861 1.53703704427083  10.9907407335069 2.11944444444445  C 12.2027777777778 2.54722222222222  13.117592578125 2.76111111111111  13.7361111111111 2.76111111111111  C 14.9444444444444 2.76111111111111  16.1777777777778 2.24537037760417  17.4361111111111 1.21481482204861  C 17.7990740668403 0.916666666666668  18.1925925998264 0.86759259982639  18.6175925998264 1.06666666666667  C 19.0453703776042 1.26759259982639  19.2592592664931 1.6037037109375  19.2592592664931 2.07592593315972  L 19.2592592664931 10.6740740668403  C 19.2592592664931 11.0166666666667  19.1277777777778 11.3  18.8657407335069 11.5203703776042  C 17.9379629557292 12.3027777777778  16.8027777777778 12.6935185329861  15.4601851779514 12.6935185112847  C 14.7962962890625 12.6935185112847  13.8481481336806 12.5129629557292  12.6129629557292 12.1509259331597  C 11.5481481336806 11.8398148220486  10.7731481336806 11.6833333333333  10.2870370442708 11.6833333333333  C 9.45833333333333 11.6833333333333  8.35555555555555 12.1555555555556  6.97777777777778 13.0981481553819  L 8.78796295572917 17.4074074001736  L 17.4074074001736 17.4074074001736  C 17.9187821725306 17.4074074001736  18.3333333333333 17.8219585609764  18.3333333333333 18.3333333333333  C 18.3333333333333 18.8447081056903  17.9187821725306 19.2592592664931  17.4074074001736 19.2592592664931  C 17.4074074001736 19.2592592664931  17.4074074001736 19.2592592664931  17.4074074001736 19  L 2.59259259982639 19  C 2.59259259982639 19.2592592664931  2.59259259982639 19.2592592664931  2.59259259982639 19.2592592664931  C 2.08121782746943 19.2592592664931  1.66666666666667 18.8447081056903  1.66666666666667 18.3333333333333  C 1.66666666666667 17.8219585609764  2.08121782746943 17.4074074001736  2.59259259982639 17.4074074001736  L 6.77962962239583 17.4074074001736  L 4.98333333333333 13.1324074001736  C 4.96529774638342 13.098658552049  4.94892023716099 13.064049475683  4.93425926649306 13.0287037109375  Z M 3.25185184461805 4.22592593315972  L 3.25185184461806 4.22777777777778  L 6.24814815538195 11.3611111111111  C 7.81296297743056 10.3425925998264  9.15925926649306 9.83333333333334  10.2870370442708 9.83333333333334  C 10.9509259331597 9.83333333333334  11.8990740885417 10.0129629557292  13.1342592664931 10.375  C 14.1990740885417 10.6870370442708  14.9740740885417 10.8425925998264  15.4601851779514 10.8425925998264  C 16.2212962890625 10.8425925998264  16.8712962890625 10.6638888888889  17.4074074001736 10.3055555555556  L 17.4074074001736 3.50462962239583  C 16.1972222222222 4.242592578125  14.9740740668403 4.61203702256944  13.7361111111111 4.61203704427083  C 12.9064814887153 4.61203704427083  11.7861111111111 4.36203704427083  10.375 3.86481482204861  C 8.92314815538194 3.35277777777778  7.74537037760416 3.09629631076389  6.83888888888889 3.0962962890625  C 5.41666666666667 3.0962962890625  4.22037037760416 3.47314813368056  3.25185184461805 4.22592593315972  Z M 15.4120370442708 8.54351851128472  C 15.4333333333333 8.59537035590278  15.4583333333333 8.65462962239583  15.4888888888889 8.7212962890625  C 15.5157393347451 8.78646221819337  15.5505734574953 8.84804396661691  15.5925925998264 8.90462962239583  C 15.6820602446825 9.01744092046105  15.8200214304278 9.08074481011071  15.9638888888889 9.075  C 16.0986513630027 9.07764155419646  16.2285678704856 9.02473741307789  16.3231481553819 8.9287037109375  C 16.4141971754712 8.8454151454407  16.466520827627 8.72802233087602  16.4675925998264 8.60462962239583  C 16.4675925998264 8.51018517795139  16.4305555555556 8.37407406684028  16.3546296223958 8.19537037760417  L 15.4972222222222 6.09722222222222  C 15.4564814887153 5.99074073350694  15.4231481553819 5.90555555555556  15.3953703776042 5.84166666666667  C 15.3652555986816 5.76868340204824  15.3273837775356 5.69914826635675  15.2824074001736 5.63425926649306  C 15.1617820710992 5.46159006799681  14.9613695921332 5.36243127233973  14.7509259331597 5.3712962890625  C 14.5397555637085 5.36197307993184  14.3388827394189 5.46293533716642  14.2203703776042 5.63796295572917  C 14.175 5.70462962239583  14.1342592664931 5.78611111111111  14.0953703776042 5.88148148871528  L 14.0092592664931 6.1  L 13.1694444444444 8.21296295572917  C 13.140514437028 8.28198560950469  13.1142603104532 8.35209956944529  13.0907407335069 8.42314815538195  C 13.0714522236179 8.48299812095993  13.0614594543468 8.5454529417123  13.0611111111111 8.60833333333334  C 13.0611111111111 8.73240740017361  13.1101851779514 8.84074073350695  13.2092592664931 8.93425926649306  C 13.3022872496201 9.02570267927675  13.4278944843184 9.07634538242923  13.5583333333333 9.075  C 13.7175925998264 9.075  13.8370370442708 9.02314815538194  13.9166666666667 8.91944444444445  C 13.9694444444444 8.84907406684028  14.0296296223958 8.725  14.0962962890625 8.54722222222222  L 14.2111111111111 8.24166666666667  L 15.2962962890625 8.24166666666667  L 15.4111111111111 8.54166666666667  L 15.4111111111111 8.54351851128472  Z M 8.40740740017361 5.59907406684028  C 8.13518517795139 5.4462962890625  7.81203704427083 5.37037037760417  7.43796295572917 5.37037037760417  C 7.18509167526158 5.36657773069972  6.93377739265562 5.41055772813102  6.69722222222222 5.5  C 6.475 5.58796295572917  6.28518517795139 5.71481482204861  6.12962962239583 5.87962962239583  C 5.97166956064183 6.04998915894059  5.8517342158431 6.25198553574659  5.77777777777778 6.47222222222222  C 5.7 6.69814815538195  5.66111111111111 6.94444444444445  5.66111111111111 7.21296295572917  C 5.66111111111111 7.475  5.69814815538194 7.71851851128472  5.77314815538194 7.94444444444444  C 5.85 8.17777777777778  5.96481482204861 8.37777777777778  6.11574073350695 8.54444444444445  C 6.27037035590278 8.71388888888889  6.46203702256945 8.84444444444445  6.69074073350694 8.93703704427084  C 6.91666666666667 9.0287037109375  7.17037035590278 9.07407408854167  7.45185184461806 9.07407406684028  C 7.73425924479167 9.07407406684028  7.98703702256944 9.02962962239583  8.21018517795139 8.94074073350695  C 8.42842457351836 8.85576968813568  8.62420775104544 8.72176275594481  8.78240740017361 8.54907406684028  C 8.93611111111111 8.38055555555556  9.05092591145834 8.18240740017361  9.12685184461806 7.95462962239583  C 9.20092591869213 7.73240740017361  9.23796295572917 7.48672839265046  9.23796295572917 7.21759259982639  C 9.23796295572917 6.85185186631944  9.16944444444445 6.532407421875  9.03333333333334 6.25648148871528  C 8.89729369572076 5.97816939620353  8.67871436284995 5.74859642584844  8.40740740017361 5.59907406684028  Z M 11.1805555555556 5.42592593315972  L 10.3129629557292 5.42592593315972  C 10.1185185112847 5.42592593315972  9.9712962890625 5.475  9.87222222222222 5.57407406684028  C 9.775 5.66944444444445  9.72685184461806 5.81111111111111  9.72685184461806 5.99814815538195  L 9.72685184461806 8.38611111111111  C 9.72685184461806 8.50648148871528  9.73796295572917 8.60555555555556  9.76018517795139 8.68611111111111  C 9.79001980644291 8.79311967073937  9.86135111275238 8.8837837550879  9.95833333333334 8.93796295572917  C 10.0718675369704 8.996986959433  10.1990451416084 9.02478708963574  10.3268518446181 9.01851851128472  L 11.1944444444444 9.01851851128472  C 11.3555555555556 9.01851851128472  11.5009259331597 9.00833333333333  11.6314814887153 8.98703704427083  C 11.7685185329861 8.96574075520833  11.8962963107639 8.92777777777778  12.0166666666667 8.87314815538194  C 12.1370370442708 8.81759259982639  12.25 8.74537037760417  12.3527777777778 8.6537037109375  C 12.4787037109375 8.53888888888889  12.5814814887153 8.40833333333333  12.6620370442708 8.26296295572917  C 12.7416666666667 8.11944444444444  12.8009259331597 7.95925924479167  12.8379629557292 7.78148148871528  C 12.875 7.60925926649306  12.8935185112847 7.42037037760417  12.8935185112847 7.21296295572917  C 12.8935185112847 6.5712962890625  12.7027777777778 6.08888888888889  12.3222222222222 5.76574073350694  C 12.1746164803407 5.63619495717848  11.9985632712496 5.54325155377619  11.8083333333333 5.49444444444444  C 11.6027279545921 5.44564374111601  11.3918472951874 5.42262727039559  11.1805555555556 5.42592593315972  Z M 8.20555555555556 7.21296295572917  C 8.20555555555556 7.44722222222222  8.16851851128472 7.64074073350695  8.09444444444445 7.79444444444445  C 8.03759596877459 7.92520612937616  7.94275105992583 8.03585852555338  7.82222222222222 8.11203704427083  C 7.70887453214356 8.1796091966291  7.57917978976991 8.21483492662382  7.44722222222222 8.21388888888889  C 7.24586035953563 8.21991562956266  7.05268197218219 8.13405856851669  6.92222222222222 7.98055555555556  C 6.84562517606382 7.8888804770034  6.78887444507777 7.78231521794829  6.75555555555556 7.66759259982639  C 6.7119202702385 7.52039371378674  6.69100051850144 7.36739852991627  6.69351851128472 7.21388888888889  C 6.69351851128472 7.0462962890625  6.71388888888889 6.89722222222222  6.75648148871528 6.76574073350694  C 6.78895340237212 6.6542208008439  6.84341823908114 6.55032833306565  6.91666666666667 6.46018517795139  C 6.97900208863446 6.3867939750594  7.05720761050397 6.32853561737971  7.14537037760417 6.28981482204861  C 7.23777003966625 6.25019152586493  7.33743256748665 6.23032209686764  7.43796295572917 6.23148148871528  C 7.58981480034722 6.23148148871528  7.72222222222222 6.26666666666667  7.83611111111111 6.33796295572917  C 7.95554957120438 6.4151067491991  8.04858623619437 6.52687996730113  8.10277777777778 6.65833333333333  C 8.1712962890625 6.81296295572917  8.20555555555556 6.99722222222222  8.20555555555556 7.21388888888889  Z M 10.75 8.15740740017361  L 10.75 6.28425926649306  L 11.0101851779514 6.28425926649306  C 11.1953703559028 6.28425926649306  11.35 6.30277777777778  11.4759259331597 6.34166666666667  C 11.5759259331597 6.37222222222222  11.6629629774306 6.44907406684028  11.7379629557292 6.5712962890625  C 11.8203703559028 6.70462962239584  11.8611111111111 6.917592578125  11.8611111111111 7.20925926649306  C 11.8611111111111 7.61481482204861  11.7685185112847 7.89444444444444  11.5842592664931 8.04907406684028  C 11.550174269553 8.07809655888315  11.5109023696538 8.10040300014659  11.4685185112847 8.11481482204861  C 11.4198399068224 8.13267731650328  11.3691518946504 8.14449415240006  11.3175925998264 8.15  C 11.2371839696464 8.15599898395734  11.1565510251423 8.15847048942128  11.0759259331597 8.15740740017361  L 10.75 8.15740740017361  Z M 14.7481481553819 6.75092593315972  L 14.9907407335069 7.40925926649306  L 14.5092592664931 7.40925926649306  L 14.7481481553819 6.75185184461806  Z " fill-rule="nonzero" fill="#000000" stroke="none" transform="matrix(1 0 0 1 10 10 )" />
  </g>
</svg>