<?xml version="1.0" encoding="utf-8"?>
<svg version="1.1" xmlns:xlink="http://www.w3.org/1999/xlink" width="20px" height="20px" xmlns="http://www.w3.org/2000/svg">
  <g transform="matrix(1 0 0 1 -10 -10 )">
    <path d="M 4.8822222265625 0.28333333984375  L 15.044444453125 0.28388888671875  C 15.9277777929688 0.28388888671875  16.94 0.89833333984375  17.3488888867188 1.68166666015625  L 19.0016666601563 4.86388888671875  C 19.3527777734375 5.5372222265625  19.6283333203125 6.66333333984375  19.6283333398437 7.4227777734375  L 19.6283333398437 17.8138888867188  C 19.627108920236 18.8148576267853  18.8159687400665 19.6259978069548  17.815 19.6272222265625  L 2.1 19.6272222265625  C 1.09852365004456 19.6272222265625  0.28666666015625 18.8153652366742  0.28666666015625 17.8138888867188  L 0.28666666015625 7.3472222265625  C 0.28666666015625 6.58555556640625  0.56444443359375 5.4622222265625  0.92111111328125 4.7877777734375  L 2.5722222265625 1.6722222265625  C 2.98388888671875 0.894444453125  4 0.28333333984375  4.8822222265625 0.28333333984375  Z M 9.514444453125 15.4172222265625  C 8.69333333984375 15.4172222265625  8.49777779296875 15.5605555664063  8.4977777734375 16.4077777734375  C 8.49777775390625 17.2549999804688  8.6933333203125 17.4116666601563  9.514444453125 17.4116666601563  C 10.309444453125 17.4116666601563  10.5311111132813 17.255  10.5311111132813 16.4077777734375  C 10.5311111132813 15.560555546875  10.309444453125 15.4166666601563  9.514444453125 15.4166666601563  Z M 9.449444453125 8.155  C 8.615 8.155  7.9366666796875 8.259444453125  7.4677777734375 8.4027777734375  L 7.4677777734375 9.82388888671875  C 7.93666666015625 9.6677777734375  8.60166666015625 9.57611111328125  9.1622222265625 9.57611111328125  C 10.2966666796875 9.57611111328125  10.6488888867188 9.77166666015625  10.6488888867188 10.6716666601563  C 10.6488888867188 11.310555546875  10.505 11.5316666601563  9.86666666015625 12.0661111132813  C 9.03222220703125 12.7572222265625  8.79722220703125 13.1877777734375  8.7972222265625 13.905  L 8.7972222265625 14.4911111132812  L 10.205555546875 14.4911111132812  L 10.205555546875 14.1522222265625  C 10.205555546875 13.6566666796875  10.40111109375 13.4222222265625  11.17 12.8227777734375  C 12.030555546875 12.1966666601563  12.395555546875 11.7011111132813  12.395555546875 10.45  C 12.395555546875 8.6377777734375  11.495555546875 8.155555546875  9.449444453125 8.155555546875  Z M 15.045 1.49388888671875  L 15.044444453125 1.494444453125  L 4.8822222265625 1.494444453125  C 4.439444453125 1.494444453125  3.8472222265625 1.85055556640625  3.64111111328125 2.24  L 1.990555546875 5.354444453125  C 1.90166666015625 5.52111111328125  1.82111109375 5.739444453125  1.7477777734375 6  L 18.1477777734375 6  C 18.0890108415629 5.78376430092642  18.015834576068 5.59896636465685  17.9288888867187 5.420555546875  L 16.2761111132812 2.240555546875  C 16.0716666601563 1.85  15.485 1.49388888671875  15.045 1.49388888671875  Z " fill-rule="nonzero" fill="#f4a121" stroke="none" transform="matrix(1 0 0 1 10 10 )" />
  </g>
</svg>