<?xml version="1.0" encoding="utf-8"?>
<svg version="1.1" xmlns:xlink="http://www.w3.org/1999/xlink" width="60px" height="25px" xmlns="http://www.w3.org/2000/svg">
  <defs>
    <mask fill="white" id="clip1">
      <path d="M 0 20  L 0 5  C 0 2.19999999999999  1.31999999999999 0  3 0  L 29.4 0  L 57 0  C 58.68 0  60 2.19999999999999  60 5  L 60 20  C 60 22.8  58.68 25  57 25  L 3 25  C 1.31999999999999 25  0 22.8  0 20  Z " fill-rule="evenodd" />
    </mask>
  </defs>
  <g transform="matrix(1 0 0 1 -135 -132 )">
    <path d="M 0 20  L 0 5  C 0 2.19999999999999  1.31999999999999 0  3 0  L 29.4 0  L 57 0  C 58.68 0  60 2.19999999999999  60 5  L 60 20  C 60 22.8  58.68 25  57 25  L 3 25  C 1.31999999999999 25  0 22.8  0 20  Z " fill-rule="nonzero" fill="#fef5e6" stroke="none" transform="matrix(1 0 0 1 135 132 )" />
    <path d="M 0 20  L 0 5  C 0 2.19999999999999  1.31999999999999 0  3 0  L 29.4 0  L 57 0  C 58.68 0  60 2.19999999999999  60 5  L 60 20  C 60 22.8  58.68 25  57 25  L 3 25  C 1.31999999999999 25  0 22.8  0 20  Z " stroke-width="2" stroke="#f4a121" fill="none" transform="matrix(1 0 0 1 135 132 )" mask="url(#clip1)" />
  </g>
</svg>