<?xml version="1.0" encoding="utf-8"?>
<svg version="1.1" xmlns:xlink="http://www.w3.org/1999/xlink" width="16px" height="30px" xmlns="http://www.w3.org/2000/svg">
  <g transform="matrix(1 0 0 1 -20 -10 )">
    <path d="M 15.6805555664063 29.5179063145661  C 15.4768518554688 29.7199265237603  15.2129629882813 29.8209366283574  14.9444444335937 29.8209366283574  C 14.6759259277344 29.8209366283574  14.4120370117188 29.7199265237603  14.2083333496094 29.5179063145661  L 0.319444433593752 15.7438016528926  C -0.087962988281248 15.3397612345041  -0.087962988281248 14.6877869802428  0.319444433593752 14.2837465618543  L 0.342592578125 14.2607897243027  L 14.2083333496094 0.509641851756197  C 14.6157407714844 0.105601433367767  15.2731481445312 0.105601433367767  15.6805555664062 0.509641851756197  C 16.0879629882812 0.913682270144626  16.0879629882812 1.56565652440599  15.6805555664062 1.96969699121901  L 2.52777778320313 15.0137740831612  L 15.6805555664063 28.0578512235279  C 16.0879629882813 28.4618916419163  16.0879629882813 29.1138658961777  15.6805555664063 29.5179063145661  Z " fill-rule="nonzero" fill="#ffffff" stroke="none" transform="matrix(1 0 0 1 20 10 )" />
  </g>
</svg>