<?xml version="1.0" encoding="utf-8"?>
<svg version="1.1" xmlns:xlink="http://www.w3.org/1999/xlink" width="12px" height="12px" viewBox="191 1.5  12 12" xmlns="http://www.w3.org/2000/svg">
  <path d="M 197 1.5  C 200.36 1.5  203 4.14  203 7.5  C 203 10.86  200.36 13.5  197 13.5  C 193.64 13.5  191 10.86  191 7.5  C 191 4.14  193.64 1.5  197 1.5  Z " fill-rule="nonzero" fill="#ffffff" stroke="none" />
  <path d="M 197 2  C 200.08 2  202.5 4.42  202.5 7.5  C 202.5 10.58  200.08 13  197 13  C 193.92 13  191.5 10.58  191.5 7.5  C 191.5 4.42  193.92 2  197 2  Z " stroke-width="1" stroke="#f4a121" fill="none" />
  <path d="M 197 10.5  C 195.32 10.5  194 9.18  194 7.5  C 194 5.82  195.32 4.5  197 4.5  C 198.68 4.5  200 5.82  200 7.5  C 200 9.18  198.68 10.5  197 10.5  " fill-rule="nonzero" fill="#f4a121" stroke="none" />
</svg>