<?xml version="1.0" encoding="utf-8"?>
<svg version="1.1" xmlns:xlink="http://www.w3.org/1999/xlink" width="12px" height="12px" viewBox="176 1.5  12 12" xmlns="http://www.w3.org/2000/svg">
  <path d="M 182 1.5  C 185.36 1.5  188 4.14  188 7.5  C 188 10.86  185.36 13.5  182 13.5  C 178.64 13.5  176 10.86  176 7.5  C 176 4.14  178.64 1.5  182 1.5  Z " fill-rule="nonzero" fill="#f0f0f0" stroke="none" />
  <path d="M 182 2  C 185.08 2  187.5 4.42  187.5 7.5  C 187.5 10.58  185.08 13  182 13  C 178.92 13  176.5 10.58  176.5 7.5  C 176.5 4.42  178.92 2  182 2  Z " stroke-width="1" stroke="#797979" fill="none" />
  <path d="M 182 10.5  C 180.32 10.5  179 9.18  179 7.5  C 179 5.82  180.32 4.5  182 4.5  C 183.68 4.5  185 5.82  185 7.5  C 185 9.18  183.68 10.5  182 10.5  " fill-rule="nonzero" fill="#797979" stroke="none" />
</svg>