<?xml version="1.0" encoding="utf-8"?>
<svg version="1.1" xmlns:xlink="http://www.w3.org/1999/xlink" width="20px" height="20px" xmlns="http://www.w3.org/2000/svg">
  <g transform="matrix(1 0 0 1 -1334 -20 )">
    <path d="M 10 20  C 15.5 20  20 15.5  20 10  C 20 4.5  15.5 0  10 0  C 4.5 0  0 4.5  0 10  C 0 15.5  4.5 20  10 20  Z M 18.75 10  C 18.75 14.875  14.875 18.75  10 18.75  C 5.125 18.75  1.25 14.875  1.25 10  C 1.25 5.125  5.125 1.25  10 1.25  C 14.875 1.25  18.75 5.125  18.75 10  Z " fill-rule="nonzero" fill="#f4a121" stroke="none" transform="matrix(1 0 0 1 1334 20 )" />
  </g>
</svg>