<?xml version="1.0" encoding="utf-8"?>
<svg version="1.1" xmlns:xlink="http://www.w3.org/1999/xlink" width="18px" height="18px" xmlns="http://www.w3.org/2000/svg">
  <g transform="matrix(1 0 0 1 -226 -21 )">
    <path d="M 17.182265625 4.88671875  C 17.182265625 2.6623828125  15.3819140625 0.855703125  13.157578125 0.855703125  C 10.930078125 0.855703125  9.1265625 2.65921875  9.1265625 4.88671875  C 9.1265625 7.11421875  10.930078125 8.9145703125  13.1544140625 8.9145703125  C 15.37875 8.9145703125  17.182265625 7.1110546875  17.182265625 4.88671875  Z M 15.77109375 4.8835546875  C 15.77109375 6.3263671875  14.600390625 7.4970703125  13.157578125 7.4970703125  C 11.714765625 7.4970703125  10.5440625 6.3263671875  10.5440625 4.8835546875  C 10.5440625 3.4407421875  11.714765625 2.2700390625  13.157578125 2.2700390625  C 14.600390625 2.2700390625  15.77109375 3.4407421875  15.77109375 4.8835546875  Z M 8.272265625 2.652890625  C 8.272265625 1.8713671875  7.633125 1.2322265625  6.8516015625 1.2322265625  L 2.1561328125 1.2322265625  C 1.374609375 1.2322265625  0.735468749999999 1.8713671875  0.735468749999999 2.652890625  L 0.735468749999999 7.34203125  C 0.735468749999999 8.1235546875  1.374609375 8.7626953125  2.1561328125 8.7626953125  L 6.8516015625 8.7626953125  C 7.633125 8.7626953125  8.272265625 8.1235546875  8.272265625 7.34203125  L 8.272265625 2.652890625  Z M 6.892734375 2.8395703125  L 6.892734375 7.158515625  C 6.892734375 7.285078125  6.791484375 7.386328125  6.664921875 7.386328125  L 2.3459765625 7.386328125  C 2.2194140625 7.386328125  2.1181640625 7.285078125  2.1181640625 7.158515625  L 2.1181640625 2.8395703125  C 2.1181640625 2.7130078125  2.2194140625 2.6117578125  2.3459765625 2.6117578125  L 6.664921875 2.6117578125  C 6.791484375 2.6117578125  6.892734375 2.7130078125  6.892734375 2.8395703125  Z M 8.272265625 11.01234375  C 8.272265625 10.2308203125  7.633125 9.5916796875  6.8516015625 9.5916796875  L 2.1561328125 9.5916796875  C 1.374609375 9.5916796875  0.735468749999999 10.2308203125  0.735468749999999 11.01234375  L 0.735468749999999 15.701484375  C 0.735468749999999 16.4830078125  1.374609375 17.1221484375  2.1561328125 17.1221484375  L 6.8516015625 17.1221484375  C 7.633125 17.1221484375  8.272265625 16.4830078125  8.272265625 15.701484375  L 8.272265625 11.01234375  Z M 6.892734375 11.1990234375  L 6.892734375 15.51796875  C 6.892734375 15.64453125  6.791484375 15.74578125  6.664921875 15.74578125  L 2.3459765625 15.74578125  C 2.2194140625 15.74578125  2.1181640625 15.64453125  2.1181640625 15.51796875  L 2.1181640625 11.1990234375  C 2.1181640625 11.0724609375  2.2194140625 10.9712109375  2.3459765625 10.9712109375  L 6.664921875 10.9712109375  C 6.791484375 10.9712109375  6.892734375 11.0724609375  6.892734375 11.1990234375  Z M 16.9259765625 10.8478125  C 16.9259765625 10.0662890625  16.2868359375 9.4271484375  15.5021484375 9.4271484375  L 10.80984375 9.4271484375  C 10.0283203125 9.4271484375  9.3891796875 10.0662890625  9.3891796875 10.8478125  L 9.3891796875 15.536953125  C 9.3891796875 16.3184765625  10.0283203125 16.9576171875  10.80984375 16.9576171875  L 15.5053125 16.9576171875  C 16.2868359375 16.9576171875  16.9259765625 16.3184765625  16.9259765625 15.536953125  L 16.9259765625 10.8478125  Z M 15.54328125 11.031328125  L 15.54328125 15.3502734375  C 15.54328125 15.4768359375  15.44203125 15.5780859375  15.31546875 15.5780859375  L 10.9965234375 15.5780859375  C 10.8699609375 15.5780859375  10.7687109375 15.4768359375  10.7687109375 15.3502734375  L 10.7687109375 11.031328125  C 10.7687109375 10.904765625  10.8699609375 10.803515625  10.9965234375 10.803515625  L 15.31546875 10.803515625  C 15.44203125 10.803515625  15.54328125 10.904765625  15.54328125 11.031328125  Z " fill-rule="nonzero" fill="#000000" stroke="none" transform="matrix(1 0 0 1 226 21 )" />
  </g>
</svg>