<?xml version="1.0" encoding="utf-8"?>
<svg version="1.1" xmlns:xlink="http://www.w3.org/1999/xlink" width="13px" height="12px" xmlns="http://www.w3.org/2000/svg">
  <g transform="matrix(1 0 0 1 -10 -7 )">
    <path d="M 11.128 1.62352941176471  L 11.128 7.55294117647059  L 11.167 7.55294117647059  L 1.885 7.55294117647059  L 1.885 1.56705882352941  C 1.885 1.17176470588235  1.976 0.868235294117648  2.158 0.656470588235295  C 2.34 0.444705882352942  2.61733333333333 0.338823529411765  2.99 0.338823529411765  L 10.075 0.338823529411765  C 10.465 0.338823529411765  10.7401666666667 0.458823529411765  10.9005 0.698823529411765  C 11.0608333333333 0.938823529411765  11.1366666666667 1.24705882352941  11.128 1.62352941176471  Z M 10.166 5.80235294117647  L 10.166 1.32705882352941  L 2.808 1.32705882352941  L 2.808 5.78823529411765  L 10.166 5.80235294117647  Z M 7.072 6.81882352941176  C 7.124 6.77176470588235  7.15 6.72470588235294  7.15 6.67764705882353  C 7.15 6.54588235294118  7.06766666666667 6.47058823529412  6.903 6.45176470588235  L 6.11 6.45176470588235  C 5.94533333333333 6.45176470588235  5.863 6.52705882352941  5.863 6.67764705882353  C 5.863 6.72470588235294  5.88466666666667 6.77176470588235  5.928 6.81882352941176  C 5.97133333333333 6.86588235294118  6.02766666666667 6.89411764705882  6.097 6.9035294117647  L 6.877 6.88941176470588  C 6.955 6.88941176470588  7.02 6.86588235294118  7.072 6.81882352941176  Z M 2.509 8.35764705882353  L 10.907 8.35764705882353  C 11.0023333333333 8.35764705882353  11.0673333333333 8.39058823529412  11.102 8.45647058823529  C 11.1366666666667 8.52235294117647  11.1886666666667 8.61647058823529  11.258 8.73882352941176  C 11.2926666666667 8.80470588235294  11.3576666666667 8.92235294117647  11.453 9.09176470588235  C 11.5483333333333 9.26117647058824  11.6501666666667 9.44235294117647  11.7585 9.63529411764706  C 11.8668333333333 9.82823529411765  11.9686666666667 10.0094117647059  12.064 10.1788235294118  C 12.1593333333333 10.3482352941176  12.2243333333333 10.4611764705882  12.259 10.5176470588235  C 12.3283333333333 10.64  12.3868333333333 10.7552941176471  12.4345 10.8635294117647  C 12.4821666666667 10.9717647058824  12.4496666666667 11.1011764705882  12.337 11.2517647058824  C 12.1116666666667 11.5435294117647  11.9166666666667 11.7223529411765  11.752 11.7882352941176  C 11.5873333333333 11.8541176470588  11.4616666666667 11.8870588235294  11.375 11.8870588235294  L 10.881 11.8870588235294  L 9.75 11.8870588235294  L 8.203 11.8870588235294  L 6.448 11.8870588235294  L 4.706 11.8870588235294  C 4.134 11.8870588235294  3.6205 11.8847058823529  3.1655 11.88  C 2.7105 11.8752941176471  2.34 11.8729411764706  2.054 11.8729411764706  L 1.56 11.8729411764706  C 1.49066666666666 11.8729411764706  1.41916666666666 11.8541176470588  1.3455 11.8164705882353  C 1.27183333333333 11.7788235294118  1.196 11.7294117647059  1.118 11.6682352941176  C 1.04 11.6070588235294  0.968499999999998 11.5411764705882  0.903499999999998 11.4705882352941  C 0.838499999999998 11.4  0.779999999999998 11.3317647058824  0.727999999999998 11.2658823529412  C 0.667333333333331 11.1811764705882  0.628333333333331 11.1058823529412  0.610999999999998 11.04  C 0.593666666666665 10.9741176470588  0.591499999999998 10.9152941176471  0.604499999999998 10.8635294117647  C 0.617499999999998 10.8117647058824  0.641333333333332 10.7623529411765  0.675999999999998 10.7152941176471  C 0.710666666666665 10.6682352941177  0.745333333333332 10.6117647058824  0.779999999999998 10.5458823529412  C 0.814666666666665 10.4894117647059  0.873166666666665 10.3882352941177  0.955499999999998 10.2423529411765  C 1.03783333333333 10.0964705882353  1.12666666666666 9.93411764705883  1.222 9.75529411764706  L 1.534 9.21882352941177  C 1.62933333333333 9.04  1.71166666666667 8.88941176470589  1.781 8.76705882352942  C 1.85033333333333 8.64470588235295  1.90883333333333 8.55294117647059  1.9565 8.49176470588236  C 2.00416666666667 8.43058823529412  2.054 8.39058823529412  2.106 8.37176470588236  C 2.158 8.35294117647059  2.21433333333333 8.34588235294118  2.275 8.35058823529412  C 2.33566666666667 8.35529411764706  2.41366666666667 8.35764705882353  2.509 8.35764705882353  Z M 11.4595 11.1388235294118  C 11.5158333333333 11.0917647058824  11.544 11.0352941176471  11.544 10.9694117647059  C 11.544 10.9035294117647  11.518 10.8494117647059  11.466 10.8070588235294  C 11.414 10.7647058823529  11.3576666666667 10.7435294117647  11.297 10.7435294117647  L 1.807 10.7435294117647  C 1.74633333333333 10.7435294117647  1.68566666666667 10.7647058823529  1.625 10.8070588235294  C 1.56433333333333 10.8494117647059  1.534 10.9035294117647  1.534 10.9694117647059  C 1.534 11.0352941176471  1.56 11.0917647058824  1.612 11.1388235294118  C 1.664 11.1858823529412  1.72033333333333 11.2094117647059  1.781 11.2094117647059  L 11.284 11.2094117647059  C 11.3446666666667 11.2094117647059  11.4031666666667 11.1858823529412  11.4595 11.1388235294118  Z " fill-rule="nonzero" fill="#000000" stroke="none" transform="matrix(1 0 0 1 10 7 )" />
  </g>
</svg>