<?xml version="1.0" encoding="utf-8"?>
<svg version="1.1" xmlns:xlink="http://www.w3.org/1999/xlink" width="8px" height="16px" xmlns="http://www.w3.org/2000/svg">
  <g transform="matrix(1 0 0 1 -152 -12 )">
    <path d="M 7.84027778320313 15.7428833677686  C 7.73842592773438 15.8506274793388  7.60648149414063 15.904499535124  7.47222221679687 15.904499535124  C 7.33796296386719 15.904499535124  7.20601850585938 15.8506274793388  7.10416667480469 15.7428833677686  L 0.159722216796876 8.39669421487603  C -0.043981494140624 8.18120599173553  -0.043981494140624 7.83348638946281  0.159722216796876 7.61799816632231  L 0.1712962890625 7.6057545196281  L 7.10416667480469 0.271808987603305  C 7.30787038574219 0.0563207644628091  7.63657407226562 0.0563207644628091  7.84027778320312 0.271808987603305  C 8.04398149414062 0.487297210743801  8.04398149414062 0.835016813016529  7.84027778320312 1.05050506198347  L 1.26388889160156 8.00734617768595  L 7.84027778320313 14.9641873192149  C 8.04398149414063 15.1796755423554  8.04398149414063 15.5273951446281  7.84027778320313 15.7428833677686  Z " fill-rule="nonzero" fill="#ffffff" stroke="none" transform="matrix(1 0 0 1 152 12 )" />
  </g>
</svg>