<?xml version="1.0" encoding="utf-8"?>
<svg version="1.1" xmlns:xlink="http://www.w3.org/1999/xlink" width="12px" height="9px" xmlns="http://www.w3.org/2000/svg">
  <g transform="matrix(1 0 0 1 -14 -16 )">
    <path d="M 7.00375 1.5  C 7.01875445273281 1.80415840415455  6.79401417887199 2.06726896867455  6.49125 2.1  L 0.853750000000002 2.1  C 0.550985821128013 2.06726896867455  0.326245547267185 1.80415840415455  0.341250000000001 1.5  C 0.312149681542976 1.18648669818526  0.540610153490377 0.907876366542087  0.853750000000002 0.875  L 6.49125 0.875  C 6.80438984650962 0.907876366542087  7.03285031845702 1.18648669818526  7.00375 1.5  Z M 11.103126554736 4.7125  C 11.103126554736 5.01615434461405  10.8889503378569 5.27766297264345  10.59125 5.3375  L 0.85375 5.3375  C 0.556049662143093 5.27766297264345  0.34187344526401 5.01615434461405  0.34187344526401 4.7125  C 0.34187344526401 4.40884565538595  0.556049662143093 4.14733702735655  0.85375 4.0875  L 10.59125 4.0875  C 10.8889503378569 4.14733702735655  11.103126554736 4.40884565538595  11.103126554736 4.7125  Z M 11.103126554736 7.95  C 11.103126554736 8.25365434461405  10.8889503378569 8.51516297264345  10.59125 8.575  L 0.85375 8.575  C 0.556049662143093 8.51516297264345  0.34187344526401 8.25365434461405  0.34187344526401 7.95  C 0.34187344526401 7.64634565538595  0.556049662143093 7.38483702735655  0.85375 7.325  L 10.59125 7.325  C 10.8889503378569 7.38483702735655  11.103126554736 7.64634565538595  11.103126554736 7.95  Z " fill-rule="nonzero" fill="#f4a121" stroke="none" transform="matrix(1 0 0 1 14 16 )" />
  </g>
</svg>