<?xml version="1.0" encoding="utf-8"?>
<svg version="1.1" xmlns:xlink="http://www.w3.org/1999/xlink" width="20px" height="17px" xmlns="http://www.w3.org/2000/svg">
  <g transform="matrix(1 0 0 1 -11 -12 )">
    <path d="M 17.7267759562842 1.95757575757576  L 17.7267759562842 10.6121212121212  L 17.792349726776 10.6121212121212  L 2.18579234972678 10.6121212121212  L 2.18579234972678 1.87515151515152  C 2.18579234972678 1.29818181818182  2.33879781420765 0.855151515151516  2.6448087431694 0.546060606060607  C 2.95081967213115 0.236969696969698  3.41712204007286 0.0824242424242434  4.04371584699454 0  L 15.9562841530055 0  C 16.6120218579235 0.0824242424242433  17.0746812386157 0.257575757575759  17.344262295082 0.607878787878789  C 17.6138433515483 0.958181818181819  17.7413479052823 1.40808080808081  17.7267759562842 1.95757575757576  Z M 16.1092896174863 8  L 16.1092896174863 1.52484848484848  L 3.73770491803279 1.52484848484848  L 3.73770491803279 8  L 16.1092896174863 8  Z M 10.9071038251366 9.54060606060606  C 10.9945355191257 9.47191919191919  11.0382513661202 9.40323232323233  11.0382513661202 9.33454545454545  C 11.0382513661202 9.14222222222222  10.8998178506375 9.03232323232323  10.6229508196721 9.00484848484848  L 9.2896174863388 9.00484848484848  C 9.01275045537341 9.00484848484849  8.87431693989071 9.11474747474747  8.87431693989071 9.33454545454545  C 8.87431693989071 9.40323232323233  8.91074681238616 9.47191919191919  8.98360655737705 9.54060606060606  C 9.05646630236794 9.60929292929293  9.1511839708561 9.65050505050505  9.26775956284153 9.66424242424242  L 10.5792349726776 9.64363636363636  C 10.7103825136612 9.64363636363636  10.8196721311475 9.60929292929293  10.9071038251366 9.54060606060606  Z M 3.23497267759563 11.7866666666667  L 17.3551912568306 11.7866666666667  C 17.5154826958106 11.7866666666667  17.6247723132969 11.8347474747475  17.6830601092896 11.9309090909091  C 17.7413479052823 12.0270707070707  17.8287795992714 12.1644444444444  17.9453551912568 12.3430303030303  C 18.0036429872495 12.4391919191919  18.1129326047359 12.6109090909091  18.2732240437158 12.8581818181818  C 18.4335154826958 13.1054545454545  18.6047358834244 13.369898989899  18.7868852459016 13.6515151515152  C 18.9690346083789 13.9331313131313  19.1402550091075 14.1975757575758  19.3005464480874 14.4448484848485  C 19.4608378870674 14.6921212121212  19.5701275045537 14.8569696969697  19.6284153005464 14.9393939393939  C 19.7449908925319 15.1179797979798  19.8433515482696 15.2862626262626  19.9234972677596 15.4442424242424  C 20.0036429872495 15.6022222222222  19.9489981785064 15.7911111111111  19.7595628415301 16.0109090909091  C 19.3806921675774 16.4367676767677  19.0528233151184 16.6977777777778  18.775956284153 16.7939393939394  C 18.4990892531876 16.890101010101  18.287795992714 16.9381818181818  18.1420765027322 16.9381818181818  L 17.3114754098361 16.9381818181818  L 15.4098360655738 16.9381818181818  L 12.8087431693989 16.9381818181818  L 9.85792349726776 16.9381818181818  L 6.92896174863388 16.9381818181818  C 5.9672131147541 16.9381818181818  5.10382513661202 16.9347474747475  4.33879781420765 16.9278787878788  C 3.57377049180328 16.9210101010101  2.95081967213115 16.9175757575758  2.46994535519125 16.9175757575758  L 1.63934426229508 16.9175757575758  C 1.52276867030965 16.9175757575758  1.40255009107468 16.890101010101  1.27868852459016 16.8351515151515  C 1.15482695810564 16.780202020202  1.02732240437158 16.7080808080808  0.896174863387975 16.6187878787879  C 0.765027322404368 16.529494949495  0.644808743169396 16.4333333333333  0.535519125683057 16.330303030303  C 0.426229508196718 16.2272727272727  0.327868852459013 16.1276767676768  0.240437158469942 16.0315151515152  C 0.138433515482693 15.9078787878788  0.0728597449908894 15.7979797979798  0.0437158469945323 15.7018181818182  C 0.0145719489981753 15.6056565656566  0.0109289617486307 15.519797979798  0.0327868852458984 15.4442424242424  C 0.0546448087431663 15.3686868686869  0.0947176684881572 15.2965656565657  0.153005464480871 15.2278787878788  C 0.211293260473585 15.1591919191919  0.269581056466299 15.0767676767677  0.327868852459013 14.9806060606061  C 0.386156648451727 14.8981818181818  0.484517304189432 14.7505050505051  0.622950819672128 14.5375757575758  C 0.761384335154824 14.3246464646465  0.910746812386154 14.0876767676768  1.07103825136612 13.8266666666667  L 1.59562841530054 13.0436363636364  C 1.75591985428051 12.7826262626263  1.8943533697632 12.5628282828283  2.01092896174863 12.3842424242424  C 2.12750455373406 12.2056565656566  2.22586520947176 12.0717171717172  2.30601092896175 11.9824242424242  C 2.38615664845173 11.8931313131313  2.46994535519125 11.8347474747475  2.55737704918032 11.8072727272727  C 2.6448087431694 11.779797979798  2.73952641165756 11.769494949495  2.84153005464481 11.7763636363636  C 2.94353369763206 11.7832323232323  3.07468123861566 11.7866666666667  3.23497267759563 11.7866666666667  Z M 18.2841530054645 15.8460606060606  C 18.3788706739526 15.7773737373737  18.4262295081967 15.6949494949495  18.4262295081967 15.5987878787879  C 18.4262295081967 15.5026262626263  18.3825136612022 15.4236363636364  18.2950819672131 15.3618181818182  C 18.207650273224 15.3  18.1129326047359 15.2690909090909  18.0109289617486 15  L 2.05464480874317 15  C 1.95264116575592 15.2690909090909  1.85063752276867 15.3  1.74863387978142 15.3618181818182  C 1.64663023679417 15.4236363636364  1.59562841530055 15.5026262626263  1.59562841530055 15.5987878787879  C 1.59562841530055 15.6949494949495  1.63934426229508 15.7773737373737  1.72677595628415 15.8460606060606  C 1.81420765027322 15.9147474747475  1.90892531876139 15.9490909090909  2.01092896174863 16  L 17.9890710382514 16  C 18.0910746812386 15.9490909090909  18.1894353369763 15.9147474747475  18.2841530054645 15.8460606060606  Z " fill-rule="nonzero" fill="#ffffff" stroke="none" transform="matrix(1 0 0 1 11 12 )" />
  </g>
</svg>