<?xml version="1.0" encoding="utf-8"?>
<svg version="1.1" xmlns:xlink="http://www.w3.org/1999/xlink" width="18px" height="20px" xmlns="http://www.w3.org/2000/svg">
  <g transform="matrix(1 0 0 1 -11 -10 )">
    <path d="M 13.62875 0  L 2.76625 0  C 1.38553812542302 0  0.26625 1.11928812542302  0.26625 2.5  L 0.26625 17.5  C 0.26625 18.880711874577  1.38553812542302 20  2.76625 20  L 15.26625 20  C 16.646961874577 20  17.76625 18.880711874577  17.76625 17.5  L 17.90375 4.4  L 13.62875 0  Z M 12.76625 4.3875  L 12.76625 1.25  L 16.51625 5  L 13.37875 5  C 13.0404755907286 5  12.76625 4.72577440927136  12.76625 4.3875  Z M 16.51625 17.5  C 16.51625 18.1903559372885  15.9566059372885 18.75  15.26625 18.75  L 2.76625 18.75  C 2.07589406271151 18.75  1.51625 18.1903559372885  1.51625 17.5  L 1.51625 2.5  C 1.51625 1.80964406271151  2.07589406271151 1.25  2.76625 1.25  L 11.51625 1.25  L 11.51625 5  C 11.51625 5.69035593728849  12.0758940627115 6.25  12.76625 6.25  L 16.51625 6.25  L 16.51625 17.5  Z " fill-rule="nonzero" fill="#333333" stroke="none" transform="matrix(1 0 0 1 11 10 )" />
  </g>
</svg>