<?xml version="1.0" encoding="utf-8"?>
<svg version="1.1" xmlns:xlink="http://www.w3.org/1999/xlink" width="9px" height="11px" xmlns="http://www.w3.org/2000/svg">
  <g transform="matrix(1 0 0 1 -17 -37 )">
    <path d="M 1.65062499999999 6.166484375  L 1.715078125 2.100078125  C 1.717890625 1.91046875  1.623203125 1.789765625  1.5634375 1.75578125000001  L 0.250468749999996 1.00812500000001  C 0.198671874999995 0.978593750000002  0.0939062499999963 0.985390625000001  0.0908593749999973 1.175  L 0.0264062499999973 5.236953125  C 0.0233593749999947 5.426328125  0.118281249999995 5.547265625  0.177812499999995 5.581484375  L 1.491015625 6.332890625  C 1.5428125 6.36265625  1.647578125 6.356328125  1.65062499999999 6.166484375  Z M 4.302578125 7.68359375  L 4.3665625 3.61015625  C 4.369375 3.420546875  4.2746875 3.299375  4.214921875 3.26539062499999  L 2.901953125 2.51796875  C 2.85015625 2.4884375  2.745390625 2.495234375  2.74234375 2.685078125  L 2.678125 6.75429687499999  C 2.675078125 6.94390625  2.77 7.06507812499999  2.829765625 7.099296875  L 4.14296875 7.850703125  C 4.194765625 7.88046875  4.29953125 7.873671875  4.302578125 7.68359375  Z M 6.21015625 8.8934375  L 6.27765625 4.58046875  C 6.27953125 4.447109375  6.2125 4.4028125  6.19515625 4.39296875  L 5.482421875 3.98703125  C 5.466484375 3.978125  5.3978125 3.94601562499999  5.395703125 4.078203125  L 5.328203125 8.38859375  C 5.32609375 8.52171875000001  5.393125 8.56625  5.41046875 8.57609375000001  L 6.123671875 8.984375  C 6.139375 8.99328125  6.20828125 9.025625  6.21015625 8.8934375  Z M 8.57921875 10.101171875  L 8.6415625 6.074375  C 8.644609375 5.8746875  8.545703125 5.731484375  8.4728125 5.689765625  L 7.01078125 4.85750000000001  C 6.946328125 4.820703125  6.836171875 4.84578125  6.833125 5.04453125000001  L 6.770546875 9.06640625000001  C 6.7675 9.26609375  6.86640625 9.409296875  6.939296875 9.45125  L 8.4015625 10.28796875  C 8.466015625 10.324765625  8.576171875 10.299921875  8.57921875 10.101171875  Z " fill-rule="nonzero" fill="#ad95a2" stroke="none" transform="matrix(1 0 0 1 17 37 )" />
  </g>
</svg>