<?xml version="1.0" encoding="utf-8"?>
<svg version="1.1" xmlns:xlink="http://www.w3.org/1999/xlink" width="4px" height="4px" xmlns="http://www.w3.org/2000/svg">
  <g transform="matrix(1 0 0 1 -414 -57 )">
    <path d="M 2.450390625 0.751980468750001  L 2.44201171875 0.752906250000001  C 2.11616981525405 0.431526197428847  1.59259190349595 0.431526197428847  1.26675 0.752906250000002  C 1.15676263660373 0.862049214710419  1.07974686297981 0.999969304173829  1.04452734375 1.15086328125  C 1.04452734375 1.16759765625  1.0370859375 1.18340625  1.034296875 1.200140625  C 1.0315078125 1.216875  1.034296875 1.233609375  1.02779296875 1.25034375  C 0.932445504779306 1.75640685763968  0.685322226789537 2.22146131220666  0.319277343749999 2.5836796875  C 0.292324218749999 2.61064453125  0.263496093749999 2.637609375  0.23560546875 2.6627109375  C 0.198121796442576 2.69943683581307  0.176998804478266 2.74970481434375  0.176998804478266 2.802181640625  C 0.176998804478266 2.85465846690625  0.198121796442576 2.90492644543693  0.23560546875 2.94165234375  C 0.307981276557487 3.01284282446192  0.422102347834825 3.01882749195795  0.501527343749998 2.95559765625  L 0.516410156249997 2.94165234375  C 0.525403481650338 2.93346978538109  0.53322347309859 2.92408421823694  0.539648437499997 2.91376171875  L 0.595429687499997 2.85704296875  C 0.953614092602995 2.50022687595511  1.40950709460702 2.25756106021869  1.90552734375 2.1596953125  C 1.93230991840817 2.15833527249917  1.95900046510926 2.15554221221123  1.985484375 2.151328125  C 2.0168765421988 2.14689688942271  2.04793781325124 2.14037457059571  2.0784609375 2.1318046875  C 2.44024892439428 2.03647861800755  2.69236841643756 1.70932432937531  2.69236841643756 1.33518851581839  C 2.69236841643756 1.11636348745673  2.60530661343383 0.906529585748606  2.450390625 0.751980468750001  Z " fill-rule="nonzero" fill="#0080ed" stroke="none" transform="matrix(1 0 0 1 414 57 )" />
  </g>
</svg>