<?xml version="1.0" encoding="utf-8"?>
<svg version="1.1" xmlns:xlink="http://www.w3.org/1999/xlink" width="13px" height="11px" xmlns="http://www.w3.org/2000/svg">
  <g transform="matrix(1 0 0 1 -403 -50 )">
    <path d="M 11.1019301470588 2.80428125  L 11.0958088235294 2.802625  C 10.8726797508202 2.37600332027577  10.579385232243 1.9854667842846  10.2268345588235 1.64554166666667  C 9.26445235194868 0.740802805434388  8.00136829227831 0.176893804395011  6.65027205882353 0.0487708333333333  C 6.40445507205096 0.0226725374284521  6.15729888020871 0.0094231726163771  5.90993382352941 0.00908333333333334  C 5.67311867740106 0.00945531310136937  5.43649659265246 0.0218726012098744  5.20109558823529 0.04628125  C 3.84428653774866 0.168213246645138  2.57373264570505 0.729073891470778  1.60440441176471 1.63396875  C 1.24973684956 1.97351759796563  0.954365557256048 2.36406830358539  0.729308823529411 2.79105208333333  C 0.434817872997299 3.34712404600349  0.281417517693107 3.9603025438303  0.28125 4.58205208333333  C 0.285659623364673 5.39540221539451  0.546773748485604 6.18903558657541  1.03121691176471 6.86151041666667  C 1.32684445274203 7.26595122638567  1.67198183717157 7.63602498963188  2.05946691176471 7.96405208333333  L 1.89057352941176 9.20957291666667  C 1.88444117647059 9.22692708333333  1.87656617647059 9.24344791666666  1.8721875 9.2608125  C 1.86780882352941 9.27817708333333  1.8721875 9.29469791666667  1.86606617647059 9.31122916666667  C 1.85994485294118 9.32776041666667  1.86606617647059 9.33602083333333  1.86606617647059 9.34925  L 1.86606617647059 9.38973958333333  C 1.88849159564967 9.59755451337844  2.07368860840706 9.75569089867086  2.29486764705882 9.75588541666666  C 2.37019480111037 9.75516327820191  2.44404867855146 9.73608583727821  2.50927941176471 9.7005  L 2.51540073529412 9.7005  L 2.54253308823529 9.685625  L 2.94594485294118 9.49553125  L 4.14922058823529 8.92938541666666  C 4.4929174125517 9.02059555900717  4.84423450387941 9.0839159365197  5.19934191176471 9.11865625  C 5.43471120536834 9.14342446870374  5.67135433757934 9.155839383759  5.90818014705882 9.15584375  C 6.15556156314082 9.15524931315179  6.40271869191869 9.14172865024624  6.64851838235294 9.11534375  C 7.13209079824411 9.06322064731907  7.60774996116607 8.95895423482821  8.06619485294118 8.80458333333333  C 8.01680352208423 8.7886104061568  7.96905790334078 8.76841562190998  7.92355147058824 8.74425  C 7.65723315614991 8.60213146869962  7.50459183291874 8.32515143985654  7.534125 8.03760416666666  C 7.20667979908982 8.13529816298342  6.86991652512402 8.20256175139456  6.52862867647059 8.2384375  C 6.32268890169833 8.26124142553052  6.11553026438636 8.27283350545049  5.90818014705882 8.27315625  C 5.70968240599184 8.27283502391616  5.51134074296558 8.26262640020882  5.31398161764706 8.24257291666666  L 5.19146691176471 8.226875  C 4.92251488908892 8.19385937367171  4.65659898204419 8.14164039131872  4.39600367647059 8.07066666666666  C 4.34249310873306 8.05473764096286  4.28671224641154 8.04665407797039  4.23060661764706 8.04669791666666  C 4.13888983736275 8.04800721962042  4.04884985886972 8.07011782252572  3.96807352941177 8.11116666666667  C 3.95634540954658 8.11600429861918  3.94494500934582 8.12152175670951  3.9339375 8.1276875  L 2.94595588235294 8.674  L 2.90307352941176 8.69714583333333  C 2.88987938253547 8.70592289966146  2.87450731278694 8.71133039478542  2.85844852941176 8.71284375  C 2.82192115958438 8.71194005564058  2.79281099893981 8.68370782047578  2.79282352941177 8.64919791666667  L 2.83044485294118 8.50457291666667  L 2.87506985294118 8.34836458333333  L 2.94683823529412 8.0905  L 3.0264705882353 7.80370833333333  C 3.03921832214801 7.76544399472327  3.04599900696392 7.72563053814293  3.04659926470588 7.68552083333333  C 3.04682369475801 7.56109506784882  2.98405503959159 7.44406509485357  2.87770588235294 7.370625  C 2.73307428698125 7.27019513011357  2.59512932192307 7.16144759513179  2.46465441176471 7.045  C 2.2443560748628 6.85038787872962  2.04823632885588 6.6327185973736  1.88008455882353 6.39619791666667  C 1.49730751396212 5.86606342629121  1.29044265843873 5.24024375858877  1.28588602941176 4.59859375  C 1.28530995043408 4.10932690220082  1.40514249413929 3.62662871436723  1.63592647058824 3.18859375  C 1.81597568491405 2.84725424941733  2.05227890375516 2.53508524072284  2.33600735294118 2.26375  C 3.13855156936983 1.51702184125857  4.18963955225464 1.05512731548842  5.31135661764706 0.95625  C 5.71492848354136 0.912740188442759  6.12243181057628 0.912740188442759  6.52600367647059 0.95625  C 7.64247168463765 1.06055251618993  8.6869165502904 1.52457606058573  9.48387132352941 2.27036458333333  C 9.76778837423744 2.5427907941619  10.0040920142704 2.85607493664692  10.1839522058824 3.19851041666667  C 10.4126758322759 3.63282610242252  10.532449668063 4.11104630861081  10.5339926470588 4.59611458333333  C 10.5339926470588 4.64652083333333  10.5339926470588 4.69611458333333  10.5278602941176 4.74653125  C 10.8364466345069 4.56910537081199  11.2332751623265 4.61271219351909  11.4904852941176 4.8523125  C 11.5036102941176 4.86470833333333  11.5141102941176 4.8779375  11.5263639705882 4.89116666666667  C 11.5351233418831 4.78806136698253  11.5395018587675 4.6846658182683  11.5394889705882 4.58122916666667  C 11.5399707202535 3.96504684249344  11.3902516590191 3.35703036644587  11.1019301470588 2.80428125  Z " fill-rule="nonzero" fill="#2484dd" stroke="none" transform="matrix(1 0 0 1 403 50 )" />
  </g>
</svg>