<?xml version="1.0" encoding="utf-8"?>
<svg version="1.1" xmlns:xlink="http://www.w3.org/1999/xlink" width="4px" height="4px" xmlns="http://www.w3.org/2000/svg">
  <g transform="matrix(1 0 0 1 -411 -56 )">
    <path d="M 1.7540859375 2.15469140625  L 1.75780078125 2.153765625  C 1.75780078125 2.13703125  1.76337890625 2.120296875  1.7652421875 2.10355078125  C 1.86004902906963 1.597503862818  2.10688071502751 1.13238679204572  2.4728203125 0.7702265625  L 2.5564921875 0.691195312499998  C 2.59374347567749 0.654344649778452  2.61470504005288 0.604123367126492  2.61470504005288 0.551724609374998  C 2.61470504005288 0.499325851623504  2.59374347567749 0.449104568971544  2.5564921875 0.412253906249998  C 2.48436506167636 0.341073390546883  2.37026534548136 0.335467305959381  2.2915078125 0.399234375  L 2.27569921875 0.4122421875  C 2.26770086097051 0.421080264266992  2.26024950205081 0.430398376445464  2.25338671875 0.44014453125  L 2.19666796875 0.49686328125  C 1.83885631032334 0.854177234159636  1.38280639457444 1.09692874440589  0.88658203125 1.1942109375  C 0.86054296875 1.1942109375  0.833578124999999 1.1942109375  0.806613281249999 1.203515625  C 0.777030395926161 1.20736420460476  0.747803866332761 1.21357944675214  0.719214843749999 1.2221015625  C 0.357431414800997 1.31743093344959  0.105316635104022 1.64458304428801  0.105316635104022 2.01871529153188  C 0.105316635104022 2.23754151849493  0.19237938918479 2.44737646809858  0.347296875000002 2.60192578125  C 0.673140181263911 2.92331353941804  1.19672700623609 2.92331353941804  1.5225703125 2.60192578125  C 1.63291884874883 2.49306385037814  1.70999345453013 2.35503518973466  1.74478125 2.20398046875  C 1.74478125 2.187234375  1.751296875 2.1714375  1.7540859375 2.15469140625  Z " fill-rule="nonzero" fill="#fcc935" stroke="none" transform="matrix(1 0 0 1 411 56 )" />
  </g>
</svg>