<?xml version="1.0" encoding="utf-8"?>
<svg version="1.1" xmlns:xlink="http://www.w3.org/1999/xlink" width="4px" height="4px" xmlns="http://www.w3.org/2000/svg">
  <g transform="matrix(1 0 0 1 -412 -58 )">
    <path d="M 1.96676953125 1.3561171875  L 1.96398046875 1.3551796875  C 1.94773616189353 1.35118702963158  1.93128587130644 1.34808475128781  1.914703125 1.34588671875  C 1.8981167282485 1.34249398934382  1.88135738670742 1.34000981990437  1.8645 1.3384453125  C 1.35603655756638 1.24510888290808  0.887864051235776 0.999679135018296  0.521859374999998 0.634593750000001  C 0.494261059157005 0.607937715138069  0.467592779675779 0.58033528370081  0.441902343749999 0.551835937499999  C 0.364484391806876 0.475756765379554  0.240378889443122 0.475756765379553  0.162960937499999 0.5518359375  C 0.0912050169437744 0.623219885637587  0.0851776592780089 0.737349675791104  0.149015624999999 0.815894531250001  L 0.162960937499999 0.83077734375  C 0.1715942084769 0.839286886693909  0.180923550845557 0.847060032037205  0.190851562499999 0.854015625  L 0.248507812499999 0.908882812499999  C 0.606614540327603 1.26342393717029  0.851000794048136 1.71659698465167  0.950496093749999 2.2106015625  C 0.951860151046467 2.23769532940792  0.954657030559239 2.26469792979487  0.958874999999999 2.29149609375  C 0.964453124999999 2.32032421875  0.970031249999999 2.349140625  0.9774609375 2.37796875  C 1.01536583280483 2.51694004637901  1.08948854460002 2.64335588852631  1.19225390625 2.744296875  C 1.51809721251391 3.06568463316804  2.04168403748609 3.06568463316804  2.36752734375 2.744296875  C 2.52380062056325 2.5901868367988  2.61177818515568 2.379866195969  2.61177818515568 2.16038671875  C 2.61177818515568 1.940907241531  2.52380062056324 1.7305866007012  2.36752734375 1.5764765625  C 2.2572338314277 1.46691562123146  2.11836771591774 1.39055915488696  1.96676953125 1.3561171875  Z " fill-rule="nonzero" fill="#fa6a07" stroke="none" transform="matrix(1 0 0 1 412 58 )" />
  </g>
</svg>