<?xml version="1.0" encoding="utf-8"?>
<svg version="1.1" xmlns:xlink="http://www.w3.org/1999/xlink" width="4px" height="4px" xmlns="http://www.w3.org/2000/svg">
  <g transform="matrix(1 0 0 1 -413 -55 )">
    <path d="M 0.418078125000001 0.609609375000002  L 0.425507812499998 0.610535156249999  C 0.270580573369938 0.765389146118948  0.183537196451894 0.975460196495554  0.183537196451894 1.19450861032865  C 0.183537196451894 1.58002513856529  0.450320445599947 1.9142297079483  0.826253906249999 1.99965234375  L 0.876468749999999 2.0089453125  L 0.926671875 2.0154609375  C 1.43505834208927 2.10902041684813  1.90316816664772 2.35441730511603  2.2693125 2.7193125  L 2.34926953125 2.8020703125  C 2.42688828463893 2.87765707046928  2.55059218411107 2.87765707046928  2.6282109375 2.8020703125  C 2.7004125172249 2.73113183694182  2.70607179928751 2.61665118880321  2.64121875 2.5389375  C 2.63739843206125 2.5332640427023  2.63304253320809 2.52797025211408  2.6282109375 2.52312890625  C 2.6195671279341 2.51490992275967  2.6102362545904 2.50744522408471  2.6003203125 2.50081640625  L 2.5426640625 2.44503515625  C 2.18386512724632 2.09101085829954  1.93935411805084 1.63761404170242  1.8406640625 1.14331640625  C 1.8406640625 1.11633984375  1.8406640625 1.089375  1.832296875 1.06334765625  C 1.8239296875 1.0373203125  1.82021484375 1.004765625  1.8127734375 0.975937500000001  C 1.71088892049462 0.6155824024427  1.38199727386678 0.3667866769312  1.00751596439867 0.3667866769312  C 0.786694401302997 0.3667866769312  0.574823521869562 0.454068244464634  0.418078125000001 0.609609375000002  Z " fill-rule="nonzero" fill="#33bd00" stroke="none" transform="matrix(1 0 0 1 413 55 )" />
  </g>
</svg>