<?xml version="1.0" encoding="utf-8"?>
<svg version="1.1" xmlns:xlink="http://www.w3.org/1999/xlink" width="30px" height="18px" xmlns="http://www.w3.org/2000/svg">
  <g transform="matrix(1 0 0 1 -328 -9 )">
    <path d="M 29.625 6.6  C 29.625 6.06152236891498  29.188477631085 5.625  28.65 5.625  L 27.375 5.625  L 27.375 2.25  C 27.375 1.62867965644036  26.8713203435596 1.125  26.25 1.125  L 1.5 1.125  C 0.878679656440357 1.125  0.375 1.62867965644036  0.375 2.25  L 0.375 15.75  C 0.375 16.3713203435596  0.878679656440357 16.875  1.5 16.875  L 26.25 16.875  C 26.8696182931623 16.8709099769186  27.3709099769186 16.3696182931623  27.375 15.75  L 27.375 12.375  L 28.65 12.375  C 29.188477631085 12.375  29.625 11.938477631085  29.625 11.4  L 29.625 6.6  Z M 25 3.375  L 25 14.625  L 3 14.625  L 3 3.375  L 25 3.375  Z " fill-rule="nonzero" fill="#030000" stroke="none" transform="matrix(1 0 0 1 328 9 )" />
  </g>
</svg>