<?xml version="1.0" encoding="utf-8"?>
<svg version="1.1" xmlns:xlink="http://www.w3.org/1999/xlink" width="15px" height="18px" xmlns="http://www.w3.org/2000/svg">
  <g transform="matrix(1 0 0 1 -300 -9 )">
    <path d="M 13.875 17.5625  C 13.375 17.625  13 17.25  13 16.75  L 13 6.3125  C 13 5.8125  13.375 5.4375  13.875 5.4375  L 13.9375 5.4375  C 14.4375 5.4375  14.8125 5.8125  14.8125 6.3125  L 14.8125 16.6875  C 14.8125 17.1875  14.4375 17.5625  13.9375 17.5625  L 13.875 17.5625  Z M 8.875 17.8125  C 8.375 17.8125  8 17.4375  8 16.9375  L 8 10.1875  C 8 9.6875  8.375 9.3125  8.875 9.3125  L 8.9375 9.3125  C 9.4375 9.3125  9.8125 9.6875  9.8125 10.1875  L 9.8125 16.9375  C 9.8125 17.4375  9.4375 17.8125  8.9375 17.8125  L 8.875 17.8125  Z M 3.8125 17.625  C 3.3125 17.625  2.9375 17.25  2.9375 16.75  L 2.9375 13.75  C 2.9375 13.25  3.3125 12.875  3.8125 12.875  L 3.875 12.875  C 4.375 12.875  4.75 13.25  4.75 13.75  L 4.75 16.75  C 4.75 17.25  4.375 17.625  3.875 17.625  L 3.8125 17.625  Z M 3.0625 7.375  C 2.6875 7.5  2.25 7.5  1.8125 7.5  L 1 7.5  C 0.75 7.5  0.5625 7.4375  0.3125 7.375  L 0.3125 6.125  C 0.4375 6.125  0.5625 6.1875  0.6875 6.1875  C 0.8125 6.1875  0.875 6.25  1 6.25  C 1.125 6.25  1.1875 6.25  1.3125 6.3125  L 1.6875 6.3125  C 1.9375 6.3125  2.125 6.3125  2.3125 6.25  C 2.5 6.1875  2.6875 6.1875  2.8125 6.0625  C 2.9375 6  3.0625 5.875  3.125 5.75  C 3.1875 5.625  3.25 5.4375  3.25 5.25  C 3.25 4.875  3.125 4.5625  2.875 4.4375  C 2.625 4.3125  2.25 4.1875  1.6875 4.1875  C 1.5 4.1875  1.25 4.1875  1 4.25  C 0.75 4.25  0.5 4.3125  0.25 4.375  L 0.75 0.624999999999998  L 4.25 0.624999999999998  L 4.25 1.8125  L 1.9375 1.8125  L 1.6875 3.1875  C 1.8125 3.1875  1.9375 3.125  2.0625 3.125  L 2.4375 3.125  C 3.1875 3.125  3.75 3.3125  4.1875 3.625  C 4.5 4  4.75 4.5  4.75 5.25  C 4.75 5.625  4.6875 6  4.5625 6.25  C 4.4375 6.5625  4.25 6.75  4 6.9375  C 3.75 7.125  3.4375 7.25  3.0625 7.375  Z M 10.5 7.4375  C 10.0625 7.5  9.6875 7.5  9.25 7.5  C 8.75 7.5  8.25 7.4375  7.8125 7.375  C 7.375 7.25  7.0625 7.125  6.75 6.8125  C 6.4375 6.5625  6.25 6.1875  6.0625 5.75  C 5.9375 5.3125  5.875 4.6875  5.875 4  C 5.875 3.375  5.9375 2.8125  6.125 2.3125  C 6.3125 1.875  6.5 1.5  6.8125 1.25  C 7.125 1  7.4375 0.75  7.875 0.6875  C 8.3125 0.5625  8.75 0.5  9.3125 0.5  L 9.8125 0.5  C 10 0.5  10.125 0.5  10.3125 0.5625  C 10.5 0.5625  10.625 0.625  10.75 0.625  C 10.875 0.625  11 0.6875  11.125 0.75  L 11.125 2.0625  C 10.875 2  10.5625 1.875  10.3125 1.875  C 10 1.8125  9.6875 1.8125  9.4375 1.8125  C 9.125 1.8125  8.8125 1.875  8.5625 1.9375  C 8.3125 2  8.125 2.125  8 2.3125  C 7.875 2.5  7.75 2.6875  7.625 3  C 7.5625 3.1875  7.5 3.5625  7.5 4  C 7.5 4.4375  7.5625 4.8125  7.625 5.125  C 7.6875 5.4375  7.8125 5.625  7.9375 5.8125  C 8.0625 6  8.25 6.125  8.5 6.1875  C 8.75 6.25  9 6.3125  9.375 6.3125  L 9.75 6.3125  C 9.875 6.3125  10 6.3125  10.125 6.25  L 10.125 4.75  L 8.9375 4.75  L 8.9375 3.5  L 11.5 3.5  L 11.5 7.25  C 11.25 7.3125  10.9375 7.4375  10.5 7.4375  Z " fill-rule="nonzero" fill="#2c2c2c" stroke="none" transform="matrix(1 0 0 1 300 9 )" />
  </g>
</svg>