<?xml version="1.0" encoding="utf-8"?>
<svg version="1.1" xmlns:xlink="http://www.w3.org/1999/xlink" width="25px" height="25px" xmlns="http://www.w3.org/2000/svg">
  <g transform="matrix(1 0 0 1 -45 -384 )">
    <path d="M 7.8394819523738 12.5  C 7.8394819523738 14.6422030248397  6.08974358974359 16.3755886919071  3.94754056490385 16.3755886919071  C 1.80533750876402 16.3755886919071  0.0719518729967948 14.6422030248397  0.0719518729967948 12.5  C 0.0719518729967948 10.3577969751603  1.8053375400641 8.62441130809295  3.94754056490385 8.62441130809295  C 6.08974358974359 8.62441130809295  7.8394819523738 10.3577969751603  7.8394819523738 12.5  Z M 18.4033228791066 3.94754056490385  C 18.4033229104067 6.08974358974359  16.6699372120393 7.8394819523738  14.5277341558994 7.8394819523738  C 12.3855311310597 7.8394819523738  10.6521454639924 6.10609628530649  10.6521454639924 3.96389326046675  C 10.6521454639924 1.821690235627  12.3855311310597 0.0719518729967948  14.5277341558994 0.0719518729967948  C 16.6699371807392 0.0719518729967948  18.4033228478065 1.8053375400641  18.4033228791066 3.94754056490385  Z M 24.9280481270032 21.0524594350962  C 24.9280481270032 23.1946624599359  23.1946624599359 24.9280481270032  21.0524594350962 24.9280481270032  C 18.9102564102564 24.9280481270032  17.1768707431891 23.1946624599359  17.1768707431891 21.0524594350962  C 17.1768707431891 18.9102564102564  18.9102564102564 17.1768707431891  21.0524594350962 17.1768707431891  C 23.1946624599359 17.1768707431891  24.9280481270032 18.9102564102564  24.9280481270032 21.0524594350962  Z " fill-rule="nonzero" fill="#02a7f0" stroke="none" transform="matrix(1 0 0 1 45 384 )" />
  </g>
</svg>