<?xml version="1.0" encoding="utf-8"?>
<svg version="1.1" xmlns:xlink="http://www.w3.org/1999/xlink" width="13px" height="15px" xmlns="http://www.w3.org/2000/svg">
  <g transform="matrix(1 0 0 1 -51 -390 )">
    <path d="M 0.960925821741616 5.16415260912025  C 0.847685399199694 5.24733806046196  0.734444976657775 5.28061224099864  0.62120458508003 5.28061224099864  C 0.427078146436738 5.28061224099864  0.216774535537348 5.18078969938859  0.103534082031249 4.99778170643682  C -0.0744151533917684 4.69831408160666  -0.00970634051067122 4.31566103727921  0.281483317454268 4.11601598590353  L 6.20233947932546 0.139751539147418  C 6.4935291372904 -0.0432564538043481  6.86560478039253 0.023291907269021  7.05973121903582 0.322759532099185  C 7.23768045445884 0.622227156929348  7.17297164157774 1.00488020125679  6.8817819836128 1.2045252844769  L 0.960925821741616 5.16415260912025  Z M 12.8673469274009 14.6472937117867  C 12.7702837080793 14.8635758852751  12.5438028629954 14.9966726074219  12.333499252096 14.9966725755774  C 12.2364360327744 14.9966725755774  12.1393728134527 14.9800354853091  12.0584867973514 14.9301242145041  L 0.97710302496189 9.00732033372962  C 0.669736163776676 8.8409494310462  0.556495772198933 8.45829638671875  0.718267804401677 8.15882876188859  C 0.880039836604421 7.84272404679008  1.25211547970656 7.72626444675612  1.54330513767149 7.89263531759511  L 12.6085117068407 13.7988021399457  C 12.9158785680259 13.9651730426291  13.0291189596037 14.3478260869565  12.8673469274009 14.6472937117867  Z " fill-rule="nonzero" fill="#02a7f0" stroke="none" transform="matrix(1 0 0 1 51 390 )" />
  </g>
</svg>