<?xml version="1.0" encoding="utf-8"?>
<svg version="1.1" xmlns:xlink="http://www.w3.org/1999/xlink" width="20px" height="7px" xmlns="http://www.w3.org/2000/svg">
  <g transform="matrix(1 0 0 1 -10 -12 )">
    <path d="M 2.09577114427861 1.390625  C 0.939054726368159 1.39375  0 2.334375  0 3.496875  C 0 4.659375  0.939054726368159 5.603125  2.09577114427861 5.603125  C 3.25248756218905 5.603125  4.19154228855721 4.659375  4.19154228855721 3.496875  C 4.19154228855721 2.334375  3.25248756218905 1.390625  2.09577114427861 1.390625  Z M 9.95024875621891 0.075  C 8.06902985074627 0.075  6.54539800995025 1.609375  6.54539800995025 3.496875  C 6.54539800995025 5.3875  8.06902985074627 6.91875  9.95024875621891 6.91875  C 11.8314676616915 6.91875  13.3550995024876 5.3875  13.3550995024876 3.496875  C 13.3550995024876 1.60625  11.8314676616915 0.075  9.95024875621891 0.075  Z M 17.8078358208955 1.390625  C 16.6480099502488 1.39375  15.7120646766169 2.334375  15.7120646766169 3.496875  C 15.7120646766169 4.659375  16.6511194029851 5.603125  17.8078358208955 5.603125  C 18.964552238806 5.603125  19.9036069651741 4.659375  19.9036069651741 3.496875  C 19.9036069651741 2.334375  18.964552238806 1.390625  17.8078358208955 1.390625  Z " fill-rule="nonzero" fill="#333333" stroke="none" transform="matrix(1 0 0 1 10 12 )" />
  </g>
</svg>