<?xml version="1.0" encoding="utf-8"?>
<svg version="1.1" xmlns:xlink="http://www.w3.org/1999/xlink" width="10px" height="7px" xmlns="http://www.w3.org/2000/svg">
  <g transform="matrix(1 0 0 1 -31 -31 )">
    <path d="M 3.6022764148247 0.140306003457999  C 3.08121811449982 -0.0423215402301839  2.49738103890945 0.0350925648522524  2.05024390243902 0.346098360655737  L 0.00471543921493907 1.76338797067111  L 0.270081292873475 2.18797813460553  C 0.369593487995427 2.34710381019467  0.557398366044207 2.61103823642418  0.833495927019817 2.94489616739242  C 1.31978831463962 3.53223459355347  1.86638420494525 4.0730682457788  2.46536585365854 4.55956284900103  C 4.37674797541921 6.11241530801742  6.67837397580031 7.01484153752561  9.35284553639482 6.92135518378586  L 9.90439024390244 6.90207649526127  L 9.92292682926829 5.88  C 9.94373982945884 4.74974862640881  9.33186992663872 3.69462295081968  8.3193495855564 3.12330055391906  L 8.03073170731707 2.96080875064037  C 7.61923401332024 2.72784843086996  7.16302832911348 2.57338590894216  6.68813007336128 2.50622950819673  L 5.39853658536585 2.32308196721312  C 5.11268292682927 2.28253551165472  4.87463414634146 2.075825144083  4.79756097560976 1.7926120293289  L 4.64715446360518 1.24194534772029  C 4.50780487804878 0.733661187243859  4.1186991711128 0.321311475409841  3.6022764148247 0.140306003457999  Z M 2.74195121951219 1.22633879034324  C 2.87190008991724 1.13483236952171  3.04235478663764 1.11172118788973  3.19447153677592 1.16498360655738  C 3.35105690262957 1.21991256083504  3.47333331745427 1.34950819672131  3.51853658536585 1.51414206903176  L 3.66861787823933 2.06373770491803  C 3.86 2.76802186539447  4.47073170731707 3.29803278688525  5.22455285346799 3.40467760309938  L 6.51447153677591 3.58782514408299  C 6.83739836604421 3.63342077996926  7.14813007336128 3.73868852459016  7.43056909775152 3.89842622950819  L 7.7196748046875 4.06122403624487  L 7.79983739043445 4.10880875064037  C 8.37821136623475 4.4703606557377  8.7386991711128 5.09232786885246  8.75756097560975 5.76876501985143  L 8.75756097560975 5.83149727523053  L 8.74373982945884 5.83103825883709  C 6.63040648818598 5.77779235719774  4.79317073170732 5.00404373078893  3.22780487804878 3.73241530801742  C 2.68689267138137 3.29303390044176  2.19324046214873 2.80463334607553  1.75398373189786 2.27427321657274  L 1.63105690262957 2.12233879034324  L 1.56699187785823 2.04032786885246  L 2.74195121951219 1.22633879034324  Z " fill-rule="nonzero" fill="#7b7ba3" stroke="none" transform="matrix(1 0 0 1 31 31 )" />
  </g>
</svg>