<?xml version="1.0" encoding="utf-8"?>
<svg version="1.1" xmlns:xlink="http://www.w3.org/1999/xlink" width="8px" height="6px" xmlns="http://www.w3.org/2000/svg">
  <g transform="matrix(1 0 0 1 -32 -31 )">
    <path d="M 7.88444444444445 5.8830769155649  L 7.89288888888889 5.37415384615385  C 7.90859259982639 4.42861539212741  7.44518517795139 3.54815383864183  6.68207406684028 3.07384615384615  L 6.41822222222222 2.91015385366587  C 6.10091995887714 2.71210723490827  5.74920939625158 2.58079514067173  5.38311111111111 2.52369230769231  L 4.20074073350695 2.33861538461538  C 3.72444444444444 2.26446154597356  3.33555555555556 1.89246154597356  3.21259259982639 1.39384615384616  L 3.07481482204861 0.838461530949518  C 2.99037037760417 0.499076908052886  2.756 0.225538454026443  2.44755555555556 0.106461530949521  C 2.13909488220454 -0.012599432219078  1.79359717171183 0.0381514412714704  1.52903704427083 0.241384615384617  L 0.0413333333333333 1.3769230844351  C 0.0413333333333333 1.3769230844351  2.71096295572917 6.08215384615385  7.8842962890625 5.8830769155649  Z " fill-rule="nonzero" fill="#dbf083" stroke="none" transform="matrix(1 0 0 1 32 31 )" />
  </g>
</svg>