<?xml version="1.0" encoding="utf-8"?>
<svg version="1.1" xmlns:xlink="http://www.w3.org/1999/xlink" width="9px" height="12px" xmlns="http://www.w3.org/2000/svg">
  <g transform="matrix(1 0 0 1 -40 -20 )">
    <path d="M 4.6467199921875 0.0425142857142812  C 4.6467199921875 0.0425142857142812  9.1399999921875 3.33622857142857  8.87328 7.29813332589286  L 8.87328 7.72815238839286  C 8.63515552925874 7.90058790832985  8.33091847979247 7.96770064746474  8.0374399921875 7.91253332589286  C 7.74333253321121 7.85665987436185  7.48809060645623 7.68422120408772  7.3355200078125 7.43832381696429  L 7.27632 7.34308571428572  C 7.25841347597306 7.31454600483495  7.22607382719039 7.29707079914483  7.19116471079719 7.29707079914483  C 7.14451821244739 7.29707079914483  7.10417321962947 7.32802228223167  7.0942399921875 7.37142857142857  L 6.6520000078125 9.28670475446429  C 6.6456 10.3605333258929  6.365600015625 11.1254857142857  5.8188799921875 11.5602285714286  C 5.46395152106227 11.8405724831042  5.00350925468704 11.9694214815278  4.5457600078125 11.9164952455357  C 4.32998674754631 11.9088345144733  4.1268246162384 11.817703768104  3.9832000078125 11.6641523883929  C 3.58416 11.2544  3.5108800078125 10.3766857142857  3.5134399921875 9.75024761160714  C 3.51450540023531 9.64331775553455  3.43948360035254 9.54924280624658  3.3310399921875 9.52152381696428  C 2.90506101347458 9.40897159757868  2.52709181411288 9.17156795345422  2.25072 8.84297142857143  C 1.95696 8.50148571428571  1.49616 8.19687618303571  1.24752 8.04495238839285  C 0.978158108672295 7.88126364658989  0.76076069427383 7.65072175718291  0.618719999999999 7.37813332589285  L 0.219359999999999 6.60937142857143  C 0.10820402197817 6.39625244139937  0.0644576272333978 6.15696679991303  0.093439992187499 5.92060953125  C 0.187679999999999 5.16053334821428  0.5758399921875 4.2432  0.885120000000001 3.6064  C 0.987987028761934 3.394188480613  1.20579603736673 3.25368735115622  1.4508799921875 3.24144761160714  C 1.69580715071579 3.23025617679648  1.92703317635407 3.34940249683131  2.0512000078125 3.55078095982143  L 2.3952 4.10270475446428  C 2.44992 4.19108571428571  2.5576000078125 4.23527618303571  2.6617600078125 4.21196189732143  C 2.75618052477889 4.19694421737807  2.82900876077755 4.1246087550942  2.8408000078125 4.03413332589285  L 2.8460800078125 3.99573332589285  C 2.9209600078125 3.36670475446428  3.347840015625 2.8275809375  3.95808 2.59108571428571  L 4.7608000078125 2.28190475446428  C 5.12304 2.02788571428571  4.83984 0.921447611607138  4.6019200078125 0.37409524553571  C 4.55406062123073 0.263821945286522  4.5711069110295 0.137656161710362  4.6467199921875 0.0425142857142812  Z " fill-rule="nonzero" fill="#dbf083" stroke="none" transform="matrix(1 0 0 1 40 20 )" />
  </g>
</svg>