<?xml version="1.0" encoding="utf-8"?>
<svg version="1.1" xmlns:xlink="http://www.w3.org/1999/xlink" width="20px" height="20px" xmlns="http://www.w3.org/2000/svg">
  <g transform="matrix(1 0 0 1 -10 -5 )">
    <path d="M 20 10  C 20 4.471875  15.528125 0  10 0  C 4.471875 0  0 4.471875  0 10  C 0 15.528125  4.471875 20  10 20  C 15.528125 20  20 15.528125  20 10  Z M 17.646875 10  C 17.646875 14.234375  14.234375 17.646875  10 17.646875  C 5.765625 17.646875  2.353125 14.234375  2.353125 10  C 2.353125 5.765625  5.765625 2.353125  10 2.353125  C 14.234375 2.353125  17.646875 5.765625  17.646875 10  Z " fill-rule="nonzero" fill="#333333" stroke="none" transform="matrix(1 0 0 1 10 5 )" />
  </g>
</svg>