<?xml version="1.0" encoding="utf-8"?>
<svg version="1.1" xmlns:xlink="http://www.w3.org/1999/xlink" width="20px" height="20px" xmlns="http://www.w3.org/2000/svg">
  <g transform="matrix(1 0 0 1 -15 -20 )">
    <path d="M 20 6.30375  C 19.995180310355 2.82428334446697  17.1757166557079 0.00481968964525184  13.6962500003903 0  C 10.2134874014113 0.00498970590834217  7.39279382312676 2.82972734798934  7.39279382312676 6.3124935215236  C 7.39279382312676 6.95925772838363  7.49218935374504 7.6021807091395  7.68750000076242 8.21875  L 0.127500001230563 15.77875  C 0.0458368839340459 15.8607524736977  0 15.9717707023082  0 16.0875  L 0 19.565  C 0 19.805  0.195000001226383 20  0.435000001211521 20  L 3.47875000102304 20  C 3.59375000101592 20  3.70375000100911 19.95375  3.786250001004 19.8725  L 4.66125000094982 18.9975  C 4.74272346843708 18.915881548579  4.7885646940731 18.8053232985088  4.78875000094192 18.69  L 4.78875000094192 17.30625  L 6.17250000085624 17.30625  C 6.41274386701776 17.30625  6.6075000008293 17.1114938661764  6.6075000008293 16.87125  L 6.6075000008293 15.6525  L 7.82625000075383 15.6525  C 7.94125000074671 15.6525  8.0512500007399 15.60625  8.13375000073479 15.525  L 11.4587500005289 12.2  C 12.1710731286061 12.4688126929286  12.9261504457768 12.6065456793561  13.6875074597093 12.6065456793561  C 17.1700157713903 12.6065456793561  19.9946462768631 9.78625419670643  20 6.30375  Z M 9.29750000066273 9.7075  L 9.29625000066281 9.70625  L 1.89250000112127 17.11  C 1.85120037550435 17.1571644367732  1.79155829393704 17.1842148475048  1.72886743996332 17.1842148475048  C 1.60874550688256 17.1842148475048  1.51136743997679 17.086836780593  1.51136743997679 16.9667148475048  C 1.51136743997679 16.9037148094733  1.53868429246205 16.8438099037718  1.58625000114023 16.8025  L 8.99000000068177 9.4  C 9.03044230542839 9.36148351928655  9.08415110364144 9.33999999999999  9.14000000067249 9.33999999999999  C 9.26012193375325 9.33999999999999  9.35750000065902 9.4373780669118  9.35750000065902 9.55749999999999  C 9.35750000065902 9.6133488970345  9.3360164813738 9.66705769525088  9.29750000066273 9.7075  Z M 16.8237500001967 9.01625  L 16.8250000001966 9.01625  L 16.5175000002156 9.32375  L 10.6750000005774 3.4825  L 10.9825000005584 3.175  C 11.7554406955123 2.39842959563026  12.8068314317934 1.96320063927462  13.9025000003776 1.96625  C 15.0062500003092 1.96625  16.043750000245 2.395  16.8237500001967 3.175  C 18.4342240717265 4.78906898682473  18.4342240717265 7.40218101317527  16.8237500001967 9.01625  Z " fill-rule="nonzero" fill="#d7d7d7" stroke="none" transform="matrix(1 0 0 1 15 20 )" />
  </g>
</svg>