<?xml version="1.0" encoding="utf-8"?>
<svg version="1.1" xmlns:xlink="http://www.w3.org/1999/xlink" width="12px" height="8px" xmlns="http://www.w3.org/2000/svg">
  <g transform="matrix(1 0 0 1 -31 -29 )">
    <path d="M 11.87136 7.88503704427083  L 11.8841599921875 7.20148148871528  C 11.90784 5.9317037109375  11.209119984375 4.74918519965278  10.0584 4.112  L 9.66048 3.8922962890625  C 9.18191292963688 3.62624399289606  8.6515439887394 3.44986509131747  8.09952 3.37318517795139  L 6.3168 3.12474073350694  C 5.5985599921875 3.02503702256944  5.01216 2.52562962239583  4.8267199921875 1.8557037109375  L 4.61904 1.10992593315972  C 4.4915200078125 0.654074088541664  4.1382400078125 0.286666666666665  3.6732799921875 0.126666666666665  C 3.20809254597346 -0.0333225674847613  2.68712639786363 0.0348162522859196  2.2879999921875 0.307851844618055  L 0.0448000078125003 1.83303704427083  C 0.0448000078125003 1.83303704427083  4.070240015625 8.15244444444444  11.8715200078125 7.88488888888889  Z " fill-rule="nonzero" fill="#62afef" stroke="none" transform="matrix(1 0 0 1 31 29 )" />
  </g>
</svg>