<?xml version="1.0" encoding="utf-8"?>
<svg version="1.1" xmlns:xlink="http://www.w3.org/1999/xlink" width="24px" height="20px" xmlns="http://www.w3.org/2000/svg">
  <g transform="matrix(1 0 0 1 -15 -20 )">
    <path d="M 20.3476118489583 19  L 4.12273924479167 19  C 2.492188828125 19.1995072395833  1.16624671875 17.8735651302083  1.16624671875 16.2430147135417  L 1.16624671875 3.26132481770833  C 1.16624671875 1.63077440104167  2.492188828125 0.304832291666667  4.12273924479167 0.304832291666667  L 20.3476118489583 0.304832291666667  C 21.978162265625 0.304832291666667  23.304104375 1.63077440104167  23 3.26132481770833  L 23 16.2430147135417  C 23.304104375 17.8735651302083  21.978162265625 19.1995072395833  20.3476118489583 19  Z M 20.3476118489583 2  L 4.12273924479167 2  C 3.3701775 1.89058736979167  2.752001796875 2.50428354166667  3 3.26132481770833  L 3 16.2430147135417  C 2.752001796875 16.9955764583333  3.36569796875 17.6137521614583  4.12273924479167 17.6137521614583  L 20.3476118489583 17.6137521614583  C 21.10017359375 17.6137521614583  21.718349296875 17.0000559895833  21.718349296875 16.2430147135417  L 21.718349296875 3.26132481770833  C 21.718349296875 2.50876307291667  21.104653125 1.89058736979167  20.3476118489583 2  Z M 20.0698807291667 13.53737609375  C 20.0654011979167 13.9718909114583  19.7070384635417 14.3302536458333  19.2680441145833 14.3302536458333  C 18.829049765625 14.3302536458333  18.4751665625 13.9718909114583  18.4751665625 13.53737609375  C 18.4751665625 12.184556796875  17.377680703125 11.0870709375  16.02486140625 11.0870709375  C 14.672042109375 11.0870709375  13.57455625 12.184556796875  13.57455625 13.53737609375  C 13.57455625 13.9763704427083  13.216193515625 14.3302536458333  12.7816786979167 14.3302536458333  C 12.3426843489583 14.3302536458333  11.9888011458333 13.9718909114583  11.9888011458333 13.53737609375  C 11.9888011458333 12.1532000520833  12.7010470833333 10.8765328125  13.8746850260417 10.1374096875  C 13.35953859375 9.59090653645833  13.0728484114583 8.87418106770834  13.0728484114583 8.12609885416667  C 13.0728484114583 6.4955484375  14.3987905208333 5.169606328125  16.0293409375 5.169606328125  C 17.6598913541667 5.169606328125  18.9858334635417 6.4955484375  18.9858334635417 8.12609885416667  C 18.9858334635417 8.87418104166667  18.69466375 9.58642697916667  18.1839968489583 10.1374096875  C 19.3531552604167 10.8765328125  20.0698807291667 12.1487205208333  20.0698807291667 13.53737609375  Z M 17.3955988541667 8.13057841145833  C 17.3955988541667 7.37353713541666  16.7774231510417 6.75984096354167  16.02486140625 6.75984096354167  C 15.2722996614583 6.75984096354167  14.6541239583333 7.37353713541667  14.6541239583333 8.13057841145833  C 14.6541239583333 8.8876196875  15.2678201302083 9.501315859375  16.02486140625 9.501315859375  C 16.7819026822917 9.501315859375  17.3955988541667 8.8876196875  17.3955988541667 8.13057841145833  Z " fill-rule="nonzero" fill="#d7d7d7" stroke="none" transform="matrix(1 0 0 1 15 20 )" />
  </g>
</svg>