<?xml version="1.0" encoding="utf-8"?>
<svg version="1.1" xmlns:xlink="http://www.w3.org/1999/xlink" width="10px" height="14px" xmlns="http://www.w3.org/2000/svg">
  <g transform="matrix(1 0 0 1 -40 -20 )">
    <path d="M 5.59398373189787 0.534028977581515  C 5.55609756097561 0.503188389945646  5.52487804878049 0.478028977581516  5.50048780487805 0.458875370244565  L 5.01577236566311 0.0858666745923912  L 4.66373982945884 0.549773913043479  C 4.46664023802174 0.80936846668531  4.42203129091935 1.15376088011792  4.54650407298018 1.45486376019022  C 4.66048780487805 1.73015652173913  4.76829268292683 2.11452752038044  4.81219512195122 2.42877680366848  L 4.82195121951219 2.50750145720109  C 4.83333334127286 2.60911304347826  4.83642275628811 2.69708987092391  4.83219512195122 2.7664  L 4.83056909775152 2.78035941236413  L 4.2209756097561 3.02708406589674  L 4.13252031726372 3.06522897758152  C 3.64389832919023 3.28782475631854  3.24545941751158 3.66943198150527  3.00243902439024 4.14757102241848  L 2.98341463414634 4.18668984714674  L 2.94699187785823 4.13718260869565  C 2.71310099263838 3.83835511566693  2.35438130085877 3.663706783793  1.97449417260228 3.663706783793  C 1.49385312068744 3.663706783793  1.05693518015674 3.94226652166502  0.854796755907013 4.37757680366848  C 0.416097560975609 5.32535652173913  0.106178877667683 6.216  0.0173983660442086 6.96818549932065  C -0.0243902439024394 7.32528695652174  0.038536585365854 7.68563478260869  0.198211390053356 8.00670145720109  L 0.595447146532015 8.80871884850544  C 0.765991777341628 9.15219190552373  1.01904392186223 9.44818854064167  1.33203251238567 9.67030723845108  L 1.42731707317073 9.73442319633152  C 1.77544714653201 9.95744928328804  2.09723578029726 10.2116405876359  2.29073170731707 10.4478145006793  L 2.3622764148247 10.5330318919837  C 2.63084733076016 10.8396839590891  2.96626845478701 11.0807893688459  3.34276421970274 11.2378202819293  L 3.4213008050686 11.2683362398098  L 3.42211382907775 11.3025854993207  C 3.44455285346799 12.228452173913  3.61008131669207 12.9600231725543  4.0393495855564 13.4224695652174  L 4.09674797541921 13.4825275441576  C 4.31881842374956 13.699501281665  4.60846466366588 13.8342511908549  4.91772358517531 13.8644637601902  L 4.97203251238567 13.868197109375  L 4.94926829268293 13.8659246297554  C 5.56496417696768 13.9422958530458  6.18489011578196 13.7611180832375  6.66211382907775 13.3653333254076  L 6.73788617092226 13.2992695652174  C 7.35707317073171 12.7365101528533  7.66731707317073 11.8530086956522  7.69642275628811 10.695350716712  L 7.69756097560976 10.6167884137228  L 7.94016260956555 9.51545506453803  L 7.95853658536586 9.52551884850543  C 8.51453303588675 9.81277331383176  9.18652565164716 9.75477045328278  9.68487804878049 9.37651015285325  L 9.91089431688262 9.20526376019021  L 9.91089431688262 8.47417971807065  C 10.039349609375 6.48820869565217  9.18081302400915 4.5113275441576  7.68585365853659 2.65699710937499  C 7.1084144118835 1.94266585661804  6.46760671673559 1.28178531737886  5.77121951219512 0.682388413722819  L 5.59398373189787 0.534028977581515  Z M 5.99723578029726 2.33852754415761  L 6.10617885384908 2.45166376019022  C 6.34550666626923 2.70511303919362  6.5751555882499 2.96749925391371  6.79463414634146 3.23826086956522  L 6.91495934165396 3.38889276154891  C 8.17951219512195 4.99714782608696  8.88520324409298 6.67097971807065  8.77951219512195 8.30991304347826  L 8.77886178067835 8.43295071671196  L 8.74617885384908 8.43684636888587  C 8.70885928277278 8.43865073716073  8.67145829105112 8.43592548786288  8.63479675590701 8.42873043478261  C 8.50200134876143 8.40193010174496  8.38689187516203 8.3200122386297  8.31821139005335 8.2034318919837  L 8.2593495855564 8.10441739130435  C 8.11517250718052 7.86505917474774  7.83932735688883 7.73770025608407  7.56325202458079 7.78302608695652  C 7.29091933041208 7.8265478972514  7.07234814605728 8.03080094185382  7.01089431688262 8.2992  L 6.55479675590701 10.3621101528533  L 6.55447153677591 10.4218434782609  C 6.54894307355182 11.392997109375  6.32341463414634 12.0356173913044  5.92617885384908 12.365449283288  C 5.72840861559802 12.5282944646032  5.47977981198186 12.6169032184391  5.22341463414633 12.6159072384511  L 5.16032519531249 12.6141217391304  L 5.04650407298017 12.6040579789402  C 4.98866844917721 12.6016070076083  4.93434178197391 12.5756928155935  4.8960975609756 12.5323130434783  C 4.68439024390243 12.3050666745924  4.56829268292682 11.6824115862772  4.57121951219512 10.9118840658967  C 4.57216559218396 10.5632577366788  4.35126007986941 10.2524934967341  4.02130080506859 10.1382724558424  L 3.95821139005335 10.1187941949728  C 3.68345375522578 10.0420348769671  3.43590272060683 9.88958858662982  3.24390243902438 9.67891015285326  L 3.18113821932164 9.60586667459239  C 2.88796748761432 9.24990145720109  2.48357724371188 8.93191884850544  2.03788617092225 8.64769854279891  C 1.85618412092536 8.53250584308421  1.70944267768838 8.36996785885429  1.61349592701981 8.17762319633152  L 1.21414634146341 7.37495652173913  C 1.15166523674252 7.25020669034149  1.12702589178459 7.1099615622584  1.14325202458079 6.9714318919837  C 1.21495934165396 6.36679421875  1.49333331745426 5.57110726222826  1.88715446360518 4.72428984714674  C 1.89922470696037 4.69657087788874  1.92559573546161 4.67773154860108  1.9557723656631 4.67526956521739  C 1.98552249851726 4.67469763995402  2.01311275016025 4.69072223742682  2.02731707317073 4.71682319633152  L 2.37235773151676 5.29467826086957  L 2.40634146341463 5.34726956521739  C 2.58767468957429 5.60371205167627  2.89885311386489 5.73551279167157  3.20959348799542 5.68748984714674  L 3.23284553639481 5.68310723845109  C 3.57919648823581 5.6280802858639  3.84798205962876 5.3520997135242  3.89333334127286 5.00493913043478  L 3.89821139005335 4.96679419497283  C 3.95105692644816 4.50580869565217  4.24292682926829 4.12078838994565  4.6570731707317 3.95311304347826  L 5.52747968273628 3.60315363111413  L 5.58634146341463 3.56013913043478  C 5.91186992663871 3.32169276154891  6.02666665872713 2.90015071671196  6.00162602419969 2.40329276154891  L 5.99723578029725 2.3383652173913  Z " fill-rule="nonzero" fill="#7b7ba3" stroke="none" transform="matrix(1 0 0 1 40 20 )" />
  </g>
</svg>