<?xml version="1.0" encoding="utf-8"?>
<svg version="1.1" xmlns:xlink="http://www.w3.org/1999/xlink" width="22px" height="12px" xmlns="http://www.w3.org/2000/svg">
  <g transform="matrix(1 0 0 1 -76 -556 )">
    <path d="M 4.40323768108444 9.44572157866379  C 4.53814080349752 9.34355043103448  4.70002454470199 9.26692209051724  4.86190825745033 9.26692209051724  C 5.05077261744619 9.26692209051724  5.21265635865066 9.34355043103448  5.32057886227235 9.44572157866379  C 5.57258704187656 9.68605053660874  5.57258704187657 10.0738472812792  5.32057886227235 10.3141762392241  C 5.06672145305236 10.55275451584  4.65709509030443 10.55275451584  4.40323768108444 10.3141762392241  C 4.15122950148022 10.0738472812792  4.15122950148022 9.68605053660874  4.40323768108444 9.44572157866379  Z M 13.4417463705505 6.73818644935345  L 13.4417463705505 6.40613028017241  L 14.3051263141556 6.40613028017241  L 14.3051263141556 6.73818644935345  L 13.4417463705505 6.73818644935345  Z M 13.3338238953849 5.89527459590517  L 13.3338238953849 2.85568327047414  L 16.0858474389487 2.85568327047414  C 16.8143242601407 3.62196678340517  17.3539367213369 4.43933588362069  17.6507235849545 5.33333332435345  L 16.3286730365273 5.33333332435345  L 15.5732155965439 5.89527459590517  L 13.3338238953849 5.89527459590517  Z M 16.2747117989445 8.50063857758621  C 16.6524405189363 8.1430396012931  17.1650723613411 7.91315455280172  17.75864606012 7.91315452586207  C 18.3252391401076 7.91315452586207  18.8648516013038 8.14303957435345  19.2425803212955 8.50063857758621  C 19.6203090412873 8.85823755387931  19.8631346388659 9.34355045797414  19.863134667322 9.9054917025862  C 19.863134667322 10.4418901670259  19.6203090697434 10.9527458512931  19.2425803212955 11.3103448275862  C 18.8648516013038 11.6679438038793  18.352219758899 11.8978288523707  17.75864606012 11.8978288523707  C 17.1920529801325 11.8978288523707  16.6524405189363 11.6679438038793  16.2747117989445 11.3103448275862  C 15.8969830789528 10.9527458512931  15.6541574813742 10.4674329471983  15.6541574813742 9.9054917025862  C 15.6541574813742 9.36909323814655  15.8969830789528 8.85823755387931  16.2747117989445 8.50063857758621  Z M 18.2173166649421 9.44572157866379  C 18.1093941613204 9.34355043103448  17.947510448572 9.26692209051724  17.75864606012 9.26692209051724  C 17.5697817001242 9.26692209051724  17.4078979589197 9.34355043103448  17.2999754837541 9.44572157866379  C 17.0479673041499 9.68605053660874  17.0479673041499 10.0738472812792  17.2999754837541 10.3141762392241  C 17.5538328929741 10.55275451584  17.9634592557221 10.55275451584  18.2173166649421 10.3141762392241  C 18.4693248445463 10.0738472812792  18.4693248445463 9.68605053660874  18.2173166649421 9.44572157866379  Z M 18.0554329237376 9.87994892241379  C 18.0554329237376 9.80332058189655  18.0284523049462 9.75223499461207  17.9744910389073 9.70114943426724  C 17.9205298013245 9.65006387392241  17.8395879164942 9.62452109375  17.75864606012 9.62452106681035  C 17.6777042037459 9.62452106681035  17.5967623189156 9.65006384698276  17.5697817001242 9.70114943426724  C 17.5158204625414 9.75223499461207  17.48883984375 9.82886336206896  17.48883984375 9.87994892241379  C 17.48883984375 9.95657726293103  17.5158204625414 10.0332056303879  17.5697817001242 10.0842911907328  C 17.623742937707 10.1353767510776  17.7046848225373 10.16091953125  17.75864606012 10.16091953125  C 17.8395879164942 10.16091953125  17.9205298013245 10.1353767510776  17.9744910389073 10.0842911907328  C 18.0284522764901 10.0332056303879  18.0554328952815 9.95657726293103  18.0554329237376 9.87994892241379  Z M 18.675987241308 9.87994892241379  C 18.675987241308 9.65006387392241  18.5680647376863 9.42017879849137  18.4061810249379 9.26692209051724  C 18.2442972837334 9.1136653825431  18.0014716861548 9.01149426185344  17.75864606012 9.01149426185344  C 17.5158204625414 9.01149426185344  17.2729948365066 9.11366540948276  17.1111111237583 9.26692209051724  C 16.9492273825538 9.42017879849138  16.8413049073882 9.65006384698276  16.8413048789321 9.87994892241379  C 16.8413048789321 10.1098339709052  16.9492273825538 10.3397190463362  17.1111111237583 10.4929757273707  C 17.2729948649628 10.6462324353448  17.5158204625414 10.7484035560345  17.75864606012 10.7484035829741  C 18.0014716576987 10.7484035829741  18.2442972837335 10.6462324353448  18.4061810249379 10.4929757273707  C 18.5680647661424 10.3397190193965  18.675987241308 10.1098339709052  18.675987241308 9.87994892241379  Z M 18.6220260037252 5.2567049838362  C 18.1633553989031 4.13282246767241  17.4618592249586 3.11111112607758  16.3826343025662 2.19157087823276  C 16.3286730649834 1.42528736530172  16.1128280861962 0.710089385775861  15.6001962153353 0.0459770204741374  L 12.2006377354098 0.0459770204741374  L 12.2006377354098 2.16602809806035  L 12.0117733754139 2.16602809806035  L 12.0117733754139 0  L 0.275202351510761 0  C 0.0053961351407284 2.29374202586207  0.0593573727235099 4.54150703125  0.275202351510761 6.78927203663793  L 1.0306597914942 6.78927203663793  L 1.0306597914942 7.60664113685345  L 1.38140789269454 7.60664113685345  L 1.38140789269454 8.80715196659482  L 1.94800097268212 9.95657726293103  L 2.13686533267798 9.95657726293103  L 2.13686533267798 9.87994892241379  C 2.13686533267798 9.16475096982758  2.43365219629553 8.52618135775862  2.94628403870033 8.04086845366379  C 3.43193526231374 7.58109832974138  4.13343146471441 7.27458494073276  4.88888887624172 7.27458494073276  C 5.64434628776904 7.27458494073276  6.31886189983444 7.55555557650862  6.83149374223924 8.04086845366379  C 7.31714496585265 8.50063857758621  7.64091241980546 9.16475096982758  7.64091244826159 9.87994892241379  L 7.64091244826159 9.95657726293103  L 12.4974245705712 9.95657726293103  L 12.4974245705712 2.72796934267241  L 12.6862889305671 2.72796934267241  L 12.6862889305671 9.98212004310345  L 14.9796418977649 9.98212004310345  L 14.9796418977649 9.9054917025862  C 14.9796418977649 9.19029375  15.3034093801738 8.52618135775862  15.7890605753311 8.04086845366379  C 16.3016924177359 7.55555554956896  16.9762080013452 7.27458494073276  17.75864606012 7.27458494073276  C 18.5141035001035 7.27458494073276  19.2155997025041 7.58109835668103  19.7282315449089 8.04086845366379  C 20.2408633873137 8.52618135775862  20.5376502224752 9.16475096982758  20.5376502224752 9.9054917025862  L 20.5376502224752 9.98212004310345  L 21.4819720509106 9.98212004310345  L 21.8597007709023 8.19412516163793  L 20.5106696036838 8.19412516163793  L 20.1329408836921 7.19795657327586  L 21.4280107848717 7.19795657327586  C 21.32008828125 6.78927203663793  21.1312239212541 6.40613025323275  20.8883983236755 5.99744571659483  C 20.1329408836921 5.74201788793103  19.3774834437086 5.5121328125  18.6220260037252 5.2567049838362  Z M 3.43193523385762 5.46104725215517  L 3.43193523385762 1.09323116918103  L 3.70174147868378 1.09323116918103  L 3.70174147868378 5.46104725215517  L 3.43193523385762 5.46104725215517  Z M 1.16556291390729 5.46104725215517  L 1.16556291390729 1.09323116918103  L 1.43536913027732 1.09323116918103  L 1.43536913027732 5.46104725215517  L 1.16556291390729 5.46104725215517  Z M 5.69830758226408 5.46104725215517  L 5.69830758226408 1.09323116918103  L 5.96811379863411 1.09323116918103  L 5.96811379863411 5.46104725215517  L 5.69830758226408 5.46104725215517  Z M 7.96467990221441 5.46104725215517  L 7.96467990221441 1.09323116918103  L 8.23448614704057 1.09323116918103  L 8.23448614704057 5.46104725215517  L 7.96467990221441 5.46104725215517  Z M 10.2310522506209 5.46104725215517  L 10.2310522506209 1.09323116918103  L 10.5008584669909 1.09323116918103  L 10.5008584669909 5.46104725215517  L 10.2310522506209 5.46104725215517  Z M 6.34584251862583 8.50063857758621  C 5.9681137986341 8.1430396012931  5.45548195622931 7.91315455280172  4.86190825745033 7.91315452586207  C 4.29531517746275 7.91315452586207  3.75570271626656 8.14303957435345  3.37797399627483 8.50063857758621  C 3.00024527628311 8.85823755387931  2.75741967870447 9.34355045797414  2.75741967870447 9.9054917025862  C 2.75741967870447 10.4418901670259  3.00024527628311 10.9527458512931  3.37797399627483 11.3103448275862  C 3.75570271626656 11.6679438038793  4.26833455867136 11.8978288523707  4.86190825745033 11.8978288523707  C 5.42850133743791 11.8978288523707  5.9681137986341 11.6679438038793  6.34584251862583 11.3103448275862  C 6.72357123861755 10.9527458512931  6.96639683619619 10.4674329471983  6.96639686465232 9.9054917025862  C 6.96639686465232 9.36909323814655  6.72357126707367 8.85823755387931  6.34584251862583 8.50063857758621  Z M 5.77924943863825 9.87994892241379  C 5.77924943863825 9.65006387392241  5.67132693501656 9.42017879849137  5.50944322226821 9.26692209051724  C 5.34755948106374 9.1136653825431  5.1047338834851 9.01149426185344  4.86190825745033 9.01149426185344  C 4.61908265987169 9.01149426185344  4.37625703383692 9.11366540948276  4.21437332108858 9.26692209051724  C 4.0524895798841 9.42017879849138  3.94456710471854 9.65006384698276  3.94456707626242 9.87994892241379  C 3.94456707626242 10.1098339709052  4.05248957988411 10.3397190463362  4.21437332108858 10.4929757273707  C 4.37625706229305 10.6462324353448  4.61908265987169 10.7484035560345  4.86190825745033 10.7484035829741  C 5.10473385502898 10.7484035829741  5.34755948106374 10.6462324353448  5.50944322226821 10.4929757273707  C 5.67132696347268 10.3397190193965  5.77924943863825 10.1098339709052  5.77924943863825 9.87994892241379  Z M 5.15869512106788 9.87994892241379  C 5.15869512106788 9.80332058189655  5.13171450227649 9.75223499461207  5.07775323623758 9.70114943426724  C 5.0237919986548 9.65006387392241  4.9428501138245 9.62452109375  4.88888887624172 9.62452106681035  C 4.80794701986755 9.62452106681035  4.72700513503725 9.65006384698276  4.67304389745447 9.70114943426724  C 4.61908265987169 9.75223499461207  4.5921020410803 9.82886336206896  4.5921020410803 9.87994892241379  C 4.5921020410803 9.95657726293103  4.61908265987169 10.0332056303879  4.67304389745447 10.0842911907328  C 4.72700513503725 10.1353767510776  4.80794701986755 10.16091953125  4.88888887624172 10.16091953125  C 4.96983073261589 10.16091953125  5.05077261744619 10.1353767510776  5.07775323623758 10.0842911907328  C 5.13171447382036 10.0332056303879  5.15869509261175 9.95657726293103  5.15869512106788 9.87994892241379  Z " fill-rule="nonzero" fill="#ffffff" stroke="none" transform="matrix(1 0 0 1 76 556 )" />
  </g>
</svg>