<?xml version="1.0" encoding="utf-8"?>
<svg version="1.1" xmlns:xlink="http://www.w3.org/1999/xlink" width="11px" height="16px" xmlns="http://www.w3.org/2000/svg">
  <g transform="matrix(1 0 0 1 -38 -19 )">
    <path d="M 5.36475789473684 0.0450909090909104  C 5.36475789473684 0.0450909090909104  11.1857263157895 4.40630303030303  10.8769543935033 9.68597980587121  C 10.2084631578947 12.6282020359848  9.66348070929276 14.2923636363636  9.24138947368421 14.678303030303  C 8.8895438671875 14.9978181818182  5.9290386040296 15.8857373816288  5.47421755139803 15.8834747395833  C 5.39856842105263 15.8837979640152  5.32291931332237 15.8786262547349  5.24788771175987 15.8677979876894  C 4.99855437088816 15.8581010179924  4.76357894736842 15.7365656723485  4.59637894736842 15.5314747395833  C 4.13430176192434 14.985696969697  4.04938947368421 13.8159191761364  4.05232281455592 12.9811717092803  C 4.0530947368421 12.837979782197  3.96617544613487 12.7125656486742  3.84112281455592 12.6763636363636  C 3.3490947368421 12.5271919270833  2.91156491981908 12.2109090909091  2.59013334087171 11.7721212121212  C 2.25002105263158 11.3170101089015  1.71630878700658 10.9111919270833  1.42822455386513 10.7086868607955  C 1.11698244860197 10.4914747395833  0.865333318256577 10.1842424242424  0.700140343338813 9.82028283617424  L 0.237754393503285 8.79579798768939  C 0.108673943133448 8.50991142693847  0.058157080015516 8.19205581951919  0.0918596566611806 7.87781818181818  C 0.200856155427629 6.86513132102273  0.650582471217101 5.64266666666667  1.00860350123355 4.79418181818182  C 1.12902455386513 4.51038383049243  2.37831578947368 2.00307071496212  4.35538244860197 3.36452526041667  L 5.24788771175987 2.64969696969697  C 5.66750876439144 2.31127272727273  5.58846315789473 1.21616162405303  5.31272981702302 0.48678787878788  C 5.25741271836416 0.339844058510016  5.27699882157268 0.173566102154219  5.36475789473684 0.0450909090909104  Z " fill-rule="nonzero" fill="#68b3f2" stroke="none" transform="matrix(1 0 0 1 38 19 )" />
  </g>
</svg>