<?xml version="1.0" encoding="utf-8"?>
<svg version="1.1" xmlns:xlink="http://www.w3.org/1999/xlink" width="7px" height="10px" xmlns="http://www.w3.org/2000/svg">
  <g transform="matrix(1 0 0 1 -30 -19 )">
    <path d="M 6.49661202932889 0.41953488372093  L 6.28821858670594 0.0432558139534884  L 5.87770491803279 0.155813953488372  C 5.67956284900102 0.210077511809593  5.35289616739242 0.325581395348836  4.93978141329406 0.515968999818313  C 4.2211889729951 0.846170858933171  3.54844818792374 1.27046220249735  2.93877596375512 1.77798448855378  C 0.9082404296875 3.47255813953488  -0.218950819672131 5.92899225563227  0.0416174788678277 9.22728681413517  L 0.0997595703124997 9.96573644167878  L 3.52325682313012 8.63984495367006  C 4.07208741675205 8.42496123273982  4.36861200691598 7.83317827943314  4.21101639344262 7.27023255813953  L 4.19158469198258 7.20775193041424  C 4.04837157722848 6.7914728606468  4.1594535444416 6.33302325581395  4.48168305263832 6.02062016260901  L 6.17086338050717 4.37007751180959  C 6.63140983606557 3.92387595385174  6.89151911821209 3.3106976744186  6.88968305263832 2.67023255813953  L 6.88968305263832 1.92759690679505  C 6.88782188147902 1.39917563440567  6.75255975281406 0.880024914971944  6.49676501985143 0.419534883720927  Z M 5.6341202260502 1.42031006994913  L 5.71827321657275 1.38589146529797  L 5.74443715099897 1.48620155795785  C 5.77809836065574 1.63131783702762  5.79538797067111 1.77984497638081  5.796 1.92961239553052  L 5.796 2.67193797692587  C 5.79691803278688 3.00775193041424  5.66013114754098 3.32992246547965  5.41394534772029 3.5685271393532  L 3.72476501985143 5.21906976744186  C 3.09530053150615 5.82945737191134  2.87359561347336 6.74434109284157  3.15864481621414 7.57286820948401  L 3.15879780673668 7.57953488372093  C 3.15711475409836 7.58697674418605  3.14915846247438 7.5961240234375  3.13156284900102 7.60310076762355  L 1.09857924244365 8.39023255813953  L 1.0981202260502 8.30279069767442  C 1.09857924244365 5.81007751180959  2.04216393442623 3.96372093023256  3.63326776703381 2.63581395348837  C 4.23750129906286 2.13300724025633  4.91173167143087 1.72341700169557  5.6341202260502 1.42031006994913  Z " fill-rule="nonzero" fill="#7b7ba3" stroke="none" transform="matrix(1 0 0 1 30 19 )" />
  </g>
</svg>