<?xml version="1.0" encoding="utf-8"?>
<svg version="1.1" xmlns:xlink="http://www.w3.org/1999/xlink" width="20px" height="20px" xmlns="http://www.w3.org/2000/svg">
  <g transform="matrix(1 0 0 1 -30 -18 )">
    <path d="M 0.0439215762867648 10.0047058823529  C 0.0439215762867648 4.50352941176471  4.50352941176471 0.0439215762867648  10.0047058823529 0.0439215762867648  C 15.5058823529412 0.0439215762867648  19.9654901884191 4.50352941176471  19.9654901884191 10.0047058823529  C 19.9654901884191 15.5058823529412  15.5058823529412 19.9654901884191  10.0047058823529 19.9654901884191  C 4.50352941176471 19.9654901884191  0.0439215762867648 15.5058823529412  0.0439215762867648 10.0047058823529  Z M 10.0047058823529 1.17270588235294  C 5.126901953125 1.17270588235294  1.17270588235294 5.126901953125  1.17270588235294 10.0045490119485  C 1.17270588235294 14.8823529411765  5.126901953125 18.8365490119485  10.0045490119485 18.8365490119485  C 14.8823529411765 18.8365490119485  18.8365490119485 14.8823529411765  18.8365490119485 10.0045490119485  C 18.8365490119485 5.126901953125  14.8823529411765 1.17270588235294  10.0045490119485 1.17270588235294  Z " fill-rule="nonzero" fill="#7b7ba3" stroke="none" transform="matrix(1 0 0 1 30 18 )" />
  </g>
</svg>