<?xml version="1.0" encoding="utf-8"?>
<svg version="1.1" xmlns:xlink="http://www.w3.org/1999/xlink" width="12px" height="12px" viewBox="741 1.5  12 12" xmlns="http://www.w3.org/2000/svg">
  <path d="M 747 1.5  C 750.36 1.5  753 4.14  753 7.5  C 753 10.86  750.36 13.5  747 13.5  C 743.64 13.5  741 10.86  741 7.5  C 741 4.14  743.64 1.5  747 1.5  Z " fill-rule="nonzero" fill="#f0f0f0" stroke="none" />
  <path d="M 747 2  C 750.08 2  752.5 4.42  752.5 7.5  C 752.5 10.58  750.08 13  747 13  C 743.92 13  741.5 10.58  741.5 7.5  C 741.5 4.42  743.92 2  747 2  Z " stroke-width="1" stroke="#797979" fill="none" />
  <path d="M 747 10.5  C 745.32 10.5  744 9.18  744 7.5  C 744 5.82  745.32 4.5  747 4.5  C 748.68 4.5  750 5.82  750 7.5  C 750 9.18  748.68 10.5  747 10.5  " fill-rule="nonzero" fill="#797979" stroke="none" />
</svg>