<?xml version="1.0" encoding="utf-8"?>
<svg version="1.1" xmlns:xlink="http://www.w3.org/1999/xlink" width="12px" height="12px" viewBox="445 1.5  12 12" xmlns="http://www.w3.org/2000/svg">
  <path d="M 451 1.5  C 454.36 1.5  457 4.14  457 7.5  C 457 10.86  454.36 13.5  451 13.5  C 447.64 13.5  445 10.86  445 7.5  C 445 4.14  447.64 1.5  451 1.5  Z " fill-rule="nonzero" fill="#ffffff" stroke="none" />
  <path d="M 451 2  C 454.08 2  456.5 4.42  456.5 7.5  C 456.5 10.58  454.08 13  451 13  C 447.92 13  445.5 10.58  445.5 7.5  C 445.5 4.42  447.92 2  451 2  Z " stroke-width="1" stroke="#f4a121" fill="none" />
  <path d="M 451 10.5  C 449.32 10.5  448 9.18  448 7.5  C 448 5.82  449.32 4.5  451 4.5  C 452.68 4.5  454 5.82  454 7.5  C 454 9.18  452.68 10.5  451 10.5  " fill-rule="nonzero" fill="#f4a121" stroke="none" />
</svg>