<?xml version="1.0" encoding="utf-8"?>
<svg version="1.1" xmlns:xlink="http://www.w3.org/1999/xlink" width="12px" height="12px" viewBox="593 1.5  12 12" xmlns="http://www.w3.org/2000/svg">
  <path d="M 599 1.5  C 602.36 1.5  605 4.14  605 7.5  C 605 10.86  602.36 13.5  599 13.5  C 595.64 13.5  593 10.86  593 7.5  C 593 4.14  595.64 1.5  599 1.5  Z " fill-rule="nonzero" fill="#ffffff" stroke="none" />
  <path d="M 599 2  C 602.08 2  604.5 4.42  604.5 7.5  C 604.5 10.58  602.08 13  599 13  C 595.92 13  593.5 10.58  593.5 7.5  C 593.5 4.42  595.92 2  599 2  Z " stroke-width="1" stroke="#f4a121" fill="none" />
  <path d="M 599 10.5  C 597.32 10.5  596 9.18  596 7.5  C 596 5.82  597.32 4.5  599 4.5  C 600.68 4.5  602 5.82  602 7.5  C 602 9.18  600.68 10.5  599 10.5  " fill-rule="nonzero" fill="#f4a121" stroke="none" />
</svg>