<?xml version="1.0" encoding="utf-8"?>
<svg version="1.1" xmlns:xlink="http://www.w3.org/1999/xlink" width="12px" height="12px" viewBox="296 1.5  12 12" xmlns="http://www.w3.org/2000/svg">
  <path d="M 302 1.5  C 305.36 1.5  308 4.14  308 7.5  C 308 10.86  305.36 13.5  302 13.5  C 298.64 13.5  296 10.86  296 7.5  C 296 4.14  298.64 1.5  302 1.5  Z " fill-rule="nonzero" fill="#f0f0f0" stroke="none" />
  <path d="M 302 2  C 305.08 2  307.5 4.42  307.5 7.5  C 307.5 10.58  305.08 13  302 13  C 298.92 13  296.5 10.58  296.5 7.5  C 296.5 4.42  298.92 2  302 2  Z " stroke-width="1" stroke="#797979" fill="none" />
  <path d="M 302 10.5  C 300.32 10.5  299 9.18  299 7.5  C 299 5.82  300.32 4.5  302 4.5  C 303.68 4.5  305 5.82  305 7.5  C 305 9.18  303.68 10.5  302 10.5  " fill-rule="nonzero" fill="#797979" stroke="none" />
</svg>