<?xml version="1.0" encoding="utf-8"?>
<svg version="1.1" xmlns:xlink="http://www.w3.org/1999/xlink" width="15px" height="15px" xmlns="http://www.w3.org/2000/svg">
  <g transform="matrix(1 0 0 1 -290 -79 )">
    <path d="M 14.5370370442708 13.3333333333333  L 10.9259259277344 9.62962962239583  C 11.6666666666667 8.61111110026042  12.1296296386719 7.40740740559896  12.1296296223958 6.11111111653646  C 12.1296296223958 2.77777778320313  9.44444444986979 0.0925925944010416  6.11111111653646 0.0925925944010416  C 2.77777778320313 0.0925925944010416  0.0925925944010416 2.77777778320313  0.0925925944010416 6.11111111653646  C 0.0925925944010416 9.44444444986979  2.77777778320313 12.1296296223958  6.11111111653646 12.1296296223958  C 7.40740740559896 12.1296296223958  8.61111111653646 11.6666666666667  9.62962962239584 11.0185185221354  L 13.2407407389323 14.6296296223958  C 13.6111111165365 15  14.1666666666667 15  14.5370370442708 14.6296296223958  C 14.907407421875 14.2592592447917  14.907407421875 13.7037036946615  14.5370370442708 13.3333333333333  Z M 11.2037037109375 6.11111111653646  C 11.2037037109375 8.88888889973958  8.88888888346354 11.2037037109375  6.11111111653646 11.2037037109375  C 3.33333333333333 11.2037037109375  1.01851852213542 8.88888888346354  1.01851852213542 6.11111111653646  C 1.01851852213542 3.33333334960937  3.33333333333333 1.01851852213542  6.11111111653646 1.01851852213542  C 8.88888889973958 1.01851852213542  11.2037037109375 3.33333333333333  11.2037037109375 6.11111111653646  Z " fill-rule="nonzero" fill="#333333" stroke="none" transform="matrix(1 0 0 1 290 79 )" />
  </g>
</svg>