<?xml version="1.0" encoding="utf-8"?>
<svg version="1.1" xmlns:xlink="http://www.w3.org/1999/xlink" width="12px" height="12px" viewBox="360 1.5  12 12" xmlns="http://www.w3.org/2000/svg">
  <path d="M 366 1.5  C 369.36 1.5  372 4.14  372 7.5  C 372 10.86  369.36 13.5  366 13.5  C 362.64 13.5  360 10.86  360 7.5  C 360 4.14  362.64 1.5  366 1.5  Z " fill-rule="nonzero" fill="#ffffff" stroke="none" />
  <path d="M 366 2  C 369.08 2  371.5 4.42  371.5 7.5  C 371.5 10.58  369.08 13  366 13  C 362.92 13  360.5 10.58  360.5 7.5  C 360.5 4.42  362.92 2  366 2  Z " stroke-width="1" stroke="#f4a121" fill="none" />
  <path d="M 366 10.5  C 364.32 10.5  363 9.18  363 7.5  C 363 5.82  364.32 4.5  366 4.5  C 367.68 4.5  369 5.82  369 7.5  C 369 9.18  367.68 10.5  366 10.5  " fill-rule="nonzero" fill="#f4a121" stroke="none" />
</svg>