<?xml version="1.0" encoding="utf-8"?>
<svg version="1.1" xmlns:xlink="http://www.w3.org/1999/xlink" width="11px" height="13px" xmlns="http://www.w3.org/2000/svg">
  <g transform="matrix(1 0 0 1 -1338 -23 )">
    <path d="M 10.9276315789474 12.2777777777778  C 10.9276315789474 9.9563492063492  9.60087719298246 7.89285714285714  7.67105263157895 6.99007936507936  C 8.51535087719298 6.21626984126984  9.11842105263158 5.18452380952381  9.11842105263158 3.89484126984127  C 9.11842105263158 1.70238095238095  7.55043859649123 0.0257936507936508  5.5 0.0257936507936508  C 3.44956140350877 0.0257936507936508  1.88157894736842 1.70238095238095  1.88157894736842 3.89484126984127  C 1.88157894736842 5.18452380952381  2.48464912280702 6.21626984126984  3.32894736842105 6.99007936507936  C 1.39912280701754 7.89285714285714  0.0723684210526316 9.9563492063492  0.0723684210526316 12.2777777777778  C 0.0723684210526316 12.6646825396825  0.31359649122807 12.922619047619  0.675438596491228 12.922619047619  C 1.03728070175439 12.922619047619  1.27850877192982 12.6646825396825  1.27850877192982 12.2777777777778  C 1.27850877192982 9.82738095238095  3.20833333333333 7.76388888888889  5.5 7.76388888888889  C 7.79166666666667 7.76388888888889  9.72149122807018 9.82738095238095  9.72149122807018 12.2777777777778  C 9.72149122807018 12.6646825396825  9.96271929824561 12.922619047619  10.3245614035088 12.922619047619  C 10.6864035087719 12.922619047619  10.9276315789474 12.6646825396825  10.9276315789474 12.2777777777778  Z M 7.91228070175439 3.89484126984127  C 7.91228070175439 5.31349206349206  6.82675438596491 6.47420634920635  5.5 6.47420634920635  C 4.17324561403509 6.47420634920635  3.08771929824561 5.31349206349206  3.08771929824561 3.89484126984127  C 3.08771929824561 2.47619047619048  4.17324561403509 1.31547619047619  5.5 1.31547619047619  C 6.82675438596491 1.31547619047619  7.91228070175439 2.47619047619048  7.91228070175439 3.89484126984127  Z " fill-rule="nonzero" fill="#333333" stroke="none" transform="matrix(1 0 0 1 1338 23 )" />
  </g>
</svg>