<?xml version="1.0" encoding="utf-8"?>
<svg version="1.1" xmlns:xlink="http://www.w3.org/1999/xlink" width="13px" height="13px" xmlns="http://www.w3.org/2000/svg">
  <g transform="matrix(1 0 0 1 -10 -6 )">
    <path d="M 12.8610913322366 6.72969642968074  C 12.8610913322366 6.52737034338664  12.7840539625307 6.33263513495407  12.6456357421875 6.1850673828125  L 7.07890625 0.2515703125  C 6.92852305547052 0.0910743828959556  6.71839853120565 0  6.49845751953125 0  C 6.27851650785685 0  6.06839198359198 0.0910743828959556  5.9180087890625 0.2515703125  L 0.3519140625 6.1850673828125  C 0.212976345144454 6.33263116081345  0.135608046452941 6.52766591971041  0.135608046452941 6.73034487244573  C 0.135608046452941 7.16965287313926  0.49173754575941 7.52578237244573  0.931045546452941 7.52578237244573  C 0.931490976516951 7.52578237244573  0.931936406502039 7.52578199829702  0.9323818359375 7.52578125  L 1.7226015625 7.52578125  L 1.7226015625 11.5211865234375  C 1.72332189912608 12.3355594355623  2.3831323652692 12.9956595488281  3.1975048828125 12.9967373046875  L 5.3636171875 12.9967373046875  L 5.3636171875 9.031953125  C 5.36397314335557 8.88242787234604  5.48509877078354 8.76130224491807  5.6346240234375 8.7609462890625  L 7.362291015625 8.7609462890625  C 7.51181626827896 8.76130224491807  7.63294189570693 8.88242787234604  7.6332978515625 9.031953125  L 7.6332978515625 13  L 9.79941015625 13  C 10.6137876249939 12.998922231426  11.273600136091 12.3388143929356  11.2743134765625 11.5244365234375  L 11.2743134765625 7.52578125  L 12.064533203125 7.52578125  C 12.5046719547945 7.52578139061825  12.8610913322366 7.16936201317617  12.8610913322366 6.72969642968074  Z M 11.7218740234375 6.5811611328125  L 10.329693359375 6.5811611328125  L 10.329693359375 11.5211865234375  C 10.3296935858378 11.81416083014  10.0923842364899 12.051765608891  9.79941015625 12.0521298828125  L 8.57791796875 12.0521298828125  L 8.57791796875 9.031953125  C 8.57719727529521 8.36087964500321  8.03336449562179 7.81704686532979  7.362291015625 7.816326171875  L 5.6346240234375 7.816326171875  C 4.9635505434407 7.81704686532979  4.41971776376729 8.3608796450032  4.4189970703125 9.031953125  L 4.4189970703125 12.0553798828125  L 3.1975048828125 12.0553798828125  C 2.90453080257264 12.055015608891  2.66722145322474 11.81741083014  2.6672216796875 11.5244365234375  L 2.6672216796875 6.5811611328125  L 1.2750537109375 6.5811611328125  L 6.498451171875 1.0131240234375  L 11.7218740234375 6.5811611328125  Z " fill-rule="nonzero" fill="#000000" stroke="none" transform="matrix(1 0 0 1 10 6 )" />
  </g>
</svg>