<?xml version="1.0" encoding="utf-8"?>
<svg version="1.1" xmlns:xlink="http://www.w3.org/1999/xlink" width="20px" height="20px" xmlns="http://www.w3.org/2000/svg">
  <g transform="matrix(1 0 0 1 -10 -10 )">
    <path d="M 5.71428572265625 18.8571428515625  L 5.71428572265625 17.8571428515625  L 3.28571427734375 17.8571428515625  C 3.04902081467152 17.8571428515625  2.8571428515625 17.6652648884535  2.8571428515625 17.4285714257813  L 2.8571428515625 16.4285714257813  L 0.38571427734375 16.4285714257813  C 0.1714285546875 16.4285714257813  0 16.2371428515625  0 16  L 0 4  C 0 3.7628571484375  0.17142857421875 3.57142857421875  0.38571427734375 3.57142857421875  L 2.8571428515625 3.57142857421875  L 2.8571428515625 2.57142857421875  C 2.8571428515625 2.33473511154653  3.04902081467153 2.1428571484375  3.28571427734375 2.1428571484375  L 5.71428572265625 2.1428571484375  L 5.71428572265625 1.1428571484375  C 5.71428572265625 0.906163685765276  5.90616368576528 0.71428572265625  6.1428571484375 1  L 19.5714285742187 1  C 19.808122036891 0.71428572265625  20 0.906163685765276  20 1.1428571484375  L 20 18.8571428515625  C 20 19.0938363142347  19.808122036891 19.2857142773437  19.5714285742188 19  L 6.1428571484375 19  C 5.90616368576528 19.2857142773437  5.71428572265625 19.0938363142347  5.71428572265625 18.8571428515625  Z M 4.28571427734375 16.4285714257813  L 6 16.4285714257813  L 6 3.57142857421875  L 4.28571427734375 3.57142857421875  L 4.28571427734375 16.4285714257813  Z M 3 15  L 3 5  L 1.42857142578125 5  L 1.42857142578125 15  L 3 15  Z M 18.5714285742188 2.1428571484375  L 7.1428571484375 2.1428571484375  L 7.1428571484375 17.8571428515625  L 18.5714285742188 17.8571428515625  L 18.5714285742188 2.1428571484375  Z M 8.57142857421875 4  C 8.57142857421875 3.76330653732778  8.76330653732777 3.57142857421875  9 3.57142857421875  L 12.4285714257812 3.57142857421875  C 12.6652648884535 3.57142857421875  12.8571428515625 3.76330653732777  12.8571428515625 4  L 12.8571428515625 7.42857142578125  C 12.8571428515625 7.66526488845347  12.6652648884535 7.8571428515625  12.4285714257813 7.8571428515625  L 9 7.8571428515625  C 8.76330653732777 7.8571428515625  8.57142857421875 7.66526488845347  8.57142857421875 7.42857142578125  L 8.57142857421875 4  Z M 10 5  L 10 6.42857142578125  L 11.4285714257813 6.42857142578125  L 11.4285714257813 5  L 10 5  Z M 9.28571427734375 9.28571427734375  L 16.4285714257813 9.28571427734375  C 16.8230605374262 9.28571427734375  17.1428571484375 9.60551088835508  17.1428571484375 10  C 17.1428571484375 10.3944891116449  16.8230605374262 10.7142857226562  16.4285714257813 10.7142857226562  L 9.28571427734375 10.7142857226562  C 8.89122519580373 10.7142857226562  8.57142858479239 10.3944891116449  8.57142858479239 10  C 8.57142858479239 9.60551088835509  8.89122519580373 9.28571427734375  9.28571430744864 9.28571427734375  Z M 8.5715466685832 12.8571428613281  C 8.5715466685832 12.4626998752391  8.89127129664748 12.1429223733135  9.28571427734375 12.1428571484375  L 16.4285714257813 12.1428571484375  C 16.8231786513219 12.1428571386719  17.1429752623332 12.4626537496832  17.1429752623332 12.8571428613281  C 17.1429752623332 13.251631972973  16.8231786513219 13.5714285839844  16.4286895396769 13.5714285839844  L 9.28571427734375 13.5714285742187  C 8.89127129664748 13.5713633493427  8.5715466685832 13.2515858474172  8.5715466685832 12.8571428613281  Z M 9.28571427734375 15  L 16.4285714257813 15  C 16.8231786513219 14.9999999902344  17.1429752623332 15.3197966012457  17.1429752623332 15.7142857128906  C 17.1429752623332 16.1087748245355  16.8231786513219 16.4285714355469  16.4286895396769 16.4285714355469  L 9.28571427734375 16.4285714257813  C 8.89110705180314 16.4285714355469  8.57131044079181 16.1087748245355  8.57131044079181 15.7142857128906  C 8.57131044079181 15.3197966012457  8.89110705180314 14.9999999902344  9.28559616344806 14.9999999902344  Z " fill-rule="nonzero" fill="#f4a121" stroke="none" transform="matrix(1 0 0 1 10 10 )" />
  </g>
</svg>