<?xml version="1.0" encoding="utf-8"?>
<svg version="1.1" xmlns:xlink="http://www.w3.org/1999/xlink" width="16px" height="20px" xmlns="http://www.w3.org/2000/svg">
  <g transform="matrix(1 0 0 1 -12 -10 )">
    <path d="M 15.4695756473214 8.81251623263889  C 15.3694606473214 10.2347963541667  14.96806421875 11.4678048177083  15.6702852678571 12.9848651475694  C 13.8643325669643 13.3645632595486  10.1514441741071 17.6317367838542  8.94730060267857 19.7181000217014  C 7.24148571428572 17.7264947699653  5.23466348214286 16.2094788628472  3.8298559375 15.7349339409722  L 7.14116515625 13.8385974392361  L 8.74663665178572 16.7783376302083  C 8.74663665178572 16.7783376302083  11.3555420982143 10.804121484375  15.4695756473214 8.81251623263889  Z M 13.0609001339286 9.77042230902778  L 13.0609001339286 3.75059264322917  C 13.0609001339286 3.41604168836805  12.7817750892857 3.14506985677083  12.4376427008929 3.14506985677083  L 9.94506982142857 3.14506985677083  L 9.94506982142857 1.93309157986111  L 13.0219322767857 1.93309157986111  C 13.7101970535714 1.93309157986111  14.3072779464286 2.47543498263889  14.3072779464286 3.14506985677083  L 14.3072779464286 8.91664561631944  C 13.5990495535714 9.19308042534722  13.0609001339286 9.77042230902778  13.0609001339286 9.77042230902778  Z M 9.32178955357143 3.75059264322917  L 11.1912648883929 3.75059264322917  C 11.5356256919643 3.75059264322917  11.8145680133929 4.02203083767361  11.8145680133929 4.35660399305555  C 11.8145680133929 4.69119934895833  11.8145680133929 5.56856006944444  11.8145680133929 5.56856006944444  L 3.05095544642857 5.56856006944444  C 3.05095544642857 5.56856006944444  3.05095544642857 4.69119937065972  3.05095544642857 4.35660399305555  C 3.05095544642857 4.02205303819444  3.32985207589286 3.75059264322917  3.67400729910714 3.75059264322917  L 5.54368823660714 3.75059264322917  C 5.54368823660714 3.75059264322917  5.55104325892857 2.97733912760417  5.55104325892857 1.99293988715278  C 5.55104325892857 0.970610807291666  6.36160227678571 0.115568294270833  7.41311792410714 0.115568294270833  C 8.46465640625 0.115568294270833  9.34282671875 1.01400360243055  9.34282671875 1.99882478298611  C 9.34282671875 3.05908370225694  9.32178955357143 3.75059264322917  9.32178955357143 3.75059264322917  Z M 8.03642102678571 2.53908072916667  C 8.03642102678571 2.20446315104167  7.75727314732143 1.93309157986111  7.41311790178572 1.93309157986111  C 7.06900834821428 1.93309157986111  6.79004321428571 2.20446315104167  6.79004321428571 2.53908072916667  C 6.79004321428571 2.87365388454861  7.06898551339286 3.14506987847222  7.41311790178572 3.14506987847222  C 7.757273125 3.14506987847222  8.03642102678571 2.87365390625  8.03642102678571 2.53908072916667  Z M 2.42765232142857 3.14504765625  C 2.08347426339286 3.14504765625  1.80453196428571 3.41604171006944  2 3.75059264322917  L 2 17.7235634114583  C 1.80453196428571 18.0581809895833  2.08347426339286 18.3295525607639  2.42762950892857 18.3295525607639  L 6.12774939732143 18.3295525607639  C 6.80349696428571 18.6793154296875  7.23911017857143 19.1415797743056  7.48294486607143 19.5415530381944  L 1.80453196428571 19.5415530598958  C 1.11601591517857 19.5415530598958  0.55819984375 18.9987655164931  0.55819984375 18.3295525824653  L 0.558199821428571 3.14504765625  C 0.558199821428571 2.47541278211806  1.11603875 1.93306937934028  1.80453194196429 1.93306937934028  L 4.95942149553571 1.93306937934028  L 4.95942149553571 3.14504765625  L 2.42765232142857 3.14504765625  Z M 10.7311425669643 18.3295525824653  L 12.4376427008929 18.3295525607639  C 12.7817750892857 18.3295525607639  13.0609001339286 18.0581809895833  13.0609001339286 17.7235634114583  L 13.0609001339286 15.7160356336806  C 13.4763441741071 15.3059358940972  13.8946434375 14.9334551215278  14.3072779464286 14.6035010416667  L 14.3072779464286 18.3295525607639  C 14.3072779464286 18.9987654947917  13.71017421875 19.5415530381944  13.0219322767857 19.5415530381944  L 9.84888359375 19.5415530598958  C 10.1210419196429 19.1445333550347  10.41649875 18.7383198784722  10.7311425669643 18.3295525824653  Z " fill-rule="nonzero" fill="#000000" stroke="none" transform="matrix(1 0 0 1 12 10 )" />
  </g>
</svg>