<?xml version="1.0" encoding="utf-8"?>
<svg version="1.1" xmlns:xlink="http://www.w3.org/1999/xlink" width="18px" height="20px" xmlns="http://www.w3.org/2000/svg">
  <g transform="matrix(1 0 0 1 -11 -10 )">
    <path d="M 8.9830350125558 6.91454945186492  C 7.4616746609933 6.91454945186492  6.22830821986607 8.15224819808468  6.22830821986607 9.67903198714718  C 6.22830821986607 11.2058452431956  7.4616746609933 12.4435145224294  8.9830350125558 12.4435145224294  C 10.5043660023717 12.4435145224294  11.7376443959263 11.2058452242944  11.7376443959263 9.67903198714718  C 11.73764441476 8.15224819808468  10.5043660023717 6.91454945186492  8.9830350125558 6.91454945186492  Z M 8.9830350125558 11.0612732547883  C 8.22231082240513 11.0612732547883  7.60561291155134 10.4423944241431  7.60561291155134 9.67903198714718  C 7.60561291155134 8.91558118699597  8.22228146065848 8.29679071950605  8.9830350125558 8.29679071950605  C 9.74367115513393 8.29679071950605  10.3603397042411 8.91558118699597  10.3603397042411 9.67903198714718  C 10.3603397042411 10.4423944241431  9.74367115513393 11.0612732547883  8.9830350125558 11.0612732547883  Z M 16.3242964976283 10.7404931325605  L 15.8261187179129 10.4519088583669  C 15.8838525188337 9.941164453125  15.8852320124163 9.42231953755041  15.8275862779018 8.90535982862903  L 16.3242964976283 8.61757086063508  C 17.6417834577288 7.85412006048387  18.0931754506138 6.16335251386089  17.3325393080357 4.84111391129032  C 16.571844460798 3.51893422379032  14.8871740743583 3.06580652721774  13.5695697049386 3.82925732736895  L 13.0728594852121 4.1170462953629  C 12.6556322858538 3.80837275705645  12.2072047746931 3.5501580015121  11.7376150530134 3.3450531313004  L 11.7376150530134 2.7677078188004  C 11.7376150530134 1.2409240297379  10.5042486118862 0.00322528351814559  8.98288826032366 0.00322528351814559  C 7.46152790876116 0.00322528351814559  6.22827887695312 1.2409240297379  6.22827887695312 2.7677078188004  L 6.22827887695312 3.34449346648185  C 5.99517171386718 3.44697225302419  5.76520512765067 3.56291263230847  5.53967056431361 3.69366955645161  C 5.31413600097656 3.82442648059476  5.09902110979352 3.96622957409274  4.89409109095982 4.11766487525202  L 4.39629486328125 3.82925732736895  C 3.07871985560826 3.06580652721774  1.39407881208147 3.51881639364919  0.633354621930802 4.84111391129032  C -0.127222834821429 6.16335251386089  0.324139796316964 7.85412004158266  1.64165611816406 8.61748247857863  L 2.13980455496652 8.90621404989919  C 2.08210011579241 9.41692900705645  2.08072060337612 9.9356855405746  2.13833699497768 10.4527630796371  L 1.64162677525112 10.7405225995464  C 0.32413981515067 11.5039733996976  -0.127252177734375 13.19468203125  0.63338396484375 14.5169795488911  C 1.39410815499442 15.8391592363911  3.07874919852121 16.2921985698085  4.3963242061942 15.5288361328125  L 4.89306378766741 15.2410766129032  C 5.31029098702567 15.549720703125  5.75871849818638 15.8078176285282  6.22830821986607 16.0130697769657  L 6.22830821986607 16.5902678112399  C 6.22830821986607 18.1170810672883  7.4616746609933 19.3548681766633  8.9830350125558 19.3548681766633  C 10.5043660023717 19.3548681766633  11.7376443959263 18.1170810672883  11.7376443959263 16.5902678112399  L 11.7376443959263 16.0134821635585  C 11.9707515590123 15.9111212071573  12.2007181452288 15.7950629977319  12.4263407561384 15.6644239037298  C 12.6518753194754 15.5336669795867  12.8670195535714 15.3918638860887  13.0719202294922 15.2404285849294  L 13.5695696861049 15.5288361328125  C 14.8871740555246 16.2922869329637  16.5718150802176 15.8391592552923  17.332539289202 14.5169795488911  C 18.0931754506138 13.1946525642641  17.6418128194754 11.5039439327117  16.3242964976283 10.7404931325605  Z M 16.1397949093192 13.8257557900706  C 15.7593741001674 14.4869634639617  14.9170535972377 14.7133947580645  14.2582954268973 14.3317577116935  L 13.0655216664342 13.640592905746  L 12.9150674434989 13.5534314516129  C 12.5735369552176 13.902165688004  12.1800842389788 14.2109570753528  11.7376443582589 14.467374968498  C 11.2950577441406 14.7236750504032  10.8318959095982 14.9112239100302  10.3603396665737 15.0337330456149  L 10.3603396665737 15.2080559916835  L 10.3603396665737 16.4522940650202  L 10.3603396665737 16.5902972593246  C 10.3603396665737 17.3537480594758  9.74367111746652 17.9726563571069  8.9829175655692 17.9726563571069  C 8.22228142299107 17.9726563571069  7.60561287388393 17.3537775264617  7.60561287388393 16.5902972593246  L 7.60561287388393 16.450379391381  L 7.60561287388393 15.2080559916835  L 7.60561287388393 15.0322602255544  C 6.65108275530134 14.784826530998  5.76262216029576 14.2822120841734  5.05076770647322 13.5535787298387  L 4.9004015499442 13.6406518208165  L 3.70762778948103 14.3318166267641  C 3.04886963797433 14.7134536731351  2.20646104980469 14.4869339969758  1.82612830705915 13.8258147051411  C 1.44582490722656 13.1646954133065  1.67156492745536 12.3193558215726  2.33032307896206 11.9376009639617  L 2.44975308523996 11.8684668220766  L 3.67343363420759 11.1593630670363  C 3.4005849609375 10.1764032195061  3.41109268066406 9.15297026839718  3.67481314662389 8.19955518523186  L 3.52306747767857 8.11165730216734  L 2.33029371721541 7.42049249621976  C 1.67144749930246 7.03882600176412  1.44579552664621 6.19336859879033  1.8260989453125 5.53224928805444  C 2.20640234514509 4.87115944430444  3.04884025739398 4.64461032006049  3.70759842773438 5.02639464465726  L 3.82670556780134 5.09538152721774  L 5.05082639229911 5.80472094254033  C 5.39232751883371 5.4559867061492  5.7858095968192 5.14713640372984  6.22824947753907 4.89077742565525  C 6.67071870117188 4.63447734375  7.13388051688058 4.44686956905242  7.60555416922433 4.32441934853831  L 7.60555416922433 4.14997859122984  L 7.60555420689174 2.90585829133065  L 7.60555420689174 2.76770779989919  C 7.60555420689174 2.0043748109879  8.22222275599888 1.38546653225806  8.98285889857701 1.38546653225806  C 9.74358308872768 1.38546653225806  10.3601635902623 2.00437482988911  10.3601635902623 2.76770779989919  L 10.3601635902623 2.90765513482863  L 10.3601635902623 4.14997853452621  L 10.3601635902623 4.32589211189516  C 11.3147817564174 4.57323744329637  12.2032717131696 5.0759697202621  12.9150968052455 5.80457360761089  L 13.8283004631696 5.27538948462702  L 14.2582367222377 5.02633567288307  C 14.9169948737444 4.64466917842742  15.7593153955078 4.87110047253024  16.1396187953404 5.53219031628024  C 16.5200396044922 6.19339799017137  16.2942995842634 7.03873758190524  15.6355414327567 7.42043352444557  L 15.0550335414342 7.75682553553427  L 14.4427676722935 8.11159834929436  L 14.2924015157645 8.1986419921875  C 14.5652795507813 9.1816902217742  14.554742469308 10.2051820690524  14.2909339557757 11.1585677041331  L 15.5147319140625 11.8675830960181  L 15.635541413923 11.9375420299899  C 16.294358288923 12.3192969254032  16.5200983091518 13.1646659652218  16.1397949093192 13.8257557900706  Z M 3.07361271972656 6.12853504914315  C 3.03721724330357 6.18962759576613  3.00158488978795 6.25133876008065  2.96721465820313 6.31349174017137  L 3.07361271972656 6.12853504914315  Z M 14.9988260051618 13.0443660408266  L 14.8923105343192 13.2296762222782  C 14.9287353536551 13.1684658266129  14.9643677071708 13.1067252331149  14.9988260051618 13.0443660408266  Z M 8.87376051688058 2.7677078188004  L 9.08667406808036 2.7677078188004  C 9.01573224609375 2.76655902217742  8.94476106236049 2.76664738533266  8.87376051688058 2.7677078188004  Z M 9.09225080357143 16.5903561743952  L 8.87913179547991 16.5903561743952  C 8.95010297921317 16.5914165889617  9.02119155343192 16.5914165889617  9.09225080357143 16.5903561743952  Z " fill-rule="nonzero" fill="#f4a121" stroke="none" transform="matrix(1 0 0 1 11 10 )" />
  </g>
</svg>