<?xml version="1.0" encoding="utf-8"?>
<svg version="1.1" xmlns:xlink="http://www.w3.org/1999/xlink" width="19px" height="20px" xmlns="http://www.w3.org/2000/svg">
  <g transform="matrix(1 0 0 1 -11 -10 )">
    <path d="M 3.25 10.7317073170732  L 3.25 13.780487804878  L 1.6875 13.780487804878  L 1.6875 9.20731707317073  L 8.71875 9.20731707317073  L 8.71875 6.15853658536585  L 10.28125 6.15853658536585  L 10.28125 9.20731707317073  L 17.3125 9.20731707317073  L 17.3125 13.780487804878  L 15.75 13.780487804878  L 15.75 10.7317073170732  L 10.28125 10.7317073170732  L 10.28125 13.780487804878  L 8.71875 13.780487804878  L 8.71875 10.7317073170732  L 3.25 10.7317073170732  Z M 7.15625 2.34756097560976  C 7.15625 3.60518292682927  8.2109375 4.63414634146342  9.5 4.63414634146342  C 10.7890625 4.63414634146342  11.84375 3.60518292682927  11.84375 2.34756097560976  C 11.84375 1.08993902439024  10.7890625 0.0609756097560976  9.5 0.0609756097560976  C 8.2109375 0.0609756097560976  7.15625 1.08993902439024  7.15625 2.34756097560976  Z M 11.84375 17.5914634146341  C 11.84375 16.3338414634146  10.7890625 15.3048780487805  9.5 15.3048780487805  C 8.2109375 15.3048780487805  7.15625 16.3338414634146  7.15625 17.5914634146341  C 7.15625 18.8490853658537  8.2109375 19.8780487804878  9.5 19.8780487804878  C 10.7890625 19.8780487804878  11.84375 18.8490853658537  11.84375 17.5914634146341  Z M 4.8125 17.5914634146341  C 4.8125 16.3338414634146  3.7578125 15.3048780487805  2.46875 15.3048780487805  C 1.1796875 15.3048780487805  0.125 16.3338414634146  0.125 17.5914634146341  C 0.125 18.8490853658537  1.1796875 19.8780487804878  2.46875 19.8780487804878  C 3.7578125 19.8780487804878  4.8125 18.8490853658537  4.8125 17.5914634146341  Z M 18.875 17.5914634146341  C 18.875 16.3338414634146  17.8203125 15.3048780487805  16.53125 15.3048780487805  C 15.2421875 15.3048780487805  14.1875 16.3338414634146  14.1875 17.5914634146341  C 14.1875 18.8490853658537  15.2421875 19.8780487804878  16.53125 19.8780487804878  C 17.8203125 19.8780487804878  18.875 18.8490853658537  18.875 17.5914634146341  Z " fill-rule="nonzero" fill="#000000" stroke="none" transform="matrix(1 0 0 1 11 10 )" />
  </g>
</svg>