<?xml version="1.0" encoding="utf-8"?>
<svg version="1.1" xmlns:xlink="http://www.w3.org/1999/xlink" width="20px" height="20px" xmlns="http://www.w3.org/2000/svg">
  <g transform="matrix(1 0 0 1 -11 -9 )">
    <path d="M 19.7862943572871 10.3533791225858  C 19.7862943572871 10.0421082205948  19.6677753269703 9.74251559223703  19.45482421875 9.51548828125  L 10.890625 0.38703125  C 10.6592662391854 0.140114435224547  10.3359977403164 1.21211750967648E-05  9.997626953125 1.21211750967648E-05  C 9.65925616593362 1.21211750967648E-05  9.33598766706459 0.140114435224547  9.10462890625 0.38703125  L 0.54140625 9.51548828125  C 0.327655915606852 9.74250947817454  0.208627763773756 10.0425629534006  0.208627763773756 10.3543767268396  C 0.208627763773756 11.030235189445  0.756519301168322 11.5781267268396  1.43237776377376 11.5781267268396  C 1.43306304079531 11.5781267268396  1.43374831769544 11.5781261512262  1.43443359375 11.578125  L 2.65015625 11.578125  L 2.65015625 17.72490234375  C 2.65126446019397 18.9777837470189  3.66635748502954 19.9933223828125  4.91923828125 19.99498046875  L 8.25171875 19.99498046875  L 8.25171875 13.8953125  C 8.25226637439319 13.6652736497631  8.43861349351314 13.4789265306432  8.66865234375 13.47837890625  L 11.3266015625 13.47837890625  C 11.5566404127369 13.4789265306432  11.7429875318568 13.6652736497631  11.74353515625 13.8953125  L 11.74353515625 20  L 15.076015625 20  C 16.3289040384522 19.9983418945016  17.3440002093708 18.9827913737471  17.34509765625 17.72990234375  L 17.34509765625 11.578125  L 18.5608203125 11.578125  C 19.2379568535301 11.5781252163358  19.7862943572871 11.0297877125787  19.7862943572871 10.3533791225858  Z M 18.03365234375 10.12486328125  L 15.8918359375 10.12486328125  L 15.8918359375 17.72490234375  C 15.8918362859043 18.1756320463693  15.5267449792152 18.5411778598323  15.076015625 18.54173828125  L 13.196796875 18.54173828125  L 13.196796875 13.8953125  C 13.1956881158388 12.8628917615434  12.3590223009566 12.0262259466612  11.3266015625 12.0251171875  L 8.66865234375 12.0251171875  C 7.63623160529339 12.0262259466612  6.79956579041121 12.8628917615434  6.79845703125 13.8953125  L 6.79845703125 18.54673828125  L 4.91923828125 18.54673828125  C 4.46850892703483 18.5461778598323  4.10341762034575 18.1806320463693  4.10341796875 17.72990234375  L 4.10341796875 10.12486328125  L 1.96162109375 10.12486328125  L 9.9976171875 1.55865234375  L 18.03365234375 10.12486328125  Z " fill-rule="nonzero" fill="#000000" stroke="none" transform="matrix(1 0 0 1 11 9 )" />
  </g>
</svg>