<?xml version="1.0" encoding="utf-8"?>
<svg version="1.1" xmlns:xlink="http://www.w3.org/1999/xlink" width="18px" height="19px" xmlns="http://www.w3.org/2000/svg">
  <g transform="matrix(1 0 0 1 -11 -11 )">
    <path d="M 17.75 14.636875  L 17.75 3.945  L 9 0.195  L 0.25 3.945  L 0.25 14.63625  L 9 18.36125  L 9.755625 18.039375  L 9.915625 18.039375  L 9.915625 17.97125  L 17.75 14.636875  Z M 15.534375 4.355625  L 9 7.136875  L 6.7825 6.193125  L 13.011875 3.318125  C 13.02625 3.31125  13.035625 3.29875  13.049375 3.290625  L 15.534375 4.355625  Z M 9 1.555  L 11.51375 2.6325  L 5.230625 5.5325  L 2.465625 4.355  L 9 1.555  Z M 1.5 13.81  L 1.5 5.3025  L 4 6.366875  L 4 10.25  C 4 10.5951779686442  4.27982203135575 10.875  4.625 10.875  C 4.97017796864425 10.875  5.25 10.5951779686442  5.25 10.25  L 5.25 6.9  L 5.25125 6.899375  L 8.665625 8.353125  L 8.665625 16.860625  L 1.5 13.81  Z M 16.5 13.810625  L 9.915625 16.613125  L 9.915625 8.105625  L 16.5 5.3025  L 16.5 13.810625  Z " fill-rule="nonzero" fill="#000000" stroke="none" transform="matrix(1 0 0 1 11 11 )" />
  </g>
</svg>