<?xml version="1.0" encoding="utf-8"?>
<svg version="1.1" xmlns:xlink="http://www.w3.org/1999/xlink" width="18px" height="20px" xmlns="http://www.w3.org/2000/svg">
  <g transform="matrix(1 0 0 1 -10 -10 )">
    <path d="M 17.49825 6.10555555555556  C 17.4987033511778 5.51726890390086  17.1813575685304 4.97342908418879  16.66575 4.67888888888889  L 9.833625 0.783333333333333  C 9.31812413098574 0.489383145192227  8.68300086901426 0.489383145192227  8.1675 0.783333333333333  L 1.33425 4.67777777777778  C 0.818709329854035 4.97307053613674  0.501159447143558 5.51694897772613  0.500625 6.10555555555556  L 0.500625 13.8966666666667  C 0.500625 14.4833333333333  0.820125 15.03  1.33425 15.3222222222222  L 8.166375 19.2188888888889  C 8.68256813834942 19.5106737912225  9.31670629530676 19.5102508950099  9.8325 19.2177777777778  L 16.664625 15.3222222222222  C 17.17875 15.0288888888889  17.49825 14.4822222222222  17.49825 13.8955555555556  L 17.49825 6.10555555555556  Z M 16.387875 6.10555555555556  L 16.387875 13.8955555555556  C 16.387875 14.0911111111111  16.281 14.2733333333333  16.11 14.3711111111111  L 9.277875 18.2666666666667  C 9.10608894057861 18.3638353471777  8.8950360594214 18.3638353471777  8.72325 18.2666666666667  L 1.89 14.37  C 1.71833424950641 14.2721126855716  1.61245280498796 14.0913304521158  1.612125 13.8955555555556  L 1.612125 6.10555555555556  C 1.612125 5.91  1.719 5.72777777777778  1.89 5.63  L 8.722125 1.73333333333333  C 8.89439805866575 1.63608364782712  9.10600199652676 1.63650670763191  9.277875 1.73444444444444  L 16.11 5.63  C 16.2820135195141 5.72808595905049  16.3879487526116 5.90938362393081  16.387875 6.10555555555556  Z " fill-rule="nonzero" fill="#000000" stroke="none" transform="matrix(1 0 0 1 10 10 )" />
  </g>
</svg>