<?xml version="1.0" encoding="utf-8"?>
<svg version="1.1" xmlns:xlink="http://www.w3.org/1999/xlink" width="13px" height="12px" xmlns="http://www.w3.org/2000/svg">
  <g transform="matrix(1 0 0 1 -12 -16 )">
    <path d="M 12.2806759652025 0.501903168694922  C 12.1813155129989 0.501903168694922  12.0838693074618 0.529424081971653  11.999 0.581454545454545  L 6.513 3.70363636363636  L 1.027 0.581454545454545  C 0.942130692538209 0.52942408197165  0.844684487001115 0.501903168694917  0.745324034797522 0.501903168694917  C 0.446169795305842 0.501903168694917  0.203657368130856 0.74611148696903  0.203657368130856 1.04735771414946  C 0.203657368130856 1.25026399394668  0.315504868482735 1.43640042391581  0.494000000000001 1.53054545454545  L 5.9605 4.64181818181818  L 5.9605 11.0945454545455  C 5.9605 11.3957916817259  6.20301242717499 11.64  6.50216666666667 11.64  C 6.80132090615835 11.64  7.04383333333334 11.3957916817259  7.04383333333334 11.0945454545455  L 7.04383333333334 4.65381818181818  L 12.532 1.53054545454545  C 12.7104951315173 1.43640042391581  12.8223426318691 1.25026399394668  12.8223426318691 1.04735771414947  C 12.8223426318691 0.746111486969034  12.5798302046942 0.501903168694922  12.2806759652025 0.501903168694922  Z " fill-rule="nonzero" fill="#f4a121" stroke="none" transform="matrix(1 0 0 1 12 16 )" />
  </g>
</svg>