<?xml version="1.0" encoding="utf-8"?>
<svg version="1.1" xmlns:xlink="http://www.w3.org/1999/xlink" width="20px" height="20px" xmlns="http://www.w3.org/2000/svg">
  <g transform="matrix(1 0 0 1 -10 -10 )">
    <path d="M 10.0911623242188 15.7785802148437  C 10.1889001953125 15.7785802148437  10.2883449023437 15.7725642773438  10.388461171875 15.7606723242187  C 11.3485755664063 15.6454462890625  12.1638599414063 14.974348359375  12.4647683398438 14.0495460742187  C 12.4874889648437 13.980376875  12.45469515625 13.9062550195313  12.3884639648437 13.875867578125  C 12.3229882617188 13.8453682226563  12.2437458789062 13.8717263867188  12.2066989453125 13.9337883984375  C 12.2032013085937 13.9396924023438  11.8217354101562 14.5558355273437  10.336668203125 14.7564038085937  C 10.1143586132812 14.7862316210938  9.89803697265625 14.801873046875  9.69299171875 14.801873046875  C 8.65254369140625 14.8012015039062  8.1888973828125 14.4090468359375  8.1846442578125 14.405437265625  C 8.1322916796875 14.3588767773437  8.05237775390625 14.3576735742188  7.99871005859375 14.4030308984375  C 7.94451072265625 14.448388203125  7.932031171875 14.5272108789063  7.96899416015625 14.5875380664063  C 8.42192373046875 15.321817265625  9.2346898046875 15.7785802148437  10.0911623242188 15.7785802148437  Z M 18.076259609375 6.57487943359375  C 18.0631644726563 6.57487943359375  18.05124453125 6.57728580078125  18.03879296875 6.57728580078125  C 17.1686376953125 2.81013865234375  13.8438152734375 0  9.857492421875 0  C 5.76153974609375 0  2.36041294921875 2.96532166015625  1.606575 6.88837931640625  C 0.87361091796875 7.0202820703125  0.315724375 7.66451818359375  0.315724375 8.443623046875  L 0.315724375 11.56186125  C 0.315724375 12.4358219335938  1.01656619140625 13.1445264257813  1.88190869140625 13.1445264257813  C 2.37003841796875 13.1445264257813  2.8008908984375 12.9140183789063  3.08750099609375 12.5600019140625  C 3.780032421875 14.3916706054688  5.1898865234375 15.8685393554688  6.9741273046875 16.6477561328125  C 6.9783804296875 16.6384664257813  7.01215357421875 16.572766875  7.05281005859375 16.520414296875  C 7.080903046875 16.4841228515625  7.1123817578125 16.454406953125  7.1393834765625 16.454406953125  C 7.16736455078125 16.454406953125  7.193051171875 16.4645640820312  7.21501630859375 16.4800655859375  C 6.80207169921875 16.172609609375  5.31045693359375 14.5922388867188  4.98735955078125 12.3868550585938  C 4.8456074609375 11.416163828125  5.5726675390625 10.4632685546875  6.41943060546875 10.3056511914063  C 7.77880685546875 10.052534453125  9.1310758984375 9.76418955078125  10.4904521484375 9.51585755859375  C 11.3545914648438 9.3582401953125  11.9451319140625 8.8842129296875  12.3062555664063 8.0949509375  C 12.3908703125 7.91044376953125  12.5130636328125 7.53740017578125  12.5691376953125 6.99940818359375  C 12.5839956445312 6.9194103125  12.6495832617188 6.857991875  12.7336383984375 6.857991875  C 12.7897124609375 6.857991875  12.83736421875 6.88661650390625  12.86895484375 6.9278326171875  L 12.9064494726562 6.90455236328125  C 13.4422309570312 7.6824260546875  14.5047560546875 9.404800703125  14.6573368164063 11.2209399023438  C 14.8325542578125 13.297331015625  14.7348163867187 14.7194687890625  13.1454917382812 16.1743724023437  C 13.1436170117187 16.1762191601563  13.1412106445312 16.17851359375  13.1389161914062 16.1803883398437  C 13.1168391210937 16.204200234375  13.103716015625 16.2352312304687  13.103716015625 16.26934015625  C 13.103716015625 16.31405390625  13.1275558789063 16.3523040234375  13.16208453125 16.3755842773437  C 13.17520765625 16.380956640625  13.18833078125 16.3881477734375  13.2014538867188 16.3935201367187  C 13.21214265625 16.3959265039062  13.2223277539063 16.399424140625  13.2330445117188 16.399424140625  C 13.2438451953125 16.399424140625  13.2533587695312 16.3959265039062  13.2628723242188 16.3935201367187  C 13.2855090039063 16.3816001953125  13.30691453125 16.367833515625  13.3289915820313 16.3559135742187  C 14.9362800976563 15.4704526757812  16.169293828125 13.9917371679687  16.7390723242188 12.2131765429687  C 16.9697202734375 12.5558326953125  17.3308439257813 12.8024298632812  17.75033609375 12.8884436523437  C 17.0774753710938 15.948649140625  14.3481180664063 17.8639532421875  10.966661953125 18.1546765429688  C 10.7640230664063 17.6519966601563  10.2651765820313 17.2950141992187  9.679336953125 17.2950141992187  C 8.91422263671875 17.2950141992187  8.29382638671875 17.9010001953125  8.29382638671875 18.6478428710938  C 8.29382638671875 19.3947135351562  8.914110703125 20  9.679336953125 20  C 10.2962355664062 20  10.8128780078125 19.6036761523437  10.992236640625 19.0591365820313  C 14.906424296875 18.7409638671875  18.0441373242187 16.4143940234375  18.6991741210937 12.7994638671875  C 19.2778226171875 12.5575955078125  19.6841916601562 11.9898876171875  19.6841916601562 11.3271840039063  L 19.6841916796875 8.1720108203125  C 19.6841916796875 7.29015947265625  18.9642387890625 6.57487943359375  18.076259609375 6.57487943359375  Z M 16.6322965820312 7.48121421875  C 15.6114353125 4.715789296875  12.9660211914062 2.74026994140625  9.85399478515625 2.74026994140625  C 6.7549795703125 2.74026994140625  4.1190790234375 4.69905662109375  3.0887041796875 7.44657365234375  C 3.03744287109375 7.38384009765625  2.97731154296875 7.33017240234375  2.91829947265625 7.27583318359375  C 3.50162080078125 3.92773048828125  6.38313916015625 1.382096875  9.857492421875 1.382096875  C 13.315224921875 1.382096875  16.1877613671875 3.90268744140625  16.7902217382813 7.2275378515625  C 16.7306780273438 7.30753572265625  16.6758071484375 7.39103123046875  16.6322965820312 7.48121421875  Z M 6.9741273046875 16.6477561328125  C 6.97348375 16.6491551757812  6.97348375 16.6493790234375  6.97435115234375 16.6477561328125  Z " fill-rule="nonzero" fill="#f4a121" stroke="none" transform="matrix(1 0 0 1 10 10 )" />
  </g>
</svg>