<?xml version="1.0" encoding="utf-8"?>
<svg version="1.1" xmlns:xlink="http://www.w3.org/1999/xlink" width="20px" height="16px" xmlns="http://www.w3.org/2000/svg">
  <g transform="matrix(1 0 0 1 -10 -12 )">
    <path d="M 12.99600112767 15.1129147512195  C 12.0438509860848 15.5155846048781  11.0328208252816 15.7197566243902  9.99092211829106 15.7197566243902  C 8.94904339178825 15.7197566243902  7.93799325049729 15.5155845853659  6.9858431089121 15.1129147512195  C 6.06647958179728 14.7240908097561  5.24096046396978 14.1676176390244  4.53222237970527 13.4589195121951  C 3.82346433446524 12.7501814439024  3.26693122505017 11.9246822829268  2.87810726601685 11.0052987707317  C 2.47537749241886 10.0531086829268  2.27118547392666 9.04197861463414  2.27118547392666 8.00001996097561  C 2.27118547392666 6.95806130731708  2.47537747290666 5.94693123902439  2.87810726601685 4.99474115121951  C 3.26695118602568 4.0753776195122  3.82346431495305 3.24985849756098  4.53222237970527 2.5411403902439  C 5.24096044445759 1.83242230243903  6.06647958179728 1.27594911219512  6.9858431089121 0.887125170731708  C 7.93799323098509 0.484455336585367  8.94904337227605 0.280263317073171  9.99092211829106 0.280263317073171  C 11.0328008447939 0.280263317073171  12.0438509860848 0.484435356097562  12.99600112767 0.887125170731708  C 13.9153646547848 1.27592913170732  14.7408837726123 1.83242228292683  15.4496218568769 2.5411403902439  C 16.1583799021169 3.24985847804878  16.714913011532 4.0753776195122  17.1037369705653 4.99474115121951  C 17.5064667441633 5.94693123902439  17.7106787431432 6.95806130731707  17.7106787431432 8.00001996097561  C 17.7106787431432 9.04197861463414  17.5064667636755 10.0531086829268  17.1037369705653 11.0052987707317  C 16.7149130310442 11.9246822829268  16.1583799216291 12.7501814243902  15.4496218568769 13.4589195121951  C 14.7408837921245 14.1676176390244  13.9153646547848 14.7240908097561  12.99600112767 15.1129147512195  Z M 16.3483463987289 8.0000199804878  C 16.3483463987289 4.49451069268293  13.4964513495604 1.64257568780488  9.99092211829106 1.64257568780488  C 6.48543284799717 1.64257568780488  3.63349783785321 4.49451069268293  3.63349783785321 8.0000199804878  C 3.63349783785321 11.5055292682927  6.48543282848497 14.3574642731707  9.99092211829106 14.3574642731707  C 13.4964313690727 14.3574642731707  16.3483463987289 11.5055292682927  16.3483463987289 8.0000199804878  Z M 18.63134092391 7.28329004878049  C 17.8055820402301 7.91626528780488  16.5984516267479 8.5281819902439  15.1404367852506 9.05288753170732  L 14.6791466607256 7.7710731902439  C 16.006734361411 7.29327986341463  17.0868141804059 6.75075248780488  17.8025451426843 6.20209135609756  C 18.454421139428 5.70242033170732  18.6494824457706 5.31381615609756  18.6146379386276 5.11677685853658  C 18.5503634023633 4.75228813658536  17.5883633096078 4.15579572682927  15.201274814215 4.00530899512195  L 15.2870074772014 2.64569391219512  C 16.5280633344165 2.72395420487805  17.5481842268817 2.92071377560976  18.3189990718117 3.23051820487805  C 19.5166591243657 3.71188788292683  19.8703588494281 4.39319389268293  19.956191414853 4.87995808780488  C 20.0341320193417 5.3210687804878  19.9325355125321 5.77097049756097  19.6541590651422 6.21695621463414  C 19.4299874174815 6.5761103804878  19.0858579362737 6.93486495609756  18.63134092391 7.28329004878049  Z M 6.55020683791751 10.659151395122  C 6.33029085852825 10.6654849365854  6.11375142546359 10.6686417170732  5.90146766067035 10.6686417170732  C 4.48245307263681 10.668661697561  3.24233627883157 10.5281648  2.28557083970846 10.2570609560976  C 1.68761991586614 10.0876335414634  1.19959703049908 9.86619908292683  0.835088310368695 9.59897129756098  C 0.380131727275488 9.26543104390244  0.107809114001675 8.86020380487805  0.0256727827046541 8.39459806829268  C -0.182575099181914 7.21555904390244  0.879243334538371 6.02503170731707  3.09638492346308 4.95186483902439  L 3.68990035464463 6.17807582439024  C 1.74256393510387 7.12063572682927  1.31909527380459 7.88519693658537  1.36724623941772 8.15779927804878  C 1.40348932216351 8.36332993170732  1.76300311548958 8.69305406829268  2.65695253541427 8.94635605853659  C 3.6251263452121 9.22067664390244  4.95782883611582 9.34197307317073  6.51104672103995 9.29741845853659  L 6.55020683791751 10.659151395122  Z M 14.1292867220089 8.84260173658537  C 14.0592580784563 8.44658511219512  13.7643584701733 8.31619791219512  13.3567936136726 8.38804474146341  C 13.1368376537958 8.42706499512195  11.6552468319285 8.70290401951219  11.6552468319285 8.70290401951219  L 9.14526350788124 6.3428080195122  L 8.57008938392514 6.41819123902439  L 9.79979679241653 9.06919092682927  L 8.52085953051252 9.28205410731707  L 7.13505112767896 8.40576669268293  L 6.88228859235622 8.39379888780488  L 7.68007596398078 10.0283938926829  L 7.45744273582461 11.8275212878049  L 7.70089475412069 11.7330375219512  L 8.66187588102762 10.4829308878049  C 8.66187588102762 10.4829308878049  13.113761146594 9.65457465365854  13.5629835638622 9.57561508292683  C 14.0481493760728 9.48958271219512  14.2073472094239 9.28559049756098  14.1292867220089 8.84260173658537  Z M 10.0197727327811 10.4439106146341  L 9.70357482216547 13.0275189463415  L 10.1953738636112 12.9099786731707  L 11.7049162365584 10.1459141658537  L 10.0197727327811 10.4439106146341  Z " fill-rule="nonzero" fill="#f4a121" stroke="none" transform="matrix(1 0 0 1 10 12 )" />
  </g>
</svg>