<?xml version="1.0" encoding="utf-8"?>
<svg version="1.1" xmlns:xlink="http://www.w3.org/1999/xlink" width="20px" height="20px" xmlns="http://www.w3.org/2000/svg">
  <g transform="matrix(1 0 0 1 -10 -10 )">
    <path d="M 5.078125 2.38932291666667  C 4.97612847222222 3.08376736111111  5.24956597222222 3.79123263888889  5.78993055555556 4.29253472222222  C 6.01996527777778 4.50520833333333  6.32595486111111 4.62456597222222  6.64496527777778 4.62456597222222  L 12.9383680555556 4.62456597222222  C 13.3854166666667 4.62456597222222  13.7955729166667 4.39236111111111  14.0147569444444 4.01909722222222  C 15.4969618055556 1.47135416666667  15.5946180555556 0.598958333333334  15.2951388888889 0.3515625  C 14.6853298611111 -0.15625  12.6258680555556 2.10286458333333  9.62239583333333 1.96180555555556  C 8.58940972222222 1.9140625  7.69748263888889 1.59505208333333  6.97916666666667 1.21744791666667  C 6.38454861111111 0.907118055555556  5.63585069444445 1.12196180555556  5.31467013888889 1.69487847222222  C 5.20399305555556 1.89236111111111  5.11501736111111 2.12456597222222  5.078125 2.38932291666667  Z M 17.0182291666667 19.6983506944444  C 19.84375 19.6983506944444  20.4144965277778 16.0828993055556  18.8628472222222 12.8255208333333  L 16.6037326388889 8.07725694444444  C 15.9440104166667 6.69270833333333  14.4618055555556 5.75737847222222  13.1814236111111 5.75737847222222  L 6.82291666666667 5.75737847222222  C 5.54253472222222 5.75737847222222  4.05815972222222 6.69270833333333  3.40060763888889 8.07725694444444  L 1.13932291666667 12.8255208333333  C -0.412326388888889 16.0828993055556  0.158420138888889 19.6983506944444  2.98611111111111 19.6983506944444  L 17.0182291666667 19.6983506944444  Z M 13.4657118055556 9.20355902777778  C 13.6935763888889 9.20789930555555  13.8194444444444 9.45963541666667  13.6783854166667 9.63107638888889  L 11.5668402777778 12.1636284722222  C 11.42578125 12.3328993055556  11.5516493055556 12.5868055555556  11.77734375 12.5868055555556  L 12.8862847222222 12.5868055555556  C 13.0881076388889 12.5868055555556  13.2183159722222 12.7907986111111  13.1271701388889 12.9644097222222  L 12.7278645833333 13.7174479166667  C 12.6822916666667 13.8042534722222  12.5889756944444 13.8585069444444  12.4869791666667 13.8585069444444  L 11.2239583333333 13.8585069444444  C 11.07421875 13.8585069444444  10.9526909722222 13.9756944444444  10.9526909722222 14.1189236111111  C 10.9526909722222 14.2621527777778  11.07421875 14.3793402777778  11.2239583333333 14.3793402777778  L 12.8016493055556 14.3793402777778  C 12.9947916666667 14.3793402777778  13.125 14.5681423611111  13.0512152777778 14.7395833333333  L 12.7235243055556 15.48828125  C 12.6822916666667 15.5837673611111  12.5824652777778 15.6467013888889  12.4739583333333 15.6467013888889  L 11.2239583333333 15.6467013888889  C 11.07421875 15.6467013888889  10.9526909722222 15.7638888888889  10.9526909722222 15.9071180555556  L 10.9526909722222 17.0355902777778  C 10.9526909722222 17.1788194444444  10.8311631944444 17.2960069444444  10.6814236111111 17.2960069444444  L 9.49869791666667 17.2960069444444  C 9.34895833333333 17.2960069444444  9.22743055555556 17.1788194444444  9.22743055555556 17.0355902777778  L 9.22743055555556 15.9071180555556  C 9.22743055555556 15.7638888888889  9.10590277777778 15.6467013888889  8.95616319444444 15.6467013888889  L 7.33072916666667 15.6467013888889  C 7.18098958333333 15.6467013888889  7.05946180555556 15.5295138888889  7.05946180555556 15.3862847222222  L 7.05946180555556 14.6375868055556  C 7.05946180555556 14.4943576388889  7.18098958333333 14.3771701388889  7.33072916666667 14.3771701388889  L 8.96267361111111 14.3771701388889  C 9.11241319444444 14.3771701388889  9.23394097222222 14.2599826388889  9.23394097222222 14.1167534722222  C 9.23394097222222 13.9735243055556  9.11241319444444 13.8563368055556  8.96267361111111 13.8563368055556  L 7.33072916666667 13.8563368055556  C 7.18098958333333 13.8563368055556  7.05946180555556 13.7391493055556  7.05946180555556 13.5959201388889  L 7.05946180555556 12.8428819444444  C 7.05946180555556 12.6996527777778  7.18098958333333 12.5824652777778  7.33072916666667 12.5824652777778  L 8.41145833333333 12.5824652777778  C 8.64149305555556 12.5824652777778  8.76519097222222 12.32421875  8.61979166666667 12.1549479166667  L 6.4453125 9.65277777777778  C 6.29774305555556 9.48350694444444  6.42361111111111 9.22526041666667  6.65364583333333 9.22526041666667  L 7.87543402777778 9.22526041666667  C 7.95355902777778 9.22526041666667  8.02734375 9.2578125  8.07725694444444 9.31206597222222  L 9.95225694444445 11.34765625  C 10.0651041666667 11.4691840277778  10.2625868055556 11.4626736111111  10.3667534722222 11.3346354166667  L 12.0160590277778 9.30338541666667  C 12.0681423611111 9.24045138888889  12.1462673611111 9.20355902777778  12.2287326388889 9.20355902777778  L 13.4657118055556 9.20355902777778  Z " fill-rule="nonzero" fill="#000000" stroke="none" transform="matrix(1 0 0 1 10 10 )" />
  </g>
</svg>