<?xml version="1.0" encoding="utf-8"?>
<svg version="1.1" xmlns:xlink="http://www.w3.org/1999/xlink" width="20px" height="20px" xmlns="http://www.w3.org/2000/svg">
  <g transform="matrix(1 0 0 1 -10 -10 )">
    <path d="M 19 2.96885850694444  C 19.0276692708333 1.89016927083333  18.1532335069444 1.01573350694444  17.0745442708333 1  L 2.96885850694444 1  C 1.89016927083333 1.01573350694444  1.01573350694444 1.89016927083333  1 2.96885850694444  L 1 17.0745659722222  C 1.01573350694444 18.1532552083333  1.89016927083333 19.0276909722222  2.96885850694444 19  L 17.0745659722222 19  C 18.1532552083333 19.0276909722222  19.0276909722222 18.1532552083333  19 17.0745659722222  L 19 2.96885850694444  Z M 17.8123914930556 17.0745442708333  C 17.8123914930556 17.4814019097222  17.4814019097222 17.8123914930556  17.0745442708333 17.8123914930556  L 2.96885850694444 17.8123914930556  C 2.56200086805556 17.8123914930556  2.23101128472222 17.4814019097222  2.23101128472222 17.0745442708333  L 2.23101128472222 2.96885850694444  C 2.23101128472222 2.56200086805556  2.56200086805556 2.23101128472222  2.96885850694444 2.23101128472222  L 17.0745659722222 2.23101128472222  C 17.4814236111111 2.23101128472222  17.8124131944444 2.56200086805556  17.8124131944444 2.96885850694444  L 17.8124131944444 17.0745442708333  Z " fill-rule="nonzero" fill="#f4a121" stroke="none" transform="matrix(1 0 0 1 10 10 )" />
  </g>
</svg>