<?xml version="1.0" encoding="utf-8"?>
<svg version="1.1" xmlns:xlink="http://www.w3.org/1999/xlink" width="20px" height="19px" xmlns="http://www.w3.org/2000/svg">
  <g transform="matrix(1 0 0 1 -10 -10 )">
    <path d="M 8.83090908203125 6.2663636328125  C 8.45435130470252 6.26636362202569  8.14909091796875 5.96110322654748  8.14909091796875 5.58454544921875  C 8.14909091796875 5.20798767189002  8.45435130470252 4.90272727641181  8.83090908203125 4.902727265625  L 14.2081818164062 4.902727265625  C 14.5847395726259 4.902727265625  14.8899999712635 5.20798766426259  14.8899999712635 5.58454544921875  C 14.8899999712635 5.96110323417491  14.5847395726259 6.2663636328125  14.2081817876698 6.2663636328125  L 8.83090908203125 6.2663636328125  Z M 8.83090908203125 8.4663636328125  L 14.2081818164062 8.4663636328125  C 14.5847396013624 8.4663636328125  14.89 8.16110323417491  14.89 7.78454544921875  C 14.89 7.40798766426259  14.5847396013624 7.102727265625  14.2081818164062 7.102727265625  L 8.83090908203125 7.102727265625  C 8.45435129707509 7.102727265625  8.1490908984375 7.40798766426259  8.1490908984375 7.78454544921875  C 8.1490908984375 8.16110323417491  8.45435129707509 8.4663636328125  8.83090908203125 8.4663636328125  Z M 18.4854545507812 11.6636363671875  C 18.867272734375 11.9290909179688  19.1190909179688 12.37  19.1190909179688 12.87  L 19.1190909179688 16.7809090820313  C 19.1190909179688 17.5881818164062  18.4618181835937 18.2445454492187  17.6554545507813 18  L 2.40181818359375 18  C 1.59454544921875 18.2445454492187  0.93818181640625 17.5872727148437  0.93818181640625 16.7809090820313  L 0.93818181640625 12.87  C 0.93818181640625 12.37  1.19090908203125 11.9281818164062  1.5736363671875 11.6645454492187  L 1.5736363671875 3.872727265625  C 1.57513911377644 2.63271788006939  2.57999061444439 1.62786637940144  3.82 1.6263636328125  L 4.68909091796875 1.6263636328125  C 4.99878847761743 0.722076420488922  5.84779086077537 0.113612542043461  6.8036363671875 0.110909082031249  L 16.2390909179687 0.110909082031249  C 17.4792473496296 0.112912470747883  18.4839529509856 1.11802467565582  18.4854545507812 2.35818181640625  L 18.4854545507812 11.6636363671875  Z M 6.80181818359375 1.47454544921875  C 6.31456926147426 1.47604520736627  5.9200891266815 1.87093160864798  5.91909091796875 2.35818181640625  L 5.91909091796875 11.4045454492187  L 7.50181818359375 11.4045454492187  C 7.85157486994366 11.4046104590049  8.14455800010329 11.6693164030401  8.18 12.017272734375  C 8.2163636328125 12.37454546875  8.937272734375 12.8709091015625  10.0281818164062 12.8709090820312  C 11.1190908984375 12.8709090625  11.84 12.3736363476562  11.8763636328125 12.017272734375  C 11.9118056327092 11.6693164030401  12.2047887628688 11.4046104590049  12.5545454492187 11.4045454492187  L 17.1190909179687 11.4045454492187  L 17.1190909179688 2.35818181640625  C 17.1185909683672 1.87072491686876  16.7238197595058 1.47554715049129  16.2363636328125 1.47454544921875  L 6.80181818359375 1.47454544921875  Z M 3.81818181640625 2.99090908203125  C 3.33158198392911 2.99190929137581  2.93736384215706 3.38612743314786  2.9363636328125 3.872727265625  L 2.9363636328125 11.4045454492187  L 4.55454544921875 11.4045454492187  L 4.55454544921875 2.99090908203125  L 3.81818181640625 2.99090908203125  Z M 17.7554545507812 16.7809090820313  L 17.7554545507812 12.87  C 17.7554586830181 12.8138624429003  17.7106871580012 12.7690909178834  17.6554586830181 12.7690909178834  L 13.0490909179687 12.7690909179688  C 12.6027272851562 13.6363636523437  11.4254545507812 14.2354545507812  10.0290909179687 14.2354545507812  C 8.63272728515625 14.2354545507812  7.45545455078125 13.6363636328125  7.007272734375 12.7690909179688  L 2.40181818359375 12.7690909179688  C 2.34658557637382 12.7690909178834  2.3018140513569 12.8138624429003  2.3018140513569 12.8690909178834  L 2.30181818359375 16.7809090820313  C 2.30181818359375 16.8372727148437  2.34545455078125 16.8809090820312  2.40181818359375 16.8809090820312  L 17.6554545507813 16.8809090820312  C 17.7106830257643 16.8809090820312  17.7554545507812 16.8361375570143  17.7554545507812 16.7809090820313  Z " fill-rule="nonzero" fill="#231815" stroke="none" transform="matrix(1 0 0 1 10 10 )" />
  </g>
</svg>