<?xml version="1.0" encoding="utf-8"?>
<svg version="1.1" xmlns:xlink="http://www.w3.org/1999/xlink" width="10px" height="15px" xmlns="http://www.w3.org/2000/svg">
  <g transform="matrix(1 0 0 1 -4 -38 )">
    <path d="M 0.549996703413353 2.25499718780647  C 0.549996703413353 1.31456080059205  1.31146516392289 0.551708066023652  2.2519 0.55  C 2.25404999040796 0.549991882496632  2.25619999422448 0.5499878237341  2.25834999995661 0.5499878237341  C 3.20184565233004 0.5499878237341  3.96669999995661 1.31484217136066  3.96669999995661 2.2583378237341  C 3.96669999995661 3.20183347610754  3.20184565233004 3.9666878237341  2.25834999995661 3.9666878237341  C 1.31485910270728 3.9666878237341  0.550006724732075 3.20184089722536  0.550000000000001 2.25835  C 0.5499978022761 2.25723239728585  0.549996703413353 2.25611479268149  0.549996703413353 2.25499718780647  Z M 5.99614670359049 2.25499727788558  C 5.99614670359049 1.31454137177368  6.75764559537114 0.551680522220436  7.6981 0.55  C 7.70023332396267 0.549992007861924  7.70236666102472 0.549988011782369  7.70449999995794 0.549988011782369  C 8.64799565233137 0.549988011782369  9.41284999995793 1.31484235940893  9.41284999995793 2.25833801178237  C 9.41284999995793 3.2018336641558  8.64799565233137 3.96668801178237  7.70449999995794 3.96668801178237  C 6.7610090292713 3.96668801178237  5.99615662087692 3.20184097066341  5.99615 2.25835  C 5.99614780239419 2.25723242731249  5.99614670359049 2.25611485273378  5.99614670359049 2.25499727788558  Z M 0.549996703413353 7.72164718780647  C 0.549996703413353 6.78121080059205  1.31146516392289 6.01835806602365  2.2519 6.01665  C 2.25404999040783 6.01664188249663  2.25619999422461 6.0166378237341  2.25834999995661 6.0166378237341  C 3.20184565233004 6.0166378237341  3.96669999995661 6.78149217136066  3.96669999995661 7.7249878237341  C 3.96669999995661 8.66848347610753  3.20184565233004 9.4333378237341  2.25834999995661 9.4333378237341  C 1.31485910270728 9.4333378237341  0.550006724732075 8.66849089722536  0.550000000000001 7.725  C 0.5499978022761 7.72388239728585  0.549996703413353 7.7227647926815  0.549996703413353 7.72164718780647  Z M 5.99614670359049 7.72164727788558  C 5.99614670359049 6.78119137177368  6.75764559537114 6.01833052222044  7.6981 6.01665  C 7.7002333239628 6.01664200786192  7.70236666102459 6.01663801178237  7.70449999995794 6.01663801178237  C 8.64799565233137 6.01663801178237  9.41284999995793 6.78149235940893  9.41284999995793 7.72498801178237  C 9.41284999995793 8.6684836641558  8.64799565233137 9.43333801178237  7.70449999995794 9.43333801178237  C 6.7610090292713 9.43333801178237  5.99615662087692 8.66849097066341  5.99615 7.725  C 5.99614780239419 7.72388242731249  5.99614670359049 7.72276485273378  5.99614670359049 7.72164727788558  Z M 0.549996801002994 13.1883471876292  C 0.549996801002994 12.2479108385117  1.31146520211746 11.4850581197825  2.2519 11.48335  C 2.25404999028244 11.4833418824976  2.25619999397468 11.4833378237355  2.25834999958128 11.4833378237355  C 3.20184565195472 11.4833378237355  3.96669999958128 12.2481921713621  3.96669999958128 13.1916878237355  C 3.96669999958128 14.1351834761089  3.20184565195472 14.9000378237355  2.25834999958128 14.9000378237355  C 1.31485434720785 14.9000378237355  0.549999999581283 14.1351834761089  0.549999999581283 13.1916878237355  C 0.549997867335831 13.1905490638341  0.549996801002994 13.1894481258608  0.549996801002994 13.1883471876292  Z M 5.99614680117749 13.1883472777112  C 5.99614680117749 12.2478914096954  6.75764563356334 11.4850305759801  7.6981 11.48335  C 7.70023332383553 11.4833420078629  7.70236666077103 11.4833380117838  7.70449999957711 11.4833380117838  C 8.64799565195054 11.4833380117838  9.41284999957711 12.2481923594104  9.41284999957711 13.1916880117838  C 9.41284999957711 14.1351836641572  8.64799565195054 14.9000380117838  7.70449999957711 14.9000380117838  C 6.76100434720367 14.9000380117838  5.99614999957711 14.1351836641572  5.99614999957711 13.1916880117838  C 5.99614786745216 13.1905490938615  5.99614680117749 13.1894481859151  5.99614680117749 13.1883472777112  Z " fill-rule="nonzero" fill="#7f7f7f" stroke="none" transform="matrix(1 0 0 1 4 38 )" />
  </g>
</svg>