<?xml version="1.0" encoding="utf-8"?>
<svg version="1.1" xmlns:xlink="http://www.w3.org/1999/xlink" width="12px" height="12px" viewBox="95 1.5  12 12" xmlns="http://www.w3.org/2000/svg">
  <path d="M 101 1.5  C 104.36 1.5  107 4.14  107 7.5  C 107 10.86  104.36 13.5  101 13.5  C 97.64 13.5  95 10.86  95 7.5  C 95 4.14  97.64 1.5  101 1.5  Z " fill-rule="nonzero" fill="#ffffff" stroke="none" />
  <path d="M 101 2  C 104.08 2  106.5 4.42  106.5 7.5  C 106.5 10.58  104.08 13  101 13  C 97.92 13  95.5 10.58  95.5 7.5  C 95.5 4.42  97.92 2  101 2  Z " stroke-width="1" stroke="#f4a121" fill="none" />
  <path d="M 101 10.5  C 99.32 10.5  98 9.18  98 7.5  C 98 5.82  99.32 4.5  101 4.5  C 102.68 4.5  104 5.82  104 7.5  C 104 9.18  102.68 10.5  101 10.5  " fill-rule="nonzero" fill="#f4a121" stroke="none" />
</svg>