<?xml version="1.0" encoding="utf-8"?>
<svg version="1.1" xmlns:xlink="http://www.w3.org/1999/xlink" width="33px" height="20px" xmlns="http://www.w3.org/2000/svg">
  <g transform="matrix(1 0 0 1 -77 -623 )">
    <path d="M 6.60485652162665 15.742869297773  C 6.80721120524628 15.5725840517241  7.05003681705298 15.4448701508621  7.2928623861755 15.4448701508621  C 7.57615892616929 15.4448701508621  7.81898453797599 15.5725840517241  7.98086829340852 15.742869297773  C 8.35888056281484 16.1434175610146  8.35888056281485 16.7897454687986  7.98086829340852 17.1902937320402  C 7.60008217957853 17.5879241930667  6.98564263545664 17.5879241930667  6.60485652162665 17.1902937320402  C 6.22684425222033 16.7897454687986  6.22684425222033 16.1434175610146  6.60485652162665 15.742869297773  Z M 20.1626195558257 11.2303107489224  L 20.1626195558257 10.6768838002874  L 21.4576894712334 10.6768838002874  L 21.4576894712334 11.2303107489224  L 20.1626195558257 11.2303107489224  Z M 20.0007358430774 9.82545765984195  L 20.0007358430774 4.75947211745689  L 24.128771158423 4.75947211745689  C 25.2214863902111 6.03661130567528  26.0309050820054 7.39889313936782  26.4760853774317 8.88888887392241  L 24.493009554791 8.88888887392241  L 23.3598233948158 9.82545765984195  L 20.0007358430774 9.82545765984195  Z M 24.4120676984168 14.1677309626437  C 24.9786607784044 13.5717326688218  25.7476085420116 13.1885909213362  26.6379690901801 13.1885908764368  C 27.4878587101614 13.1885908764368  28.2972774019557 13.5717326239224  28.8638704819433 14.1677309626437  C 29.4304635619309 14.7637292564655  29.7947019582988 15.5725840966236  29.794702000983 16.5091528376437  C 29.794702000983 17.4031502783764  29.4304636046151 18.2545764188218  28.8638704819433 18.8505747126437  C 28.2972774019557 19.4465730064655  27.5283296383485 19.8297147539511  26.6379690901801 19.8297147539511  C 25.7880794701987 19.8297147539511  24.9786607784044 19.4465730064655  24.4120676984168 18.8505747126437  C 23.8454746184292 18.2545764188218  23.4812362220613 17.4457215786638  23.4812362220613 16.5091528376437  C 23.4812362220613 15.6151553969109  23.8454746184292 14.7637292564655  24.4120676984168 14.1677309626437  Z M 27.3259749974131 15.742869297773  C 27.1640912419805 15.5725840517241  26.921265672858 15.4448701508621  26.6379690901801 15.4448701508621  C 26.3546725501863 15.4448701508621  26.1118469383796 15.5725840517241  25.9499632256312 15.742869297773  C 25.5719509562249 16.1434175610146  25.5719509562249 16.7897454687986  25.9499632256312 17.1902937320402  C 26.3307493394612 17.5879241930667  26.9451888835831 17.5879241930667  27.3259749974131 17.1902937320402  C 27.7039872668194 16.7897454687986  27.7039872668194 16.1434175610146  27.3259749974131 15.742869297773  Z M 27.0831493856064 16.4665815373563  C 27.0831493856064 16.3388676364943  27.0426784574193 16.2537249910201  26.9617365583609 16.1685823904454  C 26.8807947019868 16.0834397898707  26.7593818747413 16.0408684895833  26.6379690901801 16.0408684446839  C 26.5165563056188 16.0408684446839  26.3951434783733 16.0834397449713  26.3546725501863 16.1685823904454  C 26.2737306938121 16.2537249910201  26.233259765625 16.3814389367816  26.233259765625 16.4665815373563  C 26.233259765625 16.5942954382184  26.2737306938121 16.7220093839799  26.3546725501863 16.8071519845546  C 26.4356144065604 16.8922945851293  26.5570272338059 16.9348658854167  26.6379690901801 16.9348658854167  C 26.7593818747413 16.9348658854167  26.8807947019868 16.8922945851293  26.9617365583609 16.8071519845546  C 27.0426784147351 16.7220093839799  27.0831493429222 16.5942954382184  27.0831493856064 16.4665815373563  Z M 28.0139808619619 16.4665815373563  C 28.0139808619619 16.0834397898707  27.8520971065294 15.7002979974856  27.6092715374069 15.4448701508621  C 27.3664459256002 15.1894423042385  27.0022075292322 15.0191571030891  26.6379690901801 15.0191571030891  C 26.2737306938121 15.0191571030891  25.9094922547599 15.1894423491379  25.6666666856374 15.4448701508621  C 25.4238410738307 15.7002979974856  25.2619573610824 16.0834397449713  25.2619573183982 16.4665815373563  C 25.2619573183982 16.8497232848419  25.4238410738307 17.232865077227  25.6666666856374 17.4882928789511  C 25.9094922974441 17.7437207255747  26.2737306938121 17.9140059267241  26.6379690901801 17.9140059716236  C 27.002207486548 17.9140059716236  27.3664459256002 17.7437207255747  27.6092715374069 17.4882928789511  C 27.8520971492136 17.2328650323276  28.0139808619619 16.8497232848419  28.0139808619619 16.4665815373563  Z M 27.9330390055878 8.76117497306034  C 27.2450330983547 6.88803744612069  26.1927888374379 5.18518521012931  24.5739514538493 3.65261813038793  C 24.4930095974752 2.37547894216954  24.1692421292943 1.18348230962644  23.4002943230029 0.0766283674568956  L 18.3009566031146 0.0766283674568956  L 18.3009566031146 3.61004683010058  L 18.0176600631209 3.61004683010058  L 18.0176600631209 0  L 0.412803527266142 0  C 0.0080942027110926 3.82290337643678  0.0890360590852649 7.56917838541667  0.412803527266142 11.3154533943966  L 1.54598968724131 11.3154533943966  L 1.54598968724131 12.6777352280891  L 2.0721118390418 12.6777352280891  L 2.0721118390418 14.6785866109914  L 2.92200145902318 16.5942954382184  L 3.20529799901697 16.5942954382184  L 3.20529799901697 16.4665815373563  C 3.20529799901697 15.2745849497126  3.6504782944433 14.210302262931  4.4194260580505 13.401447422773  C 5.14790289347062 12.6351638829023  6.20014719707161 12.1243082345546  7.33333331436259 12.1243082345546  C 8.46651943165356 12.1243082345546  9.47829284975166 12.5925926275144  10.2472406133589 13.401447422773  C 10.975717448779 14.1677309626437  11.4613686297082 15.2745849497126  11.4613686723924 16.4665815373563  L 11.4613686723924 16.5942954382184  L 18.7461368558568 16.5942954382184  L 18.7461368558568 4.54661557112069  L 19 4.54661557112069  L 19 16.6368667385057  L 22.4694628466474 16.6368667385057  L 22.4694628466474 16.5091528376437  C 22.4694628466474 15.31715625  22.9551140702608 14.210302262931  23.6835908629967 13.401447422773  C 24.4525386266039 12.5925925826149  25.4643120020178 12.1243082345546  26.6379690901801 12.1243082345546  C 27.7711552501552 12.1243082345546  28.8233995537562 12.6351639278017  29.5923473173634 13.401447422773  C 30.3612950809706 14.210302262931  30.8064753337127 15.2745849497126  30.8064753337127 16.5091528376437  L 30.8064753337127 16.6368667385057  L 32.2229580763659 16.6368667385057  L 32.7895511563535 13.6568752693966  L 30.7660044055257 13.6568752693966  L 30.1994113255381 11.9965942887931  L 32.1420161773075 11.9965942887931  C 31.980132421875 11.3154533943965  31.6968358818812 10.6768837553879  31.3325974855132 9.99574286099138  C 30.1994113255381 9.57002981321839  29.0662251655629 9.18688802083333  27.9330390055878 8.76117497306034  Z M 5.14790285078643 9.10174542025862  L 5.14790285078643 1.82205194863505  L 5.55261221802567 1.82205194863505  L 5.55261221802567 9.10174542025862  L 5.14790285078643 9.10174542025862  Z M 1.74834437086093 9.10174542025862  L 1.74834437086093 1.82205194863505  L 2.15305369541598 1.82205194863505  L 2.15305369541598 9.10174542025862  L 1.74834437086093 9.10174542025862  Z M 8.54746137339612 9.10174542025862  L 8.54746137339612 1.82205194863505  L 8.95217069795117 1.82205194863505  L 8.95217069795117 9.10174542025862  L 8.54746137339612 9.10174542025862  Z M 11.9470198533216 9.10174542025862  L 11.9470198533216 1.82205194863505  L 12.3517292205609 1.82205194863505  L 12.3517292205609 9.10174542025862  L 11.9470198533216 9.10174542025862  Z M 15.3465783759313 9.10174542025862  L 15.3465783759313 1.82205194863505  L 15.7512877004863 1.82205194863505  L 15.7512877004863 9.10174542025862  L 15.3465783759313 9.10174542025862  Z M 9.51876377793874 14.1677309626437  C 8.95217069795116 13.5717326688218  8.18322293434396 13.1885909213362  7.2928623861755 13.1885908764368  C 6.44297276619412 13.1885908764368  5.63355407439983 13.5717326239224  5.06696099441225 14.1677309626437  C 4.50036791442467 14.7637292564655  4.1361295180567 15.5725840966236  4.1361295180567 16.5091528376437  C 4.1361295180567 17.4031502783764  4.50036791442467 18.2545764188218  5.06696099441225 18.8505747126437  C 5.63355407439983 19.4465730064655  6.40250183800704 19.8297147539511  7.2928623861755 19.8297147539511  C 8.14275200615687 19.8297147539511  8.95217069795116 19.4465730064655  9.51876377793874 18.8505747126437  C 10.0853568579263 18.2545764188218  10.4495952542943 17.4457215786638  10.4495952969785 16.5091528376437  C 10.4495952969785 15.6151553969109  10.0853569006105 14.7637292564655  9.51876377793874 14.1677309626437  Z M 8.66887415795737 16.4665815373563  C 8.66887415795737 16.0834397898707  8.50699040252483 15.7002979974856  8.26416483340232 15.4448701508621  C 8.02133922159561 15.1894423042385  7.65710082522765 15.0191571030891  7.2928623861755 15.0191571030891  C 6.92862398980753 15.0191571030891  6.56438555075538 15.1894423491379  6.32155998163286 15.4448701508621  C 6.07873436982616 15.7002979974856  5.91685065707781 16.0834397449713  5.91685061439363 16.4665815373563  C 5.91685061439363 16.8497232848419  6.07873436982616 17.232865077227  6.32155998163287 17.4882928789511  C 6.56438559343957 17.7437207255747  6.92862398980753 17.9140059267241  7.2928623861755 17.9140059716236  C 7.65710078254346 17.9140059716236  8.02133922159561 17.7437207255747  8.26416483340232 17.4882928789511  C 8.50699044520903 17.2328650323276  8.66887415795737 16.8497232848419  8.66887415795737 16.4665815373563  Z M 7.73804268160182 16.4665815373563  C 7.73804268160182 16.3388676364943  7.69757175341474 16.2537249910201  7.61662985435637 16.1685823904454  C 7.5356879979822 16.0834397898707  7.41427517073676 16.0408684895833  7.33333331436258 16.0408684446839  C 7.21192052980132 16.0408684446839  7.09050770255588 16.0834397449713  7.0095658461817 16.1685823904454  C 6.92862398980753 16.2537249910201  6.88815306162044 16.3814389367816  6.88815306162044 16.4665815373563  C 6.88815306162044 16.5942954382184  6.92862398980753 16.7220093839799  7.0095658461817 16.8071519845546  C 7.09050770255588 16.8922945851293  7.21192052980132 16.9348658854167  7.33333331436258 16.9348658854167  C 7.45474609892384 16.9348658854167  7.57615892616929 16.8922945851293  7.61662985435637 16.8071519845546  C 7.69757171073055 16.7220093839799  7.73804263891763 16.5942954382184  7.73804268160182 16.4665815373563  Z " fill-rule="nonzero" fill="#ffffff" stroke="none" transform="matrix(1 0 0 1 77 623 )" />
  </g>
</svg>