<?xml version="1.0" encoding="utf-8"?>
<svg version="1.1" xmlns:xlink="http://www.w3.org/1999/xlink" width="100px" height="25px" xmlns="http://www.w3.org/2000/svg">
  <defs>
    <mask fill="white" id="clip3">
      <path d="M 0 20  L 0 5  C 0 2.19999999999999  2.19999999999999 0  5 0  L 64 0  L 95 0  C 97.8 0  100 2.19999999999999  100 5  L 100 20  C 100 22.8  97.8 25  95 25  L 5 25  C 2.19999999999999 25  0 22.8  0 20  Z " fill-rule="evenodd" />
    </mask>
  </defs>
  <g transform="matrix(1 0 0 1 -127 -132 )">
    <path d="M 0 20  L 0 5  C 0 2.19999999999999  2.19999999999999 0  5 0  L 64 0  L 95 0  C 97.8 0  100 2.19999999999999  100 5  L 100 20  C 100 22.8  97.8 25  95 25  L 5 25  C 2.19999999999999 25  0 22.8  0 20  Z " fill-rule="nonzero" fill="#fef5e6" stroke="none" transform="matrix(1 0 0 1 127 132 )" />
    <path d="M 0 20  L 0 5  C 0 2.19999999999999  2.19999999999999 0  5 0  L 64 0  L 95 0  C 97.8 0  100 2.19999999999999  100 5  L 100 20  C 100 22.8  97.8 25  95 25  L 5 25  C 2.19999999999999 25  0 22.8  0 20  Z " stroke-width="2" stroke="#f4a121" fill="none" transform="matrix(1 0 0 1 127 132 )" mask="url(#clip3)" />
  </g>
</svg>