<?xml version="1.0" encoding="utf-8"?>
<svg version="1.1" xmlns:xlink="http://www.w3.org/1999/xlink" width="51px" height="35px" xmlns="http://www.w3.org/2000/svg">
  <g transform="matrix(1 0 0 1 -168 -70 )">
    <path d="M 50.0145412890625 20.4899561083984  L 50.0145412890625 20.4874561035156  L 44.1145539306641 32.6874299609375  C 43.370972671659 34.1128182304377  41.8947380184602 35.0047300923855  40.2870621435547 35  L 5.48713670410156 35  C 5.48493693241303 34.9999419895552  5.48273710338401 34.9999504795448  5.48053726616391 34.9999504795448  C 5.00833480823205 34.9999504795448  4.62553908257016 34.6171547538829  4.62553908257016 34.144952295951  C 4.62553908257016 34.0112130977197  4.65691261687468 33.8793388471662  4.71713834472656 33.7599276464844  L 4.73463831054688 33.7349277001953  C 5.20701019373382 32.806751139561  4.92584658105175 31.6725115701406  4.07463972167969 31.0724334033203  L 4.02463982910156 31.0374335058594  C 2.05172184060402 29.6429849586618  0.877498276177994 27.3784109288133  0.874646596679688 24.9624465234375  L 0.874646596679688 22  L 31.8520802246094 22  L 31.8520802246094 22.1824524755859  C 31.8520802246094 21.2474544775391  32.6170785742188 20.4949560839844  33.5520765722656 20  L 50.0145412890625 20  L 50.0145412890625 20.4899561083984  Z M 30.1370838818437 10.2399744172784  C 30.1362505569453 10.2399744172784  30.1354172324897 10.239975632028  30.1345839111328 10.2399780615234  L 24.1095968212891 10.2399780615234  C 24.1087622738011 10.2399756177486  24.1079277231821 10.2399743958592  24.1070931721162 10.2399743958592  C 23.6358653021856 10.2399743958592  23.2534744773875 10.6212503788356  23.2520986328125 11.0924762402344  L 23.2520986328125 20.48245609375  C 23.2520986328125 20.9524550976562  23.6370978125 21.3324542675781  24.1120967919922 21.3324543017578  L 30.1370838818359 21.3324543017578  C 30.6095828564453 21.3324543017578  30.9945820361328 20.9524551318359  30.9945820361328 20.48245609375  L 30.9945820361328 11.0974762158203  C 30.9945820361406 10.623889417949  30.6106670354699 10.2399744172784  30.1370838818437 10.2399744172784  Z M 40.4695617500824 13.6599119019961  C 40.4662283344427 13.6599119019961  40.4628949476405 13.6599315108497  40.4595617626953 13.6599707275391  L 33.5770765185547 13.6599707275391  C 33.5754050332515 13.6599609242158  33.5737335227935 13.6599560225225  33.5720620087422 13.6599560225225  C 33.1018052710002 13.6599560225225  32.7198203220984 14.0397201575814  32.717078359375 14.5099689013672  L 32.717078359375 17.9249615917969  C 32.717078359375 18.3974605664063  33.1020775390625 18.7774597705078  33.5770765185547 18.7774597705078  L 40.4595617626953 18.7774597705078  C 40.9345607421875 18.7774597705078  41.319559921875 18.3974606005859  41.319559921875 17.9274615966797  L 41.319559921875 14.5099689013672  C 41.3195599239106 14.0404690470349  40.9390027788717 13.6599119019961  40.4695617500824 13.6599119019961  Z M 13.7871189404297 21.3349542724609  L 13.7846189355469 21.3399542822266  L 20.6696041845703 21.3399542822266  C 21.1446031640625 21.3399542822266  21.52960234375 20.9574551074219  21.52960234375 20.4899561083984  L 21.52960234375 13.6574707226563  C 21.5268603810267 13.1872219788705  21.1448754321248 12.8074578438116  20.6746186943828 12.8074578438116  C 20.6729471803314 12.8074578438116  20.6712756698736 12.8074627455048  20.6696041845703 12.8074725488281  L 13.7871189404297 12.8074725488281  C 13.7854474551265 12.8074627455048  13.7837759446685 12.8074578438116  13.7821044306171 12.8074578438116  C 13.3118476928752 12.8074578438116  12.9298627439733 13.1872219788705  12.92712078125 13.6574707226562  L 12.92712078125 20.4849560986328  C 12.92712078125 20.9549551025391  13.3121199609375 21.3349542724609  13.7871189404297 21.3349542724609  Z M 13.3471198583984 8.53748170898437  L 13.3446198876953 8.53748170898438  L 12 10.2474780419922  L 12 21.3474542626953  L 3 21.3474542626953  L 3 10.2374780566406  L 0.0146484374999997 10.2374780566406  L 0.0146484374999997 8.52998172851563  L 6.03963552734375 8.52998172851563  L 6.03963552734375 6.05498701171875  L 3.81464030761719 6.05498701171875  L 3.81464030761719 5.05998916992188  L 6.03963552734375 5.05998916992188  L 6.03963552734375 0  L 6.89713368164063 0  L 6.89713368164063 5.062489140625  L 9.12212893554687 5.062489140625  L 9.12212893554687 6.05748701660156  L 6.89713368164062 6.05748701660156  L 6.89713368164062 8.53248169921875  L 13.3471198583984 8.53248169921875  L 13.3471198583984 8.53748170898437  Z M 9.64712780761719 18.1074611962891  L 9.64712780761719 15.5574666748047  L 6.8471337890625 15.5574666748047  L 6.8471337890625 18.1074611962891  L 9.64712780761719 18.1074611962891  Z M 9.64712780761719 14.0249699365234  L 9.64712780761719 11.4749754150391  L 6.8471337890625 11.4749754150391  L 6.8471337890625 14.0249699365234  L 9.64712780761719 14.0249699365234  Z " fill-rule="nonzero" fill="#000000" stroke="none" transform="matrix(1 0 0 1 168 70 )" />
  </g>
</svg>