<?xml version="1.0" encoding="utf-8"?>
<svg version="1.1" xmlns:xlink="http://www.w3.org/1999/xlink" width="30px" height="30px" xmlns="http://www.w3.org/2000/svg">
  <g transform="matrix(1 0 0 1 -325 -10 )">
    <path d="M 29.8764705882353 7.8296052631579  C 29.878431372549 3.51513157894737  26.4039215686275 0.0177631578947375  22.1176470588235 0  L 7.93725490196079 0  C 3.65098039215686 0.0177631578947368  0.17843137254902 3.51513157894737  0.17843137254902 7.82763157894737  L 0.17843137254902 22.1013157894737  C 0.17843137254902 26.4157894736842  3.65294117647059 29.9111842105263  7.93725490196079 30  L 22.1176470588235 30  C 26.4039215686275 29.9111842105263  29.8764705882353 26.4138157894737  29.8764705882353 22.1013157894737  L 29.8764705882353 7.8296052631579  Z M 5.46470588235294 8.48486842105263  L 5.46666666666667 8.48486842105263  C 5.46666666666667 6.75197368421053  6.86666666666667 5.34078947368421  8.59019607843138 5.34078947368421  L 11.7509803921569 5.34078947368421  C 12.4 5.34078947368421  12.9274509803922 5.87171052631579  12.9274509803922 6.525  C 12.9274509803922 7.17828947368421  12.4 7.70921052631579  11.7509803921569 7.70921052631579  L 8.58823529411765 7.70921052631579  C 8.16265116336568 7.70921052631579  7.81764705882353 8.05648439470362  7.81764705882353 8.48486842105263  L 7.81764705882353 11.2677631578947  C 7.81764705882353 11.9210526315789  7.29019607843137 12.4519736842105  6.64117647058823 12.4519736842105  C 5.9921568627451 12.4519736842105  5.46470588235294 11.9210526315789  5.46470588235294 11.2677631578947  L 5.46470588235294 8.48486842105263  Z M 13.0372549019608 23.4059210526316  C 13.0372549019608 24.0592105263158  12.5098039215686 24.5901315789474  11.8607843137255 24.5901315789474  L 8.58823529411765 24.5901315789474  C 6.86666666666667 24.5901315789474  5.46470588235294 23.1809210526316  5.46470588235294 21.4460526315789  L 5.46470588235294 18.5782894736842  C 5.46470588235294 17.925  5.9921568627451 17.3940789473684  6.64117647058823 17.3940789473684  C 7.29019607843137 17.3940789473684  7.81764705882353 17.925  7.81764705882353 18.5782894736842  L 7.81764705882353 21.4460526315789  C 7.81764705882353 21.874436657928  8.16265116336568 22.2217105263158  8.58823529411765 22.2217105263158  L 11.8607843137255 22.2217105263158  C 12.5098039215686 22.2217105263158  13.0372549019608 22.7526315789474  13.0372549019608 23.4059210526316  Z M 24.5921568627451 21.4480263157895  L 24.5901960784314 21.4480263157895  C 24.5901960784314 23.1809210526316  23.1901960784314 24.5921052631579  21.4666666666667 24.5921052631579  L 17.9803921568627 24.5921052631579  C 17.3313725490196 24.5921052631579  16.8039215686275 24.0611842105263  16.8039215686275 23.4078947368421  C 16.8039215686275 22.7546052631579  17.3313725490196 22.2236842105263  17.9803921568627 22.2236842105263  L 21.4686274509804 22.2236842105263  C 21.8942115817324 22.2236842105263  22.2392156862745 21.8764103421385  22.2392156862745 21.4480263157895  C 22.2392156862745 20.9309210526316  22.2392156862745 21.9651315789474  22.2392156862745 21.4480263157895  L 22.2392156862745 18.5802631578947  C 22.2392156862745 17.9269736842105  22.7666666666667 17.3960526315789  23.4156862745098 17.3960526315789  C 24.0647058823529 17.3960526315789  24.5921568627451 17.9269736842105  24.5921568627451 18.5802631578947  L 24.5921568627451 21.4480263157895  Z M 24.5901960784314 14.9230263157895  C 24.5901960784314 15.5763157894737  24.0627450980392 16.1072368421053  23.4137254901961 16  L 6.64313725490196 16  C 5.99411764705882 16.1072368421053  5.46666666666667 15.5763157894737  5.46666666666667 14.9230263157895  C 5.46666666666667 14.2697368421053  5.99411764705882 13.7388157894737  6.64313725490196 14  L 23.4137254901961 14  C 24.0627450980392 13.7388157894737  24.5901960784314 14.2697368421053  24.5901960784314 14.9230263157895  Z M 24.5921568627451 11.2657894736842  L 24.5901960784314 11.2657894736842  C 24.5901960784314 11.9190789473684  24.0627450980392 12.45  23.4137254901961 12.45  C 22.7647058823529 12.45  22.2372549019608 11.9190789473684  22.2372549019608 11.2657894736842  L 22.2372549019608 8.4828947368421  C 22.2372549019608 8.05451071049309  21.8922507974186 7.70723684210526  21.4666666666667 7.70723684210526  L 17.9803921568627 7.70723684210526  C 17.3313725490196 7.70723684210526  16.8039215686275 7.17631578947368  16.8039215686275 6.52302631578947  C 16.8039215686275 5.86973684210526  17.3313725490196 5.33881578947368  17.9803921568627 5.33881578947368  L 21.4686274509804 5.33881578947368  C 23.1901960784314 5.33881578947368  24.5921568627451 6.74802631578947  24.5921568627451 8.4828947368421  L 24.5921568627451 11.2657894736842  Z " fill-rule="nonzero" fill="#f4a121" stroke="none" transform="matrix(1 0 0 1 325 10 )" />
  </g>
</svg>