<?xml version="1.0" encoding="utf-8"?>
<svg version="1.1" xmlns:xlink="http://www.w3.org/1999/xlink" width="15px" height="15px" xmlns="http://www.w3.org/2000/svg">
  <g transform="matrix(1 0 0 1 -295 -18 )">
    <path d="M 0.338709677419355 14.6612903225806  C 0.701612903225807 15.0241935483871  1.29435483870968 15.0241935483871  1.65725806451613 14.6612903225806  L 7.5 8.81854838709678  L 13.3427419354839 14.6612903225806  C 13.7056451612903 15.0241935483871  14.2862903225806 15.0241935483871  14.6612903225806 14.6612903225806  C 15.0241935483871 14.2983870967742  15.0241935483871 13.7177419354839  14.6612903225806 13.3427419354839  L 8.81854838709678 7.5  L 14.6612903225806 1.65725806451613  C 15.0241935483871 1.29435483870968  15.0241935483871 0.713709677419355  14.6612903225806 0.338709677419355  C 14.2983870967742 -0.0241935483870971  13.7177419354839 -0.0241935483870971  13.3427419354839 0.338709677419355  L 7.5 6.18145161290323  L 1.65725806451613 0.338709677419354  C 1.29435483870968 -0.0241935483870971  0.713709677419355 -0.0241935483870971  0.338709677419355 0.338709677419354  C -0.0241935483870971 0.701612903225806  -0.0241935483870971 1.28225806451613  0.338709677419355 1.65725806451613  L 6.18145161290323 7.5  L 0.338709677419355 13.3427419354839  C -0.0241935483870971 13.7056451612903  -0.0241935483870971 14.2862903225806  0.338709677419355 14.6612903225806  Z " fill-rule="nonzero" fill="#d7d7d7" stroke="none" transform="matrix(1 0 0 1 295 18 )" />
  </g>
</svg>