<?xml version="1.0" encoding="utf-8"?>
<svg version="1.1" xmlns:xlink="http://www.w3.org/1999/xlink" width="19px" height="37px" xmlns="http://www.w3.org/2000/svg">
  <g transform="matrix(1 0 0 1 -49 -66 )">
    <path d="M 0 35  L 0 0.142082842447916  L 18.7692095703125 0.142082842447916  L 18.7692095703125 36.8579171575521  L 0.028166699218751 36.8579171575521  L 0.028166699218751 32  L 14.7950060546875 32  L 14.7950060546875 30  L 0.028166699218751 30  L 0.028166699218751 27  L 14.7950060546875 27  L 14.7950060546875 24.8332230820313  L 0.028166699218751 24.8332230820313  L 0.028166699218751 22  L 14.7950060546875 22  L 14.7950060546875 19  L 0.028166699218751 19  L 0.028166699218751 17  L 14.7950060546875 17  L 14.7950060546875 15  L 0.028166699218751 15  L 0.028166699218751 12  L 14.7950060546875 12  L 14.7950060546875 10  L 0.028166699218751 10  L 0.028166699218751 7  L 14.7950060546875 7  L 14.7950060546875 35  L 0 35  Z " fill-rule="nonzero" fill="#ffffff" stroke="none" transform="matrix(1 0 0 1 49 66 )" />
  </g>
</svg>