<?xml version="1.0" encoding="utf-8"?>
<svg version="1.1" xmlns:xlink="http://www.w3.org/1999/xlink" width="50px" height="50px" xmlns="http://www.w3.org/2000/svg">
  <g transform="matrix(1 0 0 1 -20 -60 )">
    <path d="M 0 4.66251176757812  C 8.7076669921875 3.10442143554687  17.4212135253906 1.58748823242187  26.1288805175781 0  L 29.5272812988281 0  L 29.5272812988281 4.65075258789062  C 35.6067732910156 4.70366884765625  41.6803856933594 4.5860771484375  47.7481185546875 4.70366884765625  C 47.826055819701 4.69433737209076  47.9044799626352 4.6896591934654  47.9829738714054 4.6896591934654  C 49.0740349930663 4.6896591934654  49.9585147893741 5.57413898977329  49.9585147893741 6.66520011143415  C 49.9585147893741 6.75247107637986  49.9527319082685 6.83964613777038  49.9412041503906 6.92615239257812  C 50.0411571289063 18.3795860839844  49.9412041503906 29.8565380859375  50 41.2923330078125  C 49.9412041503906 42.4682502441406  50.1117121582031 43.7676387695312  49.4473188964844 44.8200846679688  C 48.618297265625 45.4080432617188  47.5482125976563 45.3492474121094  46.5780809082031 45  L 29.5272812988281 45  L 29.5272812988281 49.976481640625  L 25.9995296386719 49.976481640625  C 17.3330197753906 48.3831138183594  8.66650986328125 46.9014581542969  0 45.3492474121094  L 0 4.66251176757812  Z " fill-rule="nonzero" fill="#2a5699" stroke="none" transform="matrix(1 0 0 1 20 60 )" />
  </g>
</svg>