<?xml version="1.0" encoding="utf-8"?>
<svg version="1.1" xmlns:xlink="http://www.w3.org/1999/xlink" width="44px" height="38px" xmlns="http://www.w3.org/2000/svg">
  <g transform="matrix(1 0 0 1 -25 -66 )">
    <path d="M 25.0272812988281 5  L 25.0272812988281 0.148949510416666  L 43 0.148949510416666  L 43 37.8510504895833  L 25.0272812988281 37.8510504895833  L 25.0272812988281 33  L 39.7968015136719 33  L 39.7968015136719 30  L 25.0272812988281 30  L 25.0272812988281 27.8356851875  L 39.7968015136719 27.8356851875  L 39.7968015136719 25  L 25.0272812988281 25  L 25.0272812988281 22  L 39.7968015136719 22  L 39.7968015136719 20  L 25.0272812988281 20  L 25.0272812988281 17.170899984375  L 39.7968015136719 17.170899984375  L 39.7968015136719 15  L 25.0272812988281 15  L 25.0272812988281 12  L 39.7968015136719 12  L 39.7968015136719 10  L 25.0272812988281 10  L 25.0272812988281 7  L 39.7968015136719 7  L 39.7968015136719 5  L 25.0272812988281 5  Z M 4.83678271484375 22.1160238489583  C 5.624647265625 18.2612104322917  6.44190971679688 14.412355  7.25917216796875 10.5575415338542  C 8.341016015625 10.4920037552083  9.4169802734375 10.4443398802083  10.4988240722656 10.3847601354167  C 11.2572906738281 14.364691125  12.0275164550781 18.3327061953125  12.8506584960938 22.3007212161458  C 13.4915333984375 18.2075885729167  14.20296328125 14.1323298828125  14.8908749023438 10.0511132083333  C 16.0256350097656 10.0094073671875  17.1603951171875 9.9438695390625  18.2951552246094 9.87237377604167  C 17.0075258789063 15.5801191458333  15.8845249511719 21.341486375  14.4793038574219 27.0134838385417  C 13.5326904785156 27.5258701484375  12.1274694335937 27.0134838385417  10.9868297363281 27.0730636328125  C 10.1989651855469 23.16462840625  9.32290688476563 19.2859830520833  8.6467544921875 15.3715898411458  C 7.98236127929688 19.1787394322917  7.118062109375 22.9501411171875  6.3595955078125 26.7275007864583  C 5.26599248046875 26.6679209921875  4.17238950195313 26.6023832135417  3.07290688476563 26.5249294661458  C 2.13217309570313 21.341486375  1.02093134765625 16.1878332057292  0.133113818359376 10.9924741458333  C 1.1032455078125 10.9448103203125  2.07925678710938 10.9031044296875  3.07290688476563 10.8673565234375  C 3.66086547851563 14.6208842552083  4.32525874023438 18.3565380833333  4.83678271484375 22.1160238489583  Z " fill-rule="nonzero" fill="#ffffff" stroke="none" transform="matrix(1 0 0 1 25 66 )" />
  </g>
</svg>