<?xml version="1.0" encoding="utf-8"?>
<svg version="1.1" xmlns:xlink="http://www.w3.org/1999/xlink" width="50px" height="50px" xmlns="http://www.w3.org/2000/svg">
  <g transform="matrix(1 0 0 1 -20 -60 )">
    <path d="M 0 4.66321245117187  C 8.66574413090796 3.10329624023437  17.3369729477612 1.5874765625  26.0027170786692 0  L 29.3812603972326 0  L 29.3812603972326 4.65218828125  C 35.4143733966884 4.68526069335937  41.4474864447295 4.58604340820312  47.513507316931 4.6852607421875  C 47.5909018707294 4.67600915638753  47.6687735985252 4.67137118957551  47.7467136989609 4.67137118957551  C 48.8371852116258 4.67137118957551  49.7211870354037 5.5597930224723  49.7211870354037 6.65571689270051  C 49.7211870354037 6.7340466936384  49.7165721430535 6.81230778007322  49.7073665850435 6.89008930664062  C 49.8006056145056 18.3441737304688  49.7073665850435 29.8037702636719  49.7622130558147 41.2578546875  C 49.7073665850435 42.4319259277344  49.871905997357 43.7327747558594  49.2137482509328 44.7745562988281  C 48.3855663576648 45.3808841796875  47.3215446206468 45.3257634277344  46.3562465504509 45  L 29.3922296719527 45  L 29.3922296719527 49.9779517089844  L 25.8491469410759 49.9779517089844  C 17.2437339182991 48.3849630859375  8.62186698344216 46.9022158691406  0 45.34781171875  L 0 4.66321245117187  Z " fill-rule="nonzero" fill="#a33639" stroke="none" transform="matrix(1 0 0 1 20 60 )" />
  </g>
</svg>