<?xml version="1.0" encoding="utf-8"?>
<svg version="1.1" xmlns:xlink="http://www.w3.org/1999/xlink" width="50px" height="50px" xmlns="http://www.w3.org/2000/svg">
  <g transform="matrix(1 0 0 1 -20 -60 )">
    <path d="M 50 41.3043212890625  C 49.94140625 29.8681640625  50.04150390625 18.3917236328125  49.94140625 6.9378662109375  C 49.952904226841 6.85146645673681  49.9586721175529 6.76440051821839  49.9586721175529 6.67723905312414  C 49.9586721175529 5.58608565029072  49.0741175125738 4.70153104531164  47.9829641097404 4.70153104531164  C 47.9043673961416 4.70153104531164  47.8258407111637 4.70622108944582  47.747802734375 4.715576171875  C 41.6802978515625 4.5977783203125  35.606689453125 4.715576171875  29.5269775390625 4.6624755859375  L 29.5269775390625 0.0115966796874989  L 26.129150390625 0.0115966796874989  C 17.4212646484375 1.59912109375  8.7078857421875 3.1158447265625  0 4.674072265625  L 0 45.361328125  C 8.6663818359375 46.9134521484375  17.332763671875 48.394775390625  25.999755859375 49.9884033203125  L 29.527587890625 49.9884033203125  L 29.527587890625 45  L 46.578369140625 45  C 47.5482177734375 45.361328125  48.6187744140625 45.419921875  49.4476318359375 44.8321533203125  C 50.1123046875 43.7799072265625  49.94140625 42.48046875  50 41.3043212890625  Z M 21.6192626953125 31.45263671875  L 21.16455078125 34  L 9 34  L 9 17  L 21.1175537109375 17  L 21.1175537109375 20.0091552734375  L 12.2674560546875 20.0091552734375  L 12.2674560546875 23.807373046875  L 20.7452392578125 23.807373046875  L 20.7452392578125 26.9488525390625  L 12.2674560546875 26.9488525390625  L 12.2674560546875 31.45263671875  L 21.6192626953125 31.45263671875  Z M 48 7  L 48 43  L 29.5269775390625 43  L 29.5269775390625 39  L 44.2962646484375 39  L 44.2962646484375 36  L 29.5269775390625 36  L 29.5269775390625 33  L 44.2962646484375 33  L 44.2962646484375 31  L 29.5269775390625 31  L 29.5269775390625 28  L 44.2962646484375 28  L 44.2962646484375 26  L 29.5269775390625 26  L 29.5269775390625 24  L 44.2962646484375 24  L 44.2962646484375 21  L 29.5269775390625 21  L 29.5269775390625 18  L 44.2962646484375 18  L 44.2962646484375 16  L 29.5269775390625 16  L 29.5269775390625 13  L 44.2962646484375 13  L 44.2962646484375 11  L 29.5269775390625 11  L 29.5269775390625 7  L 48 7  Z " fill-rule="nonzero" fill="#45b058" stroke="none" transform="matrix(1 0 0 1 20 60 )" />
  </g>
</svg>