<?xml version="1.0" encoding="utf-8"?>
<svg version="1.1" xmlns:xlink="http://www.w3.org/1999/xlink" width="33px" height="14px" xmlns="http://www.w3.org/2000/svg">
  <g transform="matrix(1 0 0 1 -32 -70 )">
    <path d="M 0.324490275493421 13.9237516173246  C 0.215077751997179 12.1312646587171  0.226018984962406 10.3387777001096  0.242430834410244 8.54087538377193  C 1.28185000146851 8.49213706825658  2.57291805979793 8.29718380619518  3.27315837494126 9.28819623766447  C 3.85068997522853 10.3842730593268  3.87700396338804 11.6846787826945  3.34427653459821 12.8027703604715  C 2.7425075099859 13.8858440652412  1.38032134046053 13.7991981496711  0.324490275493421 13.9237516173246  Z M 31.2663582104676 8.66542885142544  L 31.260887593985 8.64376737253289  C 30.3991722757298 8.58359965414384  29.5791435057407 8.2535909254077  28.9194590871711 7.70149330455044  C 27.6317472342484 7.98768867910594  26.3722153809974 8.38637770363514  25.155667532601 8.8928743558114  C 24.1709546272909 10.6203768777412  23.2573598816377 11.5030819147478  22.464118892446 11.5030819147478  C 22.2964817192883 11.5093977836946  22.130756663604 11.4660279622381  21.9881743376997 11.3785284470943  C 21.6532722231221 11.225725093198  21.439408911066 10.8933512837826  21.4411115748355 10.5283156044408  C 21.4411115748355 10.2467164268092  21.5067591180099 9.44524189967105  24.5101335276668 8.17263033854167  C 25.1929504833183 6.92829204212974  25.7552845104588 5.62278453389973  26.1896160831767 4.2735650493421  C 25.8066721540179 3.5208288377193  24.9860780824131 1.66877284813596  25.5550233112077 0.726498732182018  C 25.7500680070939 0.379617965699192  26.1354113092356 0.18143396964485  26.5342656000352 0.222869503837719  C 26.8577639279343 0.226543218554526  27.161904015508 0.376080271826419  27.3603303365836 0.629022101151316  C 27.7706273966165 1.17055892955044  27.7378036007989 2.38901681743421  27.2016821193609 4.1490115816886  C 27.7111696632622 5.09304793732082  28.3789690295858 5.94454397607549  29.1765785949248 6.66715791529605  C 29.8320597208842 6.53356490612852  30.4987410685151 6.46104323502315  31.1678869199366 6.45054317434211  C 32.655897559328 6.48303536869517  32.8801932712641 7.17078719161184  32.8473694754464 7.5823551946272  C 32.8473694754464 8.66542889939693  31.8024796434445 8.66542889939693  31.2663582104676 8.66542885142544  Z M 23.563714986196 9.8297330660636  C 23.0694120830958 9.98314493950438  22.6292796230985 10.2723507593727  22.294529442258 10.6636998355263  L 22.4039420142152 10.6366229989035  C 22.87026906671 10.5024978874091  23.2782785883183 10.2186330419244  23.563714986196 9.8297330660636  Z M 26.7804438263628 2.71393895285088  C 26.9788028483519 2.18111698362081  26.9922764061977 1.59807971748446  26.8187382386631 1.05683622532895  L 26.7147962831884 1.05683622532895  C 26.6668081323278 1.05205318766734  26.6185986619757 1.06350658572662  26.5780306288181 1.08932841968202  C 26.4608482585143 1.63806781259447  26.5320848562205 2.20982760091125  26.7804438263628 2.71393895285088  Z M 27.7815686295818 7.11663351836623  C 27.351015513762 6.66780634846582  26.966210628689 6.17805466737295  26.6327368905663 5.65448400493421  L 26.6327368905663 5.71405308388158  L 26.5999131432096 5.68156084155702  C 26.3373230189732 6.36931261650219  26.0528504288064 7.04623367598684  25.7246127613957 7.71232402001097  L 25.7793190231438 7.6798318256579  L 25.7793190231438 7.75023162006579  C 26.4154650984262 7.50912346135293  27.0658491931849 7.30657506364236  27.7268623678336 7.14371035498904  L 27.694038572016 7.11663351836623  L 27.7815686295818 7.11663351836623  Z M 31.1952400508106 7.32241749588816  L 31.2171225652021 7.32241749588816  C 30.9211508443483 7.30907498468313  30.6247393693738 7.33641200564498  30.3363515669055 7.40364800575658  C 30.6477676612764 7.58270296666902  30.9951491081578 7.69178082754431  31.3538882680334 7.72315478344298  C 31.5809747176931 7.75895534161025  31.8136252229418 7.73274226118056  32.0267754038416 7.64733958333333  C 32.0048928894502 7.52278611567983  31.8681272350799 7.32241749588816  31.1952400508106 7.32241749588816  Z " fill-rule="nonzero" fill="#a33639" stroke="none" transform="matrix(1 0 0 1 32 70 )" />
  </g>
</svg>