<?xml version="1.0" encoding="utf-8"?>
<svg version="1.1" xmlns:xlink="http://www.w3.org/1999/xlink" width="39px" height="30px" xmlns="http://www.w3.org/2000/svg">
  <g transform="matrix(1 0 0 1 -31 -80 )">
    <path d="M 20.1887142180036 0.0968993894432794  L 20.1900941903861 0.0968993894432794  C 25.4753631867038 0.0268752790178594  38.9990280080613 15.992374819459  38.9990280080613 15.992374819459  C 38.9979114666964 17.6008639094732  38.7248565593401 19.1972332456908  38.191748045631 20.7120005908613  C 37.5801169803991 22.4428261283795  36.6395919049296 24.0349421916698  35.4235366428642 25.3980147715336  C 34.8154916163488 26.077158389177  34.1439855719066 26.6948609766317  33.4184463288714 27.242450105042  C 32.8735944092263 27.6513065658815  32.3003349147976 28.0196595553034  31.7031488567377 28.3446297597164  C 30.1047088095551 29.2099277200742  28.3545165380782 29.7485490443208  26.551736502289 29.9299758895746  C 26.1023033111146 29.9749895327022  25.6509860091539 29.9978908897202  25.1993700201533 29.9985995108981  L 0.220609129926354 20.221831768645  C 0.220609129926354 20.221831768645  14.9006852769208 0.166923499868696  20.1887142180036 0.0968993894432794  Z " fill-rule="nonzero" fill="#004bbc" stroke="none" transform="matrix(1 0 0 1 31 80 )" />
  </g>
</svg>