<?xml version="1.0" encoding="utf-8"?>
<svg version="1.1" xmlns:xlink="http://www.w3.org/1999/xlink" width="40px" height="40px" xmlns="http://www.w3.org/2000/svg">
  <g transform="matrix(1 0 0 1 -20 -10 )">
    <path d="M 40 14.1666666503906  C 40 11.8333333007813  38.1666666503906 10  35.8333333496094 10  L 6.66666665039063 10  C 6.16666665039063 10  5.83333330078125 10.3333333496094  5.83333334960938 10.8333333496094  C 5.8333333984375 11.3333333496094  6.16666669921875 11.6666666992188  6.66666665039063 12  L 35.8333333496094 12  C 37.25 11.6666666503906  38.3333333496094 12.75  38 14.1666666503906  L 38 35.8333333496094  C 38.3333333496094 37.25  37.25 38.3333333496094  35.8333333496094 38  L 4.16666665039063 38  C 2.75 38.3333333496094  1.66666665039063 37.25  2 35.8333333496094  L 2 12.25  C 1.66666665039063 11.5833333496094  1.91666665039063 10.9166666503906  2.41666665039063 10.5  L 10.5 2.41666665039063  C 10.9166666503906 1.91666665039062  11.5833333496094 1.66666665039062  12.25 2  L 27.8333333496094 2  C 28.5 1.66666665039062  29.1666666992187 1.91666665039062  29.5833333496094 2.41666665039063  L 35.3333333496094 8.16666665039062  C 35.6666666992188 8.5  36.1666666992188 8.5  36.5 8.16666665039062  C 36.8333333496094 7.83333330078125  36.8333333496094 7.33333330078125  36.5 7  L 30.75 1.25  C 29.9166666503906 0.416666650390625  28.9166666503906 0  27.75 0  L 12.25 0  C 11.1666666503906 0  10.0833333496094 0.416666650390624  9.33333334960938 1.25  L 1.25 9.33333334960938  C 0.5 10.0833333496094  0.0833333496093749 11  0 12  L 0 35.8333333496094  C 0 38.1666666992188  1.83333334960937 40  4.16666665039063 40  L 35.8333333496094 40  C 38.1666666992187 40  40 38.1666666503906  40 35.8333333496094  L 40 14.1666666503906  Z " fill-rule="nonzero" fill="#333333" stroke="none" transform="matrix(1 0 0 1 20 10 )" />
  </g>
</svg>