<?xml version="1.0" encoding="utf-8"?>
<svg version="1.1" xmlns:xlink="http://www.w3.org/1999/xlink" width="18px" height="15px" xmlns="http://www.w3.org/2000/svg">
  <g transform="matrix(1 0 0 1 -29 -24 )">
    <path d="M 17.4558228805693 5.61409364897629  C 16.9561106315766 6.09123603966957  16.1527967709605 6.09123603966957  15.6530845219678 5.61409364897629  L 12.0517205290842 2.13134172952587  C 11.5586775102334 1.64835604272418  11.5586775102334 0.871625200540911  12.0517205290842 0.388639513739226  C 12.5514327780769 -0.0885028769540511  13.3547466386929 -0.0885028769540511  13.8544588876856 0.388639513739226  L 17.4558228805693 3.87139143318966  C 17.9493481977104 4.34884408674569  17.9493481977104 5.13266221039871  17.4558228805693 5.61409364897629  Z M 17.825966851021 13.6684548087284  C 17.825966851021 14.3448460735453  17.2529290957611 14.8992216796875  16.5523973391089 14.8992216796875  L 1.27367578125 14.8992216796875  C 0.571461743366262 14.8977658305049  0.00236738891393166 14.3477978450788  0.000106234529703846 13.6684548087284  C 0.000106234529703846 12.9920635439116  0.573143989789604 12.4363616985453  1.27367578125 12.4363616985453  L 16.5523973391089 12.4363616985453  C 17.2515582108601 12.4363616985453  17.825966851021 12.9907373046875  17.825966851021 13.6684548087284  Z " fill-rule="nonzero" fill="#333333" stroke="none" transform="matrix(1 0 0 1 29 24 )" />
  </g>
</svg>