<?xml version="1.0" encoding="utf-8"?>
<svg version="1.1" xmlns:xlink="http://www.w3.org/1999/xlink" width="16px" height="16px" xmlns="http://www.w3.org/2000/svg">
  <g transform="matrix(1 0 0 1 -33 -27 )">
    <path d="M 6.19354838709677 8.86021507056451  C 6.70967741935484 8.51612903225806  7.22580645161291 7.99999999999999  7.65591396169355 7.48387096774194  L 6.70967741935484 6.53763442540323  C 6.19354838709677 7.2258064516129  5.76344087701613 7.74193548387097  5.24731184475807 8.08602152217742  L 4.47311829637097 7.56989248991936  L 4.47311829637097 7.39784944556452  C 5.41935483870968 6.27956985887097  6.02150539314516 5.07526880040322  6.45161290322581 3.87096774193548  L 6.45161290322581 2.58064516129032  L 4.64516129032258 2.58064516129032  C 4.38709677419355 1.80645161290323  4.0430107358871 0.946236542338709  3.61290322580646 0  L 2.06451612903226 0.430107510080648  C 2.40860216733871 1.11827953629032  2.75268815524193 1.89247308467742  3.01075267137097 2.58064516129032  L 0.430107510080644 2.58064516129032  L 0.430107510080644 4.0430107358871  L 4.8172042842742 4.0430107358871  C 3.95698921370968 5.84946234879032  2.40860211693548 7.65591396169354  0 9.54838709677419  L 0.516129032258068 11.1827957157258  C 1.37634410282258 10.4946236895161  2.15053765120968 9.80645161290323  2.83870967741936 9.11827958669354  L 2.83870967741936 15.9139784778226  L 4.47311829637097 15.9139784778226  L 4.47311829637097 9.03225806451612  C 5.24731184475807 9.7204300907258  6.02150539314516 10.4946236391129  6.70967741935484 11.4408602318548  L 7.56989248991936 10.0645161290323  C 7.13978497983871 9.63440861895161  6.70967741935484 9.20430105846773  6.19354838709677 8.86021507056451  Z M 16 9.03225806451614  C 14.3655913810484 7.8279570060484  12.8172042842742 6.70967741935484  11.2688171875 5.67741935483871  L 11.2688171875 0.0860215221774202  L 9.63440861895162 0.0860215221774202  L 9.63440861895162 15.9139784778226  L 11.2688171875 15.9139784778226  L 11.2688171875 7.39784944556452  C 12.3010752520161 8.17204299395162  13.5053763104839 9.20430105846775  15.0537634576613 10.4946236391129  L 16 9.03225806451614  Z " fill-rule="nonzero" fill="#333333" stroke="none" transform="matrix(1 0 0 1 33 27 )" />
  </g>
</svg>