<?xml version="1.0" encoding="utf-8"?>
<svg version="1.1" xmlns:xlink="http://www.w3.org/1999/xlink" width="57px" height="40px" xmlns="http://www.w3.org/2000/svg">
  <g transform="matrix(1 0 0 1 -11 -10 )">
    <path d="M 3.40247153156947 4.94182824835526  L 3.40247153156947 12.4764542763158  C 3.40247153156947 13.3674532761736  2.6754751684936 14.0897506784539  1.77867970674082 14.0897506784539  C 0.881884244988045 14.0897506784539  0.154887881912173 13.3674532761736  0.154887881912173 12.4764542763158  L 0.154887881912173 4.94182824835526  C 0.154887881912173 2.29584486019737  2.23369830172514 0.117451521381579  4.84113323071561 0.117451521381579  L 12.5965235652881 0.117451521381579  C 13.4927030930856 0.117451521381579  14.2192001430355 0.839252837859975  14.2192001430355 1.72963988486842  C 14.2192001430355 2.62002693187687  13.4927030930856 3.34182824835526  12.5965235652881 3.34182824835526  L 4.84113323071561 3.34182824835526  C 4.06715552247909 3.34182824835526  3.40247153156947 4.03767310855263  3.40247153156947 4.94182824835526  Z M 52.1876016343808 3.33961217105263  L 44.5102782230193 3.33961217105263  C 43.6140986952218 3.33961217105263  42.8876016452719 2.61781085457424  42.8876016452719 1.72742380756579  C 42.8876016452719 0.837036760557347  43.6140986952218 0.115235444078948  44.5102782230193 0.115235444078948  L 52.1876016343808 0.115235444078948  C 54.8284938102637 0.115235444078948  56.9496834122328 2.28919666940789  56.9496834536187 4.94626040296053  L 56.9496834536187 12.4764542763158  C 56.9496834536187 13.3668413346788  56.2231863944043 14.0886426603618  55.3270068551783 14.0886426603618  C 54.4308273159524 14.0886426603618  53.7043302567379 13.3668413346788  53.7043302567379 12.4764542763158  L 53.7043302567379 4.94626040296053  C 53.7043302567379 4.04875349506579  53.0128804600372 3.33961221217105  52.1876016343808 3.33961217105263  Z M 53.7043302567379 35.1445983552632  L 53.7043302567379 27.5235457236842  C 53.7043302567379 26.6331586653212  54.4308273159524 25.9113573396382  55.3270068551783 25.9113573396382  C 56.2231863944043 25.9113573396382  56.9496834536187 26.6331586653212  56.9496834536187 27.5235457236842  L 56.9496834536187 35.1445983552632  C 56.9496834536187 37.7595567845395  54.8195719163859 39.8847645559211  52.1898321285432 39.8847645559211  L 44.5080477288569 39.8847645559211  C 43.6118682010594 39.8847645559211  42.8853711511094 39.1629632394426  42.8853711511094 38.2725761924342  C 42.8853711511094 37.3821891454258  43.6118682010594 36.6603878289474  44.5080477288569 36.6603878289474  L 52.1898321285432 36.6603878289474  C 53.0240328894633 36.6603878289474  53.7043302567379 35.9822715049342  53.7043302567379 35.1445983552632  Z M 4.86566858373025 36.6603878289474  L 12.5965235652881 36.6603878289474  C 13.4923462261632 36.6603878083882  14.2183439722517 37.3816930482693  14.2183439722517 38.2714681537829  C 14.2183439722517 39.1612432592965  13.4923462261632 39.8825484991776  12.5967826208925 39.8825484991776  L 4.86566858373025 39.8825484786184  C 2.26196019543002 39.8715952488091  0.157065569790698 37.7714320908981  0.157065569790698 35.1845296539939  C 0.157065569790698 35.1771286884456  0.157083171934468 35.169727733228  0.15711837607458 35.162326850329  L 0.15711837607458 27.5235457236842  C 0.15711837607458 26.6331586766758  0.88361542602449 25.9113573601974  1.77979495382203 25.9113573601974  C 2.67597448161956 25.9113573601974  3.40247153156947 26.6331586766758  3.40247153156947 27.5235457236842  L 3.40247153156947 35.162326850329  C 3.40247153156947 35.9933517680921  4.06046408137779 36.6603877878289  4.86566858373025 36.6603878289474  Z M 9 26.4819944490132  L 9 9.28531854440789  L 13 9.28531854440789  L 13 26.4819944490132  L 9 26.4819944490132  Z M 25 26.4819944490132  L 25 9.28531854440789  L 26 9.28531854440789  L 26 26.4819944490132  L 25 26.4819944490132  Z M 15 26.4819944490132  L 15 9.28531854440789  L 19 9.28531854440789  L 19 26.4819944490132  L 15 26.4819944490132  Z M 21 26.4819944490132  L 21 9.28531854440789  L 23 9.28531854440789  L 23 26.4819944490132  L 21 26.4819944490132  Z M 27 26.4819944490132  L 27 9.28531854440789  L 28 9.28531854440789  L 28 26.4819944490132  L 27 26.4819944490132  Z M 39 26.4819944490132  L 39 9.28531854440789  L 40 9.28531854440789  L 40 26.4819944490132  L 39 26.4819944490132  Z M 30 26.4819944490132  L 30 9.28531854440789  L 34 9.28531854440789  L 34 26.4819944490132  L 30 26.4819944490132  Z M 35 26.4819944490132  L 35 9.28531854440789  L 37 9.28531854440789  L 37 26.4819944490132  L 35 26.4819944490132  Z M 42 26.4819944490132  L 42 9.28531854440789  L 48 9.28531854440789  L 48 26.4819944490132  L 42 26.4819944490132  Z M 8.26938603842356 30.7811634457237  L 8.26938603842356 28.6315789473684  L 12.5965235652881 28.6315789473684  L 12.5965235652881 30.7811634457237  L 8.26938603842356 30.7811634457237  Z M 24.496151815898 30.7811634457237  L 24.496151815898 28.6315789473684  L 25.5779362286536 28.6315789473684  L 25.5779362286536 30.7811634457237  L 24.496151815898 30.7811634457237  Z M 14.7600923494133 30.7811634457237  L 14.7600923494133 28.6315789473684  L 19.0872299176638 28.6315789473684  L 19.0872299176638 30.7811634457237  L 14.7600923494133 30.7811634457237  Z M 20.1690142890335 30.7811634457237  L 20.1690142890335 28.6315789473684  L 22.3325830731587 28.6315789473684  L 22.3325830731587 30.7811634457237  L 20.1690142890335 30.7811634457237  Z M 26.6597206000232 30.7811634457237  L 26.6597206000232 28.6315789473684  L 27.7415050127788 28.6315789473684  L 27.7415050127788 30.7811634457237  L 26.6597206000232 30.7811634457237  Z M 39.6411332633887 30.7811634457237  L 39.6411332633887 28.6315789473684  L 40.7229176347584 28.6315789473684  L 40.7229176347584 30.7811634457237  L 39.6411332633887 30.7811634457237  Z M 29.9050737555181 30.7811634457237  L 29.9050737555181 28.6315789473684  L 34.2322113237686 28.6315789473684  L 34.2322113237686 30.7811634457237  L 29.9050737555181 30.7811634457237  Z M 35.3139956951383 30.7811634457237  L 35.3139956951383 28.6315789473684  L 37.4775644792635 28.6315789473684  L 37.4775644792635 30.7811634457237  L 35.3139956951383 30.7811634457237  Z M 42.8864864188836 30.7811634457237  L 42.8864864188836 28.6315789473684  L 48.2954083585037 28.6315789473684  L 48.2954083585037 30.7811634457237  L 42.8864864188836 30.7811634457237  Z " fill-rule="nonzero" fill="#333333" stroke="none" transform="matrix(1 0 0 1 11 10 )" />
  </g>
</svg>