<?xml version="1.0" encoding="utf-8"?>
<svg version="1.1" xmlns:xlink="http://www.w3.org/1999/xlink" width="48px" height="34px" xmlns="http://www.w3.org/2000/svg">
  <g transform="matrix(1 0 0 1 -16 -10 )">
    <path d="M 47 22.0077519122456  L 40.8815426652893 12.9586563135901  L 31 12.9586563135901  L 31 0  L 0 0  L 0 33.8023255813954  L 3.54820940082645 33.8023255813954  C 3.54820940082645 29.1564263581224  7.32727144964251 25.3901808957122  11.9889807334711 25.3901808957122  C 16.6506900172996 25.3901808957122  20.4297520661157 29.1564263581224  20.4297520661157 33.8023255813954  L 25.4325068956612 33.8023255813954  C 25.4325068956612 29.1564263581224  29.2115689444772 25.3901808957122  33.8732782283058 25.3901808957122  C 38.5349875121344 25.3901808957122  42.3140495609504 29.1564263581224  42.3140495609504 33.8023255813954  L 47 33.8023255813954  L 47 22.0077519122456  Z M 24.198347107438 10.6524548146802  L 24.198347107438 10.762273918968  L 14.1707989152893 20.7777777434593  C 13.7333189086831 21.1516403277611  13.0876177390442 21.1516403277611  12.650137732438 20.7777777434593  L 7.18457301136364 15.3307493368459  C 6.93743715492982 15.12628222305  6.79445573603561 14.8227870287611  6.79445573603561 14.5026786743303  C 6.79445573603561 13.9082946899065  7.27793887891316 13.4264512669902  7.87434556041577 13.4264512669902  C 8.19554326734281 13.4264512669902  8.50007127624208 13.5689477852913  8.70523419421488 13.8152455123547  L 13.4214876291322 18.5155039017078  L 22.6776859245868 9.26873388444768  C 22.8544437838409 8.8881832590169  23.2368998195561 8.64460751661769  23.6576722486533 8.64460751661769  C 24.254078930156 8.64460751661769  24.7375620730335 9.12645093953393  24.7375620730335 9.72083492395781  C 24.7375620730335 10.1050337844491  24.5320547696167 10.4600956869696  24.198347107438 10.6524548146802  Z " fill-rule="nonzero" fill="#333333" stroke="none" transform="matrix(1 0 0 1 16 10 )" />
  </g>
</svg>