<?xml version="1.0" encoding="utf-8"?>
<svg version="1.1" xmlns:xlink="http://www.w3.org/1999/xlink" width="33px" height="13px" xmlns="http://www.w3.org/2000/svg">
  <g transform="matrix(1 0 0 1 -21 -29 )">
    <path d="M 22.7992187365723 11.6243386377728  C 22.7992187365723 12.3366106365625  22.222085796901 12.9140211774554  21.5101562365723 12.9140211774554  L 11.9453124865723 12.9140211774554  C 11.2333829262435 12.9140211774554  10.6562499865723 12.3366106365625  10.6562499865723 11.6243386377728  L 10.6562499865723 2.59656085999504  L 1.46093751342774 2.59656085999504  C 0.749007953098978 2.59656085999504  0.171875013427735 2.01915031910222  0.171875013427735 1.3068783203125  C 0.171875013427735 0.594606321522789  0.749007953098978 0.017195780629961  1.46093751342774 0.017195780629961  C 1.46093751342774 0.017195780629961  1.46093751342774 0.017195780629961  1.46093751342774 0  L 11.9453124865723 0  C 12.657242046901 0.017195780629961  13.2343749865723 0.594606321522789  13.2343749865723 1.3068783203125  L 13.2343749865723 10.3346560980903  L 20.2210937365723 10.3346560980903  L 20.2210937365723 1.3068783203125  C 20.2210937365723 0.594606321522789  20.7982266762435 0.017195780629961  21.5101562365723 0  L 31.6679687365723 0  C 31.6679687365723 0.017195780629961  31.6679687365723 0.017195780629961  31.6679687365723 0.017195780629961  C 32.379898296901 0.017195780629961  32.9570312365723 0.594606321522789  32.9570312365723 1.3068783203125  C 32.9570312365723 2.01915031910222  32.379898296901 2.59656085999504  31.6679687365723 2.59656085999504  L 22.7992187365723 2.59656085999504  L 22.7992187365723 11.6243386377728  Z " fill-rule="nonzero" fill="#333333" stroke="none" transform="matrix(1 0 0 1 21 29 )" />
  </g>
</svg>