<?xml version="1.0" encoding="utf-8"?>
<svg version="1.1" xmlns:xlink="http://www.w3.org/1999/xlink" width="35px" height="30px" xmlns="http://www.w3.org/2000/svg">
  <g transform="matrix(1 0 0 1 -20 -18 )">
    <path d="M 34.8263888753255 25.0088028169014  C 34.8026016408479 27.7301480419136  32.6228862788391 29.9248590751577  29.9392361246745 30  L 5.06076387532552 30  C 5.05208087218878 29.9296243020147  5.04339776150653 29.9296477276292  5.03471463546012 29.9296477276292  C 2.33418285215004 29.9296477276292  0.143638841176294 27.7121547690829  0.138888875325521 24.9735915630502  L 0.138888875325521 13.5299295637104  C 0.137962633084927 13.3767235807453  0.164432277068452 13.2246163308118  0.217013875325521 13.0809859017386  L 4.55729166666667 0.941901422205103  C 4.74291981967546 0.417258214510604  5.23161494839869 0.0657843321048811  5.78125 0.0616197045554556  L 8.81944445800781 0.0616197045554556  C 9.53856522601666 0.0616197045554571  10.1215277913411 0.652793010236627  10.1215277913411 1.38204223976672  C 10.1215277913411 2.11129146929682  9.53856522601666 2.70246477497799  8.81944445800781 2.70246477497799  L 6.73611112467448 2.70246477497799  L 3 13.7588028169014  L 3 24.9735915630502  C 2.74305556446471 26.252208536975  3.76518326182412 27.2887323806118  5.02604166666667 27  L 29.9392361246745 27  C 29.9508093625821 27.2889108992338  29.9623837719138 27.2890001624166  29.9739583486001 27.2890001624166  C 31.2348167693331 27.2890001624166  32.2569444732746 26.2524762936309  32.2569444732746 24.9738593035918  C 32.2569444732746 24.9737700567533  32.2569444681856 24.973680809888  32 24.9735915630502  L 32 13.7852112676056  L 28.2638888753255 2.71126761938821  L 26.2413194580078 2.71126761938821  C 25.522198689999 2.71126761938821  24.9392361246745 2.12009431370703  24.9392361246745 1.39084508417694  C 24.9392361246745 0.661595854646839  25.522198689999 0.0704225489656697  26.2413194580078 0.0704225489656697  L 29.1840277913412 0.0704225489656697  C 29.7336628324732 0.0745871702103394  30.2223579581083 0.426061033919729  30.4079861246745 0.950704225352113  L 34.7482638753255 13.116197196853  C 34.8001224941662 13.2600256799649  34.8265689592709 13.4119997329608  34.8263888753255 13.5651408588248  L 34.8263888753255 25.0088028169014  Z " fill-rule="nonzero" fill="#333333" stroke="none" transform="matrix(1 0 0 1 20 18 )" />
  </g>
</svg>