<?xml version="1.0" encoding="utf-8"?>
<svg version="1.1" xmlns:xlink="http://www.w3.org/1999/xlink" width="40px" height="40px" xmlns="http://www.w3.org/2000/svg">
  <g transform="matrix(1 0 0 1 -20 -10 )">
    <path d="M 11.8640350877193 35.9912280701754  L 14.6929824561404 33  L 2.45614035087719 33  C 2.45614035087719 33.1622807017544  2.45614035087719 33.1622807017544  2.45614035087719 33.1622807017544  C 1.2449895837044 33.1622807017544  0.263157894736842 32.1804490127868  0.263157894736842 30.969298245614  C 0.263157894736842 29.7581474784412  1.2449895837044 28.7763157894737  2.45614035087719 28.7763157894737  C 2.45614035087719 28.7763157894737  2.45614035087719 28.7763157894737  2.45614035087719 28  L 14.6929824561404 28  L 11.8640350877193 25.9473684210526  C 11.5237443141844 25.55000796754  11.3367183345903 25.0440857595214  11.3367183345903 24.5209288609061  C 11.3367183345903 23.3097780937333  12.3185500235579 22.3279464047657  13.5297007907307 22.3279464047657  C 14.0528576893459 22.3279464047657  14.5587798973645 22.5149723843599  14.9561403508772 22.8552631578947  L 21.3157894736842 29.2149122807018  C 21.8695239747711 29.628005633548  22.195708151129 30.2782947258669  22.195708151129 30.9691405956959  C 22.195708151129 31.6107997862724  21.9141230781212 32.2201356272787  21.4254385964912 32.6359649122807  L 14.9561403508772 39.1052631578947  C 14.5450997858418 39.5134090710637  13.9893436493854 39.7424612760653  13.4100877192982 39.7424612760653  C 12.198255871319 39.7424612760653  11.215872057268 38.7600774620143  11.215872057268 37.5482456140351  C 11.215872057268 36.9636162482493  11.4491815275447 36.4031601264051  11.8640350877193 35.9912280701754  Z M 39 37.5482456140351  C 39.7368421052631 38.7593963812079  38.7550104162956 39.7412280701754  37.5438596491228 39.7412280701754  L 28.7719298245614 39.7412280701754  C 27.5607790573886 39.7412280701754  26.5789473684211 38.7593963812079  26.5789473684211 37.5482456140351  C 26.5789473684211 36.3370948468623  27.5607790573886 35.3552631578947  28.7719298245614 35.3552631578947  L 35 35.3552631578947  L 35 14.6315789473684  L 20 5.04824561403508  L 4.64912280701754 14.6535087719298  L 4.64912280701754 20.0043859649123  C 4.64912280701754 21.2155367320851  3.66729111804999 22.1973684210526  2.45614035087719 22.1973684210526  C 1.2449895837044 22.1973684210526  0.263157894736842 21.2155367320851  0.263157894736842 20.0043859649123  L 0.263157894736842 13.4254385964912  C 0.261641695545902 12.6677599350045  0.651347696566054 11.9629724863511  1.29385964912281 11.5614035087719  L 18.8377192982456 0.596491228070174  C 19.5488394654428 0.152039887444896  20.4511605345572 0.152039887444896  21.1622807017544 0.596491228070174  L 38.7061403508772 11.5614035087719  C 39.3486523034339 11.9629724863511  39.7383583044541 12.6677599350045  39 13.4254385964912  L 39 37.5482456140351  Z " fill-rule="nonzero" fill="#333333" stroke="none" transform="matrix(1 0 0 1 20 10 )" />
  </g>
</svg>