<?xml version="1.0" encoding="utf-8"?>
<svg version="1.1" xmlns:xlink="http://www.w3.org/1999/xlink" width="35px" height="35px" xmlns="http://www.w3.org/2000/svg">
  <g transform="matrix(1 0 0 1 -20 -13 )">
    <path d="M 34.3754396630859 9.56177967773437  L 34.3767858300781 9.56177967773437  L 18.357585859375 0.3164128515625  C 18.1221316742413 0.109736276331962  17.8187533160516 -0.00289234046127751  17.5054720996094 6.72998046875E-05  L 17.4906644335937 6.72998046875E-05  C 17.1773832288955 -0.0028923320302714  16.8740048843346 0.109736284221046  16.6385507080078 0.3164128515625  L 0.623389169921875 9.55774124511719  C 0.0280048242989843 9.90451130646506  -0.176323593901257 10.6665361363224  0.165697758789063 11.2646610302734  C 0.512509647492155 11.8608477217232  1.27553634575626 12.0652835508289  1.8739637109375 11.7223524414062  L 3 11.3615839257813  L 3 30.0003942382813  C 2.50267505292941 32.7587484493703  4.73713504144131 34.9926069764061  7.49549134277344 35  L 27.4992990234375 35  C 30.2581810046779 34.9933462471564  32.4934580838023 32.7592722375672  32 30.0003942382812  L 32 11.3656223583984  L 33.1262112890625 11.7250447753906  C 33.7243361919235 12.067066122293  34.4863610245052 11.8627376881033  34.8331310742187 11.2673533300781  C 35.1742440963322 10.6695314978504  34.9700228594838 9.90850703388743  34.3754396630859 9.56177967773437  Z M 30 30.0003942382812  L 30.0017942382812 30.0003942382812  C 29.9973570232789 31.3796802100436  28.8799333511466 32.4965024630542  27.5006451904297 32  L 7.49683750976563 32  C 6.11754934904876 32.4965024630542  5.00012567691636 31.3796802100436  5 30.0003942382813  L 5 9.92120206054688  L 17.4987413330078 2.70583133789063  L 30 9.92120206054688  L 30 30.0003942382812  Z " fill-rule="nonzero" fill="#333333" stroke="none" transform="matrix(1 0 0 1 20 13 )" />
  </g>
</svg>