<?xml version="1.0" encoding="utf-8"?>
<svg version="1.1" xmlns:xlink="http://www.w3.org/1999/xlink" width="40px" height="40px" xmlns="http://www.w3.org/2000/svg">
  <g transform="matrix(1 0 0 1 -20 -10 )">
    <path d="M 0.285087719298243 30.6600877192982  L 0.285087719298246 30.6578947368421  C 0.360375909799187 30.1304429605433  0.625484553959814 29.6485690132161  1.03070175438596 29.3026315789474  L 7.4780701754386 22.8552631578947  C 7.89470315205146 22.3687572593789  8.503211853536 22.0887202619009  9.14373587844995 22.0887202619009  C 10.3548866456227 22.0887202619009  11.3367183345903 23.0705519508685  11.3367183345903 24.2817027180413  C 11.3367183345903 24.9222267429552  11.0566813371123 25.5307354444398  10.5701754385965 25.9473684210526  L 7.74122807017544 28  L 20 28  C 20 28.7763157894737  20 28.7763157894737  20 28.7763157894737  C 21.2111507671728 28.7763157894737  22.1929824561403 29.7581474784412  22.1929824561403 30.969298245614  C 22.1929824561403 32.1804490127868  21.2111507671728 33.1622807017544  20 33.1622807017544  C 20 33.1622807017544  20 33.1622807017544  20 33  L 7.74122807017544 33  L 10.5701754385965 35.9912280701754  C 10.985028998771 36.4031601264051  11.2183384690478 36.9636162482493  11.2183384690478 37.5482456140351  C 11.2183384690478 38.7600774620143  10.2359546549967 39.7424612760653  9.02412280701754 39.7424612760653  C 8.44486687693035 39.7424612760653  7.88911074047402 39.5134090710637  7.4780701754386 39.1052631578947  L 0.899122807017544 32.5263157894737  C 0.411350425330485 32.036030878808  0.183725130865102 31.3442125731292  0.285087719298243 30.6600877192982  Z M 39 37.5504385964912  C 39.7368421052631 38.761589363664  38.7550104162956 39.7434210526316  37.5438596491228 39.7434210526316  L 28.7719298245614 39.7434210526316  C 27.5607790573886 39.7434210526316  26.5789473684211 38.761589363664  26.5789473684211 37.5504385964912  C 26.5789473684211 36.3392878293184  27.5607790573886 35.3574561403509  28.7719298245614 35.3574561403509  L 35 35.3574561403509  L 35 14.6337719298246  L 20 5.05043859649123  L 4.64912280701754 14.655701754386  L 4.64912280701754 20.0065789473684  C 4.64912280701754 21.2177297145412  3.66729111804999 22.1995614035088  2.45614035087719 22.1995614035088  C 1.2449895837044 22.1995614035088  0.263157894736842 21.2177297145412  0.263157894736842 20.0065789473684  L 0.263157894736842 13.4276315789474  C 0.261641695545902 12.6699529174607  0.651347696566054 11.9651654688072  1.29385964912281 11.5635964912281  L 18.8377192982456 0.598684210526317  C 19.5488394654428 0.154232869901037  20.4511605345572 0.154232869901037  21.1622807017544 0.598684210526317  L 38.7061403508772 11.5635964912281  C 39.3486523034339 11.9651654688072  39.7383583044541 12.6699529174607  39 13.4276315789474  L 39 37.5504385964912  Z " fill-rule="nonzero" fill="#333333" stroke="none" transform="matrix(1 0 0 1 20 10 )" />
  </g>
</svg>