<?xml version="1.0" encoding="utf-8"?>
<svg version="1.1" xmlns:xlink="http://www.w3.org/1999/xlink" width="32px" height="36px" xmlns="http://www.w3.org/2000/svg">
  <g transform="matrix(1 0 0 1 -28 -14 )">
    <path d="M 22.1040850627654 18.8916538728067  C 24.0990771487874 18.8916538728067  26.0123425584835 19.6701932388696  27.422905982906 21.0559701492537  C 29.9869362271978 23.5749032772613  30.3561177872982 27.5322918144187  28.3008547008547 30.4670149253731  L 31.9603418803419 34.0616417910448  L 30.0266666666667 35.9610447761194  L 26.3671794871795 32.3664179104478  C 25.1129714492639 33.2139955624651  23.6264464837369 33.6677732757918  22.1040850627654 33.6677732757918  C 17.9501484828415 33.6677732757918  14.5827175413979 30.360026278273  14.5827175413979 26.2797135742993  C 14.5827175413979 22.1994008703255  17.9501484828415 18.8916538728067  22.1040850627654 18.8916538728067  Z M 22.1046153846154 21.5782675967372  C 20.8351383612748 21.5782675967372  19.6176558117646 22.0736272669887  18.72 22.9553731343284  C 17.8223441882354 23.837119001668  17.3180464042757 25.0330230358418  17.3180464042757 26.28  C 17.3180464042757 28.8766951041073  19.4610663327606 30.9817324032628  22.1046153846154 30.9817324032628  C 23.3740924079559 30.9817324032628  24.5915749574662 30.4863727330113  25.4892307692308 29.6046268656716  C 26.3868865809954 28.722880998332  26.8911843649551 27.5269769641582  26.8911843649551 26.28  C 26.8911843649551 23.6833048958927  24.7481644364701 21.5782675967372  22.1046153846154 21.5782675967372  Z M 17.8119658119658 2.66507462686567  L 17.8119658119658 2.66373134328358  L 1.4017094017094 10.7234328358209  L 0.177777777777779 8.32029850746269  L 16.5880341880342 0.260597014925373  L 17.8119658119658 2.66507462686567  Z " fill-rule="nonzero" fill="#333333" stroke="none" transform="matrix(1 0 0 1 28 14 )" />
  </g>
</svg>