<?xml version="1.0" encoding="utf-8"?>
<svg version="1.1" xmlns:xlink="http://www.w3.org/1999/xlink" width="7px" height="13px" xmlns="http://www.w3.org/2000/svg">
  <g transform="matrix(1 0 0 1 -35 -19 )">
    <path d="M 0.0505859375000118 12.9184625589623  C 0.0506196952160644 8.83408510220126  0.0504340277777955 4.74967570754718  0.0500289351851867 0.665234374999999  C 1.46785300925926 0.471307488207547  2.88481626157407 0.274170843160377  4.30385561342593 0.0903522995283012  C 4.4216702770763 0.0842898490076998  4.53658581483095 0.126267801614686  4.61952401620371 0.2056640625  C 5.34845437885803 1.01222361438679  6.06918161651235 1.82536237224843  6.78170572916668 2.64508033608491  C 6.84644533612765 2.72442592880991  6.88264394013501 2.8212917746135  6.88500434027779 2.92150280070755  C 6.89114824459878 4.50980616155661  6.89197530864198 6.09814146029875  6.88748553240742 7.68650869693396  C 6.88930990796817 7.76530361955168  6.87491493031454 7.84368183845857  6.84510271990741 7.91727594339623  C 5.963671875 9.88701356132076  4.58493923611112 11.4328235554245  2.52944878472223 12.3819059551887  C 1.75298755787038 12.7404407429245  0.92933304398149 12.9573629127359  0.0505859375000118 12.9184625589623  Z " fill-rule="nonzero" fill="#fedfb8" stroke="none" transform="matrix(1 0 0 1 35 19 )" />
  </g>
</svg>