<?xml version="1.0" encoding="utf-8"?>
<svg version="1.1" xmlns:xlink="http://www.w3.org/1999/xlink" width="7px" height="13px" xmlns="http://www.w3.org/2000/svg">
  <g transform="matrix(1 0 0 1 -29 -19 )">
    <path d="M 3.089013671875 0.0977778596698124  C 4.325244140625 0.28745700668239  5.56165364583334 0.476609178459119  6.7982421875 0.665234374999999  C 6.7986328125 4.74967570754717  6.798828125 8.8341010711478  6.798828125 12.9185104658019  C 5.565966796875 12.9389666863208  4.4697265625 12.5279260023585  3.4638671875 11.8682009139151  C 1.996044921875 10.9052734375  0.952734374999999 9.59396742334906  0.260742187500004 8.00815521816038  C 0.214971785567716 7.89795686418898  0.192399800504116 7.77981174681665  0.194384765625003 7.66083063089623  C 0.211474609374999 6.07220789111635  0.233658854166666 4.4836330581761  0.260937500000001 2.89510613207547  C 0.268777005774446 2.80275475666931  0.30791975849899 2.71564112215553  0.372119140625003 2.64766730542453  C 1.14384765625 1.8255859375  1.924853515625 1.01188826650943  2.693994140625 0.187411556603776  C 2.81884765625 0.0535119398584927  2.944140625 0.075549086084906  3.089013671875 0.0977778596698124  Z " fill-rule="nonzero" fill="#f9ead6" stroke="none" transform="matrix(1 0 0 1 29 19 )" />
  </g>
</svg>