<?xml version="1.0" encoding="utf-8"?>
<svg version="1.1" xmlns:xlink="http://www.w3.org/1999/xlink" width="15px" height="16px" xmlns="http://www.w3.org/2000/svg">
  <g transform="matrix(1 0 0 1 -44 -34 )">
    <path d="M 14.313073359375 15.5663332532051  C 15.002037734375 14.938217588141  15.002037734375 13.9175296474359  14.3896249609375 13.2108995192308  L 12.093077109375 10.6984368990385  C 12.9351446484375 9.59923449519231  13.39445421875 8.26448874198718  13.39445421875 6.7727140625  C 13.39445421875 3.08253457532051  10.4089419921875 0.177499679487182  6.734465390625 0.177499679487182  C 3.0599887890625 0.177499679487182  0.0744765624999985 3.16104903846154  0.0744766015625004 6.7727140625  C 0.0744766406249994 10.3843790865385  3.059988828125 13.3679284455128  6.734465390625 13.3679284455128  C 7.7296361328125 13.3679284455128  8.6482552734375 13.1323850560897  9.4903228515625 12.7398127804487  L 12.0165255078125 15.4878187900641  C 12.62893828125 16.1159344551282  13.6241090234375 16.1944489182692  14.313073359375 15.5663332532051  Z M 11.7103191015625 6.85122852564103  C 11.7103191015625 9.52072007211538  9.4903228125 11.7976393028846  6.734465390625 11.7976393028846  C 3.97860796875 11.7976393028846  1.7586116796875 9.59923449519231  1.7586116796875 6.85122852564103  C 1.7586116796875 4.10322255608974  3.97860796875 1.90481774839744  6.734465390625 1.90481774839744  C 9.4903228125 1.90481774839744  11.7103191015625 4.10322255608974  11.7103191015625 6.85122852564103  Z " fill-rule="nonzero" fill="#333333" stroke="none" transform="matrix(1 0 0 1 44 34 )" />
  </g>
</svg>