<?xml version="1.0" encoding="utf-8"?>
<svg version="1.1" xmlns:xlink="http://www.w3.org/1999/xlink" width="42px" height="25px" xmlns="http://www.w3.org/2000/svg">
  <g transform="matrix(1 0 0 1 -20 -25 )">
    <path d="M 17.3532882378472 21.0107095497533  L 17.3532882378472 22.1945121898986  C 17.3532882378472 22.6233442554139  17.3530661458333 23.0522201377467  17.3530661458333 23.4806139065927  C 15.1761421006944 23.9618665621573  12.9902907552083 24.4446970942982  10.8040397135417 24.9283604029605  L 8.35445607638889 21.3188778097588  C 8.35796480034722 20.516439401727  8.35818689236111 19.7140009936952  8.35947491319445 18.9119570655154  L 6.20058307291667 15.7942901504249  C 6.19827352430556 16.572972733347  6.19640811631945 17.3516991330866  6.19418741319445 18.1295489394874  C 5.45255690104167 17.0370001970258  4.72691553819445 15.9653145559211  4.01539796006945 14.9165957373904  C 4.01850694444445 14.1620195997807  4.0226375 13.4078818016722  4.02552443576389 12.6533057068942  L 2.09661002604167 9.86786968030428  C 2.09265716145834 10.6007937996848  2.0891484375 11.3340685820998  2.08519552951389 12.0669050678454  C 1.42155659722222 11.0893222741913  0.770753385416669 10.1293590666118  0.133851866319447 9.18780444764254  C 0.144866623263891 7.58213871470669  0.147531467013891 5.97682360197369  0.147531467013891 4.37194678591009  L 4.04360104166667 3.68206363075658  C 8.01970525173611 8.64234092310855  11.9902132378472 13.605510982045  15.9584116753472 18.5719244277686  L 19.9967403645833 17.6893210749041  C 15.70258515625 12.8358135022615  11.4046990885417 7.98598765590735  7.10103919270834 3.14111456620066  C 8.373820703125 2.91565339740954  9.63909618055556 2.6918577388295  10.8996637152778 2.46880722313597  C 15.5993217881944 7.17500239857456  20.2954711371528 11.8844409608004  24.9878896701389 16.5983940258361  L 28.84829453125 15.7546678402549  C 23.8538141059028 11.1479227915981  18.8555585069444 6.54529776589912  13.8544603298611 1.94547783031799  C 15.0843375868056 1.72821284779331  16.311683203125 1.51090404845121  17.5291244791667 1.2953046189693  C 22.8988615885417 5.76205686334978  28.2617588541667 10.2362163771244  33.6248782118056 14.7104197077166  L 37.3233484375 13.9022834001508  C 31.6813959201389 9.52796849300987  26.0381553385417 5.15610805578399  20.3912284288194 0.788323781866782  C 21.5875284288195 0.576756698876099  22.7717477864583 0.366855168928185  23.9561891493056 0.157304259183118  L 41.9904508246528 12.8817034162555  C 41.9904508246528 14.5995299650493  41.9906729166667 16.3177509508635  41.9896513454861 18.0351392029879  C 39.9126595486111 18.4942577268366  37.8294053385417 18.9546035070587  35.7401995659722 19.416571023506  C 35.7404216579861 18.6079964192708  35.7406437065972 17.7998162948876  35.7408213541667 16.9912417334841  L 29.8151944878472 18.286766892818  C 29.8151944878472 19.0998998166804  29.8149723958333 19.9129450640762  29.8147503472222 20.725990311472  C 27.6911234809028 21.1953212376645  25.5579031684028 21.66671215392  23.4185536458333 22.1398124400356  C 23.4189977864583 21.3213760964912  23.4189977864583 20.5034219092654  23.4189977864583 19.6846349455181  L 17.3532882378472 21.0107095497533  Z " fill-rule="nonzero" fill="#333333" stroke="none" transform="matrix(1 0 0 1 20 25 )" />
  </g>
</svg>