<?xml version="1.0" encoding="utf-8"?>
<svg version="1.1" xmlns:xlink="http://www.w3.org/1999/xlink" width="4px" height="3px" xmlns="http://www.w3.org/2000/svg">
  <g transform="matrix(1 0 0 1 -35 -32 )">
    <path d="M 0.0516145833333326 2.93634207589286  L 0.0513020833333333 0.781808035714283  C 1.24263710194837 0.762675581721646  2.41027318560706 0.51081116175368  3.45338541666667 0.0479631696428596  C 3.60864583333334 -0.0198381696428578  3.62901041666667 0.0387974330357161  3.6403125 0.140332031250001  C 3.67734375000001 0.472558593749999  3.72494791666667 0.804199218750003  3.74968750000001 1.13701171875  C 3.75347378619295 1.22180482079555  3.71625362994426 1.30448220612944  3.64583333333334 1.36770368303571  C 3.01192708333334 1.85319475446429  2.36901041666667 2.330859375  1.72484375 2.80743582589285  C 1.66598497685545 2.85605869413334  1.58934947085407 2.88831598620025  1.50609375 2.89951171875  C 1.02171875 2.91826171875  0.53651041666667 2.92537667410715  0.0516145833333326 2.93634207589286  Z " fill-rule="nonzero" fill="#fddeb7" stroke="none" transform="matrix(1 0 0 1 35 32 )" />
  </g>
</svg>