<?xml version="1.0" encoding="utf-8"?>
<svg version="1.1" xmlns:xlink="http://www.w3.org/1999/xlink" width="16px" height="18px" xmlns="http://www.w3.org/2000/svg">
  <g transform="matrix(1 0 0 1 -35 -36 )">
    <path d="M 3.12410037878788 17.6969820205479  C 2.10543102652554 17.8550666112252  1.07471388952768 17.9183690108923  0.0447443181818216 17.8861033818493  L 0.0415719696969711 12.1772099743151  C 0.84318181818182 12.1613174229452  1.23475378787879 11.6185627140411  1.57660984848485 10.9786708047945  C 2.63309659090909 9.00101134417808  3.70516098484849 7.03197238869862  4.77211174242424 5.05989940068493  C 5.61876578282829 3.49517337328767  6.4651672979798 1.93031892123288  7.3113162878788 0.365336044520544  C 7.39057765151516 0.217920590753418  7.48536931818182 0.171350599315063  7.6470643939394 0.165427011986301  C 9.83854166666667 0.0852418664383562  11.7332386363636 0.872501070205478  13.4117897727273 2.24109053938356  C 14.7035037878788 3.2943332619863  15.4558238636364 4.68897688356164  15.7673295454545 6.33804580479452  C 15.9202122459926 7.15705844188089  15.9639292002627 7.99328582678451  15.8973011363636 8.82417059075343  C 15.8215435606061 9.80319991438356  15.4657196969697 10.7005029965753  14.9491477272727 11.5317797517123  C 14.0002840909091 13.0586686643836  12.6706439393939 14.1635380993151  11.1687026515152 15.0794788099315  C 9.59602272727274 16.038618364726  7.90071022727274 16.7007598458904  6.12817234848485 17.1418022260274  C 5.14124053030304 17.3874143835616  4.12973484848486 17.537863869863  3.12410037878788 17.6969820205479  Z M 8.56273674242424 9.59789704623288  C 8.99607007575758 9.59789704623288  9.42921401515152 9.59934182363014  9.86273674242424 9.59751177226027  C 10.3796401515152 9.59534460616438  10.5625946969697 9.28929259417808  10.3194128787879 8.8283122859589  C 9.87651515151515 7.98884845890411  9.42926136363637 7.15179259417808  8.98532196969697 6.31290667808219  C 8.890625 6.13404323630136  8.77249053030303 5.99447773972603  8.55170454545454 5.99683754280821  C 8.34128787878788 5.99905286815068  8.22892992424242 6.13346532534247  8.13825757575758 6.30457512842465  C 7.68650568181818 7.15737906678082  7.23035037878788 8.00777504280822  6.78091856060606 8.86183112157535  C 6.56041666666666 9.28081656678082  6.74701704545454 9.59341823630137  7.21543560606061 9.59712649828767  C 7.66434659090909 9.60049764554795  8.11344696969697 9.59770440924657  8.56254734848485 9.59770440924657  Z " fill-rule="nonzero" fill="#5a6286" stroke="none" transform="matrix(1 0 0 1 35 36 )" />
  </g>
</svg>