<?xml version="1.0" encoding="utf-8"?>
<svg version="1.1" xmlns:xlink="http://www.w3.org/1999/xlink" width="42px" height="40px" xmlns="http://www.w3.org/2000/svg">
  <g transform="matrix(1 0 0 1 -19 -10 )">
    <path d="M 41.9361295772141 37.9729253877119  C 41.9361295772141 37.6432883354128  41.8054540051432 37.3271144823386  41.5727774172615 37.0937828623381  L 37.4075154661475 32.9255004166982  C 38.8501184224629 31.2617164379465  39.6429584837189 29.1320709029887  39.6398325762492 26.9292794908705  C 39.6398325762492 21.86792938859  35.5397616266494 17.7648852185772  30.4820791693705 17.7648852185772  C 25.4243967120917 17.7648852185772  21.3236928401471 21.86792938859  21.3236928401471 26.9292794908705  C 21.3236928401471 31.990629593151  25.4237637897469 36.0936737631639  30.4814462470257 36.0936737631639  C 32.3460354747999 36.0936737631639  34.0802426995457 35.5362982044094  35.5264702574086 34.5786256534586  L 39.806291152931 38.8615501174331  C 40.2945073845071 39.3456459788219  41.0819374691387 39.3436639422788  41.5677140385031 38.8571164482158  C 41.8034866993863 38.6233821653429  41.9361295772141 38.3050415024459  41.9361295772141 37.9729253877119  Z M 37.6486588795155 26.9292794908705  C 37.6486588795155 30.889812864611  34.4397425913909 34.1010561406167  30.4814462470257 34.1010561406167  C 26.5231499026606 34.1010561406167  23.314233614536 30.889812864611  23.314233614536 26.9292794908705  C 23.314233614536 22.9681127358133  26.5231499026606 19.7568694598076  30.4814462470257 19.7568694598076  C 34.4397425913909 19.7568694598076  37.6486588795155 22.9681127358133  37.6486588795155 26.9292794908705  Z M 36.6176283798399 9.61200090915979  C 36.6226420975833 9.56415493911063  36.619863313007 9.51581180676008  36.6094003893576 9.46885673157057  L 36.6094003893576 9.43338737783165  L 36.5992736318408 9.43338737783165  C 36.5106645035691 9.16610046215622  36.157493835172 9.00522160769755  35.8340705169803 8.83927570270475  L 18.6533934674454 0.243024471550876  C 18.377038663185 0.103060643521526  18.0506191347817 0.103060643521528  17.7742643305213 0.243024471550876  L 0.593587280986372 8.83927570270475  C -0.0456642872593554 9.25920751572089  0.0543374432186891 10.189011288734  0 10.2890855367831  L 0 28.6318084703387  C 0.0543374432186891 28.9719342374422  0.23408738914125 29.2917918024093  0.52396582305862 29.4716720963709  C 0.52396582305862 29.4716720963709  17.3350162232317 39.637442230472  17.624894657149 39.7672854004091  C 18.2141453601557 40.0573740434881  18.5837720095176 39.9769346162588  18.8635236859182 39.8369573452534  L 24.4572913692408 36.5984786726267  C 24.765088299474 36.420110558675  24.9545994041608 36.0911375924268  24.9545994041608 35.7351999763356  C 24.9545994041608 35.5572210278374  24.9070184098527 35.3824828283222  24.8167912610859 35.2291082657777  C 24.5429969991957 34.7522478252632  23.9353498758392 34.5868434211026  23.4579069868051 34.8592135767861  L 19.5926502271252 37.1083506326237  L 20 37.3179998484734  L 20 20.045691340253  L 34.3967038719446 11.4089037048261  L 34.4448059701492 11.3797681642549  L 34.4448059701492 15.9819168118797  C 34.4448059701492 16.5069899234791  34.8726614752325 16.9313554057126  35.4005187107939 16.9313554057126  L 35.653687648713 16.9313554057126  C 36.1815448842743 16.9313554057126  36.6094003893576 16.5063565421623  36.6094003893576 15.9819168118797  L 36.6094003893576 9.64240321236457  C 36.6125650010815 9.63163572997954  36.6157296128055 9.62150162891128  36.6176283798399 9.61200090915979  Z M 18 20.045691340253  L 18 37.2685961057656  L 2 28.0826668687022  L 2 11.3892688840064  L 18 20.045691340253  Z M 33.328330953926 9.76907947571786  L 18.2147782825005 18.3463292673687  L 3.10185853341986 9.76907947571786  L 18.2147782825005 2.21157360406091  L 33.328330953926 9.76907947571786  Z M 11.8456807268008 19.7739707553603  L 6.11203720527796 16.3359769679521  C 5.96102754683212 16.2435585957376  5.78745311622703 16.1946546838982  5.61044266889295 16.1946546838982  C 5.27098971210794 16.1946546838982  4.95669587909533 16.3737928775383  4.78353320354748 16.6659686339874  C 4.50522395612055 17.1270574289772  4.6528064800142 17.7266032798725  5.11328574518711 18.0055701189484  L 10.8469292667099 21.4435639063565  C 10.9971828564814 21.535674495683  11.1699578716362 21.5844231205824  11.3461628947926 21.5844231205824  C 11.6887521970082 21.5844231205824  12.0051351747711 21.400917878519  12.1754332684404 21.103438139253  C 12.26778467082 20.9523189741658  12.3166531450421 20.7786186737778  12.3166531450421 20.6014798649881  C 12.3166531450421 20.2617807494237  12.1376447616873 19.9472590021014  11.8456807268008 19.7739707553603  Z " fill-rule="nonzero" fill="#333333" stroke="none" transform="matrix(1 0 0 1 19 10 )" />
  </g>
</svg>