<?xml version="1.0" encoding="utf-8"?>
<svg version="1.1" xmlns:xlink="http://www.w3.org/1999/xlink" width="12px" height="8px" xmlns="http://www.w3.org/2000/svg">
  <g transform="matrix(1 0 0 1 -32 -24 )">
    <path d="M 11.9374391500158 6.54285769548447  C 11.9374391500158 7.33134523820776  11.349045276505 7.97073502587747  10.62280703125 7.97142857142857  C 10.2741470536798 7.97005788639096  9.94004546447166 7.81948703449755  9.69298244243421 7.5523809375  L 5.99122808388158 3.53333334821429  L 2.28947368421053 7.5523809375  C 1.77378967522085 8.10424520960013  0.94550855668705 8.10424520960013  0.429824547697371 7.5523809375  C 0.181252584594179 7.28577723934574  0.0413499702281145 6.92221414840844  0.0413499702281145 6.54285714285714  C 0.0413499702281145 6.16350013730585  0.181252584594179 5.79993704636854  0.429824547697371 5.53333334821429  L 5.06140349506579 0.495238080357144  C 5.58437728836615 -0.0369719412730839  6.39807883827858 -0.0369719412730839  6.92105263157895 0.495238080357145  L 11.5526315789474 5.53333334821429  C 11.7990362111694 5.80119121992155  11.9374391500158 6.1642847425134  11.9374391500158 6.54285769548447  Z " fill-rule="nonzero" fill="#333333" stroke="none" transform="matrix(1 0 0 1 32 24 )" />
  </g>
</svg>