<?xml version="1.0" encoding="utf-8"?>
<svg version="1.1" xmlns:xlink="http://www.w3.org/1999/xlink" width="12px" height="7px" xmlns="http://www.w3.org/2000/svg">
  <g transform="matrix(1 0 0 1 -31 -13 )">
    <path d="M 11.9374391500158 5.72500048354891  C 11.9374391500158 6.41492708343179  11.349045276505 6.97439314764279  10.62280703125 6.975  C 10.2741470536798 6.97380065059209  9.94004546447166 6.84205115518536  9.69298244243421 6.6083333203125  L 5.99122808388158 3.0916666796875  L 2.28947368421053 6.6083333203125  C 1.77378967522085 7.09121455840011  0.94550855668705 7.09121455840011  0.429824547697371 6.6083333203125  C 0.181252584594179 6.37505508442753  0.0413499702281145 6.05693737985738  0.0413499702281145 5.725  C 0.0413499702281145 5.39306262014262  0.181252584594179 5.07494491557248  0.429824547697371 4.8416666796875  L 5.06140349506579 0.433333320312501  C 5.58437728836615 -0.0323504486139484  6.39807883827858 -0.0323504486139484  6.92105263157895 0.433333320312501  L 11.5526315789474 4.8416666796875  C 11.7990362111694 5.07604231743136  11.9374391500158 5.39374914969922  11.9374391500158 5.72500048354891  Z " fill-rule="nonzero" fill="#333333" stroke="none" transform="matrix(1 0 0 1 31 13 )" />
  </g>
</svg>