<?xml version="1.0" encoding="utf-8"?>
<svg version="1.1" xmlns:xlink="http://www.w3.org/1999/xlink" width="35px" height="14px" xmlns="http://www.w3.org/2000/svg">
  <g transform="matrix(1 0 0 1 -21 -29 )">
    <path d="M 24.1809895690918 12.5185185329861  C 24.1809895690918 13.2855806855289  23.5688788755011 13.907407421875  22.8138020690918 14  L 12.6692708190918 14  C 11.9141940126825 13.907407421875  11.3020833190918 13.2855806855289  11.3020833190918 12.5185185329861  L 11.3020833190918 2.79629631076389  L 1.5494791809082 2.79629631076389  C 0.794402374498916 2.79629631076389  0.182291680908204 2.17446957441777  0.182291680908204 1.407407421875  C 0.182291680908204 0.640345269332234  0.794402374498916 0.0185185329861118  1.5494791809082 0.0185185329861118  C 1.5494791809082 0.0185185329861118  1.5494791809082 0.0185185329861118  1.5494791809082 0  L 12.6692708190918 0  C 13.4243476255011 0.0185185329861118  14.0364583190918 0.640345269332234  14.0364583190918 1.407407421875  L 14.0364583190918 11.1296296440972  L 21.4466145690918 11.1296296440972  L 21.4466145690918 1.407407421875  C 21.4466145690918 0.640345269332234  22.0587252626825 0.0185185329861118  22.8138020690918 0  L 33.5872395690918 0  C 33.5872395690918 0.0185185329861118  33.5872395690918 0.0185185329861118  33.5872395690918 0.0185185329861118  C 34.3423163755011 0.0185185329861118  34.9544270690918 0.640345269332234  34.9544270690918 1.407407421875  C 34.9544270690918 2.17446957441777  34.3423163755011 2.79629631076389  33.5872395690918 2.79629631076389  L 24.1809895690918 2.79629631076389  L 24.1809895690918 12.5185185329861  Z " fill-rule="nonzero" fill="#333333" stroke="none" transform="matrix(1 0 0 1 21 29 )" />
  </g>
</svg>