<?xml version="1.0" encoding="utf-8"?>
<svg version="1.1" xmlns:xlink="http://www.w3.org/1999/xlink" width="47px" height="21px" xmlns="http://www.w3.org/2000/svg">
  <g transform="matrix(1 0 0 1 -16 -29 )">
    <path d="M 40.22557421875 1.34535910866477  L 40.0878330078125 4.32239435369318  L 43.56037109375 6.42323330965909  L 41.9452509765625 7.13993474786932  L 38.9090234375 5.45908647017045  L 35.3768173828125 6.83749112215909  L 38.3057802734375 8.7551114169034  L 36.5940439453125 9.51469282670455  L 33.54129296875 7.48344060724432  L 29.4187412109375 9.12989169034091  L 32.7336181640625 11.227607865767  L 30.9160400390625 12.0342174183239  L 27.485912109375 9.80986550071022  L 23.1402021484375 11.3389093572443  L 26.812123046875 13.8554509943182  L 24.8809921875 14.7121648615057  L 3.97287695312501 0.000792347301135007  L 0.001560546875 1.32713512073864  L 0.35672265625 5.15738858309659  L 20.596923828125 20.9553488991477  L 24.8918701171875 18.965019087358  L 24.885123046875 16.5414617365057  L 32.6912080078125 13.0206431995739  L 32.6198359375 15.3849609375  L 36.42261328125 13.6230135830966  L 36.530291015625 11.2888516512784  L 43.4601748046875 8.16350763494318  L 43.2910390625 10.4410400390625  L 46.6831630859375 8.86953568892046  L 46.9980263671875 4.89815118963068  L 40.225390625 1.34549893465909  Z M 2.054322265625 4.99588955965909  L 1.8323115234375 2.69500621448864  L 7.6240517578125 7.02201482599432  L 7.8016787109375 9.41653497869318  L 2.0543681640625 4.99574973366477  Z M 11.0876396484375 11.9442626953125  L 10.9381484375 9.49810014204545  L 17.91342578125 14.7097878196023  L 17.9966396484375 17.258769087358  L 11.0876396484375 11.9442160866477  Z " fill-rule="nonzero" fill="#333333" stroke="none" transform="matrix(1 0 0 1 16 29 )" />
  </g>
</svg>