<?xml version="1.0" encoding="utf-8"?>
<svg version="1.1" xmlns:xlink="http://www.w3.org/1999/xlink" width="32px" height="35px" xmlns="http://www.w3.org/2000/svg">
  <g transform="matrix(1 0 0 1 -21 -13 )">
    <path d="M 29.5291217696629 34.8477157509121  L 2.37938546348315 34.8477157509121  C 1.1057311176418 34.8477157509121  0.0732302668539323 33.8273349925986  0.0732302668539323 32.5686315385073  C 0.0732302668539323 32.5686315385073  0.0732302668539329 32.5686315038071  0 32.5686315038071  L 0 11.1245208746431  L 14.4961345856742 0.579612547588833  C 15.306021539376 -0.0158518813916316  16.4143091893766 -0.0192142106805558  17.2278802317416 0.571324962325508  L 31.8352769662921 11.1162332893798  L 31.8352769662921 32.5686315038071  C 31.8352769662921 33.8273349925986  30.8027761155043 34.8477157509121  29.5291217696629 34.8477157509121  Z M 15.743554880618 2.24437999682741  L 2.16973497191011 12.165648001269  L 2.16973497191011 32.5738112359216  C 2.16973497191011 32.6882388486463  2.26359867847249 32.781000728704  2.37938542837078 32.781000728704  L 29.5291217696629 32.781000728704  C 29.6449085195612 32.781000728704  29.7387722261236 32.6882388486463  29.7387722261236 32.5738112706218  L 29.7387722261236 12.1687558197176  L 15.9909424508427 2.24437999682741  C 15.9172671305608 2.19117462521134  15.8172302008999 2.19117462521134  15.743554880618 2.24437999682741  Z " fill-rule="nonzero" fill="#333333" stroke="none" transform="matrix(1 0 0 1 21 13 )" />
  </g>
</svg>