<?xml version="1.0" encoding="utf-8"?>
<svg version="1.1" xmlns:xlink="http://www.w3.org/1999/xlink" width="40px" height="40px" xmlns="http://www.w3.org/2000/svg">
  <g transform="matrix(1 0 0 1 -20 -10 )">
    <path d="M 39.3789950284091 16.1239346590909  L 20.9188565340909 0.462091619318181  C 20.3887926637838 0.0124629247696652  19.6112073362162 0.0124629247696677  19.0811434659091 0.462091619318181  L 0.62100497159091 16.1239346590909  C 0.294999474933168 16.393787944008  0.106297202945682 16.794950524844  0.106297202945682 17.218153052284  C 0.106297202945682 18.0026484355664  0.742256365117851 18.6386075977385  1.52675174840023 18.6386075977385  C 1.86926109286368 18.6386075977385  2.20023642675086 18.5148496840272  2.45871803977273 18.2901278409091  L 3 17.8733132102273  L 3 38.4543678977273  C 2.95010653409091 39.2388632810096  3.58606569626308 39.8748224431818  4.37056107954546 39.8748224431818  C 5.15505646282783 39.8748224431818  5.791015625 39.2388632810096  5.791015625 38.4543678977273  C 5.791015625 38.4543678977273  5.791015625 38.4543678977273  6 38.4543678977273  L 6 15.4860617897727  L 5.791015625 15.4638671875  L 20 3.408203125  L 34.2116477272727 15.4656427556818  L 34.2116477272727 24.2653586647727  C 34.2116477272727 25.0498540480551  34.8476068894449 25.6858132102273  35.6321022727273 25.6858132102273  C 36.4165976560097 25.6858132102273  37.0525568181818 25.0498540480551  37.0525568181818 24.2653586647727  L 37.0525568181818 17.8755326704545  L 37.5408380681818 18.2901278409091  C 37.7993196812037 18.5148496840272  38.1302950150909 18.6386075977385  38.4728043595543 18.6386075977385  C 39.2572997428367 18.6386075977385  39.8932589050089 18.0026484355664  39.8932589050089 17.218153052284  C 39.8932589050089 16.794950524844  39.7045566330214 16.393787944008  39.3785511363636 16.1239346590909  Z " fill-rule="nonzero" fill="#333333" stroke="none" transform="matrix(1 0 0 1 20 10 )" />
  </g>
</svg>