<?xml version="1.0" encoding="utf-8"?>
<svg version="1.1" xmlns:xlink="http://www.w3.org/1999/xlink" width="35px" height="40px" xmlns="http://www.w3.org/2000/svg">
  <g transform="matrix(1 0 0 1 -18 -15 )">
    <path d="M 22.947509765625 39.3395543981482  C 21.1729350977475 39.7002065382527  19.3654583652797 39.8793126145391  17.5537109375 39.8740354938272  C 14.254931640625 39.8617380401234  11.0533203125 39.3367573302469  7.991259765625 38.0904224537037  C 5.882470703125 37.2320119598765  3.961865234375 36.088493441358  2.40791015625 34.4089506172839  C 1.463916015625 33.3886477623457  0.738916015625003 32.2364486882716  0.416064453125002 30.8799672067901  C -0.0421386718749988 28.9549575617284  0.249609375000002 27.1067708333333  1.131201171875 25.3498263888889  C 2.118408203125 23.3822337962963  3.72080078125 22.0347704475309  5.654248046875 21.0170235339506  C 7.10107421875 20.2554494598765  8.65371093750001 20.0741222993827  10.253857421875 20.1042631172839  C 10.430712890625 20.1075906635802  10.522412109375 20.0648630401234  10.599169921875 19.8973283179012  C 10.833837890625 19.3864776234568  11.09140625 18.8858024691358  11.34326171875 18.3827160493827  C 11.674462890625 17.7211612654321  12.18623046875 17.5125385802469  12.8904296875 17.7537133487654  C 12.9974609375 17.7903645833333  13.055517578125 17.8159239969136  13.063720703125 17.6572627314815  C 13.07861328125 17.3689718364197  13.11650390625 17.081356095679  13.156494140625 16.7950424382716  C 13.1765625 16.6508005401234  13.12685546875 16.5632716049383  13.013623046875 16.4711612654321  C 11.298828125 15.0761959876543  10.164306640625 13.3105709876543  9.609375 11.1892361111111  C 9.267236328125 9.88199266975309  9.261328125 8.55830439814815  9.47998046875 7.22796103395062  C 9.67216796875 6.05869020061728  10.00966796875 4.93725887345679  10.598876953125 3.90282600308642  C 11.5845703125 2.17226080246914  13.071875 1.05753279320988  15.003173828125 0.546875  C 16.907080078125 0.0435956790123455  18.81552734375 0.0780767746913578  20.6794921875 0.730758101851852  C 22.783349609375 1.46739969135803  24.176220703125 2.93547453703704  24.96875 4.9780574845679  C 25.4423828125 6.19926697530864  25.72734375 7.46604938271605  25.731689453125 8.77223186728395  C 25.741455078125 11.7946566358025  24.53427734375 14.2896412037037  22.26220703125 16.2888213734568  C 22.03701171875 16.486930941358  21.954931640625 16.6616030092593  22.0185546875 16.9446855709877  C 22.0693359375 17.1704282407407  22.075537109375 17.4067322530864  22.09140625 17.6391300154321  C 22.1001953125 17.7677469135802  22.119140625 17.8204571759259  22.2765625 17.7741608796296  C 22.886474609375 17.5954378858025  23.3703125 17.8002989969136  23.660009765625 18.3584587191358  C 23.911669921875 18.8436053240741  24.165625 19.3292341820988  24.381884765625 19.8301022376543  C 24.503955078125 20.11328125  24.656884765625 20.212818287037  24.976513671875 20.2025462962963  C 26.010205078125 20.169319058642  27.051708984375 20.1929012345679  28.047216796875 20.4880883487654  C 30.29892578125 21.1561535493827  32.236669921875 22.3003472222222  33.56787109375 24.279899691358  C 34.2466510118435 25.2826337181697  34.6626049106481 26.4361938384478  34.778369140625 27.6369598765432  C 34.85224609375 28.3852237654321  34.910205078125 29.1448688271605  34.8634765625 29.8926022376543  C 34.792041015625 31.0365547839506  34.3677734375 32.0859857253086  33.748583984375 33.0542534722222  C 32.717822265625 34.666087962963  31.289892578125 35.8627507716049  29.6560546875 36.8362750771605  C 27.5759765625 38.0756655092593  25.318701171875 38.8569155092593  22.947509765625 39.3395543981482  Z M 17.548388671875 20.6673900462963  C 18.002978515625 20.6548032407407  18.4578125 20.646556712963  18.911962890625 20.6249517746913  C 18.9900151289257 20.6120513421237  19.061860915802 20.574882445915  19.117041015625 20.518856095679  C 19.720947265625 19.9696180555556  20.323681640625 19.419319058642  20.91796875 18.8599054783951  C 20.9839643097268 18.7870306633903  21.0188234407802 18.6917466188182  21.015234375 18.5940393518518  C 20.992138671875 18.2105999228395  20.947509765625 17.8284143518519  20.9126953125 17.4456018518518  C 20.902099609375 17.3286554783951  20.8830078125 17.261043595679  20.737451171875 17.339168595679  C 19.7595334552566 17.8724913849425  18.6648746268266 18.1627055314077  17.547998046875 18.1847511574074  C 17.32958984375 18.1712962962963  17.1103515625 18.1652199074074  16.89287109375 18.1430362654321  C 16.036475612661 18.0519617703285  15.2056699624046 17.7997156593876  14.445361328125 17.3999324845679  C 14.31318359375 17.3316936728395  14.270556640625 17.3449074074074  14.256982421875 17.496768904321  C 14.222021484375 17.8876832561728  14.167041015625 18.2769097222222  14.136767578125 18.6680652006173  C 14.1350527601428 18.7594590689257  14.1698972587548 18.8478342099355  14.233740234375 18.9140142746914  C 14.816845703125 19.4600694444444  15.407177734375 19.998649691358  15.998974609375 20.5355420524691  C 16.050261643527 20.5842285959408  16.1160900914175 20.6152649911256  16.186669921875 20.6240354938272  C 16.640283203125 20.6441936728395  17.094384765625 20.6541280864198  17.54833984375 20.6673900462963  Z M 19.35185546875 21.5746527777778  C 18.62607421875 21.5946180555556  17.900341796875 21.6277006172839  17.17451171875 21.6299672067901  C 16.707275390625 21.6315104166667  16.239892578125 21.5881076388889  15.77255859375 21.5648630401235  C 15.691162109375 21.5181327160494  15.597705078125 21.4842785493827  15.530126953125 21.4227430555556  C 14.5556803385417 20.5353973765432  13.583203125 19.6460262345679  12.6126953125 18.7546296296296  C 12.386669921875 18.5478395061728  12.345947265625 18.5546392746914  12.212646484375 18.8229648919753  C 11.851806640625 19.5493827160494  11.498486328125 20.279369212963  11.127685546875 21.0009645061728  C 11.055859375 21.1408179012346  11.062060546875 21.2329282407407  11.1361328125 21.3652102623457  C 12.1804361979167 23.2309831532922  13.22099609375 25.0987654320988  14.2578125 26.9685570987654  C 14.8522135416667 28.0356224279835  15.4482096354167 29.1018036265432  16.04580078125 30.1671006944444  C 16.36435546875 30.7437789351852  16.67568359375 31.3245081018519  17.003759765625 31.8958333333333  C 17.251416015625 32.327449845679  17.77666015625 32.3509355709877  18.03212890625 31.9254436728395  C 18.38369140625 31.3402295524691  18.695361328125 30.7318672839506  19.024169921875 30.1334394290124  C 19.071142578125 30.0593171296296  19.121826171875 29.9872685185185  19.164501953125 29.910831404321  C 20.7282063802083 27.1117380401235  22.2931803385417 24.3133519804527  23.859423828125 21.5156732253086  C 23.969775390625 21.3192997685185  23.978271484375 21.1721161265432  23.875830078125 20.9735243055556  C 23.526171875 20.295669367284  23.1966796875 19.6076871141975  22.8587890625 18.9239486882716  C 22.703564453125 18.6098572530864  22.64794921875 18.5980902777778  22.3900390625 18.8346836419753  C 21.4546223958333 19.6920331790124  20.5195638020833 20.5498006687243  19.58486328125 21.4079861111111  C 19.5107601751904 21.4682860145518  19.4329237303462 21.5239655886637  19.351806640625 21.5747010030864  Z M 14.21376953125 16.1445794753086  C 15.2197265625 16.8087384259259  16.31611328125 17.2225115740741  17.548828125 17.2019193672839  C 18.3962890625 17.2409818672839  19.1904296875 17.0225694444444  19.93916015625 16.6617959104938  C 21.92119140625 15.7064043209877  23.250732421875 14.150318287037  24.10068359375 12.1674864969136  C 24.1294310823569 12.0934031624084  24.1433119536657 12.0145039107073  24.141552734375 11.9351851851852  C 24.143896484375 10.3362911522634  24.1430989583333 8.73739711934156  24.13916015625 7.13850308641975  C 24.1368840561123 7.03762589016174  24.1019782593909 6.94011611185992  24.03955078125 6.86024305555556  C 23.35068359375 6.03661908436214  22.6556966145833 5.21807484567901  21.95458984375 4.40461033950617  C 21.8747195459511 4.32461432988338  21.7639829305461 4.28223584432563  21.650390625 4.28819444444444  C 20.28203125 4.47333140432099  18.915478515625 4.67177854938272  17.548486328125 4.86689814814815  C 16.3117350260417 4.67682613168724  15.0752115885417 4.48649691358025  13.838916015625 4.29591049382716  C 13.694091796875 4.27353395061728  13.568798828125 4.25135030864197  13.443896484375 4.3861400462963  C 12.674853515625 5.21614583333333  11.89375 6.03520447530864  11.122021484375 6.86275077160494  C 11.057822102249 6.93117645606349  11.0186793495244 7.01886919356075  11.01083984375 7.11183449074074  C 10.9828776041667 8.71088927469136  10.960693359375 10.3100244341564  10.944287109375 11.9092399691358  C 10.9423021442541 12.0290120326454  10.9648741293177 12.1479425401617  11.01064453125 12.2588734567901  C 11.70283203125 13.8551311728395  12.74609375 15.1753472222222  14.21376953125 16.1445794753086  Z M 17.54599609375 38.8984857253086  C 18.6081565977233 38.9309261743066  19.6711000589513 38.8676660710901  20.721630859375 38.7094907407407  C 21.75869140625 38.5503472222222  22.801708984375 38.3994984567901  23.819580078125 38.1535493827161  C 25.647509765625 37.7118537808642  27.39580078125 37.0488040123457  29.017626953125 36.0883969907407  C 30.56650390625 35.1711516203704  31.937548828125 34.0648148148148  32.9162109375 32.535831404321  C 33.44892578125 31.7034143518518  33.815673828125 30.8048804012346  33.893994140625 29.8245081018518  C 33.9627043315209 28.9924835782616  33.9176212224298 28.1551091050385  33.7599609375 27.3349729938272  C 33.438720703125 25.6836419753086  32.662890625 24.2871334876543  31.330810546875 23.2323977623457  C 29.599658203125 21.8617862654321  27.6458984375 21.0734471450617  25.3859375 21.1538869598765  C 25.219189453125 21.1598186728395  25.121435546875 21.2064525462963  25.039697265625 21.3540702160494  C 24.170556640625 22.9230002572016  23.297705078125 24.4900012860082  22.421142578125 26.0550733024691  C 21.320849609375 28.0296103395062  20.215283203125 30.001350308642  19.12578125 31.9819637345679  C 18.77314453125 32.622974537037  18.36943359375 33.1662326388889  17.542724609375 33.1822916666667  C 16.86103515625 33.1831114969136  16.403759765625 32.8505979938272  16.086962890625 32.2689525462963  C 15.4595703125 31.1169463734568  14.815478515625 29.9737654320988  14.177783203125 28.8273533950617  C 12.839404296875 26.4219232253086  11.49052734375 24.0221354166667  10.171533203125 21.6063850308642  C 9.94257812499999 21.186824845679  9.71005859374999 20.9367766203704  9.20859375 21.1021412037037  C 9.20054244871293 21.1036077171864  9.19231691728367 21.1039001805261  9.18417968749999 21.1030092592592  C 8.01542968749999 21.1206597222222  6.92832031249999 21.4261188271605  5.90571289062499 21.9832658179012  C 4.70400390624999 22.6376350308642  3.63032226562499 23.4396701388889  2.80024414062499 24.5326485339506  C 1.89782671802565 25.7093432971274  1.35181401153376 27.1146874036163  1.2255859375 28.5855516975309  C 1.1181049588413 29.6759025424841  1.3101239989196 30.7747106461674  1.7814453125 31.7663966049383  C 2.352734375 32.9852912808642  3.229931640625 33.9715470679012  4.269482421875 34.8160204475309  C 6.12568359375 36.3239776234568  8.265380859375 37.2882426697531  10.557568359375 37.9464216820988  C 11.86005859375 38.3204089506173  13.183056640625 38.6038290895062  14.536181640625 38.7154224537037  C 15.537646484375 38.798225308642  16.54267578125 38.8388792438272  17.546142578125 38.8982928240741  Z " fill-rule="nonzero" fill="#353842" stroke="none" transform="matrix(1 0 0 1 18 15 )" />
  </g>
</svg>