<?xml version="1.0" encoding="utf-8"?>
<svg version="1.1" xmlns:xlink="http://www.w3.org/1999/xlink" width="11px" height="11px" xmlns="http://www.w3.org/2000/svg">
  <g transform="matrix(1 0 0 1 -46 -37 )">
    <path d="M 10.4813058035714 8.94539221938775  L 8.33374521683674 6.79213169642858  C 8.73535371979613 6.11001870275186  8.94714271092101 5.33287441081542  8.94714271092101 4.54131422624832  C 8.94714271092101 2.09121106590602  6.96094166207963 0.105010017064645  4.51083850173733 0.105010017064645  C 2.06073534139504 0.105010017064645  0.0745342925536566 2.09121106590602  0.0745342925536566 4.54131422624832  C 0.0745342925536566 6.99141738659063  2.06073534139504 8.97761843543199  4.51083850173733 8.97761843543199  C 5.31304198661276 8.97761843543199  6.10023380900197 8.76009936237605  6.78862404336735 8.34821428571428  L 8.9291693239796 10.4935825892857  C 9.13506933408864 10.701744760095  9.41569086584654 10.818881101605  9.70848141132051 10.818881101605  C 10.3138636905116 10.818881101605  10.8046229929532 10.3281217991635  10.8046229929532 9.72273951997233  C 10.8046229929532 9.43091629516206  10.6882571681171 9.15113946056328  10.4813058035714 8.94539221938775  Z M 6.75530133928571 4.54416454081633  C 6.75385167917321 5.78096495293302  5.75158835854527 6.78322827356097  4.51478794642857 6.78467793367347  C 3.27738656776192 6.78467793367347  2.27427455357142 5.78156591948298  2.27427455357142 4.54416454081633  C 2.27427455357142 3.30676316214968  3.27738656776192 2.30365114795919  4.51478794642857 2.30365114795919  C 5.75218932509521 2.30365114795919  6.75530133928571 3.30676316214968  6.75530133928571 4.54416454081633  Z " fill-rule="nonzero" fill="#333333" stroke="none" transform="matrix(1 0 0 1 46 37 )" />
  </g>
</svg>