<?xml version="1.0" encoding="utf-8"?>
<svg version="1.1" xmlns:xlink="http://www.w3.org/1999/xlink" width="17px" height="18px" xmlns="http://www.w3.org/2000/svg">
  <g transform="matrix(1 0 0 1 -19 -36 )">
    <path d="M 16.7896309468284 12.1772099743151  C 16.7908863883707 14.0800460188356  16.792042716107 15.9830104880137  16.7930999300373 17.8861033818493  C 15.774656016791 17.8267711900685  14.7546262826493 17.7859803082192  13.7381646455224 17.7034835188356  C 12.36484375 17.5920430222603  11.0220994636194 17.309011130137  9.70016907649254 16.9355361729452  C 7.37381937966418 16.2782587756849  5.20218633395523 15.315314640411  3.31823111007463 13.8094231592466  C 2.26321420242538 12.9661065924658  1.3729739972015 11.9811536815068  0.793059118470154 10.7639768835616  C 0.31472013321 9.773644839977  0.119852292518284 8.67634215562775  0.228952891791045 7.5874892979452  C 0.356931262434612 6.11842734094159  0.911082070775942 4.71477647506319  1.82706389925373 3.53951198630137  C 2.66953125 2.44798266267124  3.75938666044776 1.64685359589041  4.97888292910448 0.993621575342464  C 6.01680270522388 0.437478595890408  7.12013759328358 0.13224529109589  8.30628206623135 0.114570847602737  C 8.31454074720583 0.115460548429453  8.3228890477609 0.115168485724463  8.33106051772388 0.113703981164379  C 8.8400099113806 -0.0514340753424707  9.07599988339552 0.198464255136982  9.30837220149254 0.617257063356159  C 10.6470528218284 3.02969820205479  12.016062266791 5.42619863013698  13.3744169776119 7.82833369006849  C 14.021828358209 8.97317529965754  14.6754839085821 10.114790239726  15.3120918843284 11.2652183219178  C 15.6335675139925 11.846066994863  16.0977174673508 12.178125  16.7896309468284 12.1772099743151  Z " fill-rule="nonzero" fill="#707a9a" stroke="none" transform="matrix(1 0 0 1 19 36 )" />
  </g>
</svg>