<?xml version="1.0" encoding="utf-8"?>
<svg version="1.1" xmlns:xlink="http://www.w3.org/1999/xlink" width="19px" height="19px" xmlns="http://www.w3.org/2000/svg">
  <g transform="matrix(1 0 0 1 -27 -25 )">
    <path d="M 8.21640292431193 6.9383079506928  C 8.21640292431193 7.74642579085898  7.57932449866505 8.40153473798643  6.79344843391628 8.40153473798644  L 1.50818883493406 8.40153473798643  C 0.722312770185293 8.40153473798643  0.085234344538415 7.74642579085898  0.0852343445384175 6.9383079506928  L 0.085234344538415 1.50346553287146  C 0.085234344538415 0.695347692705278  0.722312770185296 0.0402387455778263  1.50818883493406 0.0402387455778263  L 6.79344843391628 0.0402387455778263  C 7.57932449866505 0.0402387455778263  8.21640292431193 0.695347692705278  8.21640292431193 1.50346553287146  L 8.21640292431193 6.9383079506928  Z M 2.11802649799312 2.13056275243219  L 2.11802649799312 6.31121073113208  L 6.18361077085723 6.31121073113208  L 6.18361077085723 2.13056275243219  L 2.11802649799312 2.13056275243219  Z M 8.21640292431193 17.3899279499558  C 8.21640292431193 18.198045790122  7.57932449866505 18.8531547372494  6.79344843391628 18.8531547372494  L 1.50818883493406 18.8531547372494  C 0.722312770185296 18.8531547372494  0.085234344538415 18.198045790122  0.0852343445384175 17.3899279499558  L 0.085234344538415 11.9550855321344  C 0.085234344538415 11.1469676919682  0.722312770185296 10.4918587448408  1.50818883493406 10.4918587448408  L 6.79344843391628 10.4918587448408  C 7.57932449866505 10.4918587448408  8.21640292431193 11.1469676919682  8.21640292431193 11.9550855321344  L 8.21640292431193 17.3899279499558  Z M 2.11802649799312 12.5821827516952  L 2.11802649799312 16.762830730395  L 6.18361077085723 16.762830730395  L 6.18361077085723 12.5821827516952  L 2.11802649799312 12.5821827516952  Z M 17.5672467961583 18.8531547372494  L 12.2819872312213 18.8531547372494  C 11.4961111324273 18.8531547372494  10.8590327067804 18.198045790122  10.8590327067804 17.3899279499558  L 10.8590327067804 11.9550855321344  C 10.8590327067804 11.1469676919682  11.4961111324273 10.4918587448408  12.281987197176 10.4918587448408  L 17.5672467961583 10.4918587448408  C 18.3531228949523 10.4918587448408  18.9902013205992 11.1469676919682  18.9902013205992 11.9550855321344  L 18.9902013205992 17.3899279499558  C 18.9902013205992 18.198045790122  18.3531228949523 18.8531547372494  17.5672468302036 18.8531547372494  Z M 12.8918248602351 12.5821827516952  L 12.8918248602351 16.762830730395  L 16.9574091671445 16.762830730395  L 16.9574091671445 12.5821827516952  L 12.8918248602351 12.5821827516952  Z " fill-rule="nonzero" fill="#333333" stroke="none" transform="matrix(1 0 0 1 27 25 )" />
  </g>
</svg>