<?xml version="1.0" encoding="utf-8"?>
<svg version="1.1" xmlns:xlink="http://www.w3.org/1999/xlink" width="4px" height="11px" xmlns="http://www.w3.org/2000/svg">
  <g transform="matrix(1 0 0 1 -34 -36 )">
    <path d="M 1.51927083333334 0.150146484374996  C 2.29375 0.14794921875  3.06776041666667 0.114599609374999  3.84192708333333 0.0943847656250014  C 3.51713541666666 0.897851562500002  3.15828125 1.691064453125  2.88484375 2.509814453125  C 2.7803125 2.822705078125  2.84145833333333 3.195751953125  2.87833333333333 3.5365234375  C 3.01645833333334 4.81123046875  3.17588541666667 6.083935546875  3.32703125 7.357421875  C 3.38258680555556 7.82496744791666  3.43772569444445 8.29256184895833  3.49244791666667 8.760205078125  C 3.14182291666667 9.36611328125  2.80916666666667 9.982080078125  2.43432291666667 10.574609375  C 2.16177083333334 11.00546875  1.60151041666667 10.981689453125  1.33739583333333 10.54462890625  C 0.987656250000002 9.966015625  0.655104166666668 9.378173828125  0.315572916666671 8.7943359375  C 0.398906250000005 8.10966796875  0.485000000000002 7.425244140625  0.564531250000001 6.740185546875  C 0.712586805555558 5.464892578125  0.857500000000001 4.189306640625  0.999270833333333 2.913427734375  C 1.01393242297133 2.79468584736889  1.00112427241955 2.67437627786556  0.96171875 2.560693359375  C 0.686562499999999 1.834130859375  0.39921875 1.11162109375  0.11796875 0.386962890625  C 0.0797916666666652 0.288476562499998  0.0549999999999992 0.185400390624999  0.0239062500000008 0.0842285156249964  C 0.522343750000001 0.107763671874995  1.02088541666667 0.151708984374995  1.51927083333334 0.150146484374996  Z " fill-rule="nonzero" fill="#f5715a" stroke="none" transform="matrix(1 0 0 1 34 36 )" />
  </g>
</svg>