<?xml version="1.0" encoding="utf-8"?>
<svg version="1.1" xmlns:xlink="http://www.w3.org/1999/xlink" width="54px" height="40px" xmlns="http://www.w3.org/2000/svg">
  <g transform="matrix(1 0 0 1 -14 -10 )">
    <path d="M 20.7811072105263 28.0732010979831  L 17.5318946315789 31.8617585232924  C 14.4609527368421 34.6311214013871  12.4245195263158 34.4635624511013  10.3494161578947 32.3652494198459  L 7.97276057894737 29.7946558459641  C 5.89760331578947 27.6972655448144  5.89760331578947 24.2958793809922  7.97276057894737 22.1975663497368  L 18.1443703157895 11.9153005794911  C 20.2194737368421 9.81698754823567  23.584158368421 9.81698754823567  25.6593155789474 11.9153005794911  L 27.5371901578947 13.8139216294705  C 29.1402262631579 15.434689050669  29.5055465789474 17.8325672382013  28.6320200526316 19.8076129477132  L 33.1733991052632 23.310554905783  C 36.286512 20.1635195926324  36.286512 15.0614674782194  33.1733991052632 11.9153548951744  L 27.5371902105263 6.21770060070812  C 24.4248852105263 3.07066528755752  19.3787468947368 3.07066528755752  16.2655801578947 6.21770060070812  L 2.33655157894737 20.2989996154407  C -0.775753421052631 23.4451664611264  -0.775753421052631 28.5472185755394  2.33655157894737 31.6941996260492  L 7.97276052631579 37.3917996048322  C 11.0850655263158 40.5379664505178  16.1320655789474 40.5379664505178  19.2452323157895 37.3917996048322  L 24.6221677894737 31.7879935287955  L 20.7811072105263 28.0732010979831  Z M 51.960008368421 19.5115759239368  C 56.4014265789474 14.3504140775218  51.960008368421 8.11632159764491  51.960008368421 8.11632159764491  L 46.3246072631579 2.41872161886197  C 43.2114943684211 -0.72831369428863  38.1653022105263 -0.72831369428863  35.0521354736842 2.41872161886197  C 35.0521354736842 2.41872161886197  35.274408368421 2.36227160493827  32.0000977894737 5.67252347800719  L 35.742921 9.28831120128364  L 37.4063321578947 7.43832406412858  C 39.4814894210526 5.34093376297888  42.8461740526316 5.34093376297888  44.9212774210526 7.43832406412858  L 46.8000137368421 9.33781352853032  C 48.875171 11.43520382968  48.875171 14.8365899935023  46.8000137368421 16.9349030247577  L 37.6243502631579 26.5461190012067  C 35.549193 28.6435093023564  32.1853701052632 28.6435093023564  30.1102128421053 26.5461190012067  L 28.5630815789474 23.9755254273249  C 25.3060595263158 21.5221199559746  26.3070145789474 20.9352566601689  26.5835226842105 19.2788822850778  L 22.4522201052632 15.1569440002122  C 19.339053368421 18.3039793133628  19.339053368421 23.4060314277758  22.4522201052632 26.5521440108207  L 28.0876212105263 32.250666772752  C 31.2007341052632 35.3967793557969  36.2469262631579 35.3967793557969  39.360093 32.250666772752  L 51.960008368421 19.5115759239368  Z " fill-rule="nonzero" fill="#333333" stroke="none" transform="matrix(1 0 0 1 14 10 )" />
  </g>
</svg>