<?xml version="1.0" encoding="utf-8"?>
<svg version="1.1" xmlns:xlink="http://www.w3.org/1999/xlink" width="6px" height="12px" xmlns="http://www.w3.org/2000/svg">
  <g transform="matrix(1 0 0 1 -36 -34 )">
    <path d="M 0.213434103260863 5.50981445312499  C 0.480978260869558 4.69125976562499  0.831980298913037 3.89780273437499  1.14971127717391 3.09438476562499  C 1.23428258517837 3.04303990979014  1.31543492057151 2.98669712014157  1.39269701086956 2.92568359375  C 2.36959918478261 2.05843098958333  3.3453125 1.18994140625  4.31983695652174 0.320214843749998  C 4.58921535326087 0.0806640624999986  4.64724864130435 0.0925292968749964  4.80896739130435 0.410595703124997  C 5.16154891304348 1.1029296875  5.50536684782609 1.79951171875  5.87022758152174 2.485791015625  C 5.97722486413044 2.686865234375  5.96820652173913 2.835888671875  5.85310801630435 3.034716796875  C 4.21428328804348 5.86489257812499  2.58135190217391 8.69825846354166  0.954313858695648 11.534814453125  C 0.909782608695648 11.61220703125  0.856895380434777 11.685205078125  0.807829483695648 11.760205078125  L 0.646008831521733 10.357421875  C 0.498250679347819 9.08393554687499  0.342136548913036 7.81123046875  0.207065217391298 6.53652343749999  C 0.170940896739127 6.19575195312499  0.111175271739125 5.82265624999999  0.213434103260863 5.50981445312499  Z " fill-rule="nonzero" fill="#fdfdfd" stroke="none" transform="matrix(1 0 0 1 36 34 )" />
  </g>
</svg>