<?xml version="1.0" encoding="utf-8"?>
<svg version="1.1" xmlns:xlink="http://www.w3.org/1999/xlink" width="37px" height="40px" xmlns="http://www.w3.org/2000/svg">
  <g transform="matrix(1 0 0 1 -22 -10 )">
    <path d="M 26.7645596590909 33.1371343085106  L 26.7915360884233 33.1098321143617  C 26.0386596679688 33.4324717420213  25.339736106179 33.6260804521277  24.6776023171165 33.7377825797872  C 25.374062278054 33.6757396941489  26.0680996981534 33.4647606382979  26.7645596590909 33.1371343085106  Z M 18.8237171519886 32.1195146276596  C 17.855029296875 31.5263048537234  16.6214632901278 30.7494597739362  15.569423606179 30.1215508643617  C 16.6043412642045 30.7941738696809  17.6956753817472 31.4990442154255  18.8237171519886 32.1195146276596  Z M 30.2370871803977 29.3695146276596  C 29.663232421875 29.2752244015957  29.2389592950994 29.7989112367021  29.1751930930398 30.1761968085106  C 29.1531028053977 30.3028174867021  29.2193326083097 30.4591090425532  29.3150024414063 30.5782912234043  C 29.4891379616477 30.7644614361702  29.0501653497869 31.5313746675532  28.7657015713778 31.7919714095745  C 28.1035677823153 32.4099900265957  27.4340021306818 32.8195229388298  26.7620960582386 33.1347240691489  C 25.9650390625 34.1424534574468  24.7487182617188 34.3955701462766  23.4660855379972 34.1846326462766  C 22.3758189808239 33.9763131648936  21.4058993252841 33.5808676861702  20.5431463068182 33.029296875  C 18.0953535600142 32.6086269946808  15.4590542879972 29.2703208111702  11.2410000887784 28.1534242021277  C 11.9178333629261 28.2726063829787  12.920888449929 28.5952044547872  14.5124567205256 29.511053856383  C 14.8214333274148 29.6798537234043  15.1868674538352 29.8932845744681  15.5694646661932 30.1216339760638  C 13.4015369762074 28.7143450797872  11.4813654119318 27.5155418882979  10.01240234375 27.8878407579787  C 8.92106822620738 27.7836186835106  7.93279474431818 27.9200880984043  6.69434259588068 28.6051363031915  C 5.51723410866477 29.2479637632979  5.1101240678267 30.0968251329787  5.0414306640625 30.5113031914894  C 4.91878440163352 31.2608460771277  5.38477450284091 31.7324634308511  5.78449374112216 31.799451462766  C 5.82214577414772 31.803399268617  5.86595680930397 31.8056432845745  5.91021950461647 31.8056432845745  C 6.23065185546875 31.8056432845745  6.52394353693182 31.6877908909574  6.75006103515625 31.4926446143617  C 6.9763427734375 31.3104637632979  7.00820534446022 31.111951462766  6.86597345525568 30.9481382978723  C 6.56434659090909 30.6503075132979  6.50788907137784 30.2333361037234  6.56923273259943 29.8609956781915  C 6.72866876775568 28.888048537234  7.9474531693892 28.2725232712766  9.00934725674716 28.4487616356383  L 9.02651034268466 28.4512549867021  C 9.94859508167613 28.6026429521277  10.7480746182528 28.8533494015957  12.1091319691051 29.5457945478723  C 13.5830222389915 30.3152011303191  17.1953591086648 32.5912150930851  18.3528819691051 33.2588513962766  C 19.8880748401989 34.139960106383  21.0651833274148 34.7034158909575  22.3527021928267 34.9143118351064  C 24.1110562411222 35.1997174202128  25.7026245117187 35.2667470079787  28.4321710759943 33.8172789228723  C 29.6215565074574 32.6780252659575  30.8109829989347 32.0749251994681  31.0366077769886 30.7048703457447  C 31.1200006658381 30.198553856383  30.8820989435369 29.4738198138298  30.2371282404119 29.3695977393617  Z M 27.1324573863636 0.0324135638297884  L 27.132334206321 0  L 9.86762473366477 0  C 4.42023370916193 0.0324135638297872  0.00418812144886132 4.50178690159574  0 10.014960106383  L 0 29.9825465425532  C 0.00418812144886132 35.4957197473404  4.42023370916193 39.9650930851064  9.86762473366477 40  L 27.132334206321 40  C 32.5797252308239 39.9650930851064  36.9957708185369 35.4957197473404  37 29.9825465425532  L 37 10.0174534574468  C 36.9957708185369 10.0174534574468  36.9957708185369 10.0174534574468  36.9957708185369 10.0174534574468  C 36.9957708185369 4.50374002659575  32.5800537109375 0.0338264627659582  27.1324573863636 0.0324135638297884  Z M 34 29.9825465425532  L 34.5286798650568 29.9825465425532  C 34.5286798650568 34.1181432845745  31.2160810990767 37.470703125  27.1298706054687 37  L 9.86762473366477 37  C 5.78137318004261 37.470703125  2.4688154740767 34.1181017287234  3 29.9825465425532  L 3 10.0174534574468  C 2.4688154740767 5.88185671542553  5.78141424005681 2.529296875  9.86762473366477 3  L 27.132334206321 3  C 31.2185857599432 2.529296875  34.5311434659091 5.8818982712766  34 10.0174534574468  L 34 29.9825465425532  Z M 21.5556451970881 33.581407912234  C 22.5145197088068 33.8494431515957  23.5395829634233 33.9313912898936  24.6750565962358 33.7377825797872  C 22.686191628196 33.9214594414894  20.7046764026989 33.1594498005319  18.8212535511364 32.1195146276596  C 19.3264149058949 32.4322224069149  19.7629649769176 32.6928607047872  20.0474698153409 32.8516871675532  C 20.557558371804 33.1222157579787  21.0554110440341 33.3654421542553  21.5556862571023 33.581407912234  Z M 25.8865733753551 6.7958361037234  L 24.2532881303267 5.55481216755319  L 9.8823652787642 23.9860787898936  L 8.64633567116477 27.6768201462766  L 11.5156094637784 25.2271027260638  L 25.8865323153409 6.7958361037234  Z " fill-rule="nonzero" fill="#333333" stroke="none" transform="matrix(1 0 0 1 22 10 )" />
  </g>
</svg>