<?xml version="1.0" encoding="utf-8"?>
<svg version="1.1" xmlns:xlink="http://www.w3.org/1999/xlink" width="4px" height="3px" xmlns="http://www.w3.org/2000/svg">
  <g transform="matrix(1 0 0 1 -32 -32 )">
    <path d="M 3.08572916666667 0.745563616071426  C 3.3178125 0.764857700892857  3.55161458333334 0.770089285714286  3.78463541666667 0.781808035714286  L 3.78489583333333 2.93638392857143  C 3.30052083333333 2.92487444196429  2.81614583333333 2.91625279017857  2.33244791666667 2.89871651785715  C 2.25716276417872 2.89110497444115  2.18694575309545 2.86416981719145  2.13223958333333 2.82191685267857  C 1.50098958333333 2.35597098214286  0.871302083333334 1.88860212053571  0.249322916666669 1.41466238839285  C 0.181223742671743 1.35722754647975  0.144056277485629 1.28053054910336  0.14588541666667 1.20121372767857  C 0.178177083333336 0.861746651785714  0.236822916666669 0.523953683035712  0.274114583333335 0.184695870535712  C 0.288593750000003 0.0529017857142833  0.334114583333333 0.0414341517857112  0.475052083333336 0.100655691964286  C 1.28604795989828 0.447610375825646  2.17224065350512 0.666523964963675  3.08572916666667 0.745563616071426  Z " fill-rule="nonzero" fill="#f8e9d5" stroke="none" transform="matrix(1 0 0 1 32 32 )" />
  </g>
</svg>