<?xml version="1.0" encoding="utf-8"?>
<svg version="1.1" xmlns:xlink="http://www.w3.org/1999/xlink" width="6px" height="12px" xmlns="http://www.w3.org/2000/svg">
  <g transform="matrix(1 0 0 1 -29 -34 )">
    <path d="M 5.50888247282609 9.740283203125  C 5.43097826086957 10.425244140625  5.34665421195652 11.10966796875  5.26528532608696 11.7943359375  C 4.64324048913044 10.7148763020833  4.02129755434783 9.63531901041667  3.39945652173913 8.5556640625  C 2.31375679347826 6.66438802083333  1.22792119565217 4.77322591145833  0.141949728260873 2.882177734375  C 0.0647078804347826 2.7482421875  0.0582370923913095 2.654833984375  0.133135190217393 2.51337890625  C 0.52005774456522 1.782958984375  0.88873980978261 1.04365234375  1.26526834239131 0.308154296874999  C 1.40436480978261 0.0364746093749986  1.44685801630435 0.0295898437500028  1.68271059782609 0.238964843750001  C 2.69728260869566 1.13968098958334  3.7120414402174 2.04016927083334  4.72698709239131 2.9404296875  C 4.79750339673913 3.002734375  4.89512567934783 3.03701171875  4.98001019021739 3.084326171875  C 5.01058084239131 3.18525390625  5.03462975543479 3.288330078125  5.07202785326087 3.387060546875  C 5.34716372282609 4.11171875  5.62810801630435 4.8341796875  5.89743546195652 5.560791015625  C 5.93598434258435 5.67447393411555  5.94851405508065 5.7947835036189  5.93417119565218 5.913525390625  C 5.79670516304348 7.18956705729168  5.65494225543479 8.46515299479168  5.50888247282609 9.740283203125  Z " fill-rule="nonzero" fill="#fdfdfd" stroke="none" transform="matrix(1 0 0 1 29 34 )" />
  </g>
</svg>