<?xml version="1.0" encoding="utf-8"?>
<svg version="1.1" xmlns:xlink="http://www.w3.org/1999/xlink" width="35px" height="39px" xmlns="http://www.w3.org/2000/svg">
  <g transform="matrix(1 0 0 1 -20 -10 )">
    <path d="M 16.8982692358229 0.141206896551725  L 17.0423076961517 0.0806896551724149  C 17.3888466305947 -0.0449052455161231  17.7717805681019 -0.0230309761823035  18.1017307641771 0.141206896551724  L 34.2555767823537 8.2101724137931  C 34.7119924598046 8.43801926447191  35.000237613271 8.9040685368195  35 9.41379310344828  L 35 21.255  C 34.1563828662437 20.7868464164255  33.2496235873464 20.4426173639337  32.3076921833285 20.2329310344828  L 32.3076921833285 11.589724137931  L 18.8461538348481 18.3138620689655  L 18.8461538348481 35.4792413793103  L 20.9865384322564 34.4087586206896  C 21.3772100241199 35.2272766416633  21.8771465658831 35.9891096960357  22.4726922659287 36.6734482758621  L 18.1017307641771 38.8574482758621  C 17.7229085921074 39.046559801468  17.2770914078926 39.046559801468  16.8982692358229 38.8574482758621  L 0.744423217646324 30.7884827586207  C 0.288441321332853 30.5608524770751  0.000272363739222089 30.095446989843  0 29.5862068965517  L 0 9.41379310344828  C -0.000237613271002298 8.9040685368195  0.288007540195376 8.43801926447191  0.744423217646331 8.2101724137931  L 16.8982692358229 0.141206896551725  Z M 3 11.589724137931  L 3 28.7551034482759  L 16.153846165152 35.4792413793103  L 16.153846165152 18.3138620689655  L 3 11.589724137931  Z M 17.5 2.84834482758621  L 4.35615395654365 9.41379310344828  L 17.5 15.9792413793103  L 30.6438460434564 9.41379310344828  L 17.5 2.84834482758621  Z " fill-rule="nonzero" fill="#333333" stroke="none" transform="matrix(1 0 0 1 20 10 )" />
  </g>
</svg>