<?xml version="1.0" encoding="utf-8"?>
<svg version="1.1" xmlns:xlink="http://www.w3.org/1999/xlink" width="46px" height="40px" xmlns="http://www.w3.org/2000/svg">
  <g transform="matrix(1 0 0 1 -17 -10 )">
    <path d="M 30.8834319830672 24  L 41.5036963105727 24  L 39.3468681046944 22.3657417556533  L 40.9644892689978 20.7611972754397  L 45.8173526827506 25.5748306768216  L 45.7768240483893 25.6150316818467  L 45.8173526827506 25.6552326868719  L 40.9644892689978 30.4688660882538  L 39.3468681046944 28.8643216080402  L 41.4543570914785 26  L 30.8834319830672 26  L 30.8834319830672 24  Z M 28.4940046806167 7.8654140232412  L 12.751273418571 16.8844221105528  L 19.4966478524229 20.7472143137563  L 35.2622866189427 11.7194669048367  L 28.4940046806167 7.8654140232412  Z M 10.4658108497384 15.5735197864322  L 10.4640487248761 15.5735197864322  L 26.1979694417676 6.56499890075377  L 19.4455465480452 2.72492898084171  L 3.68166986680892 11.6915009814698  L 10.4658108497384 15.5735197864322  Z M 19 22.6821061950377  L 3 13.5110334092337  L 3 27.4555385521357  L 19 36.5619401303392  L 19 22.6821061950377  Z M 36.6014936777258 21.1020319173995  L 36.6014936777258 13.5687131359925  L 21 22.7397858825377  L 21 36.5619401303392  L 32.2719782609444 29.9182870995603  L 34.236735965033 31.4773869346734  L 19.4455465480452 39.9353288316583  L 0 28.8171291221734  L 0 11.1164518294598  L 19.4455465480452 0  L 38.8922425815666 11.1181997094849  L 38.8922425815666 21.1020319173995  L 36.6014936777258 21.1020319173995  Z " fill-rule="nonzero" fill="#333333" stroke="none" transform="matrix(1 0 0 1 17 10 )" />
  </g>
</svg>