<?xml version="1.0" encoding="utf-8"?>
<svg version="1.1" xmlns:xlink="http://www.w3.org/1999/xlink" width="25px" height="25px" xmlns="http://www.w3.org/2000/svg">
  <g transform="matrix(1 0 0 1 -32 -10 )">
    <path d="M 3.1557805785124 0  L 3.1557805785124 1.44367540064103  L 18.7950817407025 1.44367540064103  C 21.1485688016529 1.44367540064103  22.5910286157025 2.93545008012821  22.5910286157025 5.44791270032051  L 22.5910286157025 20.3656595352564  L 24 20.3656595352564  L 24 5.44791270032051  C 23.9575695247934 3.87762355769231  23.502055901343 2.62139226762821  22.5910286157025 1.60070428685897  C 21.6800013688017 0.580016346153846  20.3134604984504 0.030415144230769  18.7191627970041 0  L 3.1557805785124 0  Z M 3.1557805785124 1.44367540064103  L 3.1557805785124 0.0304151842948717  L 3.1557805785124 1.44367540064103  Z M 0.0431041193181821 10.1587801282051  L 0.0431041193181821 9  L 14.8472969783058 9  L 14.8472969783058 10.1587801282051  L 0.0431041193181821 10.1587801282051  Z M 0.0431041193181821 16.832508974359  L 0.0431041193181821 15.4192487580128  L 8.24234938016529 15.4192487580128  L 8.24234938016529 16.832508974359  L 0.0431041193181821 16.832508974359  Z M 0.0431041193181807 23.9773245592949  L 0.0431041193181821 22.5640643429487  L 4.37048356146694 22.5640643429487  L 4.37048356146694 23.9773245592949  L 0.0431041193181807 23.9773245592949  Z " fill-rule="nonzero" fill="#333333" stroke="none" transform="matrix(1 0 0 1 32 10 )" />
  </g>
</svg>