<?xml version="1.0" encoding="utf-8"?>
<svg version="1.1" xmlns:xlink="http://www.w3.org/1999/xlink" width="9px" height="15px" xmlns="http://www.w3.org/2000/svg">
  <g transform="matrix(1 0 0 1 -42 -18 )">
    <path d="M 0.103260216346153 14.9083683894231  L 8.860546875 11.7964993990385  L 8.89957932692307 10.7890474759615  L 0.108037860576922 13.7026893028846  L 0.103260216346153 14.9083683894231  Z M 7.04400540865384 0.145898437500004  L 5.31950120192308 3.79254807692308  L 6.31897536057692 3.5440655048077  L 6.13701923076922 10.3086688701923  L 7.4586688701923 9.91293569711539  L 7.67244591346153 3.20769230769231  L 8.65623497596153 2.96335637019231  L 7.17250600961538 0.119080528846156  L 7.04400540865384 0.145898437500004  Z M 2.45413161057692 1.47917668269231  L 0.628575721153846 5.33680889423077  L 1.62678786057692 5.08882211538462  L 1.56129807692308 11.8679837740385  L 3.08694411057693 11.4112229567308  L 3.19214242788462 4.69975961538462  L 4.20923978365385 4.44717548076924  L 2.51975661057692 1.46551983173077  L 2.45413161057692 1.47917668269231  Z " fill-rule="nonzero" fill="#333333" stroke="none" transform="matrix(1 0 0 1 42 18 )" />
  </g>
</svg>