<?xml version="1.0" encoding="utf-8"?>
<svg version="1.1" xmlns:xlink="http://www.w3.org/1999/xlink" width="36px" height="31px" xmlns="http://www.w3.org/2000/svg">
  <g transform="matrix(1 0 0 1 -20 -17 )">
    <path d="M 35.8214285574777 25.8424295774648  C 35.7969616877293 28.6544863099774  33.5549687439488 30.9223543776629  30.7946428710938 31  L 5.20535712890625 31  C 5.1964260399656 30.9272784454152  5.18749484040672 30.9273026518835  5.17856362504469 30.9273026518835  C 2.40087379078289 30.9273026518835  0.147742808067045 28.6358932613857  0.14285712890625 25.8060446151518  L 0.14285712890625 13.9809272158341  C 0.141904422601639 13.8226143667701  0.169130342127551 13.6654368751722  0.223214271763393 13.5170187651298  L 4.6875 0.973298136278607  C 4.87843181452333 0.431166821660958  5.38108966121009 0.0679771431750438  5.94642857142857 0.0636736947073041  L 9.07142858537946 0.0636736947073041  C 9.81109566104571 0.0636736947073057  10.4107142996652 0.674552777244514  10.4107142996652 1.42811031442562  C 10.4107142996652 2.18166785160672  9.81109566104571 2.79254693414393  9.07142858537946 2.79254693414393  L 6.92857144252232 2.79254693414393  L 3 14.2174295774648  L 3 25.8060446151518  C 2.82142858059227 27.1272821548742  3.87275992644767 28.1983567932989  5.16964285714286 28  L 30.7946428710937 28  C 30.8065467729416 28.1985412625416  30.8184518796828 28.1986335011638  30.8303571585601 28.1986335011638  C 32.1272401055998 28.1986335011638  33.1785714582253 27.1275588367519  33.1785714582253 25.8063212803782  C 33.1785714582253 25.8062290586451  33.178571452991 25.8061368368843  33 25.8060446151518  L 33 14.2447183098592  L 29.0714285574777 2.80164320670115  L 26.9910714425223 2.80164320670115  C 26.2514043668561 2.80164320670115  25.6517857282366 2.19076412416393  25.6517857282366 1.43720658698284  C 25.6517857282366 0.683649049801734  26.2514043668561 0.0727699672645253  26.9910714425223 0.0727699672645253  L 30.017857156808 0.0727699672645253  C 30.5831960562581 0.0770734092173507  31.0858538997685 0.44026306838372  31.2767857282366 0.982394366197183  L 35.7410714146205 13.5534037700814  C 35.7944117082852 13.7020265359637  35.8216137866786 13.8590663907262  35.8214285574777 14.0173122207856  L 35.8214285574777 25.8424295774648  Z " fill-rule="nonzero" fill="#333333" stroke="none" transform="matrix(1 0 0 1 20 17 )" />
  </g>
</svg>