<?xml version="1.0" encoding="utf-8"?>
<svg version="1.1" xmlns:xlink="http://www.w3.org/1999/xlink" width="44px" height="40px" xmlns="http://www.w3.org/2000/svg">
  <g transform="matrix(1 0 0 1 -14 -15 )">
    <path d="M 43.6333333333333 5.63157894736842  C 43.502380952381 5.42105263157895  43.3452380952381 5.26315789473684  43.1619047619048 5.15789473684211  L 36.5357142857143 0.526315789473684  C 35.75 -0.0526315789473682  34.65 0.131578947368421  34.1 0.921052631578948  C 33.8904761904762 1.23684210526316  33.7595238095238 1.60526315789474  33.7595238095238 1.97368421052632  L 33.7595238095238 3.42105263157895  C 31.8475894137884 3.55207353563809  29.9835984593935 4.0807896347419  28.2857142857143 4.97368421052631  C 25.4424119167992 3.76778351943345  22.3533451467756 3.26250610183751  19.2761904761905 3.5  C 18.8047619047619 3.52631578947368  18.4380952380952 3.94736842105263  18.4642857142857 4.44736842105263  C 18.4904761904762 4.92105263157895  18.9095238095238 5.28947368421052  19.4071428571429 5.26315789473684  C 21.7904761904762 5.07894736842105  24.1738095238095 5.39473684210526  26.452380952381 6.13157894736842  C 26.0857142857143 6.39473684210526  25.7452380952381 6.71052631578947  25.4047619047619 7  C 23.8857142857143 6.55263157894737  22.3404761904762 6.3421052631579  20.7690476190476 6.3421052631579  C 17.102380952381 6.3421052631579  13.5404761904762 7.57894736842105  10.6333333333333 9.84210526315789  C 8.06666666666667 8.47368421052632  4.89761904761905 9.47368421052632  3.56190476190476 12.0263157894737  C 2.38333333333334 14.2105263157895  2.88095238095238 16.8684210526316  4.74047619047619 18.4736842105263  C 4.58333333333334 18.9736842105263  4.47857142857143 19.4736842105263  4.37380952380953 20  C 1.12619047619048 22.6842105263158  -0.366666666666665 25.5789473684211  0.261904761904763 28.1578947368421  C 0.890476190476191 30.7368421052632  3.58809523809524 32.6315789473684  7.72619047619048 33.4210526315789  C 13.3833333333333 40.6578947368421  23.8071428571429 41.9210526315789  31.0095238095238 36.2631578947369  C 34.2047619047619 33.7631578947369  36.352380952381 30.1578947368421  37.0857142857143 26.1578947368421  C 40.3333333333333 23.5263157894737  41.852380952381 20.6052631578947  41.2238095238095 18  C 40.9357142857143 16.9210526315789  40.3333333333333 15.9736842105263  39.4690476190476 15.2631578947368  C 39.05 15.0263157894737  38.5261904761905 15.2105263157895  38.2904761904762 15.6315789473684  C 38.1333333333333 15.9210526315789  38.1595238095238 16.2631578947368  38.3428571428571 16.5263157894737  C 38.9190476190476 17.0263157894737  39.3642857142857 17.6842105263158  39.5476190476191 18.4210526315789  C 39.9142857142857 19.9473684210526  39.102380952381 21.7368421052632  37.3738095238095 23.5263157894737  L 37.3738095238095 23.0789473684211  C 37.3738095238095 18.2894736842105  35.3309523809524 13.7368421052632  31.7690476190476 10.5789473684211  C 32.4238095238095 10.5  33.1047619047619 10.4210526315789  33.7595238095238 10.3947368421053  L 33.7595238095238 11.2631578947368  C 33.7333333333333 12.2368421052632  34.5190476190476 13.0263157894737  35.4880952380952 13.0526315789474  C 35.8547619047619 13.0526315789474  36.2214285714286 12.9473684210526  36.5357142857143 12.7105263157895  L 43.1619047619048 8.07894736842105  C 43.9476190476191 7.52631578947368  44.1571428571429 6.44736842105263  43.6333333333333 5.63157894736842  Z M 4.21666666666667 14.1578947368421  C 4.21666666666667 12.2368421052632  5.78809523809524 10.6578947368421  7.7 10.6578947368421  C 9.63809523809524 10.6578947368421  11.1833333333333 12.2368421052632  11.1833333333333 14.1578947368421  C 11.1833333333333 16.1052631578947  9.61190476190476 17.6578947368421  7.7 17.6578947368421  C 5.76190476190476 17.6578947368421  4.21666666666667 16.0789473684211  4.21666666666667 14.1578947368421  Z M 6.25952380952381 31.2631578947368  C 3.87619047619048 30.5263157894737  2.33095238095238 29.2631578947369  1.96428571428571 27.7368421052632  C 1.59761904761905 26.2368421052632  2.38333333333333 24.4473684210526  4.11190476190476 22.6315789473684  L 4.11190476190476 23.0526315789474  C 4.11190476190476 25.921052631579  4.8452380952381 28.7631578947368  6.25952380952381 31.2631578947368  Z M 29.5428571428571 10.9736842105263  C 33.3666666666667 13.7894736842105  35.6190476190476 18.2894736842105  35.6452380952381 23.0526315789474  C 35.6452380952381 23.7631578947368  35.5928571428571 24.4736842105263  35.4880952380952 25.1578947368421  C 34.1261904761905 26.1578947368421  32.6595238095238 27.0526315789474  31.1142857142857 27.7894736842105  C 29.9357142857143 26.3421052631579  27.8404761904762 26.1315789473684  26.3738095238095 27.2894736842105  C 25.5880952380952 27.921052631579  25.1166666666667 28.8947368421053  25.1428571428571 29.921052631579  L 25.1428571428571 30.1578947368421  C 24.3309523809524 30.421052631579  23.4928571428571 30.6578947368421  22.6547619047619 30.8684210526316  C 21.8166666666667 31.0789473684211  21.0309523809524 31.2368421052632  20.2452380952381 31.3947368421053  C 19.7738095238095 31.4473684210526  19.4071428571429 31.8684210526316  19.4595238095238 32.3684210526316  C 19.5119047619048 32.8421052631579  19.9309523809524 33.2105263157895  20.4285714285714 33.1578947368421  L 20.5857142857143 33.1578947368421  C 21.45 33  22.2619047619048 32.8157894736842  23.1 32.6052631578947  C 23.9380952380952 32.3947368421053  24.8547619047619 32.1315789473684  25.7190476190476 31.8684210526316  C 26.7928571428572 33.3947368421053  28.9142857142857 33.7368421052632  30.4071428571429 32.6578947368421  C 31.2714285714286 32.0263157894737  31.7952380952381 31.0263157894737  31.8214285714286 29.9736842105263  C 31.8214285714286 29.7894736842105  31.7952380952381 29.6315789473684  31.7690476190476 29.4473684210526  C 32.8166666666667 28.9210526315789  33.8380952380952 28.3421052631579  34.8071428571429 27.6842105263158  C 32.2666666666667 35.5263157894737  23.8857142857143 39.7894736842105  16.1071428571429 37.2368421052632  C 13.9595238095238 36.5263157894737  11.9952380952381 35.3421052631579  10.3714285714286 33.7631578947369  C 11.1047619047619 33.8157894736842  11.8380952380952 33.8684210526316  12.6238095238095 33.8684210526316  C 13.0952380952381 33.8684210526316  13.4880952380952 33.4736842105263  13.4880952380952 33  C 13.4880952380952 32.5263157894737  13.0952380952381 32.1315789473684  12.6238095238095 32.1315789473684  C 11.2880952380952 32.1315789473684  9.95238095238095 32  8.64285714285714 31.7894736842105  C 6.78333333333333 29.2368421052632  5.78809523809524 26.1842105263158  5.78809523809524 23.0263157894737  C 5.84047619047619 21.7368421052632  6.05 20.421052631579  6.41666666666667 19.1842105263158  C 6.86190476190476 19.3157894736842  7.30714285714286 19.3684210526316  7.77857142857143 19.3684210526316  C 10.6595238095238 19.3421052631579  12.9904761904762 16.9473684210526  12.9380952380952 14.0263157894737  C 12.9119047619048 12.9473684210526  12.5714285714286 11.8947368421053  11.9428571428571 11.0263157894737  C 15.4261904761905 8.42105263157896  19.852380952381 7.50000000000001  24.0690476190476 8.44736842105264  C 22.9690476190476 9.81578947368422  22.1571428571429 11.3684210526316  21.6333333333333 13.0526315789474  C 21.502380952381 13.5263157894737  21.7642857142857 14  22.2095238095238 14.1578947368421  C 22.2880952380952 14.1842105263158  22.3666666666667 14.1842105263158  22.4452380952381 14.1842105263158  C 22.6285714285714 14.1842105263158  22.8119047619048 14.1315789473684  22.9690476190476 14.0263157894737  C 24.9333333333333 12.5789473684211  27.1857142857143 11.5263157894737  29.5428571428571 10.9736842105263  Z M 28.5214285714286 28.3421052631579  C 29.4119047619048 28.3421052631579  30.1452380952381 29.0789473684211  30.1452380952381 29.9736842105263  C 30.1452380952381 30.8684210526316  29.4119047619048 31.6052631578947  28.5214285714286 31.6052631578947  C 27.6309523809524 31.6052631578947  26.897619047619 30.8684210526316  26.897619047619 29.9736842105263  C 26.897619047619 29.0789473684211  27.6309523809524 28.3421052631579  28.5214285714286 28.3421052631579  Z M 42.1666666666667 6.60526315789474  L 42.1666666666667 6.63157894736842  L 35.5142857142857 11.2368421052632  L 35.5142857142857 9.47368421052632  C 35.5142857142857 9  35.1214285714286 8.60526315789474  34.65 8.60526315789474  C 31.0619047619048 8.57894736842105  27.5261904761905 9.44736842105263  24.3571428571429 11.0789473684211  C 26.4785714285714 7.39473684210526  30.4071428571429 5.13157894736842  34.65 5.1578947368421  C 35.1214285714286 5.1578947368421  35.5142857142857 4.76315789473684  35.5142857142857 4.28947368421052  L 35.5142857142857 2  L 42.1666666666667 6.60526315789474  Z " fill-rule="nonzero" fill="#5b7bd6" stroke="none" transform="matrix(1 0 0 1 14 15 )" />
  </g>
</svg>