<?xml version="1.0" encoding="utf-8"?>
<svg version="1.1" xmlns:xlink="http://www.w3.org/1999/xlink" width="40px" height="18px" xmlns="http://www.w3.org/2000/svg">
  <g transform="matrix(1 0 0 1 -15 -15 )">
    <path d="M 39.8478260869565 14.4878048780488  C 39.8695652173913 16.309756097561  38.4130434782609 17.8024390243902  36.5869565217391 17.8024390243902  L 3.41304347826087 17.8024390243902  C 1.60869565217391 17.8024390243902  0.130434782608696 16.309756097561  0.130434782608696 14.4878048780488  L 0.130434782608696 13.4121951219512  L 0.130434782608696 13.3243902439024  C 0.173913043478261 11.6560975609756  1.39130434782609 9.85609756097561  3.30434782608696 9.85609756097561  L 13.5434782608696 9.85609756097561  L 13.5434782608696 6.40975609756097  C 13.5434782608696 5.20243902439024  13.9782608695652 3.95121951219512  14.7391304347826 2.91951219512195  C 16.0217391304348 1.18536585365854  17.9130434782609 0.175609756097561  19.8913043478261 0.153658536585365  C 21.0869565217391 0.13170731707317  22.2608695652174 0.460975609756097  23.2826086956522 1.09756097560976  C 25.195652173913 2.2609756097561  26.4347826086956 4.34634146341463  26.4347826086956 6.40975609756097  L 26.4347826086956 9.85609756097561  L 36.6739130434783 9.85609756097561  C 38.5869565217391 9.85609756097561  39.804347826087 11.6560975609756  39.8478260869565 13.3243902439024  L 39.8478260869565 14.4878048780488  Z M 1.8695652173913 13.3682926829268  L 1.8695652173913 13.4341463414634  L 1.8695652173913 14.4878048780488  C 1.8695652173913 15.3439024390244  2.56521739130435 16.0463414634146  3.41304347826087 16  L 36.5869565217391 16  C 37.4347826086956 16.0463414634146  38.1304347826087 15.3439024390244  38.1304347826087 14.4878048780488  L 38.1304347826087 13.3682926829268  C 38.1086956521739 12.5341463414634  37.5217391304348 11.6121951219512  36.695652173913 11.6121951219512  L 24.7173913043478 11.6121951219512  L 24.7173913043478 6.40975609756097  C 24.7173913043478 4.98292682926829  23.7826086956522 3.44634146341463  22.3913043478261 2.59024390243902  C 21.6521739130435 2.12926829268293  20.7608695652174 1.88780487804878  19.9130434782609 1.90975609756098  C 18.4782608695652 1.93170731707317  17.0869565217391 2.6780487804878  16.1086956521739 3.97317073170732  C 15.5652173913043 4.71951219512195  15.2608695652174 5.57560975609756  15.2608695652174 6.40975609756097  L 15.2608695652174 11.6121951219512  L 3.30434782608695 11.6121951219512  C 2.47826086956521 11.6121951219512  1.89130434782608 12.5341463414634  1.8695652173913 13.3682926829268  Z M 23.3695652173913 6.54146341463415  C 23.3695652173913 8.40731707317073  21.8695652173913 9.94390243902439  20 9.94390243902439  C 18.1304347826087 9.94390243902439  16.6304347826087 8.40731707317073  16.6304347826087 6.54146341463415  C 16.6304347826087 4.67560975609756  18.1521739130435 3.1390243902439  20 3.1390243902439  C 21.8478260869565 3.1390243902439  23.3695652173913 4.67560975609756  23.3695652173913 6.54146341463415  Z M 21.6304347826087 6.51951219512195  C 21.6304347826087 5.61951219512195  20.9130434782609 4.87317073170732  20 4.87317073170732  C 19.0869565217391 4.87317073170732  18.3695652173913 5.61951219512195  18.3695652173913 6.51951219512195  C 18.3695652173913 7.41951219512195  19.1086956521739 8.16585365853659  20 8.16585365853659  C 20.8913043478261 8.16585365853659  21.6304347826087 7.41951219512195  21.6304347826087 6.51951219512195  Z " fill-rule="nonzero" fill="#3c3c3c" stroke="none" transform="matrix(1 0 0 1 15 15 )" />
  </g>
</svg>