<?xml version="1.0" encoding="utf-8"?>
<svg version="1.1" xmlns:xlink="http://www.w3.org/1999/xlink" width="40px" height="43px" xmlns="http://www.w3.org/2000/svg">
  <g transform="matrix(1 0 0 1 -15 -14 )">
    <path d="M 0.606534090909091 23.1153590425532  L 0.603693181818182 23.1139295212766  L 4.22017045454546 23.1139295212766  C 4.22064393815928 23.1139281440863  4.22111742350383 23.1139274554901  4.2215909090952 23.1139274554901  C 4.4930263117109 23.1139274554901  4.71306818182247 23.3353738481768  4.71306818182247 23.6085418171922  L 4.71306818181818 24.1560505319149  C 4.7115035178932 24.4286598878817  4.49105416153042 24.648598300246  4.22017045454546 24.6478058510638  L 0.603693181818182 24.6478058510638  C 0.333366090901734 24.6470207016242  0.114416533269785 24.4266735936244  0.113636363636364 24.1546210106383  L 0.113636363636363 23.6099734042553  C 0.114419263171377 23.3365743609053  0.334867951449221 23.1153579072529  0.606534090909091 23.1153590425532  Z M 0.113636363636364 8.27121010638298  C 0.113636363636364 7.99888630319149  0.333096590909091 7.77802526595745  0.603693181818182 7.77659574468085  L 4.22017045454546 7.77659574468085  C 4.22064393815928 7.77659436749056  4.22111742350383 7.77659367889434  4.2215909090952 7.77659367889434  C 4.4930263117109 7.77659367889434  4.71306818182247 7.99804007158109  4.71306818182247 8.27120804059646  L 4.71306818181818 8.82014627659575  C 4.71228642149451 9.09275582229354  4.49247460500135 9.31333318876529  4.22159295582974 9.31333318876529  C 4.22111878799014 9.31333318876529  4.22064462039895 9.31333249818323  4.22017045454546 9.31333111702128  L 0.603693181818182 9.31333111702128  C 0.333366090901734 9.31254596758169  0.114416533269785 9.09219885958187  0.113636363636364 8.82014627659575  L 0.113636363636364 8.27121010638298  Z M 0.606534090909091 15.4488364361702  L 0.603693181818182 15.4474069148936  L 4.22017045454546 15.4474069148936  C 4.22064462039885 15.4474055337317  4.22111878799024 15.4474048431496  4.22159295582974 15.4474048431496  C 4.49247460500135 15.4474048431496  4.71228642149451 15.6679822096214  4.71306818181818 15.9405917553192  L 4.71306818181818 16.4966755319149  C 4.71228642149451 16.7692850776127  4.49247460500135 16.9898624440844  4.22159295582974 16.9898624440844  C 4.22111878799014 16.9898624440844  4.22064462039895 16.9898617535024  4.22017045454546 16.9898603723404  L 0.603693181818182 16.9898603723404  C 0.333366090901735 16.9890752229008  0.114416533269781 16.768728114901  0.113636363636364 16.4966755319149  L 0.113636363636364 15.9420212765957  C 0.114418123960035 15.669411730898  0.334229940453192 15.4488343644262  0.605111589624807 15.4488343644262  C 0.605585757463601 15.4488343644262  0.606059925056399 15.4488350550083  0.606534090909091 15.4488364361702  Z M 0.606534090909091 30.7818816489362  L 0.603693181818182 30.779022606383  L 4.22017045454546 30.779022606383  C 4.22064462039885 30.779021225221  4.22111878799024 30.779020534639  4.22159295582974 30.779020534639  C 4.49247460500135 30.779020534639  4.71228642149451 30.9995979011107  4.71306818181818 31.2722074468085  L 4.71306818181818 31.8211436170213  C 4.71306818182247 32.0943136518232  4.4930263117109 32.3157600445099  4.2215909090952 32.3157600445099  C 4.22111742350438 32.3157600445099  4.22064393815872 32.3157593559137  4.22017045454546 32.3157579787234  L 0.603693181818181 32.3157579787234  C 0.333136482653343 32.3141897121449  0.114411591198015 32.0934306724545  0.113636363636364 31.8211436170213  L 0.113636363636364 31.2750664893617  C 0.114418123960035 31.0024569436639  0.334229940453192 30.7818795771922  0.605111589624807 30.7818795771922  C 0.605585757464405 30.7818795771922  0.606059925055594 30.7818802677742  0.606534090909091 30.7818816489362  Z M 36.8224431818182 3.07775930851064  L 34.1264204545455 3.07490026595745  C 33.9306755179679 3.07620253795385  33.7653683598725 2.92894108561963  33.7428977272727 2.73324468085107  C 33.5623123713574 1.17790921290229  32.2505805874784 0.00667014297788006  30.6946022727273 0  L 5.01988636363636 0  C 4.10565573114178 0.0103691155685298  3.22822083154937 0.373760345112531  2.57954545454546 1.02210771276596  C 1.9324776412293 1.66775380560035  1.56839644501892 2.54671439943021  1.56818181818182 3.46373005319149  L 1.56818181818182 5.75096409574468  C 1.5681818181729 5.96492199221551  1.74052675112155 6.13836699920427  1.95312499999108 6.13836699920427  C 1.95359848605134 6.13836699920427  1.95407197170879 6.13836612003539  1.95454545454546 6.13836436170213  L 4.24431818181818 6.13836436170213  C 4.7533804480553 6.13763511955404  5.24206029900775 6.33959649889484  5.60369318181818 6.70016622340426  C 5.96590909090909 7.05897606382979  6.17045454545455 7.54858710106383  6.171875 8.05964095744681  L 6.171875 9.2061170212766  C 6.16796314139499 10.0557559434703  5.48204287451181 10.7422194332599  4.63778409090909 10.7414228723404  L 1.96022727272727 10.7414228723404  C 1.95880687234164 10.7414070470126  1.95738639579505 10.7413991341669  1.95596590836824 10.7413991341669  C 1.74336765949871 10.7413991341669  1.57102272655005 10.9148441411557  1.57102272655005 11.1287994001244  L 1.57102272727273 13.4160571808511  C 1.57102272726381 13.6300150773219  1.74336766021246 13.8034600843107  1.95596590908199 13.8034600843107  C 1.95643939514249 13.8034600843107  1.95691288079945 13.8034592051418  1.95738636363636 13.8034574468085  L 4.24431818181818 13.8034574468085  C 5.30170337631136 13.8042000228111  6.16110430517128 14.6620704488558  6.17045454545455 15.7261635638298  L 6.17045454545455 16.4966755319149  C 6.16110430517128 17.5607686468889  5.30170337631135 18.4186390729335  4.24431818181818 18.4193816489362  L 1.96022727272727 18.4193816489362  C 1.95975378989076 18.4193798906029  1.959280304233 18.419379011434  1.9588068181729 18.419379011434  C 1.74620856930337 18.419379011434  1.57386363635472 18.5928240184228  1.57386363635472 18.8067792773915  L 1.57386363636364 21.0940159574468  C 1.57457386363636 21.3084441489362  1.74715909090909 21.4814162234043  1.96022727272727 21.4814162234043  L 4.24573863636364 21.4814162234043  C 4.24763537010853 21.4814105549963  4.24953211117119 21.4814077207876  4.25142885327901 21.4814077207876  C 5.30749821216625 21.4814077207876  6.16448687871726 22.3413167716199  6.16761363636364 23.4041223404255  L 6.16761363636364 24.5477393617021  C 6.16370177775864 25.3973782838958  5.47778151087545 26.0838417736854  4.63352272727273 26.083045212766  L 1.96022727272727 26.083045212766  C 1.95975378989027 26.0830434544327  1.95928030423349 26.0830425752638  1.9588068181729 26.0830425752638  C 1.74620856930337 26.0830425752638  1.57386363635472 26.2564875822526  1.57386363635472 26.4704428412213  L 1.57386363636364 28.7662566489362  C 1.57457386363636 28.9806848404255  1.74715909090909 29.1536569148936  1.96022727272727 29.1536569148936  L 4.24573863636364 29.1536569148936  C 4.24763414374839 29.1536512538133  4.24952965843226 29.1536484232685  4.25142517416373 29.1536484232685  C 5.30804895545096 29.1536484232685  6.16526849566685 30.0144269838846  6.16761363636364 31.0777925531915  L 6.16761363636364 32.2214095744681  C 6.16292509306822 33.0707211158626  5.47746053843598 33.7567285324943  4.63352272727273 33.7567154255319  L 1.96022727272727 33.7567154255319  C 1.95832538570448 33.7566868395545  1.95642331309528 33.7566725459681  1.95452121397253 33.7566725459681  C 1.74349195586957 33.7566725459681  1.57241894124526 33.9288375160049  1.57241894124526 34.1412137693723  C 1.57241894124526 34.1426576181861  1.57242702156439 34.14410145555  1.57244318181818 34.145545212766  L 1.57244318181818 39.5119680851064  C 1.57244318181818 40.4290059840426  1.93607954545454 41.3074468085106  2.58238636363636 41.9535904255319  C 3.23132369989692 42.6015406734162  4.10858829836494 42.9648613724456  5.02272727272727 43  L 36.4346590909091 43  C 37.3487980652714 42.9648613724456  38.2260626637394 42.6015406734162  38.875 41.9535904255319  C 39.5218010842575 41.3077637338431  39.8858337928323 40.4289201982995  39.8863636363636 39.5119680851064  L 39.8863636363636 6.14265292553191  C 39.8800983956718 4.44531761636635  38.5090202083152 3.07380394712855  36.8224431818182 3.07775930851064  Z M 16.5497159090909 31.9598071808511  L 16.5511363636364 31.9612367021277  L 11.9034090909091 33.6866688829787  C 11.8602186909502 33.7028796559688  11.814494277717 33.7111813107544  11.7683978906232 33.7111813107544  C 11.5681464931401 33.7111813107544  11.4010835245022 33.5572026694962  11.3835227272727 33.3564494680851  L 11.0113636363636 28.8234375  C 11.0106773825559 28.8139794493755  11.010333913634 28.8044993678159  11.010333913634 28.7950161353951  C 11.010333913634 28.5794818708252  11.183950764907 28.4047568268845  11.3981180045431 28.4047568268845  C 11.4635492416405 28.4047568268845  11.5279166359978 28.4214188182999  11.5852272727273 28.4531914893617  L 16.6036931818182 31.2593417553191  C 16.7259191965985 31.3272752835006  16.8018023991583 31.4566914082832  16.8018023991583 31.5972100361375  C 16.8018023991583 31.7593679938702  16.7010877091258 31.9042343809055  16.5497159090909 31.9598071808511  Z M 36.8167613636364 38.3511968085106  L 36.8210227272727 38.3526263297872  C 36.8210227272727 40.04375  36.7258522727273 41.4175199468085  33.7585227272727 41  L 6.16619318181818 41  C 4.65150414482558 41.4178539473692  3.36388296011847 40.3042698876275  3.13636363636364 38.7972074468085  C 3.13385915613148 38.7792095538066  3.13260236138184 38.7610580651632  3.13260236138184 38.7428845431393  C 3.13260236138184 38.5265607757687  3.30685517181701 38.351195713352  3.52180690683638 38.351195713352  C 3.52211369578836 38.351195713352  3.52242048463308 38.3511960784052  3.52272727272727 38  L 30.3025568181818 38  C 31.2167263296122 38.3519519469766  32.094047617442 37.9886077699468  32.7428977272727 37.3405252659574  C 33.3891775421316 36.6944630860937  33.752686872753 35.8156487937881  33 34.8989029255319  L 33 5.0061835106383  C 33.7536003894441 4.79198174186741  33.9263575355984 4.61874116124978  34.1392020857913 4.61874116124978  C 34.1410969219783 4.61874116124978  34.1429917325293 4.61875518943971  34.1448863636364 4.61878324468085  C 35.6505681818182 4.6345079787234  36.8167613636364 4.84321808510638  36.8167613636364 7.68224734042553  L 36.8167613636364 38.3511968085106  Z " fill-rule="nonzero" fill="#5866d0" stroke="none" transform="matrix(1 0 0 1 15 14 )" />
  </g>
</svg>