<?xml version="1.0" encoding="utf-8"?>
<svg version="1.1" xmlns:xlink="http://www.w3.org/1999/xlink" width="35px" height="22px" xmlns="http://www.w3.org/2000/svg">
  <g transform="matrix(1 0 0 1 -17 -34 )">
    <path d="M 34.8282208588957 0.154000000000001  L 34.8282208588957 21.868  L 28 21.868  L 28 11.616  C 28.4723926380368 11.088  28.0644171779141 10.67  27.5490797546012 10.67  C 27.0337423312883 10.67  26.6257668711656 11.088  26 11.616  L 26 21.868  L 21.7944785276074 21.868  L 21.7944785276074 11.616  C 21.7944785276074 11.088  21.3865030674847 10.67  20.8711656441718 10.67  C 20.3558282208589 10.67  19.9478527607362 11.088  20 11.616  L 20 21.868  L 15 21.868  L 15 11.616  C 15.0521472392638 11.088  14.6441717791411 10.67  14.1288343558282 10.67  C 13.6134969325153 10.67  13.2055214723926 11.088  13.2055214723926 11.616  L 13.2055214723926 21.868  L 9 21.868  L 9 11.616  C 8.35276073619632 11.088  7.94478527607362 10.67  7.42944785276074 10.67  C 6.91411042944785 10.67  6.50613496932515 11.088  7 11.616  L 7 21.868  L 0.150306748466258 21.868  L 0.150306748466258 0.154000000000001  L 34.8282208588957 0.154000000000001  Z M 30.0828220858896 20.174  L 30.1257668711656 20.174  L 33 20.174  L 33 2  L 2 2  L 2 20.174  L 4.83128834355828 20.174  L 4.83128834355828 11.616  C 4.83128834355828 10.164  5.99079754601227 8.976  7.4079754601227 8.976  C 8.82515337423313 8.976  9.98466257668712 10.164  9.98466257668712 11.616  L 9.98466257668712 20.174  L 11.5306748466258 20.174  L 11.5306748466258 11.616  C 11.5306748466258 10.164  12.6901840490798 8.976  14.1073619631902 8.976  C 15.5245398773006 8.976  16.6840490797546 10.164  16.6840490797546 11.616  L 16.6840490797546 20.174  L 18.2300613496933 20.174  L 18.2300613496933 11.616  C 18.2300613496933 10.164  19.3895705521472 8.976  20.8067484662577 8.976  C 22.2239263803681 8.976  23.3834355828221 10.164  23.3834355828221 11.616  L 23.3834355828221 20.174  L 24.9294478527607 20.174  L 24.9294478527607 11.616  C 24.9294478527607 10.164  26.0889570552147 8.976  27.5061349693252 8.976  C 28.9233128834356 8.976  30.0828220858896 10.164  30.0828220858896 11.616  L 30.0828220858896 20.174  Z " fill-rule="nonzero" fill="#3c3c3c" stroke="none" transform="matrix(1 0 0 1 17 34 )" />
  </g>
</svg>