<?xml version="1.0" encoding="utf-8"?>
<svg version="1.1" xmlns:xlink="http://www.w3.org/1999/xlink" width="23px" height="19px" xmlns="http://www.w3.org/2000/svg">
  <g transform="matrix(1 0 0 1 -23 -27 )">
    <path d="M 3.2093023255814 12.9305555555556  C 1.57790697674419 12.9569444444444  0.240697674418606 14.25  0.240697674418606 15.8597222222222  C 0.240697674418606 17.4694444444444  1.57790697674419 18.7888888888889  3.2093023255814 18.7888888888889  C 4.8406976744186 18.7888888888889  6.17790697674418 17.4694444444444  6.17790697674418 15.8597222222222  C 6.17790697674418 14.25  4.8406976744186 12.9305555555556  3.2093023255814 12.9305555555556  Z M 18.1860465116279 2.90277777777778  C 16.7686046511628 2.90277777777778  15.6186046511628 4.0375  15.6186046511628 5.43611111111111  C 15.6186046511628 6.83472222222222  16.7686046511628 7.96944444444445  18.1860465116279 7.96944444444445  C 19.603488372093 7.96944444444445  20.753488372093 6.83472222222222  20.753488372093 5.43611111111111  C 20.753488372093 4.0375  19.603488372093 2.90277777777778  18.1860465116279 2.90277777777778  Z M 21.5023255813953 8.73472222222222  C 20.7802325581395 8.73472222222222  20.1651162790698 9.31527777777778  20.1651162790698 10.0541666666667  C 20.1651162790698 10.7930555555556  20.7802325581395 11.3736111111111  21.5023255813953 11.3736111111111  C 22.2244186046512 11.3736111111111  22.8395348837209 10.7666666666667  22.8395348837209 10.0541666666667  C 22.8395348837209 9.31527777777778  22.2244186046512 8.73472222222222  21.5023255813953 8.73472222222222  Z M 4.27906976744186 0.237500000000001  C 3.26279069767442 0.237500000000001  2.43372093023256 1.05555555555556  2.43372093023256 2.05833333333333  C 2.43372093023256 3.06111111111111  3.26279069767442 3.87916666666667  4.27906976744186 3.87916666666667  C 5.2953488372093 3.87916666666667  6.12441860465116 3.06111111111111  6.12441860465116 2.05833333333333  C 6.12441860465116 1.05555555555556  5.2953488372093 0.237500000000001  4.27906976744186 0.237500000000001  Z " fill-rule="nonzero" fill="#bdefff" stroke="none" transform="matrix(1 0 0 1 23 27 )" />
  </g>
</svg>