<?xml version="1.0" encoding="utf-8"?>
<svg version="1.1" xmlns:xlink="http://www.w3.org/1999/xlink" width="30px" height="28px" xmlns="http://www.w3.org/2000/svg">
  <g transform="matrix(1 0 0 1 -15 -20 )">
    <path d="M 0.601973684210526 17.1384297520661  L 0.599154135338346 17.1369834710744  L 4.18843984962406 17.1369834710744  C 4.18890977321071 17.1369820777379  4.18937969851508 17.1369813810686  4.1898496240644 17.1369813810686  C 4.45924415899127 17.1369813810686  4.67763157895162 17.3610240124549  4.67763157895162 17.6373946042091  L 4.67763157894737 18.1913223140496  C 4.6760786794128 18.4671277435728  4.45728683700764 18.6896447150673  4.18843984962406 18.6888429752066  L 0.599154135338346 18.6888429752066  C 0.330859578940067 18.6880486206708  0.113556258583546 18.465118161991  0.112781954887218 18.1898760330579  L 0.112781954887218 17.6388429752066  C 0.113558967959562 17.3622386000011  0.332350147302986 17.1384286034556  0.601973684210526 17.1384297520661  Z M 0.112781954887218 2.1202479338843  C 0.112781954887218 1.84473140495868  0.330592105263158 1.62128099173554  0.599154135338346 1.6198347107438  L 4.18843984962406 1.6198347107438  C 4.18890977321071 1.61983331740733  4.18937969851508 1.619832620738  4.1898496240644 1.619832620738  C 4.45924415899127 1.619832620738  4.67763157895162 1.84387525212432  4.67763157895162 2.12024584387849  L 4.67763157894737 2.67561983471075  C 4.67685569652087 2.95142545618935  4.45869660045247 3.17458887289265  4.18985165540996 3.17458887289265  C 4.18938105274209 3.17458887289265  4.18891045032076 3.17458817421421  4.18843984962406 3.17458677685951  L 0.599154135338346 3.17458677685951  C 0.330859578940067 3.17379242232366  0.113556258583546 2.95086196364386  0.112781954887218 2.67561983471075  L 0.112781954887218 2.1202479338843  Z M 0.601973684210526 9.38202479338843  L 0.599154135338346 9.3805785123967  L 4.18843984962406 9.38057851239669  C 4.18891045032067 9.380577115042  4.18938105274219 9.38057641636355  4.18985165540996 9.38057641636355  C 4.45869660045247 9.38057641636355  4.67685569652087 9.60373983306685  4.67763157894737 9.87954545454546  L 4.67763157894737 10.4421487603306  C 4.67685569652087 10.7179543818092  4.45869660045247 10.9411177985125  4.18985165540996 10.9411177985125  C 4.18938105274209 10.9411177985125  4.18891045032076 10.941117099834  4.18843984962406 10.9411157024793  L 0.599154135338346 10.9411157024793  C 0.330859578940068 10.9403213479435  0.113556258583542 10.7173908892637  0.112781954887218 10.4421487603306  L 0.112781954887218 9.88099173553719  C 0.113557837313719 9.60518611405859  0.331716933382116 9.38202269735529  0.600561878424621 9.38202269735529  C 0.601032481091694 9.38202269735529  0.601503083514621 9.38202339603373  0.601973684210526 9.38202479338843  Z M 0.601973684210526 24.8948347107438  L 0.599154135338346 24.8919421487603  L 4.18843984962406 24.8919421487603  C 4.18891045032067 24.8919407514056  4.18938105274219 24.8919400527272  4.18985165540996 24.8919400527272  C 4.45869660045247 24.8919400527272  4.67685569652087 25.1151034694305  4.67763157894737 25.3909090909091  L 4.67763157894737 25.9462809917355  C 4.67763157895162 26.2226536734955  4.45924415899127 26.4466963048818  4.1898496240644 26.4466963048818  C 4.18937969851563 26.4466963048818  4.18890977321016 26.4466956082125  4.18843984962406 26.446694214876  L 0.599154135338345 26.446694214876  C 0.330631697069483 26.4451075619317  0.113551353670211 26.221760342072  0.112781954887218 25.9462809917355  L 0.112781954887218 25.3938016528925  C 0.113557837313719 25.117996031414  0.331716933382116 24.8948326147107  0.600561878424621 24.8948326147107  C 0.601032481092493 24.8948326147107  0.601503083513822 24.8948333133891  0.601973684210526 24.8948347107438  Z M 11.8562030075188 20.4909090909091  L 23.3190789473684 0.726033057851239  C 23.8137793061219 0.0513277442179569  24.696389700272 -0.184776526297646  25.4492481203008 0.156198347107437  L 29.0808270676692 2.2301652892562  C 29.7550055730232 2.69204899154641  29.9993785564953 3.58978013388424  29.656015037594 4.34318181818182  L 18.1804511278195 24.1210743801653  C 18.074493502269 24.3048938156517  17.845272146072 24.3689693240533  17.6630639097744 24.2657024793388  L 11.9971804511278 21.0318181818182  C 11.8769091373468 20.9627769158482  11.8024106414037 20.8324323578914  11.8024106414037 20.6910437214694  C 11.8024106414037 20.6205748453339  11.8209983519792 20.5514192223774  11.8562030075188 20.4909090909091  Z M 16.4252819548872 26.0865702479339  L 16.4266917293233 26.0880165289256  L 11.8139097744361 27.8336776859504  C 11.7710441143265 27.8500785141302  11.725663493674 27.8584774975612  11.6799136959568 27.8584774975612  C 11.4811679480789 27.8584774975612  11.3153610919871 27.7026936098843  11.2979323308271 27.4995867768595  L 10.9285714285714 22.9134297520661  C 10.9278903345668 22.9038608152052  10.927549448118 22.8942695891183  10.927549448118 22.8846751752297  C 10.927549448118 22.666613985782  11.0998609095318 22.4898404644859  11.3124178691706 22.4898404644859  C 11.3773571420793 22.4898404644859  11.4412405710655 22.5066978011783  11.4981203007519 22.5388429752066  L 16.4788533834586 25.3778925619835  C 16.6001604056466 25.4466225432149  16.6754730578112 25.5775559433409  16.6754730578112 25.7197220123444  C 16.6754730578112 25.8837811108462  16.5755156210873 26.0303459121827  16.4252819548872 26.0865702479339  Z " fill-rule="nonzero" fill="#f17254" stroke="none" transform="matrix(1 0 0 1 15 20 )" />
  </g>
</svg>