<?xml version="1.0" encoding="utf-8"?>
<svg version="1.1" xmlns:xlink="http://www.w3.org/1999/xlink" width="18px" height="29px" xmlns="http://www.w3.org/2000/svg">
  <g transform="matrix(1 0 0 1 -13 -20 )">
    <path d="M 17.8714285714286 27.8243243243243  C 17.8457142857143 27.3540540540541  17.4085714285714 27.0144144144144  16.9457142857143 27.0666666666667  C 16.56 27.0666666666667  16.1742857142857 27.145045045045  15.8142857142857 27.1711711711712  C 15.3514285714286 27.1972972972973  14.9657142857143 27.5891891891892  14.9914285714286 28.0594594594595  C 15.0171428571429 28.5297297297297  15.4028571428571 28.9216216216216  15.8657142857143 28.8954954954955  L 15.9171428571429 28.8954954954955  L 17.1 28.790990990991  C 17.5628571428571 28.7387387387387  17.9228571428571 28.3207207207207  17.8714285714286 27.8243243243243  Z M 1.33714285714286 10.1891891891892  C 1.36285714285714 10.2153153153153  1.38857142857143 10.2153153153153  1.38857142857143 10.2153153153153  C 1.85142857142857 10.2153153153153  2.23714285714286 9.82342342342342  2.23714285714286 9.35315315315315  C 2.23714285714286 6.97567567567567  3.57428571428571 4.8072072072072  5.65714285714286 3.76216216216216  C 6.09428571428572 3.55315315315315  6.27428571428572 3.05675675675675  6.09428571428572 2.61261261261261  C 5.88857142857143 2.16846846846847  5.4 1.98558558558558  4.96285714285714 2.16846846846847  C 4.96285714285714 2.16846846846847  4.93714285714286 2.16846846846847  4.93714285714286 2.19459459459459  C 2.23714285714286 3.5009009009009  0.514285714285715 6.27027027027027  0.48857142857143 9.32702702702702  C 0.48857142857143 9.7972972972973  0.874285714285716 10.1891891891892  1.33714285714286 10.1891891891892  Z M 2.62285714285714 15.6756756756757  L 2.62285714285714 15.6234234234234  C 2.59714285714286 14.9441441441441  2.05714285714286 14.3954954954955  1.36285714285714 14.3954954954955  C 0.694285714285713 14.4216216216216  0.154285714285714 14.9702702702703  0.154285714285714 15.6756756756757  C 0.18 16.354954954955  0.719999999999999 16.9036036036036  1.38857142857143 16.9036036036036  C 2.05714285714286 16.9036036036036  2.59714285714286 16.354954954955  2.62285714285714 15.6756756756757  Z M 10.1828571428571 0.0783783783783795  C 9.51428571428571 0.0783783783783795  8.97428571428571 0.627027027027029  8.97428571428571 1.30630630630631  C 8.97428571428571 1.98558558558559  9.51428571428571 2.53423423423423  10.1828571428571 2.53423423423423  C 10.8514285714286 2.53423423423423  11.3914285714286 1.98558558558559  11.3914285714286 1.30630630630631  C 11.3914285714286 0.627027027027029  10.8514285714286 0.0783783783783795  10.1828571428571 0.0783783783783795  Z " fill-rule="nonzero" fill="#6f91dd" stroke="none" transform="matrix(1 0 0 1 13 20 )" />
  </g>
</svg>