<?xml version="1.0" encoding="utf-8"?>
<svg version="1.1" xmlns:xlink="http://www.w3.org/1999/xlink" width="21px" height="12px" xmlns="http://www.w3.org/2000/svg">
  <g transform="matrix(1 0 0 1 -36 -16 )">
    <path d="M 20.65875 4.90212765957447  C 20.60625 4.82553191489362  20.5275 4.74893617021277  20.44875 4.69787234042553  L 13.83375 0.204255319148937  C 13.44 -0.0765957446808503  12.88875 0  12.6 0.382978723404256  C 12.46875 0.536170212765959  12.41625 0.740425531914895  12.41625 0.919148936170214  L 12.41625 3.11489361702128  C 6.79875 3.11489361702128  1.8375 6.68936170212766  0.157500000000002 11.8978723404255  C 3.7275 9.42127659574468  8.03250000000001 8.11914893617021  12.41625 8.17021276595745  L 12.41625 9.88085106382979  C 12.39 10.3404255319149  12.78375 10.7489361702128  13.25625 10.7744680851064  C 13.46625 10.7744680851064  13.65 10.7234042553191  13.8075 10.5957446808511  L 20.44875 6.10212765957447  C 20.8425 5.82127659574468  20.92125 5.28510638297873  20.65875 4.90212765957447  Z " fill-rule="nonzero" fill="#ffd524" stroke="none" transform="matrix(1 0 0 1 36 16 )" />
  </g>
</svg>