<?xml version="1.0" encoding="utf-8"?>
<svg version="1.1" xmlns:xlink="http://www.w3.org/1999/xlink" width="38px" height="16px" xmlns="http://www.w3.org/2000/svg">
  <g transform="matrix(1 0 0 1 -16 -16 )">
    <path d="M 37.8704545454545 12.3459459459459  L 37.8704545454545 12.2810810810811  C 37.8488636363636 10.9837837837838  36.8988636363636 9.70810810810811  35.5818181818182 9.70810810810811  L 24.5488636363636 9.70810810810811  L 24.5488636363636 5.44864864864865  C 24.5488636363636 3.61081081081081  23.3613636363636 1.88108108108108  21.8284090909091 0.951351351351351  C 20.9647727272727 0.432432432432432  19.9284090909091 0.12972972972973  18.9136363636364 0.151351351351351  C 17.1215909090909 0.172972972972973  15.5238636363636 1.12432432432432  14.4659090909091 2.52972972972973  C 13.8397727272727 3.37297297297297  13.4511363636364 4.38918918918919  13.4511363636364 5.44864864864865  L 13.4511363636364 9.70810810810811  L 2.41818181818182 9.70810810810811  C 1.12272727272727 9.70810810810811  0.172727272727273 10.9837837837838  0.129545454545454 12.2810810810811  L 0.129545454545454 13.4054054054054  C 0.129545454545454 14.7243243243243  1.20909090909091 15.8054054054054  2.52613636363636 15.8054054054054  L 35.4738636363636 15.8054054054054  C 36.7909090909091 15.8054054054054  37.8704545454545 14.7243243243243  37.8704545454545 13.4054054054054  L 37.8704545454545 12.3459459459459  Z M 21.4829545454545 5.57837837837838  C 21.4829545454545 6.94054054054054  20.3818181818182 8.06486486486486  19 8.06486486486486  C 17.6181818181818 8.06486486486486  16.5170454545455 6.94054054054054  16.5170454545455 5.57837837837838  C 16.5170454545455 4.21621621621622  17.6397727272727 3.09189189189189  19 3.09189189189189  C 20.3602272727273 3.09189189189189  21.4829545454545 4.21621621621622  21.4829545454545 5.57837837837838  Z " fill-rule="nonzero" fill="#ff3939" stroke="none" transform="matrix(1 0 0 1 16 16 )" />
  </g>
</svg>