<?xml version="1.0" encoding="utf-8"?>
<svg version="1.1" xmlns:xlink="http://www.w3.org/1999/xlink" width="4px" height="4px" xmlns="http://www.w3.org/2000/svg">
  <g transform="matrix(1 0 0 1 -42 -42 )">
    <path d="M 3.21953125 3.97932291666666  C 2.79898897058824 3.98125  2.37835477941177 3.97973958333333  1.95776654411765 3.97973958333333  C 1.521875 3.97973958333333  1.08598345588235 3.98276041666666  0.650091911764702 3.97890625  C 0.195450367647057 3.97489583333333  0.0142922794117607 3.636875  0.228354779411762 3.18369791666667  C 0.664568014705878 2.26005208333333  1.10730698529411 1.34041666666667  1.54577205882353 0.418072916666665  C 1.63373161764706 0.23302083333333  1.74283088235294 0.0876562499999939  1.94705882352941 0.0852604166666651  C 2.16135110294117 0.0827083333333349  2.27605698529412 0.233645833333336  2.36792279411764 0.427083333333333  C 2.79880514705882 1.33432291666666  3.23290441176471 2.23958333333333  3.66277573529412 3.14744791666666  C 3.89885110294117 3.64598958333333  3.72127757352941 3.97692708333333  3.21953125 3.97932291666666  Z " fill-rule="nonzero" fill="#fce081" stroke="none" transform="matrix(1 0 0 1 42 42 )" />
  </g>
</svg>