<?xml version="1.0" encoding="utf-8"?>
<svg version="1.1" xmlns:xlink="http://www.w3.org/1999/xlink" width="39px" height="39px" xmlns="http://www.w3.org/2000/svg">
  <g transform="matrix(1 0 0 1 -16 -15 )">
    <path d="M 38.0564516129032 1.78225808089717  C 39.9435483870968 9.54032261340725  37.8467741771673 17.9274193548387  31.8709677255544 23.9032258064516  C 31.032258031754 24.741935500252  30.0887096446573 25.4758064516129  29.1451613067036 26.2096774029738  C 28.8306451776714 26.4193548387097  28.725806484375 26.7338709677419  28.6209677419355 27.0483870967742  C 27.7822580481351 30.2983870803931  26.1048387096774 33.3387096774194  23.6935483707157 35.6451612739415  C 22.5403225478831 36.7983870967742  21.282258031754 37.741935483871  19.9193548223286 38.5806451776714  C 18.766128999496 39.3145161290322  17.4032257900706 38.0564516129032  17.8225806615423 36.7983870967742  C 18.5564516129032 34.8064516292843  18.8709677419355 32.7096774193548  18.8709677419355 30.508064516129  C 18.6612903061996 30.508064516129  18.4516129196069 30.6129032094254  18.3467741771673 30.6129032094254  C 16.5645160962702 29.0403225642641  14.7822580645161 27.4677419191028  13.1048387260585 25.7903225806452  C 11.4274193876008 24.1129032421875  9.85483874243952 22.3306451612903  8.28225804813508 20.5483870803931  C 8.28225804813508 20.3387096446573  8.38709674143145 20.1290322580645  8.38709679057459 20.0241935647681  C 6.18548388734879 20.0241935647681  4.08870967741935 20.3387096938004  2.09677420992943 21.0725806451613  C 0.838709693800401 21.4919354674899  -0.31451612903226 20.1290322580645  0.314516129032257 18.9758064352319  C 1.15322582283266 17.6129032258064  2.09677420992943 16.3548387096774  3.24999998361895 15.2016128868448  C 5.66129032258065 12.7903225478831  8.59677417716734 11.1129032094254  11.8467742099294 10.2741935647681  C 12.1612903389617 10.1693548714718  12.475806467994 9.95967743573589  12.6854838545867 9.75  C 13.4193548059476 8.80645161290322  14.1532258064516 7.86290322580645  14.991935500252 7.02419353200604  C 20.9677419518649 1.04838708039314  29.3548387424395 -1.0483871295363  37.0080645325101 0.733870951360882  C 37.5322580972782 0.838709644657253  37.9516129196069 1.25806451612903  38.0564516129032 1.78225808089717  Z M 28.5161290486391 17.1935484034778  C 30.4032258228327 15.3064516292843  30.4032258228327 12.2661290322581  28.5161290486391 10.4838709513609  C 27.3629032258065 9.22580643523185  25.5806451940524 8.80645161290322  23.9032258064516 9.22580643523185  C 22.225806467994 9.64516125756048  20.9677419518649 11.008064516129  20.5483870803931 12.5806451612903  C 20.1290322580645 14.258064499748  20.5483870803931 16.0403225806452  21.8064515965222 17.1935484034778  C 23.6935483707157 18.975806484375  26.6290322253024 18.975806484375  28.5161290486391 17.1935484034778  Z " fill-rule="nonzero" fill="#ee6072" stroke="none" transform="matrix(1 0 0 1 16 15 )" />
  </g>
</svg>