<?xml version="1.0" encoding="utf-8"?>
<svg version="1.1" xmlns:xlink="http://www.w3.org/1999/xlink" width="40px" height="40px" xmlns="http://www.w3.org/2000/svg">
  <g transform="matrix(1 0 0 1 -15 -15 )">
    <path d="M 38.7523809570312 20  C 38.7523809570312 9.64761904296875  30.3523809570313 1.25238095703125  20 1.25238095703125  C 9.64761904296875 1.25238095703125  1.25238095703125 9.64761904296875  1.25238095703125 20  C 1.25238095703125 30.3523809570313  9.64761904296875 38.7523809570312  20 38.7523809570312  C 30.3523809570313 38.7523809570312  38.7523809570312 30.3523809570313  38.7523809570312 20  Z M 19 18.0476190429687  L 19 6.00476190011161  C 18.5 5.17619048549107  19.1714285853795 4.50476190011161  20 4.50476190011161  C 20.8285714146205 4.50476190011161  21.5 5.17619048549107  21 6.00476190011161  L 21 18.0476190429688  C 21.5 18.8761904575893  20.8285714146205 19.5476190429687  20 19.5476190429687  C 19.1714285853795 19.5476190429687  18.5 18.8761904575893  19 18.0476190429687  Z M 31.6619047712054 20.2142857142857  C 31.6619047712054 23.2619047712054  30.442857156808 26.1190476004464  28.2333333426339 28.2714285714286  C 26.0333333565848 30.4095238002232  23.1095238141741 31.5857142717634  20 31.5857142717634  C 16.8952380998884 31.5857142717634  13.9666666852679 30.4095238002232  11.7666666573661 28.2714285714286  C 9.55238092912947 26.1238095145089  8.33333331473215 23.2619047712054  8.33333331473215 20.2190476283482  C 8.33333331473215 18.3714285714286  8.79999997209821 16.5333333426339  9.68095239955357 14.909523828125  C 10.5285714285714 13.3380952427455  11.7714285714286 11.9714285853795  13.2571428710938 10.942857156808  C 13.9380952427455 10.4714285853795  14.8714285993304 10.642857156808  15.3476190429688 11.3238095284598  C 15.8190476143973 12.0047619001116  15.6476190429688 12.9380952566964  14.966666671317 13.4142857003348  C 13.8666666573661 14.1761904436384  12.9476190429688 15.190476171875  12.3238095145089 16.342857156808  C 11.666666671317 17.542857156808  11.3333333147321 18.8476190569196  11.3333333147321 20.2190476283482  C 11.3333333147321 24.8333333565848  15.2190476143973 28.5904761858259  19.9952380859375 28.5904761858259  C 24.7714285574777 28.5904761858259  28.6571428571429 24.8380952287946  28.6571428571429 20.2190476283482  C 28.6571428571429 18.8476190569196  28.3285714146205 17.542857156808  27.6714285714286 16.3380952427455  C 27.0428571289062 15.1809523856027  26.1333333426339 14.1714285714286  25.0285714146205 13.409523828125  C 24.3476190429688 12.9380952566964  24.1761904715402 12.0047619419643  24.6476190429688 11.3190476143973  C 25.1190476143973 10.6380952427455  26.0523809291295 10.466666671317  26.7380952566964 10.9380952427455  C 28.2238095563616 11.966666671317  29.4571428710938 13.3380952427455  30.3142857282366 14.9047619140625  C 31.1952381138393 16.5285714285714  31.6619047712054 18.3666666573661  31.6619047712054 20.2142857142857  Z " fill-rule="nonzero" fill="#ff6666" stroke="none" transform="matrix(1 0 0 1 15 15 )" />
  </g>
</svg>