<?xml version="1.0" encoding="utf-8"?>
<svg version="1.1" xmlns:xlink="http://www.w3.org/1999/xlink" width="35px" height="30px" xmlns="http://www.w3.org/2000/svg">
  <g transform="matrix(1 0 0 1 -6 0 )">
    <path d="M 24.1620689655172 5.48031496062992  L 24.5 5.66929133858268  L 24.5 1.41732283464567  C 24.5 0.543307086614173  24.6931034482759 0.330708661417323  25.4896551724138 0.330708661417323  L 29.1827586206897 0.330708661417323  C 29.8103448275862 0.330708661417323  30.0275862068965 0.590551181102362  30.0275862068965 1.32283464566929  L 30.0275862068965 10.2755905511811  C 29.9964777794954 10.6766347165079  30.1569196897293 11.0691669490824  30.4620689655172 11.3385826771654  C 31.8137931034483 12.5433070866142  33.1413793103448 13.7007874015748  34.4931034482759 15.0472440944882  C 35.1448275862069 15.6614173228346  35.1689655172414 15.9448818897638  34.4931034482759 16.6771653543307  L 33.4793103448276 18  C 33.0689655172414 18.5433070866142  32.7068965517241 18.5669291338583  32.2241379310345 18  L 18.1275862068965 4.84251968503937  L 17.6206896551724 4.37007874015748  L 14.4344827586207 7.34645669291339  L 2.89655172413793 18.0944881889764  C 2.36551724137931 18.5905511811024  2.05172413793103 18.5433070866142  1.61724137931034 18.0944881889764  L 0.531034482758619 16.6535433070866  C 0.304850834051242 16.4836550696775  0.172258549881834 16.2204924895026  0.172258549881834 15.9414626547924  C 0.172258549881834 15.5839473657661  0.389047703390655 15.2605182253463  0.724137931034483 15.1181102362205  L 7.07241379310345 9.14173228346457  L 15.6655172413793 1.15748031496063  C 16.1213726462065 0.56266336378006  16.8367927160926 0.212598425196852  17.5965517241379 0.212598425196852  C 18.3563107321832 0.212598425196852  19.0717308020694 0.562663363780059  19.5275862068966 1.15748031496063  L 24.1620689655172 5.48031496062992  Z M 20.4689655172414 29.9527559055118  L 20.3 29.9291338582677  L 20.3 21.3307086614173  L 14.9413793103448 21.3307086614173  L 14.9413793103448 29.9527559055118  L 6.92758620689655 29.9527559055118  C 6.90973544444173 29.9534249291065  6.89187323231682 29.9537595328194  6.8740093840112 29.9537595328194  C 6.10081073424809 29.9537595328194  5.4740093840112 29.3403543869183  5.4740093840112 28.5836807926619  C 5.4740093840112 28.5439197057945  5.47577804516528 28.5041774645988  6 28.4645669291339  L 6 17.8582677165354  C 5.50489255893198 17.6536712875044  5.59813657411447 17.4628733793541  5.7448275862069 17.3149606299213  L 12.6241379310345 11.2204724409449  L 17.2103448275862 7.18110236220472  L 17.6206896551724 6.8503937007874  L 20.348275862069 9.21259842519685  L 29.3275862068966 17.1496062992126  C 29.6476446663642 17.3998096688202  29.8195616540685 17.7894243920052  29.7862068965517 18.1889763779528  L 29.7862068965517 28.2755905511811  C 29.8459393511713 28.8365765265988  29.6093617896867 29.3886658952273  29.1586206896552 29.740157480315  C 28.97577861987 29.8707010881857  28.7572163661248 29.9447403045405  28.5310344827586 29.9527559055118  L 20.4689655172414 29.9527559055118  Z " fill-rule="nonzero" fill="#f4a121" stroke="none" transform="matrix(1 0 0 1 6 0 )" />
  </g>
</svg>