<?xml version="1.0" encoding="utf-8"?>
<svg version="1.1" xmlns:xlink="http://www.w3.org/1999/xlink" width="14px" height="22px" xmlns="http://www.w3.org/2000/svg">
  <g transform="matrix(1 0 0 1 -138 -122 )">
    <path d="M 13.7390950520833 7.79453125  L 7.35888671875 0.1783203125  C 7.17659505208333 -0.04189453125  6.82340494791667 -0.04189453125  6.64111328125 0.1783203125  L 0.260904947916663 7.78916015625  C 0.0273437499999959 8.06845703125  0.238118489583329 8.48203125  0.619791666666663 8.48203125  L 5 8.48203125  L 5 21.5015625  C 4.82958984375 21.737890625  5.03466796875 21.93125  5.28531901041667 21.93125  L 8.70328776041667 21.93125  C 8.95393880208333 21.93125  9.15901692708333 21.737890625  9 21.5015625  L 9 8.48740234375  L 13.3802083333333 8.48740234375  C 13.7618815104167 8.48740234375  13.97265625 8.073828125  13.7390950520833 7.79453125  Z " fill-rule="nonzero" fill="#7f7f7f" stroke="none" transform="matrix(1 0 0 1 138 122 )" />
  </g>
</svg>