<?xml version="1.0" encoding="utf-8"?>
<svg version="1.1" xmlns:xlink="http://www.w3.org/1999/xlink" width="50px" height="34px" xmlns="http://www.w3.org/2000/svg">
  <g transform="matrix(1 0 0 1 -120 -106 )">
    <path d="M 49.8579545454545 22.5826271186441  C 49.8579545454545 17.3657971398305  46.3567560369318 12.9762314618644  41.6126598011364 11.7043829449153  C 39.0713778409091 4.90618379237288  32.5961026278409 0.0720338983050847  25.0110973011364 0.0720338983050847  C 17.4260919744318 0.0720338983050847  10.9508167613636 4.9005561440678  8.40953480113636 11.6987552966102  C 3.65434126420455 12.9649761652542  0.142045454545455 17.3601694915254  0.142045454545455 22.5826271186441  C 0.142045454545455 28.8011784957627  5.10808771306818 33.8379237288136  11.2337979403409 33.8379237288136  L 13.4588068181818 33.8379237288136  C 13.7029474431818 33.8379237288136  13.9026988636364 33.6353283898305  13.9026988636364 33.3877118644068  L 13.9026988636364 30.0111228813559  C 13.9026988636364 29.7635063559322  13.7029474431818 29.5609110169492  13.4588068181818 29.5609110169492  L 11.2337979403409 29.5609110169492  C 9.36390269886364 29.5609110169492  7.60498046875 28.8068061440678  6.29549893465909 27.4392876059322  C 4.99156605113636 26.0773967161017  4.29798473011363 24.2427833686441  4.35901988636363 22.3406382415254  C 4.40895774147727 20.854939088983  4.90833629261363 19.459282309322  5.81276633522727 18.2831038135593  C 6.73939098011363 17.0844147245763  8.03777521306818 16.2121292372881  9.48042436079545 15.8238215042373  L 11.5833629261364 15.2666843220339  L 12.3546253551136 13.2069650423729  C 12.8318093039773 11.9238612288136  13.4976473721591 10.7251721398305  14.3354936079545 9.63903601694915  C 15.1622425426136 8.55852754237288  16.1443536931818 7.61871027542373  17.2429865056818 6.83083951271186  C 19.5234818892045 5.20444915254237  22.2090287642045 4.3434189618644  25.0110973011364 4.3434189618644  C 27.8131658380682 4.3434189618644  30.4987127130682 5.20444915254237  32.7792080965909 6.83083951271186  C 33.8833895596591 7.61871027542373  34.8599520596591 8.56415519067796  35.6867009943182 9.63903601694915  C 36.5245472301136 10.7251721398305  37.1903852982954 11.9294888771186  37.6675692471591 13.2069650423729  L 38.4332830255682 15.2610566737288  L 40.5306729403409 15.8238215042373  C 43.5380415482955 16.6454581567797  45.6409801136364 19.4198887711864  45.6409801136364 22.5826271186441  C 45.6409801136364 24.4453787076271  44.9252041903409 26.2012049788136  43.6268199573864 27.5180746822034  C 42.3284357244318 28.8349443855932  40.6028053977273 29.5609110169492  38.7662020596591 29.5609110169492  L 36.5411931818182 29.5609110169492  C 36.2970525568182 29.5609110169492  36.0973011363636 29.7635063559322  36.0973011363636 30.0111228813559  L 36.0973011363636 33.3877118644068  C 36.0973011363636 33.6353283898305  36.2970525568182 33.8379237288136  36.5411931818182 33.8379237288136  L 38.7662020596591 33.8379237288136  C 44.8919122869318 33.8379237288136  49.8579545454545 28.8011784957627  49.8579545454545 22.5826271186441  Z " fill-rule="nonzero" fill="#7f7f7f" stroke="none" transform="matrix(1 0 0 1 120 106 )" />
  </g>
</svg>