<?xml version="1.0" encoding="utf-8"?>
<svg version="1.1" xmlns:xlink="http://www.w3.org/1999/xlink" width="42px" height="25px" xmlns="http://www.w3.org/2000/svg">
  <g>
    <path d="M 15.7294921875 18.37158203125  C 17.907421875 17.1630859375  19.252734375 14.9210611979167  19.252734375 12.5  C 19.252734375 10.0789388020833  17.907421875 7.8369140625  15.7294921875 6.62841796875  C 13.5515625 5.41585286458333  10.8568359375 5.41585286458333  8.67890625 6.62841796875  C 6.496875 7.84098307291667  5.1556640625 10.0789388020833  5.1556640625 12.5  C 5.1556640625 14.9210611979167  6.496875 17.1630859375  8.67890625 18.37158203125  C 10.8568359375 19.5841471354167  13.5515625 19.5841471354167  15.7294921875 18.37158203125  Z M 29.97421875 21.7488606770833  L 12.02578125 21.7488606770833  C 6.718359375 21.7488606770833  2.4158203125 17.6066080729167  2.4158203125 12.5  C 2.4158203125 7.39339192708333  6.718359375 3.25113932291667  12.0298828125 3.25113932291667  L 29.97421875 3.25113932291667  C 35.281640625 3.25113932291667  39.58828125 7.38932291666667  39.58828125 12.5  C 39.58828125 17.6106770833333  35.281640625 21.7488606770833  29.97421875 21.7488606770833  Z M 29.97421875 1.40380859375  L 12.02578125 1.40380859375  C 5.6560546875 1.40380859375  0.4921875 6.3720703125  0.4921875 12.5  C 0.4921875 18.6279296875  5.6560546875 23.59619140625  12.02578125 23.59619140625  L 29.9701171875 23.59619140625  C 36.33984375 23.59619140625  41.5037109375 18.6279296875  41.5037109375 12.5  C 41.5037109375 6.3720703125  36.3439453125 1.40380859375  29.97421875 1.40380859375  Z " fill-rule="nonzero" fill="#000000" stroke="none" />
  </g>
</svg>