<?xml version="1.0" encoding="utf-8"?>
<svg version="1.1" xmlns:xlink="http://www.w3.org/1999/xlink" width="42px" height="25px" xmlns="http://www.w3.org/2000/svg">
  <g>
    <path d="M 26.2705078125 6.62841796875  C 24.092578125 7.8369140625  22.747265625 10.0789388020833  22.747265625 12.5  C 22.747265625 14.9210611979167  24.092578125 17.1630859375  26.2705078125 18.37158203125  C 28.4484375 19.5841471354167  31.1431640625 19.5841471350098  33.32109375 18.37158203125  C 35.503125 17.1590169270833  36.8443359375 14.9210611979167  36.8443359375 12.5  C 36.8443359375 10.0789388020833  35.503125 7.8369140625  33.32109375 6.62841796875  C 31.1431640625 5.41585286458333  28.4484375 5.41585286499023  26.2705078125 6.62841796875  Z M 12.02578125 3.25113932291666  L 29.97421875 3.25113932291667  C 35.281640625 3.25113932332357  39.5841796875 7.39339192749024  39.5841796879102 12.5  C 39.5841796883203 17.6066080725098  35.2816406254102 21.7488606770833  29.9701171875 21.7488606770833  L 12.02578125 21.7488606770833  C 6.71835937458984 21.7488606770833  2.41171875 17.6106770833333  2.41171875041016 12.5  C 2.41171875082031 7.38932291666667  6.71835937541016 3.25113932291666  12.02578125 3.25113932291666  Z M 12.0257812504102 23.59619140625  L 29.9742187495898 23.59619140625  C 36.3439453125 23.59619140625  41.5078125 18.6279296875  41.5078125 12.5  C 41.5078125 6.3720703125  36.3439453125 1.40380859375  29.9742187495898 1.40380859375  L 12.0298828120898 1.40380859375  C 5.66015624958985 1.40380859375  0.496289062089847 6.3720703125  0.496289062089847 12.5  C 0.496289062089847 18.6279296875  5.6560546875 23.59619140625  12.0257812504102 23.59619140625  Z " fill-rule="nonzero" fill="#1afa29" stroke="none" />
  </g>
</svg>