<?xml version="1.0" encoding="utf-8"?>
<svg version="1.1" xmlns:xlink="http://www.w3.org/1999/xlink" width="30px" height="30px" xmlns="http://www.w3.org/2000/svg">
  <g transform="matrix(1 0 0 1 -60 -485 )">
    <path d="M 75 486  C 82.84 486  89 492.16  89 500  C 89 507.84  82.84 514  75 514  C 67.16 514  61 507.84  61 500  C 61 492.16  67.16 486  75 486  Z " fill-rule="nonzero" fill="#ffffff" stroke="none" />
    <path d="M 75 486  C 82.84 486  89 492.16  89 500  C 89 507.84  82.84 514  75 514  C 67.16 514  61 507.84  61 500  C 61 492.16  67.16 486  75 486  Z " stroke-width="2" stroke="#f4a121" fill="none" />
  </g>
</svg>