<?xml version="1.0" encoding="utf-8"?>
<svg version="1.1" xmlns:xlink="http://www.w3.org/1999/xlink" width="30px" height="30px" xmlns="http://www.w3.org/2000/svg">
  <g transform="matrix(1 0 0 1 -60 -715 )">
    <path d="M 75 716  C 82.84 716  89 722.16  89 730  C 89 737.84  82.84 744  75 744  C 67.16 744  61 737.84  61 730  C 61 722.16  67.16 716  75 716  Z " fill-rule="nonzero" fill="#ffffff" stroke="none" />
    <path d="M 75 716  C 82.84 716  89 722.16  89 730  C 89 737.84  82.84 744  75 744  C 67.16 744  61 737.84  61 730  C 61 722.16  67.16 716  75 716  Z " stroke-width="2" stroke="#d7d7d7" fill="none" />
  </g>
</svg>