<?xml version="1.0" encoding="utf-8"?>
<svg version="1.1" xmlns:xlink="http://www.w3.org/1999/xlink" width="65px" height="65px" xmlns="http://www.w3.org/2000/svg">
  <g transform="matrix(1 0 0 1 -25 -14 )">
    <path d="M 64 6.14877967285156  C 64.7113233837891 2.75343935546875  61.8166039892578 2.4248046875E-05  58.2436239404297 0  L 6.75637605957031 0  C 3.18339601074219 2.4248046875E-05  0.29675115234375 2.75343935546875  1 6.14877967285156  L 1 46.8323049365234  C 0.29675115234375 50.2316825537109  3.191470546875 52.9850976611328  6.75637605957031 52.9850976611328  L 12.5660012207031 52.9850976611328  L 12.5660012207031 59.9493807910156  C 12.5660012207031 59.9493807910156  12.5215913037109 65  20.4427063623047 65  C 28.3638214208984 65  30.4753113183594 62.6341623730469  32.8371116455078 60.1754676123047  L 39.7489103222656 53  L 58.2315121679687 53  C 61.8044922167969 52.9850976611328  64.6911370751953 50.2316825537109  64 46.8323049365234  L 64 6.14877967285156  Z " fill-rule="nonzero" fill="#fefbf2" stroke="none" transform="matrix(1 0 0 1 25 14 )" />
  </g>
</svg>