<?xml version="1.0" encoding="utf-8"?>
<svg version="1.1" xmlns:xlink="http://www.w3.org/1999/xlink" width="23px" height="33px" xmlns="http://www.w3.org/2000/svg">
  <g transform="matrix(1 0 0 1 -26 -17 )">
    <path d="M 21.3460109535092 1.38446511627907  L 20.6612896420338 0.142744186046512  L 19.3124590163934 0.514186046511626  C 18.6614207895748 0.693255788971656  17.5880874071465 1.07441860465116  16.2307103579662 1.70269769940043  C 13.8696209112696 2.79236383447946  11.659186903178 4.19252526824125  9.65597816662398 5.86734881222747  C 2.9842185546875 11.4594418604651  -0.719409836065573 19.5656744435865  0.136743144851434 30.4500464866461  L 0.327781445312499 32.88693025754  L 11.576415275999 28.5114883471112  C 13.3797157978996 27.8023720680414  14.3540108798668 25.8494883221294  13.8361967213115 23.9917674418605  L 13.7723497022285 23.785581370367  C 13.3017923251793 22.4118604401344  13.6667759317367 20.898976744186  14.7255300300973 19.8680465366097  L 20.2756939645236 14.4212557889716  C 21.7889180327869 12.9487906477107  22.6435628169826 10.9253023255814  22.6375300300973 8.81176744186045  L 22.6375300300973 6.36106979242368  C 22.6314147534311 4.6172795935387  22.1869820449605 2.90408221940741  21.3465136366547 1.38446511627906  Z M 18.512109314165 4.68702323083212  L 18.7886119973105 4.57344183548329  L 18.8745792104252 4.9044651412609  C 18.9851803278689 5.38334886219113  19.0419890464908 5.87348842205669  19.044 6.36772090525073  L 19.044 8.81739532385538  C 19.0470163934426 9.92558137036701  18.5975737704918 10.9887441360829  17.7886775710809 11.7761395598656  L 12.2385136366547 17.2229302325581  C 10.1702731749488 19.2372093273074  9.44181415855533 22.2563256063772  10.3784043961322 24.9904650912972  L 10.3789070792777 25.0124651162791  C 10.3733770491803 25.037023255814  10.3472349481301 25.0672092773437  10.2894207895748 25.0902325331577  L 3.60961751088627 27.6877674418605  L 3.60810931416496 27.3992093023256  C 3.60961751088627 19.1732557889717  6.70996721311475 13.0802790697674  11.9378798059682 8.69818604651163  C 13.9232185540637 7.0389238928459  16.1385469204157 5.68727610559537  18.512109314165 4.68702323083212  Z " fill-rule="nonzero" fill="#7b7ba3" stroke="none" transform="matrix(1 0 0 1 26 17 )" />
  </g>
</svg>