<?xml version="1.0" encoding="utf-8"?>
<svg version="1.1" xmlns:xlink="http://www.w3.org/1999/xlink" width="41px" height="12px" xmlns="http://www.w3.org/2000/svg">
  <g transform="matrix(1 0 0 1 -34 -26 )">
    <path d="M 40.6237839033019 9.8890625  C 40.6237839033019 10.834375  39.8758844339623 11.6078125  38.9617850825472 11.6078125  L 1.71790241745283 11.6078125  C 0.803803066037736 11.6078125  0.0559035966981105 10.834375  0.0559035966981105 9.8890625  L 0.0559035966981105 1.7484375  C 0.0559035966981105 0.803125  0.803803066037736 0.0296874999999972  1.71790241745283 0  L 38.9617850825472 0  C 39.8758844339623 0.0296874999999972  40.6237839033019 0.803125  40.6237839033019 1.7484375  L 40.6237839033019 9.8890625  Z M 38.9617850825472 1.5921875  L 1.71790241745283 1.5921875  C 1.63480247641509 1.5921875  1.56681161556603 1.6625  1.56681161556603 1.7484375  L 1.56681161556603 9.8890625  C 1.56681161556603 9.97500000000001  1.63480247641509 10.0453125  1.71790241745283 10  L 38.9617850825472 10  C 39.0448850235849 10.0453125  39.112875884434 9.97500000000001  39.112875884434 9.8890625  L 39.112875884434 1.7484375  C 39.112875884434 1.6625  39.0448850235849 1.5921875  38.9617850825472 1.5921875  Z " fill-rule="nonzero" fill="#00a4ff" stroke="none" transform="matrix(1 0 0 1 34 26 )" />
  </g>
</svg>