<?xml version="1.0" encoding="utf-8"?>
<svg version="1.1" xmlns:xlink="http://www.w3.org/1999/xlink" width="13px" height="13px" xmlns="http://www.w3.org/2000/svg">
  <g transform="matrix(1 0 0 1 -53 -58 )">
    <path d="M 1.13809742647059 12.8670726102941  C 1.08582261029412 12.8745404411765  1.041015625 12.8820082720588  0.988740808823529 12.8820082720588  C 0.794577205882347 12.8820082720588  0.600413602941177 12.8073299632353  0.458524816176471 12.6654411764706  C 0.280143806561582 12.4879321404224  0.204190387739071 12.2319409880947  0.256893382352941 11.9858685661765  L 1.12316176470588 7.75907628676471  L 2.55698529411765 0.799057904411765  C 2.60926011029412 0.530215992647059  2.81089154411764 0.313648897058824  3.07226562499999 0.231502757352941  C 3.33363970588235 0.149356617647048  3.61741727941176 0.224034926470577  3.81158088235294 0.418198529411765  L 12.6982996323529 9.30491727941176  C 12.8924632352941 9.49908088235294  12.9671415441176 9.78285845588234  12.8849954044118 10.0442325367647  C 12.8028492647059 10.305606617647  12.5862821691176 10.5072380514706  12.3174402573529 10.559512867647  L 5.36488970588235 12.0008042279412  L 1.13809742647059 12.8670726102941  Z M 10.6595818014706 9.37212775735294  L 3.73690257352941 2.45691636029412  L 2.5793887867647 8.05778952205882  L 1.93715533088235 11.171875  L 5.05870863970587 10.5296415441176  L 10.6595818014706 9.37212775735294  Z " fill-rule="nonzero" fill="#ffa300" stroke="none" transform="matrix(1 0 0 1 53 58 )" />
  </g>
</svg>