<?xml version="1.0" encoding="utf-8"?>
<svg version="1.1" xmlns:xlink="http://www.w3.org/1999/xlink" width="32px" height="32px" xmlns="http://www.w3.org/2000/svg">
  <g transform="matrix(1 0 0 1 -32 -14 )">
    <path d="M 12.9336028994845 18.974212306701  L 11.2943642396907 18.974212306701  C 11.1925311712445 18.9837693138813  11.090306651271 18.9885556701031  10.9880261046582 18.9885556701031  C 9.17737304279845 18.9885556701031  7.70954872063757 17.5207313479422  7.70954872063757 15.7100782860825  C 7.70954872063757 13.8994252242227  9.17737304279845 12.4316009020619  10.9880261046582 12.4316009020619  C 11.090306651271 12.4316009020619  11.1925311712445 12.4363872582836  11.2943642396907 12.4459442654639  L 19.465969007732 12.4459442654639  L 31.9118887242268 0  L 5.48736121134021 0  C 5.48599516777981 2.35577177080526E-05  5.48462912386499 2.30298754739025E-05  5.48326307989667 2.30298754739025E-05  C 2.55453178285298 2.30298754739025E-05  0.18032596649461 2.37422884623385  0.18032596649461 5.30296014327754  L 0.180325966494845 31.731587306701  L 12.9336028994845 18.974212306701  Z " fill-rule="nonzero" fill="#fef278" stroke="none" transform="matrix(1 0 0 1 32 14 )" />
  </g>
</svg>