<?xml version="1.0" encoding="utf-8"?>
<svg version="1.1" xmlns:xlink="http://www.w3.org/1999/xlink" width="36px" height="31px" xmlns="http://www.w3.org/2000/svg">
  <g transform="matrix(1 0 0 1 -36 -40 )">
    <path d="M 35.8079637096774 1.7029766613924  C 35.8079637096774 2.63034018987342  35.0519153225806 3.39675632911392  34.1370967741936 4  L 1.92943548387097 4  C 1.01461693548387 3.39675632911392  0.258568548387097 2.63800435126582  0.258568548387097 1.7029766613924  C 0.258568548387097 0.775613132911387  1.0070564516129 0.0091969936708805  1.92943548387097 0  L 34.1370967741936 0  C 35.0519153225806 0.0091969936708805  35.8079637096774 0.767948971518982  35.8079637096774 1.7029766613924  Z M 35.8079637096774 10.8080003955696  C 35.8079637096774 11.743028085443  35.0519153225806 12.5017800632911  34.1370967741936 13  L 1.92943548387097 13  C 1.01461693548387 12.5017800632911  0.258568548387097 11.743028085443  0.258568548387097 10.8080003955696  C 0.258568548387097 9.88063686708861  1.0070564516129 9.1142207278481  1.92943548387097 9.1142207278481  L 34.1370967741936 9.1142207278481  C 35.0519153225806 9.1142207278481  35.8079637096774 9.8729727056962  35.8079637096774 10.8080003955696  Z M 31.3321572580645 19.9206882911392  C 31.3321572580645 20.8557159810127  30.5761088709677 21.6144679588608  29.6612903225807 21  L 1.92943548387097 21  C 1.01461693548387 21.6144679588608  0.258568548387097 20.8557159810127  0.258568548387097 19.9206882911392  C 0.258568548387097 18.9933247626582  1.0070564516129 18.2269086234177  1.92943548387097 18  L 29.6612903225807 18  C 30.5761088709677 18.2269086234177  31.3321572580645 18.9856606012658  31.3321572580645 19.9206882911392  Z M 17.9122983870968 29.0333761867089  C 17.9047379032258 29.9684038765823  17.15625 30.7271558544304  16.2414314516129 30.7271558544304  L 1.92943548387097 30.7271558544304  C 1.01461693548387 30.7271558544304  0.258568548387097 29.9684038765823  0.258568548387097 29.0333761867089  C 0.258568548387097 28.1060126582278  1.0070564516129 27.3395965189873  1.92943548387097 27  L 16.2414314516129 27  C 17.15625 27.3395965189873  17.9122983870968 28.0983484968354  17.9122983870968 29.0333761867089  Z " fill-rule="nonzero" fill="#a6b7bf" stroke="none" transform="matrix(1 0 0 1 36 40 )" />
  </g>
</svg>