<?xml version="1.0" encoding="utf-8"?>
<svg version="1.1" xmlns:xlink="http://www.w3.org/1999/xlink" width="28px" height="20px" xmlns="http://www.w3.org/2000/svg">
  <g transform="matrix(1 0 0 1 -31 -57 )">
    <path d="M 27.5955555555556 19.6102563852163  L 27.6251111111111 17.9138461538462  C 27.6800740993924 14.7620513070913  26.0581481228299 11.8271794621394  23.387259233941 10.2461538461538  L 22.4637777777778 9.70051284555289  C 21.35321985607 9.04035744969422  20.1222328868805 8.60265046890578  18.8408888888889 8.4123076923077  L 14.7025925672743 7.79538461538461  C 13.0355555555556 7.54820515324519  11.6744444444444 6.3082051532452  11.2440740993924 4.64615384615385  L 10.7618518771701 2.79487176983173  C 10.4662963216146 1.66358969350962  9.646 0.751794846754811  8.56644444444445 0.354871769831735  C 7.48683208771588 -0.0419981073969266  6.27759010099141 0.127171470904901  5.35162965494792 0.80461538461539  L 0.144666666666667 4.58974361478365  C 0.144666666666667 4.58974361478365  9.48837034505208 20.2738461538462  27.5950370117188 19.6102563852163  Z " fill-rule="nonzero" fill="#dbf083" stroke="none" transform="matrix(1 0 0 1 31 57 )" />
  </g>
</svg>