<?xml version="1.0" encoding="utf-8"?>
<svg version="1.1" xmlns:xlink="http://www.w3.org/1999/xlink" width="38px" height="28px" xmlns="http://www.w3.org/2000/svg">
  <g transform="matrix(1 0 0 1 -28 -49 )">
    <path d="M 37.5931466914063 27.5971111111111  L 37.59264 27.5976296549479  L 37.6331733085938 25.2051852105035  C 37.70816 20.7609629882813  35.4955466171875 16.6221481987847  31.8516 14.392  L 30.59152 13.6230370117188  C 29.0760576105168 12.6918539751362  27.3965559643414 12.0745278196112  25.64848 11.8061481228299  L 20.0032 10.9365925672743  C 17.7287733085937 10.5876295789931  15.87184 8.83970367838541  15.2846133085937 6.49496298828125  L 14.62696 3.88474076605903  C 14.2231466914062 2.28925930989582  13.1044266914062 1.00333333333333  11.6320533085937 0.443333333333328  C 10.1589597289159 -0.116628986196664  8.50923359323483 0.121856883000719  7.24533330859375 1.07748145616319  L 0.141866691406251 6.41562965494791  C 0.141866691406251 6.41562965494791  12.8890933828125 28.5335555555556  37.5931466914063 27.5971111111111  Z " fill-rule="nonzero" fill="#62afef" stroke="none" transform="matrix(1 0 0 1 28 49 )" />
  </g>
</svg>