<?xml version="1.0" encoding="utf-8"?>
<svg version="1.1" xmlns:xlink="http://www.w3.org/1999/xlink" width="13px" height="12px" xmlns="http://www.w3.org/2000/svg">
  <g transform="matrix(1 0 0 1 -67 -57 )">
    <path d="M 12.7526041666667 5.625  C 12.765625 5.43996710526316  12.6028645833334 5.29194078947369  12.4075520833333 5.2734375  C 12.5963541666667 5.21175986842105  12.70703125 5.02672697368421  12.6549479166667 4.84169407894737  L 12.4466145833333 4.10773026315789  C 12.39453125 3.92269736842105  12.19921875 3.81784539473684  12.00390625 3.84868421052632  C 12.1666666666667 3.74383223684211  12.2252604166667 3.54029605263158  12.1276041666667 3.37993421052632  L 11.7239583333333 2.71998355263158  C 11.6197916666667 2.55345394736841  11.4049479166667 2.50411184210526  11.2291666666667 2.58429276315789  C 11.359375 2.44243421052632  11.3658854166667 2.2265625  11.22265625 2.09087171052631  L 10.65625 1.55427631578946  C 10.5130208333333 1.41858552631578  10.28515625 1.41858552631578  10.1354166666666 1.54810855263157  C 10.2200520833333 1.3815789473684  10.16796875 1.17187499999999  9.99218749999998 1.07935855263157  L 9.29557291666665 0.696957236842087  C 9.11979166666664 0.604440789473666  8.91145833333331 0.659950657894719  8.80078124999998 0.814144736842087  C 8.83984374999998 0.629111842105245  8.72265624999997 0.444078947368403  8.52734374999997 0.394736842105245  L 7.75260416666664 0.197368421052614  C 7.55729166666664 0.148026315789456  7.36197916666664 0.252878289473666  7.29687499999997 0.431743421052614  C 7.27734374999998 0.246710526315772  7.12760416666664 0.0986842105262978  6.92578124999997 0.0986842105262978  L 6.1184895833333 0.0986842105262978  C 5.91666666666664 0.0986842105262978  5.7669270833333 0.246710526315772  5.7473958333333 0.431743421052614  C 5.68229166666664 0.252878289473666  5.48697916666664 0.148026315789456  5.29166666666664 0.197368421052614  L 4.5169270833333 0.394736842105245  C 4.32161458333331 0.444078947368403  4.21093749999997 0.629111842105245  4.2434895833333 0.814144736842087  C 4.13281249999996 0.659950657894719  3.91796874999997 0.604440789473666  3.74869791666664 0.696957236842087  L 3.0520833333333 1.07935855263157  C 2.8763020833333 1.17804276315789  2.82421874999996 1.3815789473684  2.90885416666663 1.54810855263157  C 2.7591145833333 1.42475328947368  2.53124999999996 1.41858552631578  2.3880208333333 1.55427631578946  L 1.8216145833333 2.09087171052631  C 1.67838541666662 2.2265625  1.67838541666662 2.44243421052632  1.81510416666662 2.58429276315789  C 1.63932291666662 2.50411184210526  1.41796874999995 2.55345394736841  1.32031249999995 2.71998355263158  L 0.916666666666619 3.37993421052632  C 0.819010416666619 3.54646381578947  0.877604166666619 3.74383223684211  1.04036458333329 3.84868421052632  C 0.845052083333286 3.81167763157895  0.649739583333286 3.92269736842105  0.597656249999953 4.10773026315789  L 0.389322916666619 4.84169407894737  C 0.337239583333286 5.02672697368421  0.447916666666619 5.21175986842105  0.636718749999953 5.2734375  C 0.441406249999953 5.29194078947368  0.285156249999953 5.43379934210526  0.285156249999953 5.625  L 0.285156249999953 6.38980263157895  C 0.285156249999953 6.58100328947368  0.441406249999953 6.72286184210526  0.636718749999953 6.74136513157896  C 0.447916666666619 6.8030427631579  0.337239583333276 6.98807565789475  0.389322916666619 7.17310855263159  L 0.597656249999953 7.90707236842105  C 0.649739583333286 8.09210526315789  0.845052083333286 8.19695723684211  1.04036458333329 8.16611842105264  C 0.877604166666619 8.27097039473685  0.819010416666619 8.47450657894738  0.916666666666619 8.63486842105264  L 1.32031249999995 9.29481907894738  C 1.42447916666662 9.46134868421055  1.63932291666662 9.51069078947369  1.81510416666662 9.43050986842107  C 1.68489583333329 9.57236842105264  1.67838541666662 9.78824013157896  1.8216145833333 9.92393092105265  L 2.3880208333333 10.4605263157895  C 2.53124999999996 10.5962171052632  2.75260416666663 10.5962171052632  2.90885416666663 10.4666940789474  C 2.82421874999996 10.6332236842105  2.8763020833333 10.842927631579  3.0520833333333 10.9354440789474  L 3.74869791666664 11.3178453947369  C 3.92447916666664 11.4103618421053  4.13281249999996 11.3548519736842  4.2434895833333 11.2006578947369  C 4.20442708333331 11.3856907894737  4.32161458333331 11.5707236842106  4.5169270833333 11.6200657894737  L 5.29166666666664 11.8174342105263  C 5.48697916666664 11.8667763157895  5.68229166666664 11.7619243421053  5.7473958333333 11.5830592105263  C 5.7669270833333 11.7680921052632  5.91666666666664 11.9161184210527  6.1184895833333 11.9161184210527  L 6.91927083333333 11.9161184210527  C 7.12109375 11.9161184210527  7.27083333333333 11.7680921052632  7.29036458333333 11.5830592105263  C 7.35546875 11.7619243421053  7.55078125 11.8667763157895  7.74609375 11.8174342105263  L 8.52083333333333 11.6200657894737  C 8.71614583333333 11.5707236842106  8.82682291666667 11.3856907894737  8.79427083333333 11.2006578947369  C 8.90494791666668 11.3548519736842  9.11979166666667 11.4103618421053  9.28906250000001 11.3178453947369  L 9.98567708333334 10.9354440789474  C 10.1614583333333 10.8367598684211  10.2135416666667 10.6332236842105  10.12890625 10.4666940789474  C 10.2786458333333 10.5900493421053  10.5065104166667 10.5962171052632  10.6497395833333 10.4605263157895  L 11.2161458333334 9.92393092105265  C 11.359375 9.78824013157896  11.359375 9.57853618421053  11.22265625 9.43050986842107  C 11.3984375 9.51069078947369  11.6197916666667 9.46134868421055  11.7174479166667 9.29481907894738  L 12.12109375 8.63486842105264  C 12.21875 8.46833881578948  12.16015625 8.27097039473685  11.9973958333334 8.16611842105264  C 12.1927083333334 8.20312500000001  12.3880208333334 8.09210526315789  12.4401041666667 7.90707236842105  L 12.6484375 7.17310855263159  C 12.7005208333334 6.98807565789475  12.58984375 6.8030427631579  12.4010416666667 6.74136513157896  C 12.5963541666667 6.72286184210527  12.7526041666667 6.58100328947368  12.7526041666667 6.38980263157895  L 12.7526041666667 5.625  Z " fill-rule="nonzero" fill="#363636" stroke="none" transform="matrix(1 0 0 1 67 57 )" />
  </g>
</svg>