<?xml version="1.0" encoding="utf-8"?>
<svg version="1.1" xmlns:xlink="http://www.w3.org/1999/xlink" width="6px" height="6px" xmlns="http://www.w3.org/2000/svg">
  <g transform="matrix(1 0 0 1 -53 -65 )">
    <path d="M 1.10888671874999 5.8623046875  C 1.06494140624999 5.876953125  1.02099609375 5.88427734374999  0.9697265625 5.88427734375  C 0.779296874999995 5.88427734375  0.5888671875 5.81103515625  0.44970703125 5.671875  C 0.274756425666167 5.49777959926046  0.200263649513319 5.24671135370827  0.251953125 5.00537109375  L 1.1015625 0.85986328125  C 1.15283203125 0.59619140625  1.3505859375 0.3837890625  1.60693359375 0.30322265625  C 1.86328125 0.22265625  2.1416015625 0.2958984375  2.33203124999999 0.486328125  L 5.6279296875 3.7822265625  C 5.818359375 3.97265625  5.8916015625 4.2509765625  5.81103515625 4.50732421875  C 5.73046875 4.763671875  5.51806640625 4.96142578125  5.25439453125 5.0126953125  L 1.10888671874999 5.8623046875  Z M 3.64306640625 3.86279296875001  L 2.26611328125 2.48583984375  L 1.91455078124999 4.21435546875  L 3.64306640625 3.86279296875001  Z " fill-rule="nonzero" fill="#6a7d84" stroke="none" transform="matrix(1 0 0 1 53 65 )" />
  </g>
</svg>