<?xml version="1.0" encoding="utf-8"?>
<svg version="1.1" xmlns:xlink="http://www.w3.org/1999/xlink" width="13px" height="13px" xmlns="http://www.w3.org/2000/svg">
  <g transform="matrix(1 0 0 1 -71 -40 )">
    <path d="M 10.2010569852941 12.4727711397059  C 10.0591681985294 12.6146599264706  9.87247242647059 12.6893382352941  9.67830882352941 12.6893382352941  C 9.48414522058824 12.6893382352941  9.29744944852941 12.6146599264706  9.14809283088235 12.4727711397059  L 0.261374080882353 3.58605238970588  C -0.0298713235294118 3.29480698529412  -0.0298713235294118 2.82433363970588  0.261374080882353 2.53308823529412  L 2.50172334558824 0.292738970588235  C 2.79296875 0.00149356617647059  3.26344209558824 0.00149356617647059  3.5546875 0.292738970588235  L 12.44140625 9.17945772058824  C 12.7326516544118 9.470703125  12.7326516544118 9.94117647058824  12.44140625 10.232421875  L 10.2010569852941 12.4727711397059  Z M 3.03193933823529 1.87591911764706  L 1.85202205882353 3.05583639705882  L 9.68577665441176 10.8895909926471  L 10.8656939338235 9.7096737132353  L 3.03193933823529 1.87591911764706  Z " fill-rule="nonzero" fill="#ffa300" stroke="none" transform="matrix(1 0 0 1 71 40 )" />
  </g>
</svg>