<?xml version="1.0" encoding="utf-8"?>
<svg version="1.1" xmlns:xlink="http://www.w3.org/1999/xlink" width="39px" height="46px" xmlns="http://www.w3.org/2000/svg">
  <g transform="matrix(1 0 0 1 -45 -24 )">
    <path d="M 39 0.133759247562058  L 21.8093810185793 17.1509767675089  C 21.9519952912234 17.5166906565559  22.0251595331985 17.9055840679894  22.0251541770615 18.2978862062278  C 22.0251541417097 20.0884743572621  20.5669663206105 21.5400328465687  18.7682004743304 21.5400328817598  L 17.3962086643251 21.5400328817598  L 0.0081469340861334 38.8449910045434  L 0.0081469340861334 43.2178363752216  C 0.0081469340861334 43.2178363752216  0.370483037355567 45.7548161513741  2.85798142397584 45.8075010361259  C 5.34547981059611 45.8601859208777  6.44063050978204 43.537998337766  6.44063057379202 43.537998337766  L 13.768776468947 35  L 33.64840787651 35  C 36.5452063880325 35.5534173118963  38.891304990277 33.2179847050201  39 30.3343558538342  L 39 0.133759247562058  Z " fill-rule="nonzero" fill="#f8b806" stroke="none" transform="matrix(1 0 0 1 45 24 )" />
  </g>
</svg>