<?xml version="1.0" encoding="utf-8"?>
<svg version="1.1" xmlns:xlink="http://www.w3.org/1999/xlink" width="52px" height="55px" xmlns="http://www.w3.org/2000/svg">
  <g transform="matrix(1 0 0 1 -32 -14 )">
    <path d="M 46.7259671827068 0  C 46.7206175839464 0  46.71526798838 0  46.7099184151786 0  L 5.38436766789596 0  C 5.37901809469407 0  5.37366849912867 0  5.36831890036776 0  C 2.50098181529626 0  0.176545841361551 2.32838012261988  0.176545841361551 5.20058256166147  C 0.176545841361551 5.20059084377287  0.176545841381303 5.20059912661007  1 5.20060740872147  L 1 39.5911677824286  C 0.187544010046245 42.4610141534609  2.50734611558915 44.7847525166373  5.3723311238354 44.7957693123287  L 13.573246253882 44.7957693123287  L 13.573246253882 52.3876553530562  C 13.573246253882 52.3876553530562  13.930331109278 54.8995287007432  16.3817787946429 54.9517756669817  C 18.8332264800078 55.0040226332202  19.9125054299301 52.7011371504872  19.9125054930124 52.7011371504872  L 27.1344463751941 44  L 46.7259671826475 44  C 46.725967676811 44.7957693123288  46.7259682387668 44.7957693123289  46.7259687329303 44.7957693123289  C 49.5933058180018 44.7957693123289  51.9177417919365 42.467389189709  51.9177417919365 39.5951867506675  C 51.9177417919365 39.5938470944389  51.9177412751756 39.5925074382571  52 39.5911677824286  L 52 5.20060740872147  C 51.9177402416932 5.20059912628781  51.917740241713 5.20059084409513  51.917740241713 5.20058256166147  C 51.917740241713 2.32838012261988  49.5933042677783 0  46.7259671827068 0  Z M 31.9891955065994 25  C 33.7618923319139 24.6364785966889  35.198947044837 26.0759717323175  35.198947044837 27.8516765044764  C 35.1989470099976 29.6273812519583  33.7618923072788 31.0668743490746  31.9891955065994 31  L 10.8690305755047 31  C 9.09633377482528 31.0668743490746  7.65927907210647 29.6273812519583  7.65927903726708 27.8516765044764  C 7.65927903726708 26.0759717323175  9.09633375019012 24.6364785966889  10.8690305755047 25  L 31.9891955065994 25  Z M 44.1270662115481 15.4068511823043  C 44.1270662115481 17.0661677365017  42.8664896612033 18.4529374490158  41.2172311238354 19  L 11.0576034986413 19  C 10.9579051296112 18.6173551176444  10.8578235149478 18.6220490900919  10.7576870481164 18.6220490900919  C 8.98499022280189 18.6220490900919  7.54793550987886 17.1825559544633  7.54793550987886 15.4068511823043  C 7.54793550987886 13.6311464101454  8.98499022280189 12.1916532745168  10.7576870481164 12.1916532745168  C 10.8578235149478 12.1916532745168  10.9579051296112 12.1963472469643  11.0576034986413 13  L 41.2172311238354 13  C 42.8664896612033 12.3607649155928  44.1270662115481 13.747534628107  44.1270662115481 15.4068511823043  Z " fill-rule="nonzero" fill="#fbd946" stroke="none" transform="matrix(1 0 0 1 32 14 )" />
  </g>
</svg>