<?xml version="1.0" encoding="utf-8"?>
<svg version="1.1" xmlns:xlink="http://www.w3.org/1999/xlink" width="38px" height="32px" xmlns="http://www.w3.org/2000/svg">
  <g transform="matrix(1 0 0 1 -35 -40 )">
    <path d="M 37.7872905927835 2.44427710843373  C 37.7872905927835 3.77710843373493  36.6854864690722 4.86144578313253  35.3311855670103 5  L 2.73614690721649 5  C 1.38184600515464 4.86144578313253  0.280041881443299 3.77710843373494  0.280041881443299 2.44427710843373  C 0.280041881443299 1.11144578313253  1.38184600515464 0.0271084337349343  2.73614690721649 0  L 35.3311855670103 0  C 36.6854864690722 0.0271084337349343  37.7872905927835 1.11144578313252  37.7872905927835 2.44427710843373  Z M 35.3311855670103 2  L 2.73614690721649 2  C 2.22350193298969 1.53313253012048  1.81032538659794 1.93975903614458  1.81032538659794 2.44427710843373  C 1.81032538659794 2.9487951807229  2.22350193298969 3.35542168674699  2.73614690721649 3.35542168674699  L 35.3311855670103 3.35542168674699  C 35.8361791237113 3.35542168674699  36.2570070876289 2.94126506024096  36.2570070876289 2.44427710843373  C 36.2570070876289 1.93975903614458  35.8438305412371 1.53313253012048  35.3311855670103 2  Z M 28.6744523195876 13.0542168674699  C 28.6744523195876 13.4683734939759  28.3301385309278 13.8072289156627  27.9093105670103 14  L 2.73614690721649 14  C 1.38184600515464 13.8072289156627  0.280041881443299 12.7228915662651  0.280041881443299 11.3900602409639  C 0.280041881443299 10.75  0.532538659793814 10.1400602409639  0.999275128865979 9.68072289156627  C 1.46601159793814 9.22138554216867  2.078125 8.97289156626506  2.73614690721649 9  L 31.2912371134021 9  C 31.7120650773196 8.97289156626506  32.0563788659794 9.31174698795181  32.0563788659794 9.72590361445783  C 32.0563788659794 10.1400602409639  31.7120650773196 10.4789156626506  31.2912371134021 11  L 2.73614690721649 11  C 2.49130154639175 10.4789156626506  2.26175902061856 10.5768072289157  2.08577641752577 10.75  C 1.90979381443299 10.9231927710843  1.81032538659794 11.1490963855422  1.81032538659794 11.3900602409639  C 1.81032538659794 11.894578313253  2.22350193298969 12.3012048192771  2.73614690721649 12.3012048192771  L 27.9093105670103 12.3012048192771  C 28.3301385309278 12.3012048192771  28.6744523195876 12.6400602409639  28.6744523195876 13.0542168674699  Z M 21.6198453608248 22.0075301204819  C 21.6198453608248 22.421686746988  21.2831829896907 22.7605421686747  20.8547036082474 22.7605421686747  L 2.73614690721649 22.7605421686747  C 1.38184600515464 22.7605421686747  0.280041881443299 21.6762048192771  0.280041881443299 20.3433734939759  C 0.280041881443299 19.703313253012  0.532538659793814 19.0933734939759  0.999275128865979 18.6340361445783  C 1.46601159793814 18.1746987951807  2.078125 17.9262048192771  2.73614690721649 18  L 22.1937016752577 18  C 22.6145296391753 17.9262048192771  22.9588434278351 18.2650602409639  22.9588434278351 18.6792168674699  C 22.9588434278351 19.0933734939759  22.6145296391753 19.4322289156627  22.1937016752577 19  L 2.73614690721649 19  C 2.49130154639175 19.4322289156627  2.26175902061856 19.5301204819277  2.08577641752577 19.703313253012  C 1.90979381443299 19.8765060240964  1.81032538659794 20.1024096385542  1.81032538659794 20.3433734939759  C 1.81032538659794 20.8478915662651  2.22350193298969 21.2545180722892  2.73614690721649 21  L 20.8547036082474 21  C 21.275531572165 21.2545180722892  21.6198453608248 21.5933734939759  21.6198453608248 22.0075301204819  Z M 19.6763853092783 29.296686746988  C 19.6687338917526 30.6295180722892  18.5669297680412 31.7138554216867  17.2202802835052 31.7138554216867  L 2.73614690721649 31.7138554216867  C 1.38184600515464 31.7138554216867  0.280041881443299 30.6295180722892  0.280041881443299 29.296686746988  C 0.280041881443299 27.9638554216867  1.38184600515464 26.8795180722892  2.73614690721649 26.8795180722892  L 17.2202802835052 26.8795180722892  C 18.574581185567 26.8795180722892  19.6763853092783 27.9638554216867  19.6763853092783 29.296686746988  Z M 17.2202802835052 28  L 2.73614690721649 28  C 2.22350193298969 28.3855421686747  1.81032538659794 28.7921686746988  1.81032538659794 29.296686746988  C 1.81032538659794 29.8012048192771  2.22350193298969 30.2078313253012  2.73614690721649 30  L 17.2202802835052 30  C 17.7252738402062 30.2078313253012  18.1384503865979 29.7936746987952  18.1461018041237 29.289156626506  C 18.1461018041237 28.7921686746988  17.732925257732 28.3855421686747  17.2202802835052 28  Z " fill-rule="nonzero" fill="#6a7d84" stroke="none" transform="matrix(1 0 0 1 35 40 )" />
  </g>
</svg>