<?xml version="1.0" encoding="utf-8"?>
<svg version="1.1" xmlns:xlink="http://www.w3.org/1999/xlink" width="14px" height="14px" xmlns="http://www.w3.org/2000/svg">
  <g transform="matrix(1 0 0 1 -73 -38 )">
    <path d="M 11.015625 13.5125  C 10.8671875 13.6609375  10.6640625 13.7390625  10.46875 13.7390625  C 10.265625 13.7390625  10.0703125 13.6609375  9.9140625 13.5125  L 0.6171875 4.21562500000001  C 0.3125 3.91093750000001  0.3125 3.41875000000001  0.6171875 3.1140625  L 2.1171875 1.6140625  C 4.0234375 -0.292187499999994  7.1171875 -0.292187499999994  9.015625 1.6140625  L 12.5234375 5.121875  C 14.4296875 7.028125  14.4296875 10.121875  12.5234375 12.0203125  L 11.015625 13.5125  Z M 3.21875 2.715625  L 2.2734375 3.6609375  L 10.46875 11.85625  L 11.421875 10.9109375  C 12.7109375 9.621875  12.7109375 7.5125  11.421875 6.2234375  L 7.9140625 2.715625  C 6.6171875 1.41875  4.515625 1.41875  3.21875 2.715625  Z " fill-rule="nonzero" fill="#d30032" stroke="none" transform="matrix(1 0 0 1 73 38 )" />
  </g>
</svg>