<?xml version="1.0" encoding="utf-8"?>
<svg version="1.1" xmlns:xlink="http://www.w3.org/1999/xlink" width="14px" height="14px" xmlns="http://www.w3.org/2000/svg">
  <g transform="matrix(1 0 0 1 -38 -52 )">
    <path d="M 6.76964962121212 13.1879734848485  C 6.47964015151515 13.4779829545455  6.09848484848484 13.6271306818182  5.71732954545455 13.6271306818182  C 5.33617424242424 13.6271306818182  4.95501893939394 13.4779829545455  4.66500946969697 13.1879734848485  L 0.820312500000006 9.34327651515152  C 0.240293560606067 8.76325757575758  0.240293560606067 7.8186553030303  0.820312500000006 7.23035037878788  L 7.41595643939394 0.634706439393939  C 7.70596590909091 0.34469696969697  8.08712121212122 0.195549242424248  8.46827651515152 0.195549242424248  C 8.84943181818182 0.195549242424248  9.23058712121212 0.34469696969697  9.52059659090909 0.634706439393939  L 13.3652935606061 4.47940340909091  C 13.9453125 5.05942234848485  13.9453125 6.00402462121212  13.3652935606061 6.59232954545455  L 6.76964962121212 13.1879734848485  Z " fill-rule="nonzero" fill="#f56e73" stroke="none" transform="matrix(1 0 0 1 38 52 )" />
  </g>
</svg>