<?xml version="1.0" encoding="utf-8"?>
<svg version="1.1" xmlns:xlink="http://www.w3.org/1999/xlink" width="27px" height="9px" xmlns="http://www.w3.org/2000/svg">
  <g transform="matrix(1 0 0 1 -41 -14 )">
    <path d="M 0.113111413043478 2.49609375  L 0.113111413043478 6.71484375  C 0.113111413043478 7.88417119565217  1.05315896739131 8.82421875  2.22248641304348 8.82421875  C 3.39181385869566 8.82421875  4.33186141304348 7.88417119565217  4.33186141304348 6.71484375  L 4.33186141304348 2.49609375  C 4.33186141304348 1.32676630434783  3.39181385869566 0.38671875  2.22248641304348 0.38671875  C 1.05315896739131 0.38671875  0.113111413043478 1.32676630434783  0.113111413043478 2.49609375  Z M 11.4242527173913 2.49609375  L 11.4242527173913 6.71484375  C 11.4242527173913 7.88417119565217  12.3643002717391 8.82421875  13.5336277173913 8.82421875  C 14.7029551630435 8.82421875  15.6430027173913 7.88417119565217  15.6430027173913 6.71484375  L 15.6430027173913 2.49609375  C 15.6430027173913 1.32676630434783  14.7029551630435 0.38671875  13.5336277173913 0.38671875  C 12.3643002717391 0.38671875  11.4242527173913 1.32676630434783  11.4242527173913 2.49609375  Z M 22.7277513586957 2.49609375  L 22.7277513586957 6.71484375  C 22.7277513586957 7.88417119565217  23.6677989130435 8.82421875  24.8371263586957 8.82421875  C 26.0064538043478 8.82421875  26.9465013586957 7.88417119565217  26.9465013586957 6.71484375  L 26.9465013586957 2.49609375  C 26.9465013586957 1.32676630434783  26.0064538043478 0.38671875  24.8371263586957 0.38671875  C 23.6677989130435 0.38671875  22.7277513586957 1.32676630434783  22.7277513586957 2.49609375  Z " fill-rule="nonzero" fill="#50e6cc" stroke="none" transform="matrix(1 0 0 1 41 14 )" />
  </g>
</svg>