<?xml version="1.0" encoding="utf-8"?>
<svg version="1.1" xmlns:xlink="http://www.w3.org/1999/xlink" width="29px" height="40px" xmlns="http://www.w3.org/2000/svg">
  <g transform="matrix(1 0 0 1 -59 -20 )">
    <path d="M 14.9727644192708 0.141714285714271  C 14.9727644192708 0.141714285714271  29.4511110859375 11.1207619047619  28.59168 24.3271110863095  L 28.59168 25.7605079613095  C 27.8243900387226 26.3352930277662  26.8440706571091 26.5590021582158  25.8984177526042 26.3751110863095  C 24.9507381625694 26.1888662478728  24.1282919541367 25.6140706802924  23.6366755807292 24.7944127232143  L 23.44592 24.4769523809524  C 23.3882212003576 24.3818200161165  23.2840156653912 24.3235693304828  23.171530734791 24.3235693304828  C 23.0212253512194 24.3235693304828  22.8912248188061 24.4267409407722  22.8592177526042 24.5714285714286  L 21.4342222473958 30.9556825148809  C 21.4136 34.5351110863095  20.511377828125 37.0849523809524  18.7497244192708 38.5340952380952  C 17.6060660123117 39.4685749436807  16.1224187095471 39.8980716050928  14.6474489140625 39.7216508184524  C 13.9521795198715 39.6961150482442  13.2975459856571 39.3923458936802  12.8347555807292 38.8805079613095  C 11.54896 37.5146666666667  11.3128355807292 34.5889523809524  11.3210844192708 32.5008253720238  C 11.3245174007582 32.1443925184485  11.0827804900248 31.8308093541553  10.7333510859375 31.7384127232143  C 9.36075215452922 31.3632386585956  8.14285140103038 30.5718931781807  7.25231999999999 29.4765714285714  C 6.30575999999999 28.3382857142857  4.82095999999999 27.322920610119  4.01978666666666 26.8165079613095  C 3.15184279461073 26.2708788219663  2.45134001488234 25.5024058572764  1.99365333333333 24.5937777529762  L 0.706826666666662 22.0312380952381  C 0.348657404151882 21.3208414713312  0.207696798863171 20.5232226663768  0.30108441927083 19.7353651041667  C 0.604746666666664 17.2017778273809  1.85548441927083 14.144  2.85205333333334 12.0213333333333  C 3.18351375934401 11.3139616020433  3.88534278707057 10.8456245038541  4.67505775260417 10.8048253720238  C 5.46426748563976 10.7675205893216  6.20932912380755 11.1646749894377  6.60942224739584 11.8359365327381  L 7.71786666666667 13.6756825148809  C 7.89418666666667 13.9702857142857  8.24115558072917 14.1175872767857  8.57678224739584 14.0398729910714  C 8.88102613539866 13.9898140579269  9.11569489583877 13.748695850314  9.15368891406251 13.4471110863095  L 9.17070224739584 13.3191110863095  C 9.41198224739584 11.2223491815476  10.7874844947917 9.42526979166665  12.7538133333333 8.63695238095237  L 15.3403555807292 7.6063491815476  C 16.5075733333333 6.75961904761903  15.59504 3.07149203869046  14.8284089140625 1.2469841517857  C 14.6741953350768 0.879406484288406  14.7291222688728 0.458853872367873  14.9727644192708 0.141714285714271  Z " fill-rule="nonzero" fill="#dbf083" stroke="none" transform="matrix(1 0 0 1 59 20 )" />
  </g>
</svg>