<?xml version="1.0" encoding="utf-8"?>
<svg version="1.1" xmlns:xlink="http://www.w3.org/1999/xlink" width="17px" height="9px" xmlns="http://www.w3.org/2000/svg">
  <g transform="matrix(1 0 0 1 -69 -40 )">
    <path d="M 16.8183225235849 8.16252790178571  C 16.9812057783019 8.42619977678572  16.7869988207547 8.77148437500001  16.4737617924528 8.77148437500001  L 8.88716096698113 8.77148437500001  C 8.66789504716981 8.77148437500001  8.48621757075472 8.58942522321429  8.48621757075472 8.36969866071429  L 8.48621757075472 0.528599330357143  C 8.48621757075472 0.308872767857143  8.66789504716981 0.126813616071429  8.88716096698113 0.126813616071429  L 11.7313531839623 0.126813616071429  C 11.8691774764151 0.126813616071429  12.0007370283019 0.2021484375  12.0759139150943 0.321428571428571  L 16.8183225235849 8.16252790178571  Z M 7.78456662735849 8.03069196428571  C 7.78456662735849 8.43875558035714  7.45253537735849 8.77148437499999  7.04532724056604 8.77148437500001  L 1.03117629716981 8.77148437500001  C 0.623968160377358 8.77148437500001  0.291936910377358 8.43875558035715  0.291936910377358 8.03069196428572  L 0.291936910377358 0.861328125  C 0.291936910377358 0.453264508928571  0.623968160377358 0.120535714285714  1.03117629716981 0.120535714285714  L 7.04532724056604 0.120535714285714  C 7.45253537735849 0.120535714285714  7.78456662735849 0.453264508928571  7.78456662735849 0.861328125  L 7.78456662735849 8.03069196428571  Z " fill-rule="nonzero" fill="#a5e0ef" stroke="none" transform="matrix(1 0 0 1 69 40 )" />
  </g>
</svg>