<?xml version="1.0" encoding="utf-8"?>
<svg version="1.1" xmlns:xlink="http://www.w3.org/1999/xlink" width="11px" height="11px" xmlns="http://www.w3.org/2000/svg">
  <g transform="matrix(1 0 0 1 -69 -58 )">
    <path d="M 7.1771240234375 10.5233154296875  C 9.9432373046875 9.5162353515625  11.373291015625 6.45471191406249  10.3662109375 3.681884765625  C 9.359130859375 0.9090576171875  6.2908935546875 -0.52099609375  3.5247802734375 0.4927978515625  C 0.75195312500001 1.4998779296875  -0.6781005859375 4.568115234375  0.335693359375 7.334228515625  C 1.3427734375 10.1070556640625  4.41101074218751 11.537109375  7.1771240234375 10.5233154296875  Z M 8.80859375 4.2525634765625  C 9.5068359375 6.1593017578125  8.5198974609375 8.274169921875  6.6064453125 8.97241210937499  C 4.6929931640625 9.67065429687499  2.578125 8.6837158203125  1.8865966796875 6.770263671875  C 1.18835449218751 4.8568115234375  2.17529296875 2.741943359375  4.0887451171875 2.0504150390625  C 6.002197265625 1.3521728515625  8.1170654296875 2.339111328125  8.80859375 4.2525634765625  Z " fill-rule="nonzero" fill="#4d4d4d" stroke="none" transform="matrix(1 0 0 1 69 58 )" />
  </g>
</svg>