<?xml version="1.0" encoding="utf-8"?>
<svg version="1.1" xmlns:xlink="http://www.w3.org/1999/xlink" width="27px" height="27px" xmlns="http://www.w3.org/2000/svg">
  <g transform="matrix(1 0 0 1 -26 -50 )">
    <path d="M 7.63727678571429 25.3811383928571  C 6.83370535714286 26.1847098214286  5.76227678571429 26.6283482142857  4.62388392857143 26.6283482142857  C 3.48549107142857 26.6283482142857  2.42243303571429 26.1847098214286  1.61886160714286 25.3811383928571  C -0.0385044642857158 23.7237723214286  -0.0385044642857158 21.0200892857143  1.61886160714286 19.3627232142857  L 20.1930803571429 0.788504464285727  C 20.51953125 0.462053571428584  20.9547991071429 0.286272321428584  21.4068080357143 0.286272321428584  C 21.8588169642857 0.286272321428584  22.2940848214286 0.462053571428584  22.6205357142857 0.788504464285727  L 26.203125 4.37109375000001  C 26.5295758928571 4.69754464285715  26.7053571428571 5.13281250000001  26.7053571428571 5.59319196428572  C 26.7053571428571 6.05357142857144  26.5212053571429 6.4888392857143  26.203125 6.80691964285715  L 7.63727678571429 25.3811383928571  Z " fill-rule="nonzero" fill="#fcc66f" stroke="none" transform="matrix(1 0 0 1 26 50 )" />
  </g>
</svg>