<?xml version="1.0" encoding="utf-8"?>
<svg version="1.1" xmlns:xlink="http://www.w3.org/1999/xlink" width="31px" height="44px" xmlns="http://www.w3.org/2000/svg">
  <g transform="matrix(1 0 0 1 -58 -19 )">
    <path d="M 17.3413495688834 1.67837678668476  C 17.2239024390244 1.58144922554346  17.1271219512195 1.50237678668476  17.0515121951219 1.44217973505435  L 15.5488943335556 0.269866691576087  L 14.4575934713224 1.72786086956522  C 13.8465847378674 2.54372946672526  13.70829700185 3.62610562322774  14.0941626262386 4.57242896059783  C 14.447512195122 5.43763478260869  14.7817073170732 6.64565792119565  14.9178048780488 7.63329852581522  L 14.9480487804878 7.88071886548913  C 14.9833333579459 8.20006956521739  14.9929105444931 8.47656816576087  14.9798048780488 8.6944  L 14.9747642030297 8.7382724388587  L 13.0850243902439 9.51369277853261  L 12.8108129835175 9.63357678668478  C 11.2960848204897 10.3331635198583  10.0609241942859 11.5325005133023  9.30756097560976 13.0352232133152  L 9.24858536585366 13.1581680910326  L 9.13567482136052 13.0025739130435  C 8.41061307717898 12.0634017920961  7.29858203266219 11.514507034778  6.12093193506707 11.514507034778  C 4.63094467413108 11.514507034778  3.27649905848589 12.3899804966615  2.64986994331174 13.7580985258152  C 1.28990243902439 16.7368347826087  0.329154520769817 19.536  0.0539349347370465 21.9000115692935  C -0.0756097560975621 23.0223304347826  0.119463414634147 24.154852173913  0.614455309165403 25.1639188654891  L 1.84588615424925 27.6845449524457  C 2.37457450975905 28.7640317030746  3.15903615777292 29.6943068420167  4.12930078839558 30.3923941779891  L 4.42468292682927 30.5939014741848  C 5.50388615424924 31.2948406046196  6.50143091892149 32.0937275611413  7.10126829268293 32.8359884307065  L 7.32305688595656 33.103814517663  C 8.15562672535649 34.0675781571373  9.19543220983973 34.8253380163729  10.3625690810785 35.3188637432065  L 10.6060324957127 35.4147710394022  L 10.608552870141 35.5224115692935  C 10.6781138457508 38.4322782608696  11.1912520817454 40.7315013994565  12.5219837152249 42.1849043478261  L 12.6999187237996 42.3736579959239  C 13.3883371136236 43.0555754566616  14.2862404573642 43.4790751712582  15.2449431140435 43.5740289605978  L 15.4133007883956 43.58576234375  L 15.3427317073171 43.5786202649456  C 17.2513889485998 43.8186441095725  19.1731593589241 43.2492282616036  20.652552870141 42.0053333084239  L 20.887447129859 41.7977043478261  C 22.8069268292683 40.0290319089674  23.7686829268293 37.2523130434782  23.8589105444931 33.6139593953804  L 23.8624390243903 33.3670493002717  L 24.6145040896532 29.9057159171195  L 24.6714634146342 29.9373449524456  C 26.3950524112489 30.8401447006141  28.4782295201062 30.6578499960316  30.0231219512195 29.4690319089674  L 30.7237723823361 28.9308289605978  L 30.7237723823361 26.6331362567935  C 31.1219837890625 20.3915130434782  28.4605203744284 14.1784579959239  23.8261463414634 8.35056234374998  C 22.0360846768389 6.10552126365671  20.0495808218803 4.02846814033357  17.8907804878049 2.14464930027172  L 17.3413495688834 1.67837678668476  Z M 18.5914309189215 7.34965799592391  L 18.9291544469322 7.70522896059783  C 19.6710706654346 8.50178383746567  20.3829823235747 9.32642622658595  21.0633658536585 10.1773913043478  L 21.4363739591273 10.6508058220109  C 25.356487804878 15.7053217391304  27.5441300566883 20.9659362567935  27.216487804878 26.1168695652174  L 27.2144715201029 26.5035593953804  L 27.1131544469322 26.5158028736413  C 26.9974637765956 26.5214737453623  26.8815207022585 26.5129086761405  26.7678699433117 26.4902956521739  C 26.3562041811604 26.4060660340556  25.9993648130023 26.1486098928362  25.7864553091654 25.782214517663  L 25.6039837152248 25.4710260869565  C 25.1570347722596 24.71875740635  24.3019148063554 24.3184865191214  23.4460812762004 24.4609391304348  C 22.6018499242774 24.5977219627901  21.9242792527776 25.2396601029691  21.7337723823361 26.0832  L 20.3198699433117 32.5666319089674  L 20.3188617640053 32.7543652173913  C 20.3017235280106 35.80656234375  19.6025853658536 37.8262260869565  18.3711544469321 38.8628406046196  C 17.7580667083539 39.3746397458958  16.9873174171438 39.6531244008088  16.1925853658536 39.6499941779891  L 15.9970081054687 39.6443826086957  L 15.6441626262385 39.6127536480978  C 15.4648721924494 39.6050505953405  15.2964595241191 39.5236059918654  15.1779024390244 39.3872695652174  C 14.5216097560975 38.6730666915761  14.1617073170732 36.7161506997283  14.1707804878049 34.2944927785326  C 14.1737133357703 33.1988100295618  13.4889062475952 32.2221224183071  12.4660324957126 31.8631420040761  L 12.2704553091654 31.8019246127717  C 11.4187066411999 31.5606810418965  10.6512984338812 31.081564129408  10.0560975609756 30.4194319089674  L 9.86152847989708 30.1898666915761  C 8.95269921160439 29.0711188654891  7.69908945550684 28.0717449524457  6.31744712985897 27.1784811345109  C 5.7541707748686 26.8164469354075  5.29927230083398 26.3056132706849  5.00183737376141 25.7011014741848  L 3.76385365853657 23.1784347826087  C 3.5701622339018 22.7863638839304  3.49378026453222 22.3455934813835  3.54408127620044 21.910214517663  C 3.76637395912727 20.0099246875  4.62933328410822 17.5091942527174  5.85017883717605 14.8477680910326  C 5.88759659157714 14.7606513305075  5.96934677993099 14.7014420098891  6.06289433355562 14.6937043478261  C 6.15511974540351 14.6919068684269  6.24064952549679 14.7422698890557  6.28468292682925 14.8243014741848  L 7.35430896770196 16.6404173913044  L 7.45965853658535 16.8057043478261  C 8.0217915376803 17.6116664481254  8.98644465298116 18.0258973452535  9.94973981278581 17.8749680910326  L 10.0218211628239 17.8611941779891  C 11.095509113531 17.6882523270008  11.9287443848492 16.8208848139332  12.0693333579459 15.7298086956522  L 12.0844553091654 15.6099246127717  C 12.2482764719893 14.1611130434783  13.1530731707317 12.9510492255435  14.4369268292683 12.4240695652174  L 17.1351870164825 11.3241971263587  L 17.3176585365854 11.1890086956522  C 18.32679677258 10.4396058220109  18.6826666420541 9.11475939538043  18.605040675019 7.55320582201087  L 18.5914309189215 7.34914782608695  Z " fill-rule="nonzero" fill="#7b7ba3" stroke="none" transform="matrix(1 0 0 1 58 19 )" />
  </g>
</svg>