<?xml version="1.0" encoding="utf-8"?>
<svg version="1.1" xmlns:xlink="http://www.w3.org/1999/xlink" width="27px" height="26px" xmlns="http://www.w3.org/2000/svg">
  <g transform="matrix(1 0 0 1 -55 -43 )">
    <path d="M 10.6554008152174 25.6669347426471  C 10.5101902173913 25.8088235294118  10.3114809782609 25.8835018382353  10.1127717391304 25.8835018382353  C 9.9140625 25.8835018382353  9.72299592391304 25.8088235294118  9.57014266304348 25.6669347426471  L 0.475373641304348 16.7802159926471  C 0.177309782608701 16.4889705882353  0.177309782608701 16.0184972426471  0.475373641304348 15.7272518382353  L 16.3186141304348 0.246438419117647  C 16.6166779891304 -0.0448069852941176  17.0981657608696 -0.0448069852941176  17.3962296195652 0.246438419117647  L 26.4909986413044 9.13315716911764  C 26.7890625 9.4244025735294  26.7890625 9.89487591911764  26.4909986413044 10.1861213235294  L 10.6554008152174 25.6669347426471  Z M 16.8612432065217 1.82961856617647  L 2.10326086956522 16.25  L 10.1204144021739 24.0837545955882  L 24.8783967391304 9.6633731617647  L 16.8612432065217 1.82961856617647  Z " fill-rule="nonzero" fill="#00a4ff" stroke="none" transform="matrix(1 0 0 1 55 43 )" />
  </g>
</svg>