<?xml version="1.0" encoding="utf-8"?>
<svg version="1.1" xmlns:xlink="http://www.w3.org/1999/xlink" width="11px" height="11px" xmlns="http://www.w3.org/2000/svg">
  <g transform="matrix(1 0 0 1 -32 -58 )">
    <path d="M 7.2603759765625 10.5233154296875  C 10.033203125 9.5162353515625  11.4632568359375 6.45471191406249  10.449462890625 3.681884765625  C 9.4423828125 0.9090576171875  6.3741455078125 -0.52099609375  3.6080322265625 0.4927978515625  C 0.835205078124999 1.4998779296875  -0.594848632812501 4.568115234375  0.418945312499998 7.334228515625  C 1.426025390625 10.1070556640625  4.4942626953125 11.537109375  7.2603759765625 10.5233154296875  Z M 8.8985595703125 4.2525634765625  C 9.590087890625 6.1593017578125  8.6031494140625 8.274169921875  6.6964111328125 8.97241210937499  C 4.782958984375 9.67065429687499  2.6680908203125 8.6837158203125  1.9765625 6.770263671875  C 1.2783203125 4.8568115234375  2.2652587890625 2.741943359375  4.1787109375 2.0504150390625  C 6.0921630859375 1.3521728515625  8.20703125 2.339111328125  8.8985595703125 4.2525634765625  Z " fill-rule="nonzero" fill="#4d4d4d" stroke="none" transform="matrix(1 0 0 1 32 58 )" />
  </g>
</svg>