<?xml version="1.0" encoding="utf-8"?>
<svg version="1.1" xmlns:xlink="http://www.w3.org/1999/xlink" width="65px" height="65px" xmlns="http://www.w3.org/2000/svg">
  <g transform="matrix(1 0 0 1 -25 -14 )">
    <path d="M 0.142745122931985 32.5152941176471  C 0.142745122931985 14.6364705882353  14.6364705882353 0.142745122931985  32.5152941176471 0.142745122931985  C 50.3941176470588 0.142745122931985  64.8878431123621 14.6364705882353  64.8878431123621 32.5152941176471  C 64.8878431123621 50.3941176470588  50.3941176470588 64.8878431123621  32.5152941176471 64.8878431123621  C 14.6364705882353 64.8878431123621  0.142745122931985 50.3941176470588  0.142745122931985 32.5152941176471  Z M 32.5152941176471 3.81129411764706  C 16.6624313476563 3.81129411764706  3.81129411764705 16.6624313476563  3.81129411764705 32.5147842888327  C 3.81129411764705 48.3676470588235  16.6624313476562 61.2187842888327  32.5147842888327 61.2187842888327  C 48.3676470588235 61.2187842888327  61.2187842888327 48.3676470588235  61.2187842888327 32.5147842888327  C 61.2187842888327 16.6624313476563  48.3676470588235 3.81129411764706  32.5147842888327 3.81129411764706  Z " fill-rule="nonzero" fill="#7b7ba3" stroke="none" transform="matrix(1 0 0 1 25 14 )" />
  </g>
</svg>