<?xml version="1.0" encoding="utf-8"?>
<svg version="1.1" xmlns:xlink="http://www.w3.org/1999/xlink" width="27px" height="15px" xmlns="http://www.w3.org/2000/svg">
  <g transform="matrix(1 0 0 1 -33 -34 )">
    <path d="M 5 12.7036236702128  C 4.51101280120482 13.8443317819149  3.56433546686747 14.7731050531915  2.40799134036145 14.7731050531915  L 2.22373870481928 14.7731050531915  C 1.06739457831325 14.7731050531915  0.120717243975904 13.8443317819149  0.120717243975904 12.7098570478723  L 0.120717243975904 2.35621675531915  C 0.120717243975904 1.2217420212766  1.06739457831325 0.292968749999998  2.22373870481928 0.292968749999998  L 2.40799134036145 0.292968749999998  C 3.56433546686747 0.292968749999998  4.51101280120482 1.22174202127659  5 2.35621675531915  L 5 12.7036236702128  Z M 15.718655873494 12.7036236702128  C 15.718655873494 13.8443317819149  14.7719785391566 14.7731050531915  13.6156344126506 14.7731050531915  L 13.4313817771084 14.7731050531915  C 12.2750376506024 14.7731050531915  11.3283603162651 13.8443317819149  11.3283603162651 12.7098570478723  L 11.3283603162651 2.35621675531915  C 11.3283603162651 1.2217420212766  12.2750376506024 0.292968749999998  13.4313817771084 0.292968749999998  L 13.6156344126506 0.292968749999998  C 14.7719785391566 0.292968749999998  15.718655873494 1.22174202127659  15.718655873494 2.35621675531915  L 15.718655873494 12.7036236702128  Z M 26.792874623494 12.7036236702128  C 26.792874623494 13.8443317819149  25.8461972891566 14.7731050531915  24.6898531626506 14.7731050531915  L 24.5056005271084 14.7731050531915  C 23.3492564006024 14.7731050531915  22.4025790662651 13.8443317819149  22 12.7098570478723  L 22 2.35621675531915  C 22.4025790662651 1.2217420212766  23.3492564006024 0.292968749999998  24.5056005271084 0.292968749999998  L 24.6898531626506 0.292968749999998  C 25.8461972891566 0.292968749999998  26.792874623494 1.22174202127659  26.792874623494 2.35621675531915  L 26.792874623494 12.7036236702128  Z " fill-rule="nonzero" fill="#683e00" stroke="none" transform="matrix(1 0 0 1 33 34 )" />
  </g>
</svg>