<?xml version="1.0" encoding="utf-8"?>
<svg version="1.1" xmlns:xlink="http://www.w3.org/1999/xlink" width="50px" height="60px" xmlns="http://www.w3.org/2000/svg">
  <g transform="matrix(1 0 0 1 -29 -19 )">
    <path d="M 23.7009447674419 0.772681451612902  C 23.7009447674419 1.18850806451613  23.3602834302326 1.52872983870968  22.9439195736434 1.52872983870968  L 15.9187257751938 1.52872983870968  C 15.5023619186047 1.52872983870968  15.1617005813953 1.18850806451613  15.1617005813953 0.772681451612902  C 15.1617005813953 0.356854838709676  15.5023619186047 0.0166330645161277  15.9187257751938 0.0166330645161277  L 22.9439195736434 0.0166330645161277  C 23.3602834302326 0.0166330645161277  23.7009447674419 0.356854838709676  23.7009447674419 0.772681451612902  Z M 49.8334544573643 19.5453629032258  C 49.8334544573643 19.961189516129  49.492793120155 20.3014112903226  49.0764292635659 20.3014112903226  C 48.6600654069767 20.3014112903226  48.3194040697674 19.961189516129  48.3194040697674 19.5453629032258  L 48.3194040697674 11.2137096774194  C 48.3194040697674 11.1759072580645  48.3194040697674 11.1381048387097  48.3269743217054 11.1078629032258  L 48.3269743217054 4.9460685483871  C 48.3269743217054 3.06350806451613  46.7902131782946 1.52872983870968  44.9052204457364 1.52872983870968  L 38.3191012596899 1.52872983870968  C 37.9027374031008 1.52872983870968  37.5620760658915 1.18850806451613  37.5620760658915 0.772681451612906  C 37.5620760658915 0.35685483870968  37.9027374031008 0.0166330645161318  38.3191012596899 0.0166330645161318  L 44.9052204457364 0.0166330645161318  C 47.6305111434109 0.0166330645161318  49.8410247093023 2.22429435483871  49.8410247093023 4.9460685483871  L 49.8410247093023 11.2137096774194  C 49.8410247093023 11.2515120967742  49.8410247093023 11.289314516129  49.8334544573643 11.3195564516129  L 49.8334544573643 19.5453629032258  Z M 49 55.0645161290323  C 49.8334544573643 57.7862903225806  47.6229408914729 59.9939516129032  44.8976501937984 60  L 5.16896802325581 60  C 2.4436773255814 59.9939516129032  0.233163759689924 57.7862903225806  1 55.0645161290323  L 1 8.80191532258064  C 0.233163759689924 8.7641129032258  0.233163759689924 8.72631048387096  0.240734011627907 8.6960685483871  L 0.240734011627907 4.9460685483871  C 0.240734011627907 2.22429435483871  2.45124757751938 0.0166330645161277  5.1765382751938 0.0166330645161277  L 11.7399467054264 0.0166330645161277  C 12.1563105620155 0.0166330645161277  12.4969718992248 0.356854838709676  12.4969718992248 0.772681451612902  C 12.4969718992248 1.18850806451613  12.1563105620155 1.52872983870968  11.7399467054264 1.52872983870968  L 5.1765382751938 1.52872983870968  C 3.29154554263566 1.52872983870968  1.75478439922481 3.06350806451613  1.75478439922481 4.94606854838709  L 1.75478439922481 8.80191532258064  C 1.75478439922481 8.83971774193548  1.75478439922481 8.87752016129032  2 8.90776209677419  L 2 55.0645161290323  C 1.74721414728682 56.9470766129032  3.28397529069768 58.4818548387097  5.16896802325582 58  L 44.8976501937984 58  C 46.7826429263566 58.4818548387097  48.3194040697674 56.9470766129032  48 55.0645161290323  L 48 36.375  C 48.3194040697674 35.9591733870968  48.6600654069767 35.6189516129032  49.0764292635659 35.6189516129032  C 49.492793120155 35.6189516129032  49.8334544573643 35.9591733870968  49 36.375  L 49 55.0645161290323  Z M 34.8973473837209 0.772681451612902  C 34.8973473837209 1.18850806451613  34.5566860465116 1.52872983870968  34.1403221899225 1.52872983870968  L 27.1226986434109 1.52872983870968  C 26.7063347868217 1.52872983870968  26.3656734496124 1.18850806451613  26.3656734496124 0.772681451612902  C 26.3656734496124 0.356854838709676  26.7063347868217 0.0166330645161277  27.1226986434109 0.0166330645161277  L 34.1403221899225 0.0166330645161277  C 34.5566860465116 0.0166330645161277  34.8973473837209 0.356854838709676  34.8973473837209 0.772681451612902  Z " fill-rule="nonzero" fill="#f7d59f" stroke="none" transform="matrix(1 0 0 1 29 19 )" />
  </g>
</svg>