<?xml version="1.0" encoding="utf-8"?>
<svg version="1.1" xmlns:xlink="http://www.w3.org/1999/xlink" width="28px" height="10px" xmlns="http://www.w3.org/2000/svg">
  <g transform="matrix(1 0 0 1 -40 -14 )">
    <path d="M 5.76241438356164 6.98467548076923  C 5.76241438356164 8.53966346153846  4.49636130136986 9.80919471153846  2.94563356164384 9.80919471153846  C 1.39490582191781 9.80919471153846  0.128852739726025 8.53966346153846  0.128852739726025 6.98467548076923  L 0.128852739726025 2.83804086538462  C 0.128852739726025 1.28305288461538  1.3949058219178 0.0135216346153846  2.94563356164384 0.0135216346153846  C 4.49636130136986 0.0135216346153846  5.76241438356164 1.28305288461538  5.76241438356164 2.83804086538462  L 5.76241438356164 6.98467548076923  Z M 4.26412671232877 2.83804086538461  C 4.26412671232877 2.109375  3.67230308219178 1.51592548076923  2.94563356164384 1.51592548076923  C 2.21896404109589 1.51592548076923  1.6271404109589 2.109375  1.6271404109589 2.83804086538461  L 1.6271404109589 6.98467548076923  C 1.6271404109589 7.71334134615384  2.21896404109588 8.30679086538461  2.94563356164384 8.30679086538461  C 3.67230308219178 8.30679086538461  4.26412671232877 7.71334134615384  4.26412671232877 6.98467548076923  L 4.26412671232877 2.83804086538461  Z M 16.8497431506849 6.98467548076923  C 16.8497431506849 8.53966346153846  15.5836900684931 9.80919471153846  14.0329623287671 9.80919471153846  C 12.4822345890411 9.80919471153846  11.2161815068493 8.53966346153846  11.2161815068493 6.98467548076923  L 11.2161815068493 2.83804086538462  C 11.2161815068493 1.28305288461538  12.4822345890411 0.0135216346153846  14.0329623287671 0.0135216346153846  C 15.5836900684931 0.0135216346153846  16.8497431506849 1.28305288461538  16.8497431506849 2.83804086538462  L 16.8497431506849 6.98467548076923  Z M 15.3514554794521 2.83804086538461  C 15.3514554794521 2.109375  14.7596318493151 1.51592548076923  14.0329623287671 1.51592548076923  C 13.3062928082192 1.51592548076923  12.7144691780822 2.109375  12.7144691780822 2.83804086538461  L 12.7144691780822 6.98467548076923  C 12.7144691780822 7.71334134615384  13.3062928082192 8.30679086538461  14.0329623287671 8.30679086538461  C 14.7596318493151 8.30679086538461  15.3514554794521 7.71334134615384  15.3514554794521 6.98467548076923  L 15.3514554794521 2.83804086538461  Z M 27.9295804794521 6.98467548076923  C 27.9295804794521 8.53966346153846  26.6635273972603 9.80919471153846  25.1127996575342 9.80919471153846  C 23.5620719178082 9.80919471153846  22.2960188356164 8.53966346153846  22.2960188356164 6.98467548076923  L 22.2960188356164 2.83804086538462  C 22.2960188356164 1.28305288461538  23.5620719178082 0.0135216346153846  25.1127996575342 0.0135216346153846  C 26.6635273972603 0.0135216346153846  27.9295804794521 1.28305288461538  27.9295804794521 2.83804086538461  L 27.9295804794521 6.98467548076923  Z M 26.4312928082192 2.83804086538461  C 26.4312928082192 2.109375  25.8394691780822 1.51592548076923  25.1127996575342 1.51592548076923  C 24.3861301369863 1.51592548076923  23.7943065068493 2.109375  23.7943065068493 2.83804086538461  L 23.7943065068493 6.98467548076923  C 23.7943065068493 7.71334134615384  24.3861301369863 8.30679086538461  25.1127996575342 8.30679086538461  C 25.8394691780822 8.30679086538461  26.4312928082192 7.71334134615384  26.4312928082192 6.98467548076923  L 26.4312928082192 2.83804086538461  Z " fill-rule="nonzero" fill="#00b794" stroke="none" transform="matrix(1 0 0 1 40 14 )" />
  </g>
</svg>