<?xml version="1.0" encoding="utf-8"?>
<svg version="1.1" xmlns:xlink="http://www.w3.org/1999/xlink" width="62px" height="8px" xmlns="http://www.w3.org/2000/svg">
  <g transform="matrix(1 0 0 1 -27 -55 )">
    <path d="M 61.9474619708995 4.7025  C 61.9474619708995 4.215  61.575851521164 3.82125  61.0953207671958 3.75875  L 54.7971643518519 3.75875  L 54.6946511243386 3.6275  L 54.8291997354497 3.75875  C 53.0031828703704 1.49625  50.1712549603175 0.04  46.9869378306878 0  L 1.17633928571429 0  C 0.689401455026458 0.04  0.292162698412702 0.4275  0.292162698412702 0.902499999999995  L 0.292162698412702 6.92749999999999  C 0.292162698412702 7.4025  0.689401455026459 7.78375  1.16993220899471 7.78375  L 3.44444444444445 7.78375  C 3.70072751322752 4.19  6.75690310846561 1.3525  10.505042989418 1.3525  C 14.2531828703704 1.3525  17.3093584656085 4.19  17.5656415343915 7.78375  L 39.9263392857143 7.78375  C 40.1826223544974 4.19  43.2387979497354 1.3525  46.9869378306878 1.3525  C 50.7350777116402 1.3525  53.7912533068783 4.19  54.0475363756614 7.78375  L 61.409267526455 7.78375  C 61.7039930555556 7.78375  61.9474619708995 7.54625  61.9474619708995 7.25875  L 61.9474619708995 4.7025  Z " fill-rule="nonzero" fill="#4d4d4d" stroke="none" transform="matrix(1 0 0 1 27 55 )" />
  </g>
</svg>