<?xml version="1.0" encoding="utf-8"?>
<svg version="1.1" xmlns:xlink="http://www.w3.org/1999/xlink" width="12px" height="12px" xmlns="http://www.w3.org/2000/svg">
  <g transform="matrix(1 0 0 1 -31 -57 )">
    <path d="M 11.8482730263158 5.63116776315788  C 11.8544407894737 5.43996710526314  11.7064144736842 5.29194078947367  11.5213815789474 5.2734375  C 11.7002467105263 5.21175986842105  11.8050986842105 5.02672697368421  11.7557565789474 4.84169407894737  L 11.5583881578947 4.10773026315789  C 11.5090460526316 3.92269736842105  11.3240131578947 3.81784539473684  11.1389802631579 3.84868421052632  C 11.2931743421053 3.74383223684211  11.3486842105263 3.54029605263158  11.2561677631579 3.37993421052632  L 10.8737664473684 2.71998355263158  C 10.7750822368421 2.55345394736841  10.5715460526316 2.50411184210526  10.4050164473684 2.58429276315789  C 10.5283717105263 2.44243421052632  10.5345394736842 2.2265625  10.3988486842105 2.09087171052631  L 9.86225328947368 1.55427631578946  C 9.7265625 1.41858552631578  9.51069078947368 1.41858552631578  9.3688322368421 1.54810855263157  C 9.44901315789473 1.3815789473684  9.39967105263158 1.17187499999999  9.23314144736842 1.07935855263157  L 8.57319078947368 0.696957236842087  C 8.40666118421053 0.604440789473666  8.20929276315789 0.659950657894719  8.10444078947369 0.814144736842087  C 8.14144736842105 0.629111842105245  8.03042763157895 0.444078947368403  7.84539473684211 0.394736842105245  L 7.11143092105263 0.197368421052614  C 6.92639802631579 0.148026315789456  6.74136513157895 0.252878289473666  6.6796875 0.431743421052614  C 6.66118421052631 0.246710526315772  6.51932565789474 0.0986842105262978  6.328125 0.0986842105262978  L 5.56332236842105 0.0986842105262978  C 5.37212171052632 0.0986842105262978  5.23026315789474 0.246710526315772  5.21175986842105 0.431743421052614  C 5.15008223684211 0.252878289473666  4.96504934210526 0.148026315789456  4.78001644736842 0.197368421052614  L 4.04605263157895 0.394736842105263  C 3.86101973684211 0.444078947368421  3.7561677631579 0.629111842105263  3.78700657894737 0.814144736842105  C 3.68215460526316 0.659950657894737  3.47861842105263 0.604440789473684  3.31825657894737 0.696957236842105  L 2.65830592105263 1.07935855263158  C 2.49177631578948 1.17804276315789  2.44243421052632 1.38157894736842  2.52261513157895 1.54810855263158  C 2.38075657894737 1.42475328947368  2.16488486842105 1.41858552631579  2.02919407894737 1.55427631578947  L 1.49259868421053 2.09087171052632  C 1.35690789473684 2.22656250000001  1.35690789473684 2.44243421052632  1.48643092105263 2.5842927631579  C 1.31990131578948 2.50411184210527  1.11019736842106 2.55345394736843  1.01768092105263 2.71998355263159  L 0.63527960526316 3.37993421052632  C 0.542763157894739 3.54646381578949  0.598273026315793 3.74383223684211  0.752467105263161 3.84868421052633  C 0.567434210526319 3.81167763157896  0.382401315789477 3.92269736842107  0.333059210526319 4.10773026315791  L 0.135690789473688 4.84169407894739  C 0.0863486842105297 5.02672697368423  0.19120065789474 5.21175986842107  0.370065789473688 5.27343750000002  C 0.185032894736845 5.29194078947369  0.0370065789473707 5.43379934210528  0.0370065789473707 5.62500000000002  L 0.0370065789473707 6.38980263157896  C 0.0370065789473707 6.5810032894737  0.185032894736845 6.72286184210528  0.370065789473688 6.74136513157896  C 0.191200657894739 6.80304276315791  0.0863486842105297 6.98807565789475  0.135690789473688 7.1731085526316  L 0.333059210526319 7.90707236842107  C 0.382401315789477 8.09210526315791  0.567434210526319 8.19695723684212  0.752467105263161 8.16611842105265  C 0.598273026315793 8.27097039473687  0.542763157894739 8.47450657894739  0.63527960526316 8.63486842105265  L 1.01768092105263 9.29481907894739  C 1.11636513157895 9.46134868421055  1.31990131578948 9.51069078947371  1.48643092105263 9.43050986842108  C 1.36307565789474 9.57236842105266  1.35690789473685 9.78824013157897  1.49259868421053 9.92393092105266  L 2.02919407894737 10.4605263157895  C 2.16488486842105 10.5962171052632  2.37458881578948 10.5962171052632  2.52261513157895 10.4666940789474  C 2.44243421052632 10.6332236842106  2.49177631578948 10.842927631579  2.65830592105263 10.9354440789474  L 3.31825657894737 11.3178453947369  C 3.48478618421053 11.4103618421053  3.68215460526316 11.3548519736842  3.78700657894737 11.2006578947369  C 3.75 11.3856907894737  3.86101973684211 11.5707236842106  4.04605263157895 11.6200657894737  L 4.78001644736842 11.8174342105264  C 4.96504934210526 11.8667763157895  5.15008223684211 11.7619243421053  5.21175986842105 11.5830592105264  C 5.23026315789474 11.7680921052632  5.37212171052632 11.9161184210527  5.56332236842105 11.9161184210527  L 6.328125 11.9161184210527  C 6.51932565789474 11.9161184210527  6.66118421052632 11.7680921052632  6.6796875 11.5830592105264  C 6.74136513157895 11.7619243421053  6.92639802631579 11.8667763157895  7.11143092105263 11.8174342105264  L 7.84539473684211 11.6200657894737  C 8.03042763157895 11.5707236842106  8.13527960526316 11.3856907894737  8.10444078947369 11.2006578947369  C 8.20929276315789 11.3548519736842  8.41282894736842 11.4103618421053  8.57319078947368 11.3178453947369  L 9.22697368421053 10.9416118421053  C 9.39350328947369 10.8429276315789  9.44284539473684 10.6393914473684  9.36266447368421 10.4728618421053  C 9.50452302631579 10.5962171052632  9.72039473684211 10.6023848684211  9.85608552631579 10.4666940789474  L 10.3926809210526 9.93009868421052  C 10.5283717105263 9.79440789473683  10.5283717105263 9.58470394736841  10.3988486842105 9.43667763157894  C 10.5653782894737 9.51685855263157  10.7750822368421 9.46751644736841  10.8675986842105 9.30098684210525  L 11.25 8.64103618421052  C 11.3425164473684 8.47450657894735  11.2870065789474 8.27713815789473  11.1328125 8.17228618421052  C 11.3178453947368 8.20929276315789  11.5028782894737 8.09827302631577  11.5522203947368 7.91324013157893  L 11.7495888157895 7.17927631578945  C 11.7989309210526 6.99424342105261  11.6940789473684 6.80921052631577  11.5152138157895 6.74753289473682  C 11.7002467105263 6.72902960526315  11.8482730263158 6.58717105263156  11.8482730263158 6.39597039473682  L 11.8482730263158 5.63116776315788  Z " fill-rule="nonzero" fill="#363636" stroke="none" transform="matrix(1 0 0 1 31 57 )" />
  </g>
</svg>