<?xml version="1.0" encoding="utf-8"?>
<svg version="1.1" xmlns:xlink="http://www.w3.org/1999/xlink" width="36px" height="50px" xmlns="http://www.w3.org/2000/svg">
  <g transform="matrix(1 0 0 1 -51 -17 )">
    <path d="M 17.5573894736842 0.140909090909095  C 17.5573894736842 0.140909090909095  36.6078315789473 13.769696969697  35.5973052878289 30.2686868933475  C 33.4095157894737 39.4631313624527  31.6259368667763 44.6636363636364  30.244547368421 45.869696969697  C 29.09305265625 46.8681818181818  19.4041263404605 49.64292931759  17.9156210773026 49.6358585611979  C 17.6680421052632 49.6368686375474  17.4204632072368 49.6207070460464  17.1749052384868 49.5868687115294  C 16.3589052138158 49.5565656812263  15.5898947368421 49.176767726089  15.0426947368421 48.5358585611979  C 13.5304421299342 46.830303030303  13.2525473684211 43.1747474254261  13.2621473930921 40.566161591501  C 13.2646736842105 40.1186868193655  12.9802105509868 39.726767652107  12.5709473930921 39.6136363636364  C 10.9606736842105 39.1474747721354  9.52875791940789 38.1590909090909  8.47680002467104 36.7878787878788  C 7.36370526315789 35.3656565903172  5.61701057565789 34.0974747721354  4.67418944901315 33.4646464399858  C 3.65557892269736 32.7858585611979  2.83199995065789 31.8257575757576  2.29136839638157 30.6883838630445  L 0.778105287828932 27.4868687115294  C 0.355660177527648 26.5934732091827  0.190332261868961 25.6001744359975  0.300631603618409 24.6181818181818  C 0.657347417763149 21.453535378196  2.12917899671051 17.6333333333333  3.30088418585525 14.9818181818182  C 3.69498944901314 14.0949494702888  7.78357894736841 6.25959598425663  14.2539789226974 10.5141414388021  L 17.1749052384868 8.28030303030303  C 18.5482105016447 7.22272727272728  18.2895157894737 3.80050507516573  17.3871157648026 1.52121212121213  C 17.2060779873736 1.0620126828438  17.2701779615106 0.542394069231935  17.5573894736842 0.140909090909095  Z " fill-rule="nonzero" fill="#68b3f2" stroke="none" transform="matrix(1 0 0 1 51 17 )" />
  </g>
</svg>