<?xml version="1.0" encoding="utf-8"?>
<svg version="1.1" xmlns:xlink="http://www.w3.org/1999/xlink" width="65px" height="65px" xmlns="http://www.w3.org/2000/svg">
  <g transform="matrix(1 0 0 1 -25 -14 )">
    <path d="M 64.84765625 26.55859375  C 64.84765625 19.5084635416667  62.0970052083333 12.873046875  57.1119791666667 7.88802083333333  C 52.126953125 2.90299479166666  45.5 0.160807291666665  38.4498697916667 0.160807291666665  C 31.3997395833333 0.160807291666665  24.7727864583333 2.90299479166666  19.7877604166667 7.88802083333333  C 14.802734375 12.873046875  12.060546875 19.5  12.060546875 26.5501302083333  C 12.060546875 31.611328125  13.482421875 36.4609375  16.1315104166667 40.6334635416667  L 12.7545572916667 44.0104166666667  L 1.86197916666667 54.9029947916667  C -0.40625 57.1712239583333  -0.40625 60.8697916666667  1.86197916666667 63.146484375  C 2.96223958333333 64.2467447916667  4.42643229166667 64.8561197916667  5.98372395833333 64.8561197916667  C 7.541015625 64.8561197916667  9.00520833333333 64.2467447916667  10.10546875 63.146484375  L 24.375 48.876953125  C 28.5475260416667 51.5260416666667  33.3971354166667 52.9479166666667  38.4583333333333 52.9479166666667  C 45.5084635416667 52.9479166666667  52.1354166666667 50.2057291666667  57.1204427083333 45.220703125  C 62.10546875 40.2356770833333  64.84765625 33.6087239583333  64.84765625 26.55859375  Z M 16.681640625 52.25390625  L 7.947265625 60.98828125  C 7.40559895833333 61.5299479166667  6.69466145833333 61.80078125  5.98372395833333 61.80078125  C 5.27278645833333 61.80078125  4.56184895833333 61.5299479166667  4.02018229166667 60.98828125  C 2.93684895833334 59.9049479166667  2.93684895833334 58.14453125  4.02018229166667 57.0611979166667  L 12.7545572916667 48.3268229166667  L 16.681640625 52.25390625  Z M 21.8697916666667 47.0826822916667  L 18.83984375 50.095703125  L 14.9127604166667 46.1686197916667  L 17.9342447916667 43.1471354166667  C 18.5182291666667 43.8665364583333  19.1360677083333 44.5520833333333  19.7962239583333 45.220703125  C 20.4563802083333 45.880859375  21.150390625 46.4986979166667  21.8697916666667 47.0826822916667  Z M 54.9622395833334 10.0377604166667  C 64.0774739583333 19.1529947916667  64.0774739583333 33.9388020833333  54.9622395833334 43.0540364583333  C 50.400390625 47.6158854166667  44.4251302083333 49.892578125  38.4498697916667 49.892578125  C 32.474609375 49.892578125  26.4993489583333 47.6158854166667  21.9375 43.0540364583333  C 12.822265625 33.9388020833333  12.822265625 19.1529947916667  21.9375 10.0377604166667  C 26.4993489583333 5.47591145833333  32.474609375 3.19921875  38.4498697916667 3.19921875  C 44.4251302083333 3.19921875  50.400390625 5.47591145833333  54.9622395833334 10.0377604166667  Z " fill-rule="nonzero" fill="#453b56" stroke="none" transform="matrix(1 0 0 1 25 14 )" />
  </g>
</svg>