<?xml version="1.0" encoding="utf-8"?>
<svg version="1.1" xmlns:xlink="http://www.w3.org/1999/xlink" width="31px" height="23px" xmlns="http://www.w3.org/2000/svg">
  <g transform="matrix(1 0 0 1 -29 -55 )">
    <path d="M 11.1670568859566 0.461005439933426  C 9.55177615494945 -0.139056489327747  7.74188122061928 0.115304141657401  6.35575609756097 1.13718032786885  L 0.0146178615663111 5.79398904649077  L 0.837252007907774 7.18907101370388  C 1.14573981278582 7.71191251921107  1.72793493473704 8.57912563396516  2.58383737376143 9.67608740714651  C 4.09134377538283 11.6059136645328  5.78579103533029 13.3829385218446  7.64263414634146 14.9814207895748  C 13.5679187237995 20.0836502977715  20.7029593249809 23.0487650518699  28.9938211628239 22.7415956038678  L 30.7036097560976 22.6782513415728  L 30.7610731707317 19.32  C 30.8255934713224 15.6063169153432  28.92879677258 12.1394754098361  25.7899837152248 10.2622732485912  L 24.8952682926829 9.72837160924693  C 23.6196254412928 8.96293055857272  22.2053878202518 8.4554108436671  20.73320322742 8.23475409836067  L 16.7354634146341 7.63298360655739  C 15.8493170731707 7.49975953829407  15.1113658536585 6.82056833055841  14.8724390243902 5.89001095350924  L 14.4061788371761 4.08067757108097  C 13.9741951219512 2.41060104380125  12.7679674304497 1.05573770491805  11.1670568859566 0.461005439933426  Z M 8.5000487804878 4.02939888255635  C 8.90289027874346 3.72873492842847  9.43129983857669 3.65279818878053  9.90286176400534 3.82780327868853  C 10.3882763981517 4.00828412845799  10.7673332841082 4.43409836065574  10.9074634146341 4.97503822681864  L 11.3727154225419 6.7808524590164  C 11.966 9.0949289862961  13.8592682926829 10.836393442623  16.1961138457508 11.1867978387551  L 20.1948617640053 11.7885683305584  C 21.195934934737 11.9383825627561  22.15920322742 12.284262295082  23.0347642030297 12.8091147540984  L 23.9309918945312 13.344021833376  L 24.1794959103468 13.5003716092469  C 25.9724552353277 14.6883278688524  27.0899674304497 16.7319344262295  27.1484390243902 18.9545136366547  L 27.1484390243902 19.1606339043289  L 27.1055934713224 19.1591257076076  C 20.5542601133765 18.9841748879354  14.8588292682927 16.4418579725922  10.0061951219512 12.2636502977715  C 8.32936728128225 10.8199685300229  6.79904543266107 9.21522385139104  5.43734956888338 7.47261199731044  L 5.05627639815167 6.97339888255635  L 4.85767482136051 6.70393442622951  L 8.5000487804878 4.02939888255635  Z " fill-rule="nonzero" fill="#7b7ba3" stroke="none" transform="matrix(1 0 0 1 29 55 )" />
  </g>
</svg>