<?xml version="1.0" encoding="utf-8"?>
<svg version="1.1" xmlns:xlink="http://www.w3.org/1999/xlink" width="36px" height="36px" xmlns="http://www.w3.org/2000/svg">
  <g transform="matrix(1 0 0 1 -45 -22 )">
    <path d="M 30.4988839285714 30.7215401785714  C 27.0167410714286 34.2036830357143  22.4547991071428 35.9363839285714  17.8844866071429 35.9363839285714  C 13.3141741071429 35.9363839285714  8.75223214285714 34.1953125  5.27008928571429 30.7215401785714  C 0.557477678571423 26.0089285714286  -1.12500000000001 19.13671875  0.858816964285714 12.7751116071429  C 1.10993303571429 11.9799107142857  1.95535714285714 11.5362723214286  2.7421875 11.7873883928571  C 3.52901785714285 12.0385044642857  3.98102678571429 12.8839285714286  3.72991071428571 13.6707589285714  C 2.08091517857143 18.9609375  3.47879464285714 24.6696428571429  7.39620535714286 28.5870535714286  C 13.171875 34.3627232142857  22.5803571428571 34.3627232142857  28.3560267857143 28.5870535714286  C 34.1316964285714 22.8113839285714  34.1316964285714 13.4029017857143  28.3560267857143 7.62723214285715  C 23.5680803571429 2.84765625  16.1685267857143 1.90178571428571  10.3510044642857 5.33370535714286  C 9.63950892857143 5.76060267857143  8.71037946428571 5.51785714285714  8.28348214285714 4.80636160714286  C 7.85658482142857 4.08649553571428  8.09933035714286 3.16573660714285  8.81082589285714 2.73883928571429  C 15.80859375 -1.39620535714286  24.7232142857143 -0.266183035714286  30.4821428571429 5.49274553571428  C 33.8470982142857 8.85770089285714  35.7053571428571 13.3359375  35.7053571428571 18.1071428571429  C 35.7053571428571 22.8783482142857  33.8638392857143 27.3565848214286  30.4988839285714 30.7215401785714  Z " fill-rule="nonzero" fill="#453b56" stroke="none" transform="matrix(1 0 0 1 45 22 )" />
  </g>
</svg>