<?xml version="1.0" encoding="utf-8"?>
<svg version="1.1" xmlns:xlink="http://www.w3.org/1999/xlink" width="38px" height="7px" xmlns="http://www.w3.org/2000/svg">
  <g transform="matrix(1 0 0 1 -39 -26 )">
    <path d="M 34.6641136357031 0.227763411458336  C 34.562549493781 0.227763411458336  34.4610409860703 0.23259962555742  34.3599211880388 0.242256184895834  L 3.77843766163793 0.242256184895834  C 3.67731786360642 0.23259962555742  3.57580935589578 0.227763411458336  3.47424521397362 0.227763411458336  C 1.67627452808596 0.227763411458336  0.218731303009181 1.71087757030839  0.218731303009181 3.5403916015625  C 0.218731303009181 5.36990563281662  1.67627452808596 6.85301979166667  3.47424521397362 6.85301979166667  C 3.57580935589578 6.85301979166667  3.67731786360642 6.84818357756758  3.77843766163793 6.83852701822917  L 34.3599211880388 6.83852701822917  C 34.4610409860703 6.84818357756758  34.562549493781 6.85301979166667  34.6641136357031 6.85301979166667  C 36.4620843215908 6.85301979166667  37.9196275466675 5.36990563281662  37.9196275466675 3.5403916015625  C 37.9196275466675 1.71087757030839  36.4620843215908 0.227763411458336  34.6641136357031 0.227763411458336  Z " fill-rule="nonzero" fill="#ffffff" stroke="none" transform="matrix(1 0 0 1 39 26 )" />
  </g>
</svg>