<?xml version="1.0" encoding="utf-8"?>
<svg version="1.1" xmlns:xlink="http://www.w3.org/1999/xlink" width="57px" height="61px" xmlns="http://www.w3.org/2000/svg">
  <g transform="matrix(1 0 0 1 -30 -14 )">
    <path d="M 51.2690186927425 0.324201263783922  C 51.2690168011769 0.324201263783922  51.2690149098096 0.32420126378487  51.269013018244 1  L 5.86777357177734 1  C 5.86240748061148 0.324186011891159  5.85704137074995 0.324178385931968  5.8516752582189 0.324178385931968  C 2.70098706153273 0.324178385931968  0.146849626782468 2.89676676190334  0.146849626782468 6.07021534803925  C 0.146849626782468 6.07292447275055  0.14685152897643 6.07563359712466  1 6.078342719126  L 1 44.0475715762868  C 0.146855333362925 44.0475715762868  0.146855333362925 44.0475716399983  0.146855333362925 44.0475716399983  C 0.146855333362925 47.2210202261343  2.70099276811319 49.7936086021056  5.85168096479936 49.7936086021056  L 12.059400279652 49.7936086021056  L 12.059400279652 56.2771482045872  C 12.059400279652 56.2771482045872  11.72547890625 60.9939232547209  17.9452676447088 60.9939232547209  C 22.0488798939098 60.9939232547209  23.5776766079989 58.7854675802139  25.6697142500444 56.4919154275986  L 31.7647853793057 49  L 51.2690130182439 49  C 51.2690130182439 49.7773997430648  51.2690130182439 49.7773997430648  51.2690130182439 49.7773997430648  C 54.4197012149301 49.7773997430648  56.9738386496804 47.2048113670935  56.9738386496804 44.0313627809576  C 56.9738386496804 44.0313627809576  56.9738386496804 44.031362717246  57 44.031362717246  L 57 6.078342719126  C 56.973842432679 6.07564122305996  56.973844324179 6.07293972464439  56.973844324179 6.07023822589121  C 56.973844324179 2.89678963975529  54.4197068894287 0.324201263783922  51.2690186927425 0.324201263783922  Z " fill-rule="nonzero" fill="#fef0c9" stroke="none" transform="matrix(1 0 0 1 30 14 )" />
  </g>
</svg>