<?xml version="1.0" encoding="utf-8"?>
<svg version="1.1" xmlns:xlink="http://www.w3.org/1999/xlink" width="21px" height="15px" xmlns="http://www.w3.org/2000/svg">
  <g transform="matrix(1 0 0 1 -15 -33 )">
    <path d="M 20.77488 14.7844444580078  L 20.7972799863281 13.5027777913411  C 20.83872 11.1219444580078  19.6159599726563 8.90472224934896  17.6022 7.71  L 16.90584 7.29805554199219  C 16.0683476268645 6.79920748668011  15.1402019802939 6.46849704622026  14.17416 6.32472220865885  L 11.0544 5.85888887532552  C 9.79747998632812 5.67194441731771  8.77128 4.73555554199219  8.44675998632812 3.47944445800781  L 8.08332 2.08111112467448  C 7.86016001367187 1.22638891601562  7.24192001367187 0.537499999999997  6.42823998632812 0.237499999999997  C 5.61416195545355 -0.0624798140339274  4.70247119626135 0.0652804730360993  4.00399998632812 0.577222208658853  L 0.0784000136718755 3.43694445800781  C 0.0784000136718755 3.43694445800781  7.12292002734375 15.2858333333333  20.7751600136719 14.7841666666667  Z " fill-rule="nonzero" fill="#62afef" stroke="none" transform="matrix(1 0 0 1 15 33 )" />
  </g>
</svg>