<?xml version="1.0" encoding="utf-8"?>
<svg version="1.1" xmlns:xlink="http://www.w3.org/1999/xlink" width="16px" height="22px" xmlns="http://www.w3.org/2000/svg">
  <g transform="matrix(1 0 0 1 -32 -17 )">
    <path d="M 8.26083554166667 0.0779428571428489  C 8.26083554166667 0.0779428571428489  16.248888875 6.11641904761904  15.77472 13.3799110974702  L 15.77472 14.1682793787202  C 15.3513876075711 14.4844111652714  14.8105217418533 14.6074511870187  14.2887822083333 14.5063110974702  C 13.7659245034866 14.4038764363301  13.3121610781444 14.0877388741608  13.0409244583333 13.6369269977679  L 12.93568 13.4623238095238  C 12.9038461795077 13.4100010088641  12.8463534705607 13.3779631317655  12.784292819195 13.3779631317655  C 12.7013657110176 13.3779631317655  12.6296412793413 13.4347075174247  12.6119822083333 13.5142857142857  L 11.8257777916667 17.0256253831845  C 11.8144 18.9943110974702  11.31662225 20.3967238095238  10.3446755416667 21.1937523809524  C 9.71369159299958 21.7077162190244  8.89512756388808 21.9439393828011  8.081351125 21.8469079501488  C 7.69775421786011 21.8328632765343  7.33657709553493 21.6657902415241  7.08124445833333 21.3842793787202  C 6.37184 20.6330666666667  6.24156445833333 19.0239238095238  6.24611554166666 17.8754539546131  C 6.24800960041832 17.6794158851467  6.11463751173784 17.5069451447854  5.921848875 17.4561269977679  C 5.16455291284371 17.2497812622276  4.492607669534 16.8145412479994  4.00127999999999 16.2121142857143  C 3.47903999999999 15.5860571428571  2.65983999999999 15.0276063355655  2.21781333333333 14.7490793787202  C 1.73894774875075 14.4489833520815  1.35246345648681 14.026323221502  1.09994666666666 13.5265777641369  L 0.389973333333331 12.1171809523809  C 0.192362705738969 11.7264628092322  0.114591337303818 11.2877724665072  0.166115541666665 10.8544508072917  C 0.333653333333332 9.46097780505952  1.02371554166667 7.77919999999999  1.57354666666667 6.61173333333333  C 1.75642138446566 6.22267888112383  2.14363739976307 5.96509347711974  2.57934220833333 5.94265395461309  C 3.01476826793918 5.92213632412687  3.42583675796279 6.14057124419073  3.64657779166667 6.50976509300595  L 4.25813333333334 7.52162538318452  C 4.35541333333333 7.68365714285714  4.54684445833333 7.76467300223214  4.73201779166667 7.72193014508928  C 4.89987648849581 7.69439773185979  5.02934890804898 7.56178271767271  5.050311125 7.39591109747023  L 5.05969779166667 7.32551109747023  C 5.19281779166667 6.17229204985119  5.95171558333333 5.18389838541666  7.03658666666667 4.7503238095238  L 8.46364445833333 4.18349204985118  C 9.10762666666667 3.71779047619047  8.60416000000001 1.68932062127975  8.18119112500001 0.685841283482134  C 8.09610777107685 0.483673566358623  8.12641228627467 0.25236962980233  8.26083554166667 0.0779428571428489  Z " fill-rule="nonzero" fill="#dbf083" stroke="none" transform="matrix(1 0 0 1 32 17 )" />
  </g>
</svg>