<?xml version="1.0" encoding="utf-8"?>
<svg version="1.1" xmlns:xlink="http://www.w3.org/1999/xlink" width="35px" height="35px" xmlns="http://www.w3.org/2000/svg">
  <g transform="matrix(1 0 0 1 -13 -13 )">
    <path d="M 0.0768627585018383 17.5082352941176  C 0.0768627585018383 7.88117647058823  7.88117647058824 0.0768627585018383  17.5082352941176 0.0768627585018383  C 27.1352941176471 0.0768627585018383  34.9396078297335 7.88117647058823  34.9396078297335 17.5082352941176  C 34.9396078297335 27.1352941176471  27.1352941176471 34.9396078297335  17.5082352941176 34.9396078297335  C 7.88117647058823 34.9396078297335  0.0768627585018383 27.1352941176471  0.0768627585018383 17.5082352941176  Z M 17.5082352941176 2.05223529411765  C 8.97207841796875 2.05223529411765  2.05223529411764 8.97207841796875  2.05223529411764 17.5079607709099  C 2.05223529411764 26.0441176470588  8.97207841796875 32.9639607709099  17.5079607709099 32.9639607709099  C 26.0441176470588 32.9639607709099  32.9639607709099 26.0441176470588  32.9639607709099 17.5079607709099  C 32.9639607709099 8.97207841796875  26.0441176470588 2.05223529411765  17.5079607709099 2.05223529411765  Z " fill-rule="nonzero" fill="#7b7ba3" stroke="none" transform="matrix(1 0 0 1 13 13 )" />
  </g>
</svg>