<?xml version="1.0" encoding="utf-8"?>
<svg version="1.1" xmlns:xlink="http://www.w3.org/1999/xlink" width="20px" height="27px" xmlns="http://www.w3.org/2000/svg">
  <g transform="matrix(1 0 0 1 -27 -15 )">
    <path d="M 9.75410526315789 0.0760909090909112  C 9.75410526315789 0.0760909090909112  20.3376842105263 7.43563636363637  19.7762807154605 16.3450909224077  C 18.5608421052632 21.3100909357244  17.5699649259868 24.1183636363636  16.8025263157895 24.7696363636364  C 16.16280703125 25.3088181818182  10.7800701891447 26.8071818314986  9.95312282072368 26.8033636230469  C 9.81557894736842 26.8039090642756  9.67803511513157 26.7951818048651  9.54161402138157 26.7769091042259  C 9.0882806743421 26.7605454678622  8.66105263157895 26.5554545720881  8.35705263157894 26.2093636230469  C 7.51691229440789 25.2883636363636  7.36252631578947 23.3143636097301  7.36785966282894 21.9057272594105  C 7.36926315789473 21.6640908824574  7.21122808388158 21.4524545321378  6.98385966282894 21.3913636363636  C 6.08926315789473 21.1396363769531  5.29375439967105 20.6059090909091  4.70933334703947 19.8654545454546  C 4.09094736842105 19.0974545587713  3.12056143092105 18.4126363769531  2.59677191611842 18.0709090775923  C 2.03087717927631 17.7043636230469  1.57333330592105 17.1859090909091  1.27298244243421 16.571727286044  L 0.432280715460518 14.8429091042259  C 0.19758898751536 14.3604755329587  0.105740145482756 13.8240941954386  0.167017557565783 13.2938181818182  C 0.365193009868416 11.5849091042259  1.18287722039473 9.522  1.83382454769736 8.09018181818182  C 2.05277191611841 7.61127271395597  4.32421052631578 3.38018183149858  7.91887717927631 5.67763637695313  L 9.54161402138157 4.47136363636364  C 10.3045613898026 3.90027272727273  10.1608421052631 2.05227274058949  9.65950875822368 0.821454545454548  C 9.55893221520757 0.573486848735651  9.59454331195032 0.292892797385245  9.75410526315789 0.0760909090909112  Z " fill-rule="nonzero" fill="#68b3f2" stroke="none" transform="matrix(1 0 0 1 27 15 )" />
  </g>
</svg>