<?xml version="1.0" encoding="utf-8"?>
<svg version="1.1" xmlns:xlink="http://www.w3.org/1999/xlink" width="15px" height="11px" xmlns="http://www.w3.org/2000/svg">
  <g transform="matrix(1 0 0 1 -17 -36 )">
    <path d="M 14.7833333333333 10.785641011869  L 14.7991666666667 9.85261538461538  C 14.8286111246745 8.11912821890024  13.9597222086589 6.50494870417668  12.5288888753255 5.63538461538461  L 12.0341666666667 5.33528206505409  C 11.4392249228946 4.97219659733182  10.7797676179717 4.73145775789818  10.0933333333333 4.62676923076923  L 7.87638887532552 4.28746153846154  C 6.98333333333333 4.15151283428486  6.25416666666667 3.46951283428486  6.02361112467448 2.55538461538462  L 5.76527779134115 1.53717947340745  C 5.60694445800781 0.914974331430291  5.1675 0.413487165715146  4.58916666666667 0.195179473407454  C 4.01080290413351 -0.0230989590683096  3.36299469695969 0.0699443089976956  2.86694445800781 0.442538461538464  L 0.0775 2.52435898813101  C 0.0775 2.52435898813101  5.08305554199219 11.1506153846154  14.7830555419922 10.785641011869  Z " fill-rule="nonzero" fill="#dbf083" stroke="none" transform="matrix(1 0 0 1 17 36 )" />
  </g>
</svg>