<?xml version="1.0" encoding="utf-8"?>
<svg version="1.1" xmlns:xlink="http://www.w3.org/1999/xlink" width="20px" height="20px" xmlns="http://www.w3.org/2000/svg">
  <g transform="matrix(1 0 0 1 -320 -13 )">
    <path d="M 9.35191761363636 0.478515625  C 9.61825284090909 -0.0841703869047619  10.3817471590909 -0.0841703869047619  10.6458629261364 0.476190476190476  L 13.3291903409091 6.17047991071429  L 19.326171875 7.08426339285714  C 19.9187677556818 7.17494419642857  20.1540305397727 7.93526785714286  19.7256747159091 8.37239583333333  L 15.3866299715909 12.8018043154762  L 16.4120205965909 19.0587797619048  C 16.5141157670455 19.6749441964286  15.8948863636364 20.1469494047619  15.3666548295455 19.8563058035714  L 10 16.9010416666667  L 4.63556463068182 19.8539806547619  C 4.10733309659091 20.1446242559524  3.48810369318182 19.6749441964286  3.59019886363636 19.0564546130952  L 4.61558948863637 12.7994791666667  L 0.274325284090909 8.37239583333333  C -0.154030539772727 7.93526785714286  0.0834517045454545 7.17261904761905  0.673828125 7.08426339285714  L 6.67080965909091 6.17047991071429  L 9.35191761363636 0.478515625  Z " fill-rule="nonzero" fill="#ffd400" stroke="none" transform="matrix(1 0 0 1 320 13 )" />
  </g>
</svg>