<?xml version="1.0" encoding="utf-8"?>
<svg version="1.1" xmlns:xlink="http://www.w3.org/1999/xlink" width="16px" height="23px" xmlns="http://www.w3.org/2000/svg">
  <g transform="matrix(1 0 0 1 -31 -15 )">
    <path d="M 8.95037397103659 0.877333320312489  C 8.88975609756098 0.82666664062499  8.83980487804878 0.78533332031249  8.80078048780488 0.7538666796875  L 8.02523578506097 0.1410666796875  L 7.46198372713415 0.903200000000001  C 7.14662438083478 1.3296767666973  7.07525006547095 1.89546430305086  7.27440651676829 2.3901333203125  C 7.45678048780488 2.8424  7.62926829268293 3.473866640625  7.69951219512195 3.9901333203125  L 7.71512195121951 4.1194666796875  C 7.73333334603658 4.2864  7.73827641006097 4.430933359375  7.73151219512195 4.5448  L 7.72891055640244 4.5677333203125  L 6.75356097560976 4.9730666796875  L 6.61203250762196 5.0357333203125  C 5.83023732670436 5.40142638538045  5.19273506801852 6.02835254104437  4.80390243902439 6.8138666796875  L 4.77346341463415 6.8781333203125  L 4.71518700457317 6.7968  C 4.34096158822141 6.30586911859567  3.76701008137403 6.0189468590885  3.15919067616365 6.0189468590885  C 2.39016499309991 6.0189468590885  1.69109628825078 6.47658071416396  1.36767480945122 7.1917333203125  C 0.665756097560974 8.7488  0.169886204268293 10.212  0.0278373856707337 11.4477333203125  C -0.039024390243903 12.0344  0.0616585365853663 12.6264  0.31713822408537 13.1538666796875  L 0.952715434451223 14.4714666796875  C 1.22558684374661 15.035743844789  1.63047027497957 15.5220240310542  2.13125201981708 15.8869333203125  L 2.28370731707317 15.9922666796875  C 2.84071543445122 16.3586666796875  3.35557724847561 16.7762666796875  3.66517073170732 17.1642666796875  L 3.77964226371951 17.3042666796875  C 4.20935572921625 17.8080522185036  4.74602952765922 18.204153963104  5.34842275152439 18.4621333203125  L 5.47408128810976 18.5122666796875  L 5.47538212652439 18.5685333203125  C 5.51128456554878 20.0896  5.77613010670732 21.291466640625  6.46295933689025 22.0512  L 6.55479676067074 22.1498666796875  C 6.9101094779993 22.506323534164  7.37354346186541 22.7276983849759  7.86835773628049 22.7773333203125  L 7.95525201981707 22.7834666796875  L 7.91882926829269 22.7797333203125  C 8.90394268314829 22.9052003300038  9.89582418525114 22.6075511367473  10.6593821265244 21.9573333203125  L 10.7806178734756 21.8488  C 11.7713170731707 20.9242666796875  12.2677073170732 19.4728  12.314276410061 17.5709333203125  L 12.3160975609756 17.4418666796875  L 12.7042601753049 15.6325333203125  L 12.7336585365854 15.6490666796875  C 13.6232528574188 16.1209847298665  14.6984410426355 16.0256943161074  15.4958048780488 15.4042666796875  L 15.8574309070122 15.1229333203125  L 15.8574309070122 13.9218666796875  C 16.062959375 10.6592  14.6893008384146 7.41146667968749  12.2973658536585 4.36506667968749  C 11.3734630590136 3.19152247872964  10.3481707467769 2.10579016426528  9.2339512195122 1.12106667968749  L 8.95037397103659 0.877333320312489  Z M 9.59557724847561 3.8418666796875  L 9.76988616615853 4.0277333203125  C 10.1528106660308 4.44411427867524  10.5202489411998 4.87517734571538  10.8714146341463 5.32  L 11.0639349466463 5.5674666796875  C 13.0872195121951 8.2096  14.2163251905488 10.9594666796875  14.0472195121951 13.652  L 14.0461788490854 13.8541333203125  L 13.9938861661585 13.8605333203125  C 13.9341748524365 13.8634976396212  13.8743332656818 13.8590204443462  13.8156748094512 13.8472  C 13.6032021580183 13.8031708814382  13.4190270002592 13.6685915348917  13.3091382240854 13.4770666796875  L 13.2149593368902 13.3144  C 12.9842760114888 12.9211686442284  12.5429237710221 12.7119361349953  12.1012032393293 12.7864  C 11.6654709286593 12.857900116913  11.3157570336916 13.1934586901884  11.2174309070122 13.6344  L 10.4876748094512 17.0234666796875  L 10.4871544588415 17.1216  C 10.4783089176829 18.7170666796875  10.1174634146341 19.7728  9.48188616615852 20.3146666796875  C 9.16545378495683 20.582198048991  8.76764769917097 20.72776957315  8.35746341463413 20.7261333203125  L 8.25652031249999 20.7232  L 8.07440651676828 20.7066666796875  C 7.98186951868354 20.702640083928  7.89494685115826 20.6600667684751  7.83375609756096 20.5888  C 7.49502439024389 20.2154666796875  7.30926829268292 19.1925333203125  7.31395121951219 17.9266666796875  C 7.31546494749434 17.3539234245437  6.96201612779106 16.843382173206  6.43408128810974 16.6557333203125  L 6.33313822408535 16.6237333203125  C 5.89352600836126 16.4976287264459  5.49744435297093 16.2471812494633  5.19024390243901 15.9010666796875  L 5.08982115091462 15.7810666796875  C 4.62074798018291 15.1962666796875  3.97372358993901 14.6738666796875  3.2606178734756 14.2069333203125  C 2.96989459348057 14.0176881707812  2.73510828430141 13.7506614824035  2.5815934832317 13.4346666796875  L 1.94263414634145 12.116  C 1.84266437878803 11.9110538484182  1.80324142685534 11.6806511379959  1.82920323932926 11.4530666796875  C 1.94393494664633 10.459733359375  2.38933330792682 9.152533359375  3.01944714176828 7.7613333203125  C 3.03875953113659 7.71579501367436  3.08095317673858 7.68484468698749  3.12923578506097 7.68080000000001  C 3.17683599762762 7.67986040849589  3.22098040025641 7.70618653291549  3.24370731707316 7.7490666796875  L 3.79577237042682 8.6984  L 3.85014634146341 8.7848  C 4.14027950331887 9.20609837061101  4.63816498218383 9.42262815774616  5.13534958079267 9.3437333203125  L 5.1725528582317 9.3365333203125  C 5.7267143811773 9.24613189820498  6.15677129540602 8.7927352436469  6.22933334603658 8.2224  L 6.23713822408536 8.1597333203125  C 6.32169108231706 7.4024  6.78868292682926 6.769866640625  7.45131707317072 6.4944  L 8.84396749237804 5.9194666796875  L 8.93814634146341 5.8488  C 9.45899188262194 5.4570666796875  9.64266665396341 4.7645333203125  9.6026016387195 3.9482666796875  L 9.5955772484756 3.8416  Z " fill-rule="nonzero" fill="#7b7ba3" stroke="none" transform="matrix(1 0 0 1 31 15 )" />
  </g>
</svg>