<?xml version="1.0" encoding="utf-8"?>
<svg version="1.1" xmlns:xlink="http://www.w3.org/1999/xlink" width="13px" height="17px" xmlns="http://www.w3.org/2000/svg">
  <g transform="matrix(1 0 0 1 -14 -15 )">
    <path d="M 12.0651366258965 0.713209302325581  L 11.6781202324539 0.0735348837209302  L 10.915737704918 0.264883720930232  C 10.5477595767162 0.357131770076308  9.94109288230021 0.553488372093022  9.17387976754611 0.877147299691133  C 7.83935094984804 1.43849046018639  6.58997520614408 2.15978574424549  5.45772678983094 3.02257363054142  C 1.6867322265625 5.9033488372093  -0.406622950819672 10.0792868345749  0.07728960361168 15.6863875840298  L 0.185267773437499 16.9417519508539  L 6.54319124295594 14.6877364212391  C 7.56244805968238 14.3224340956577  8.11313658427254 13.3164030750363  7.82045901639344 12.3593953488372  L 7.7843715708248 12.2531782817042  C 7.51840435771004 11.5455038630996  7.72469943967725 10.7661395348837  8.32312566918545 10.2350542764353  L 11.4601748495133 7.4291317700763  C 12.3154754098361 6.67058912154796  12.798535505251 5.62818604651162  12.7951256691855 4.5393953488372  L 12.7951256691854 3.27691474155159  C 12.791669208461 2.37859857848963  12.540468112369 1.4960423554523  12.0654207511527 0.713209302325576  Z M 10.4633661340932 2.41452711891352  L 10.6196502593494 2.35601549100654  L 10.6682404232838 2.52654264852834  C 10.7307540983607 2.77324032294695  10.7628633741035 3.02573645984738  10.764 3.28034107240189  L 10.764 4.54229456077398  C 10.7657049180328 5.11317828170422  10.5116721311475 5.66086819131541  10.0544699314805 6.06649613690044  L 6.91742075115266 8.87241860465116  C 5.74841527279713 9.91007753224927  5.3366775678791 11.4653798578307  5.8660546586834 12.8738759561228  L 5.86633878393955 12.8852093023256  C 5.8632131147541 12.8978604651163  5.84843714459528 12.9134108398437  5.81575957671619 12.92527130496  L 2.04021859310963 14.2633953488372  L 2.03936613409324 14.1147441860465  C 2.04021859310963 9.87713177007631  3.79259016393443 6.73832558139535  6.74749728163422 4.48088372093023  C 7.86964526968817 3.62611230843576  9.12178738980018 2.92980890288246  10.4633661340932 2.41452711891352  Z " fill-rule="nonzero" fill="#7b7ba3" stroke="none" transform="matrix(1 0 0 1 14 15 )" />
  </g>
</svg>