<?xml version="1.0" encoding="utf-8"?>
<svg version="1.1" xmlns:xlink="http://www.w3.org/1999/xlink" width="16px" height="13px" xmlns="http://www.w3.org/2000/svg">
  <g transform="matrix(1 0 0 1 -15 -35 )">
    <path d="M 5.76364226371951 0.260568292136284  C 4.92994898319972 -0.0785971461417701  3.99580966225511 0.0651719061541829  3.28039024390244 0.642754098360654  L 0.00754470274390251 3.27486337410348  L 0.432130068597561 4.06338796426741  C 0.591349580792683 4.35890707607582  0.891837385670732 4.84907101050204  1.33359348323171 5.4690928823002  C 2.11166130342339 6.55986424517074  2.98621472791241 7.56426959930349  3.94458536585366 8.46775957671619  C 7.00279676067073 11.3516284291752  10.6853983612805 13.0275628554047  14.9645528582317 12.8539453413166  L 15.8470243902439 12.8181420626281  L 15.8766829268293 10.92  C 15.9099837271341 8.82096173475922  14.9309918826219 6.86144262295083  13.3109593368902 5.80041531442111  L 12.8491707317073 5.49864482261783  C 12.1907744213124 5.06600422875849  11.4608453265816 4.77914525946401  10.701008117378 4.6544262295082  L 8.63765853658537 4.31429508196722  C 8.18029268292683 4.23899452164448  7.79941463414634 3.85510383901128  7.67609756097561 3.32913662589652  L 7.43544714176829 2.30646993148055  C 7.21248780487805 1.36251363345288  6.58991867378049 0.596721311475418  5.76364226371951 0.260568292136284  Z M 4.38712195121951 2.27748632492316  C 4.59504014386759 2.10754582911174  4.86776765862023 2.06462506322378  5.11115445884146 2.16354098360656  C 5.36169104420732 2.26555189869365  5.55733330792683 2.50622950819673  5.62965853658537 2.81197812820184  L 5.86978860518293 3.83265573770492  C 6.176 5.14061203573258  7.15317073170732 6.12491803278689  8.35928456554878 6.32297269147028  L 10.4231544588415 6.66310383901127  C 10.9398373856707 6.74778144851434  11.437008117378 6.94327868852459  11.8889105564024 7.2399344262295  L 12.3514796875 7.54227321016905  L 12.4797398246951 7.63064482261782  C 13.4051381859756 8.30209836065573  13.9819186737805 9.45718032786885  14.0120975609756 10.7134207511527  L 14.0120975609756 10.8299235111424  L 13.9899837271341 10.829071052126  C 10.6086503810976 10.7301858062244  7.66907317073171 9.29322407146516  5.16448780487805 6.9316284291752  C 4.29902827421019 6.11563438653469  3.50918473943797 5.20860478556885  2.80637397103658 4.22365025934938  L 2.60969104420731 3.94148632492316  L 2.50718700457317 3.78918032786885  L 4.38712195121951 2.27748632492316  Z " fill-rule="nonzero" fill="#7b7ba3" stroke="none" transform="matrix(1 0 0 1 15 35 )" />
  </g>
</svg>