<?xml version="1.0" encoding="utf-8"?>
<svg version="1.1" xmlns:xlink="http://www.w3.org/1999/xlink" width="70px" height="54px" xmlns="http://www.w3.org/2000/svg">
  <g transform="matrix(1 0 0 1 -153 -65 )">
    <path d="M 13.0462305555556 53.9726931818182  C 11.8076972222222 53.9573522727273  10.1640972222222 53.7723409090909  9.39409722222222 53.5609431818182  C 6.82400833333333 52.8555681818182  3.91605277777778 51.0649772727273  1.22743055555556 48.5315795454545  C -0.14643611111111 47.2368068181818  -0.324391666666666 46.0168977272727  0.75236388888889 45.2731704545455  C 1.13254166666667 45.0102272727273  1.61569722222222 44.7954545454545  1.82631944444445 44.7954545454545  C 2.03663055555556 44.7954545454545  3.14449722222222 45.6146590909091  4.28814166666667 46.6158068181818  C 9.62276388888889 51.2855795454546  14.013475 51.8246590909091  18.9305861111111 48.4128409090909  C 22.1328527777778 46.1911704545455  24.4384972222222 45.333  27.1750305555556 45.3446590909091  C 30.0117416666667 45.3569318181818  31.2235194444444 45.819  34.8551194444444 48.2717045454546  C 36.248275 49.2127159090909  37.8903194444445 50.0754886363636  38.5038305555556 50.1887045454545  C 40.3045416666667 50.5219090909091  42.3861861111111 50.0880681818182  44.5496527777778 48.9289090909091  C 50.1421861111111 45.9322159090909  50.9523194444444 45.6370568181818  54.0204972222222 45.4787386363636  C 55.7860527777778 45.3879204545455  57.5690305555556 45.4787386363636  58.5885416666667 45.7119204545455  C 61.9569416666667 46.4832613636364  68.2843194444444 49.8456818181818  69.3312083333333 51.4215  C 69.9254305555556 52.3164886363636  69.6528972222222 53.1918409090909  68.6371194444444 53.6480795454546  C 67.7535638888889 54.0451022727273  67.4144527777778 53.922375  65.110675 52.3717159090909  C 63.1120972222222 51.0263181818182  59.8852527777778 49.5465340909091  57.9728527777778 49.0979659090909  C 57.0248972222222 48.8758295454546  55.3489416666667 48.7696704545455  54.0839638888889 48.8512840909091  C 51.7817416666667 49.0000909090909  50.4075638888889 49.5330340909091  46.7274305555556 51.7034659090909  C 44.5508972222222 52.9868863636364  42.1180083333333 53.6931818181818  39.8730305555555 53.6931818181818  C 37.5521416666667 53.6931818181818  36.5015194444444 53.3121136363636  33.4348972222222 51.3582954545455  C 29.6828972222222 48.9681818181818  29.2327194444444 48.7840909090909  27.1305416666667 48.7840909090909  C 25.0199638888889 48.7840909090909  23.9516083333333 49.2157840909091  20.4951638888889 51.4662954545455  C 17.4960527777778 53.4191931818182  15.7532083333333 54.0055227272727  13.0462305555556 53.9726931818182  Z M 20.5399638888889 42.7213636363636  C 16.7531194444445 45.2780795454545  13.1635194444445 46.0027840909091  9.39409722222222 44.9709545454545  C 7.57316388888889 44.4726818181818  6.23943055555556 43.7887840909091  3.94965277777778 42.1789090909091  C 1.00840833333334 40.1109545454546  -0.0033249999999984 38.930625  0.115830555555557 37.7064204545455  C 0.193608333333335 36.9077727272727  0.404541666666668 36.6110795454545  1.05258611111111 36.3877159090909  C 1.77965277777778 36.1370454545455  2.08236388888889 36.2557840909091  3.36849722222222 37.2949772727273  C 4.42876388888889 38.1522272727273  4.77969722222222 38.3191363636364  4.60765277777778 37.8846818181818  C 3.46494166666667 35.0024318181818  0.371875000000002 26.07525  0.371875000000002 25.6588977272727  C 0.371875000000002 25.3686477272727  0.715652777777779 24.7924431818182  1.13565277777778 24.3782386363636  C 1.74449722222222 23.7774886363636  2.21676388888889 23.625  3.46898611111111 23.625  L 5.03854166666667 23.625  L 5.04320833333333 19.2528409090909  C 5.04631944444445 16.3791818181818  5.18103055555556 14.6177386363636  5.43645277777778 14.1136363636364  C 5.93454166666667 13.1302840909091  7.66774166666667 12.2739545454545  9.16076388888889 12.2733409090909  L 11 12.2727272727273  L 11 1.79365909090909  L 11.2368083333333 0.896829545454546  C 12.1141416666667 0.0316022727272727  12.2500972222222 0  15.1017416666667 0  C 19.4495194444444 0  19.5341416666667 0.0932727272727274  21.215075 6.74570454545454  C 21.9412083333333 9.61690909090909  22.6583194444444 11.9659090909091  22.8088972222222 11.9659090909091  C 22.9597861111111 11.9659090909091  23.0832972222222 9.67704545454545  23.0832972222222 6.87978409090909  L 23.0832972222222 1.79365909090909  L 23.992675 0.896829545454546  C 24.871875 0.0294545454545455  25.0003638888889 0  27.9052083333333 0  C 32.1375638888889 0  32.2032083333333 0.0757840909090909  33.994275 7.05681818181818  L 35.371875 12.4261363636364  L 35.5274305555556 7.17954545454545  C 35.7327638888889 0.251590909090905  35.8923638888889 0.0248522727272682  40.5655638888889 0.00981818181817801  C 44.7419194444444 -0.00368181818182214  44.847075 0.100329545454541  46.2840972222222 5.67613636363636  C 46.8932527777778 8.03863636363636  47.523875 10.4769204545455  47.6859638888889 11.0945454545455  L 47.9805861111111 12.2171931818182  L 51.1738305555556 12.3215113636364  L 54.3673861111111 12.4261363636364  L 57.4458305555556 14.8806818181818  C 61.5132972222222 18.1234431818182  61.7777416666667 18.505125  61.9227194444444 21.3392045454545  L 62.0400083333333 23.625  L 65.1312083333333 23.625  C 67.9984083333333 23.625  68.2777861111111 23.6796136363636  68.985875 24.3782386363636  C 69.405875 24.7924431818182  69.7496527777778 25.4229545454545  69.7496527777778 25.7797840909091  C 69.7496527777778 26.1366136363636  68.5708527777778 29.1455795454545  67.1300972222222 32.4671931818182  C 65.6896527777778 35.7881931818182  64.4644972222222 38.6600113636364  64.407875 38.8483977272727  C 64.3515638888889 39.0367840909091  65.4252083333333 39.9345340909091  66.7940972222222 40.8427159090909  C 68.9379638888889 42.2654318181818  69.2963638888889 42.6299318181818  69.3791194444445 43.4724545454545  C 69.453475 44.229375  69.3047638888889 44.5607386363636  68.722675 44.9368977272727  C 67.8192083333333 45.5207727272727  67.5080972222222 45.417375  64.8300527777778 43.6445795454545  C 60.8951194444445 41.0396931818182  57.9037861111111 40.0732159090909  54.2833861111111 40.2364431818182  C 52.2888527777778 40.3263409090909  51.4952083333333 40.5223977272727  49.9825861111111 41.2986477272727  C 42.7601416666667 45.0053181818182  43.0416972222222 44.89425  40.509875 45.0387613636364  C 37.5017416666667 45.2105795454545  36.4396083333333 44.8761477272727  33.3029861111111 42.7698409090909  C 29.7721861111111 40.39875  29.2709861111111 40.1925681818182  27.0652083333333 40.1999318181818  C 24.8028083333333 40.2076022727273  23.5403194444445 40.6954431818182  20.5399638888889 42.7213636363636  Z M 10.2966305555556 41.6929090909091  C 11.4384083333333 42.1065  14.0868972222222 42.0988295454545  15.3363194444444 41.6781818181818  C 15.9180972222222 41.4824318181818  17.614275 40.5288409090909  19.1054305555556 39.5586818181818  C 22.3820527777778 37.4275227272727  24.4316527777778 36.7006704545455  27.1274305555556 36.7144772727273  C 29.612275 36.7270568181818  31.6288972222222 37.4640340909091  34.3181416666667 39.3420681818182  C 37.099475 41.2845340909091  38.093475 41.7272727272727  39.6729861111111 41.7272727272727  C 41.4631194444444 41.7272727272727  43.2037861111111 41.1038181818182  46.1198305555556 39.4175454545454  C 47.4224527777778 38.6646136363636  49.3171194444445 37.7616477272727  50.3300972222222 37.4112613636364  C 52.6861416666667 36.5966590909091  56.4468527777778 36.5285454545454  58.9805416666667 37.2547840909091  C 59.9869861111111 37.5431931818182  60.9243638888889 37.6668409090909  61.0637416666667 37.5290795454545  C 61.2031194444444 37.3910113636364  61.5366305555555 36.7605  61.8041861111111 36.1278409090909  L 62.2913861111111 35  L 7.24431944444445 35  L 8.36618611111111 38.1887386363636  C 9.30729722222222 40.8826022727273  9.61871944444445 41.4474545454545  10.2966305555556 41.6929090909091  Z M 63.7573416666667 31  L 64.6079194444444 29.6846590909091  C 65.0758305555556 28.6298181818182  65.5291194444444 27.5943068181818  65.6152972222222 27.3835227272727  C 65.7397416666667 27.0782386363636  59.5081861111111 27  35.0732083333333 27  L 4.37431944444445 27  L 4.59054166666667 27.6903409090909  C 4.70938611111111 28.0701818181818  5.07898611111111 29.1053863636364  5.411875 29.9914772727273  L 6.016675 31  L 63.7573416666667 31  Z M 58.5496527777778 24  L 58.5496527777778 21.9961022727273  C 58.5496527777778 21.1001931818182  58.3744972222222 20.1515113636364  58.1607638888889 19.8876477272727  C 57.9467194444444 19.6237840909091  56.6776972222222 18.5618863636364  55.3402305555556 17.5279090909091  L 52.9092083333333 16  L 8.771875 16  L 8.771875 24  L 58.5496527777778 24  Z M 16.4149416666667 12.2727272727273  C 18.8064527777778 12.2727272727273  19.0643638888889 12.2175  18.9224972222222 11.7357954545455  C 18.8353861111111 11.4403295454545  18.6107638888889 10.6119204545455  18.4228527777778 9.89488636363636  L 18.0812527777778 8.59090909090909  L 13.7496527777778 8.59090909090909  L 13.7496527777778 12.2727272727273  L 16.4149416666667 12.2727272727273  Z M 28.9940972222222 12.2727272727273  C 31.0396527777778 12.2727272727273  31.4829861111111 12.1877386363636  31.4829861111111 11.7950113636364  C 31.4829861111111 11.5320681818182  31.3264972222222 10.7036590909091  31.1348527777778 9.95410227272727  L 30.7870305555556 8.59090909090909  L 26.5052083333333 8.59090909090909  L 26.5052083333333 12.2727272727273  L 28.9940972222222 12.2727272727273  Z M 39.1571638888889 12.0680795454545  C 39.4772972222222 12.3841022727273  44.2385416666667 12.3101590909091  44.2385416666667 11.9892272727273  C 44.2385416666667 11.8333636363636  44.0745861111111 11.0049545454545  43.8739194444444 10.1483181818182  L 43.5092972222222 8.59090909090909  L 38.9496527777778 8.59090909090909  L 38.9496527777778 10.2271704545455  C 38.9496527777778 11.127375  39.0429861111111 11.9557840909091  39.1571638888889 12.0680795454545  Z M 15.4971638888889 5.21590909090909  C 17.1572527777778 5.21590909090909  17.2350305555556 5.18154545454545  17.0567638888889 4.52556818181818  C 16.9537861111111 4.14572727272727  16.8672972222222 3.73182954545455  16.8651194444444 3.60511363636364  C 16.8626305555556 3.47839772727273  16.1607638888889 3.375  15.3052083333333 3.375  C 13.7841861111111 3.375  13.7496527777778 3.39555681818182  13.7496527777778 4.29545454545455  C 13.7496527777778 5.20885227272727  13.7630305555556 5.21590909090909  15.4971638888889 5.21590909090909  Z M 28.2496083333333 5.21590909090909  C 29.7124527777778 5.21590909090909  29.9635194444444 5.13767045454546  29.8051638888889 4.73052272727273  C 29.7012527777778 4.46359090909091  29.6163194444444 4.04938636363636  29.6163194444444 3.81006818181818  C 29.6163194444444 3.49251136363636  29.1963194444444 3.375  28.0607638888889 3.375  C 26.5397416666667 3.375  26.5052083333333 3.39555681818182  26.5052083333333 4.29545454545455  C 26.5052083333333 5.20885227272727  26.5188972222222 5.21590909090909  28.2496083333333 5.21590909090909  Z M 42.3149416666667 4.37215909090909  C 42.2228527777778 3.58517045454546  42.1064972222222 3.52227272727273  40.5829861111111 3.43575  C 39.0429861111111 3.34830681818182  38.9496527777778 3.38481818181818  38.9496527777778 4.07485227272727  C 38.9496527777778 5.09502272727273  39.1549861111111 5.21590909090909  40.8888083333333 5.21590909090909  C 42.3681416666667 5.21590909090909  42.4101416666667 5.19105681818182  42.3146305555556 4.37215909090909  Z " fill-rule="nonzero" fill="#f4a121" stroke="none" transform="matrix(1 0 0 1 153 65 )" />
  </g>
</svg>