<?xml version="1.0" encoding="utf-8"?>
<svg version="1.1" xmlns:xlink="http://www.w3.org/1999/xlink" width="70px" height="55px" xmlns="http://www.w3.org/2000/svg">
  <g transform="matrix(1 0 0 1 -153 -65 )">
    <path d="M 11.3658047566372 54.6749438202247  C 8.0246985619469 54.140393258427  5.32784015486726 52.7147191011236  2.20943307522124 49.8343258426966  C 0.24726493362832 48.022106741573  -0.138974004424777 46.9004775280899  0.856822455752214 45.9070786516854  C 1.68567201327434 45.0802247191011  2.52598174778761 45.3583146067416  4.45036227876106 47.0954494382023  C 5.47031803097345 48.0162359550562  7.30394634955752 49.3016292134831  8.5255392699115 49.9517415730337  C 10.5372649336283 51.0226966292135  10.9650082964602 51.1333146067416  13.069344579646 51.1286797752809  C 15.6454065265487 51.1225  16.5746100663717 50.7532584269663  20.148326880531 48.3144101123596  C 22.185141039823 46.9239606741573  25.4107162610619 45.7303370786517  27.1297428097345 45.7303370786517  C 29.1842118362832 45.7303370786517  31.7769994469027 46.6829494382022  34.269123340708 48.3530337078652  C 39.589123340708 51.9184550561798  40.267751659292 51.8897191011236  47.9946985619469 47.7739887640449  C 52.806733960177 45.2109269662921  57.598326880531 45.2476966292135  63.0914684734513 47.8901685393258  C 68.2373976769912 50.3651685393258  70.2658490044248 52.2268258426966  69.4580613938053 53.7322191011236  C 68.779123340708 54.9975280898877  67.7467782079646 54.883202247191  65.3454065265487 53.2758426966292  C 62.0219551991151 51.0514325842697  58.7294773230089 49.7326685393258  55.9830613938053 49.5253370786517  C 53.1589021017699 49.3121348314607  51.5770879424779 49.7780898876405  47.7450525442478 51.9518258426966  C 44.3800967920354 53.8604494382023  42.6350525442478 54.416011235955  39.9676189159292 54.4274438202247  C 37.553548119469 54.4379494382022  36.1935038716814 53.9169943820225  32.8493003318584 51.6990730337079  C 29.869344579646 49.7233988764045  29.1544773230089 49.4369662921348  27.225141039823 49.445  C 25.4069994469027 49.4527247191011  23.6136366150443 50.1618539325843  21.4702737831859 51.720393258427  C 19.2144773230089 53.3611235955056  17.0293003318584 54.374606741573  15.0500967920354 54.6981179775281  C 14.0459375 54.862191011236  13.1545215707965 54.9799157303371  13.069344579646 54.9595224719101  C 12.9841675884956 54.9394382022472  12.2175746681416 54.8112078651685  11.3658047566372 54.6752528089888  Z M 21.3723976769912 43.0130898876405  C 17.0924861725664 45.8279775280899  14.6979286504425 46.5460674157303  11.3744773230089 46.0102808988764  C 8.00084900442478 45.4664606741573  4.14248617256637 43.312808988764  1.50757466814159 40.5022471910112  C -0.0723810840707955 38.8173314606742  -0.178310287610618 38.4833146067416  0.542751659292036 37.4565449438202  C 1.24615873893805 36.4544943820225  2.34788440265487 36.5994101123596  3.77018528761062 37.881404494382  L 5.0038578539823 38.9931460674157  L 4.4209375 37.3406741573034  C 3.70246834018815 35.3119076889169  2.98181895845912 33.2839102686882  2.25899059734513 31.2566853932584  C 1.3904950221239 28.8193820224719  0.679964048672568 26.5538764044944  0.679964048672568 26.2217134831461  C 0.679964048672568 25.8895505617978  1.02222068584071 25.2768258426966  1.44036227876106 24.859691011236  C 2.04651272123894 24.254691011236  2.51668971238938 24.1011235955056  3.76337112831859 24.1011235955056  L 5.32598174778761 24.1011235955056  L 5.32598174778761 19.600393258427  C 5.32598174778761 13.7660674157303  5.56199944690266 13.2942415730337  8.8104950221239 12.6388764044944  L 11 12.2792134831461  L 11 2.17280898876405  L 11.4643003318584 1.19794943820225  C 12.2652737831858 0.304044943820225  12.530716261062 0.211039325842697  14.6743888274336 0.0738483146067424  C 17.344919800885 -0.0973314606741566  19.0648755530973 0.336488764044944  19.7292560840708 1.34780898876405  C 19.9730171460177 1.71921348314607  20.794123340708 4.38331460674157  21.5542118362832 7.26834269662921  L 22.9356277654867 12.5140449438202  L 22.9582383849557 7.77137640449438  C 22.9842560840708 2.31587078651685  23.2757162610619 1.29775280898876  25.0532826327434 0.456376404494382  C 25.8716012168142 0.0689044943820222  26.7651852876106 -0.034297752808989  28.5873534292035 0.0485112359550556  C 32.1647870575221 0.210421348314606  32.4358047566372 0.560196629213483  34.167530420354 7.26123595505618  L 35.5250967920354 12.5140449438202  L 35.6799640486726 7.41573033707865  C 35.8515569690265 1.77081460674157  36.0364684734513 1.13398876404494  37.7081056415929 0.437219101123595  C 39.0576189159292 -0.125140449438203  42.214123340708 -0.125140449438203  43.5639463495575 0.43752808988764  C 45.0048313053097 1.03820224719101  45.3588578539823 1.7297191011236  46.5017782079646 6.17977528089888  C 47.0472206858407 8.30407303370787  47.6285923672566 10.5633988764045  47.7933711283186 11.2008426966292  L 48.0931941371681 12.3595505617978  L 50.5388578539823 12.3595505617978  C 51.8840348451327 12.3595505617978  53.3639463495575 12.5035393258427  53.8276189159292 12.6793539325843  C 55.3329286504425 13.2500561797753  60.9989021017699 17.902808988764  61.518326880531 18.9944662921348  C 61.8104065265487 19.6090449438202  62.0073976769911 20.8440730337079  62.0073976769911 22.062106741573  L 62.0073976769911 24.1011235955056  L 65.2057162610619 24.1011235955056  C 68.1481941371681 24.1011235955056  68.4579286504425 24.1582865168539  69.0773976769911 24.8161235955056  C 69.4478401548673 25.2094662921348  69.7526189159292 25.8697752808989  69.7544773230089 26.2838202247191  C 69.7566454646018 26.6978651685393  68.547751659292 29.8767415730337  67.0687693584071 33.3479213483146  C 64.4865127212389 39.407808988764  64.4028844026549 39.6760112359551  64.974344579646 40.0770786516854  C 69.4447428097345 43.2126966292135  69.4819109513274 43.2479213483146  69.3821764380531 44.2660393258427  C 69.3152737831858 44.9498314606742  69.0358932522124 45.3870505617978  68.4616454646018 45.7068539325843  C 67.6721321902655 46.1468539325843  67.5466897123894 46.1063764044944  65.4903622787611 44.742191011236  C 61.2274861725664 41.9143258426966  58.1883711283186 40.7865168539326  54.8293003318584 40.7865168539326  C 52.5793888274336 40.7865168539326  51.0839905973451 41.2951123595506  47.5973091814159 43.2466853932584  C 44.082751659292 45.2140168539326  42.2800967920354 45.8106741573034  39.8973091814159 45.7958426966292  C 37.3729728982301 45.7800842696629  35.9203180309735 45.2062921348315  32.6061587389381 42.9151404494382  C 30.2019994469027 41.2527808988764  29.5986366150442 40.9756179775281  28.1224419247788 40.8535674157303  C 25.5051852876106 40.6369662921348  24.491733960177 40.961095505618  21.3723976769912 43.0130898876405  Z M 13.069344579646 42.6070786516854  C 13.6655835176991 42.6234550561798  14.6626189159292 42.4958426966292  15.2845658185841 42.3234269662921  C 15.9071321902655 42.1510112359551  17.5096985619469 41.2957303370787  18.8465127212389 40.4225280898876  C 22.1516897123894 38.2642415730337  24.0862914823009 37.4244101123595  26.2810702433628 37.1954494382022  C 28.9395215707965 36.9182865168539  31.0209375 37.6218539325843  34.5949640486726 40.005702247191  C 36.2433711283186 41.1050842696629  38.1011587389381 42.0997191011236  38.7234153761062 42.2162078651685  C 40.5214242256637 42.5530056179775  42.9283711283186 41.8633426966292  45.8711587389381 40.1688483146067  C 50.9396543141593 37.2507584269663  53.8400082964602 36.6207303370787  57.9808490044248 37.5381179775281  C 59.2585038716814 37.8211516853933  60.4816454646018 38.0769943820225  60.6990790929203 38.1066573033708  C 60.9165127212389 38.1360112359551  61.362530420354 37.5690168539326  61.6905392699115 36.8469101123596  L 62.2867782079646 35  L 7.52726493362832 35  L 8.64974280973452 38.7008426966292  C 9.26704369469027 40.4429213483146  9.81000829646018 41.9189606741573  9.85615873893805 41.9810674157303  C 10.0147428097345 42.1936516853933  11.9837251106195 42.5774157303371  13.069344579646 42.6070786516854  Z M 63.7459375 32  L 64.7150967920354 29.8174157303371  L 65.684565818584 27  L 35.1627074115044 27  C 10.8736366150442 27.5  4.67027378318584 27.5787921348315  4.78642422566372 27.8862359550562  C 4.86664546460177 28.0988202247191  5.24854811946903 29.1416573033708  5.6350967920354 30.2036516853933  L 6.33850387168142 32  L 63.7459375 32  Z M 58.2905835176991 25  L 58.2757162610619 22.1699438202247  L 58.2608490044248 20.2387640449438  L 55.6017782079646 18.1530898876405  L 52.9423976769911 16  L 9.04279590707965 16  L 9.04279590707965 25  L 58.2905835176991 25  Z M 19.1813357300885 12.3595505617978  L 18.7071321902655 10.6601123595506  L 18.2326189159292 8.96067415730337  L 13.998548119469 8.96067415730337  L 13.998548119469 12.3595505617978  L 19.1813357300885 12.3595505617978  Z M 31.7206277654867 12.3595505617978  L 31.5171321902655 11.5509269662921  C 31.3784953856541 10.9870421618882  31.2511690777265 10.4204496308191  31.1352295353982 9.85148876404494  C 30.9589905973451 8.97334269662921  30.9261587389381 8.96067415730337  28.8270879424779 8.96067415730337  L 26.6976631637168 8.96067415730337  L 26.6976631637168 12.3595505617978  L 31.7206277654867 12.3595505617978  Z M 44.3643003318584 12.3595505617978  L 44.1533711283186 11.5098314606742  C 43.5122206858407 8.92884831460674  43.722530420354 9.12351123595506  41.4664242256637 9.02370786516854  L 39.3967782079646 8.93286516853933  L 39.3967782079646 12.3595505617978  L 44.3643003318584 12.3595505617978  Z M 15.6590348451327 5.25280898876405  C 17.2634596238938 5.25280898876405  17.3145658185841 5.22654494382022  17.1717782079646 4.48033707865169  C 17.0379728982301 3.78202247191011  16.8784596238938 3.70786516853933  15.5109817477876 3.70786516853933  C 14.1041675884956 3.70786516853933  13.998548119469 3.76193820224719  13.998548119469 4.48033707865169  C 13.998548119469 5.20831460674157  14.0945658185841 5.25280898876405  15.6590348451327 5.25280898876405  Z M 28.2680171460177 5.25280898876405  C 29.719123340708 5.25280898876405  29.8306277654867 5.20028089887641  29.7392560840708 4.55758426966292  C 29.6546985619469 3.96432584269663  29.4242560840708 3.84845505617978  28.1689021017699 3.76811797752809  C 26.7729286504425 3.6788202247191  26.6976631637168 3.71435393258427  26.6976631637168 4.46334269662921  C 26.6976631637168 5.2064606741573  26.7905835176991 5.25280898876405  28.2680171460177 5.25280898876405  Z M 40.9454507743363 5.25280898876405  C 41.7972206858407 5.25280898876405  42.494123340708 5.12519662921348  42.494123340708 4.96915730337079  C 42.494123340708 4.02705056179775  42.0546100663717 3.70786516853933  40.7574419247788 3.70786516853933  C 39.5123091814159 3.70786516853933  39.3967782079646 3.7736797752809  39.3967782079646 4.48033707865169  C 39.3967782079646 5.20120786516854  39.499919800885 5.25280898876405  40.9454507743363 5.25280898876405  Z " fill-rule="nonzero" fill="#f4a121" stroke="none" transform="matrix(1 0 0 1 153 65 )" />
  </g>
</svg>