<?xml version="1.0" encoding="utf-8"?>
<svg version="1.1" xmlns:xlink="http://www.w3.org/1999/xlink" width="70px" height="54px" xmlns="http://www.w3.org/2000/svg">
  <g transform="matrix(1 0 0 1 -153 -65 )">
    <path d="M 13.2242118362832 53.9720795454726  C 11.8613799778761 53.9650227272953  10.1888136061947 53.7836931819579  9.50739767699115 53.5698409093687  C 6.84491980088496 52.7334545462724  4.33637997787611 51.1613181836512  1.68660121681416 48.667806821625  C 0.261202986725665 47.326397731582  -0.0262306415929192 46.1525113687037  0.856822455752214 45.2774659147233  C 1.62930033185841 44.5125681879445  2.45412334070797 44.70678409691  3.86155696902655 45.9840681869943  C 9.56934457964602 51.1653068200123  14.052751659292 51.9078068195328  18.9756720132743 48.4873977308324  C 19.9696100663717 47.7967500040056  21.730141039823 46.7900795501102  22.8882383849557 46.2506931868221  C 24.6902737831858 45.4106250055464  25.3301852876106 45.2713295510909  27.323326880531 45.2842159147189  C 30.0226631637168 45.3017045510713  32.0272649336283 46.0641477323971  34.8981941371681 48.1652386401313  C 38.915141039823 51.1045568200515  40.4455392699115 51.0622159109879  46.7331498893805 47.8375568221611  L 51.1096985619469 45.5931818236103  L 54.0682826327434 45.4652386418748  C 56.1961587389381 45.3731931873887  57.6395215707965 45.4857954600433  59.2101852876106 45.867170459797  C 63.0419109513274 46.7971363682875  69.0925746681416 50.2807500024016  69.5937251106195 51.8455227286639  C 69.860716261062 52.6785340917624  69.260141039823 53.6496136365899  68.3362029867257 53.8791136364417  C 67.7405835176991 54.0273068181642  67.1452737831858 53.7861477274108  65.7898755530973 52.8475909098351  C 59.8894330752212 48.7626136397456  54.5675746681416 47.7430568222221  50.356733960177 49.8910909117442  C 48.8796860487191 50.6461148010814  47.4041080884883 51.4039571164022  45.9300082964602 52.1646136375488  C 43.5636366150443 53.3863636367599  43.083548119469 53.5204431821279  40.6595658185841 53.6351931820538  C 37.4600082964602 53.7867613637741  36.7398755530974 53.5376250002986  32.6312472345133 50.8591022747554  C 30.0923534292036 49.2038181849152  29.5177959070797 48.9568295487111  27.9409375 48.8439204578749  C 25.6507605088496 48.6797727307081  24.4914242256637 49.0703522759105  21.5154950221239 51.0094431837493  C 17.8779728982301 53.3796136367642  16.1756720132744 53.9880340909168  13.2242118362832 53.9720795454726  Z M 13.5339463495575 45.3087613692485  C 11.802530420354 45.3670568237563  10.2708932522124 45.248625005651  9.49098174778761 44.9958068239961  C 7.05739767699115 44.2072840972325  4.23788440265487 42.4719204619894  2.12704369469027 40.4641022814678  C 0.304256084070799 38.7296591007696  0.0248755530973476 38.3268068283024  0.21288440265487 37.7027386468872  C 0.746247234513277 35.9302500116681  2.06695519911505 35.784204557217  3.77018528761062 37.3084772835054  L 5.0038578539823 38.4124091009744  L 4.4209375 36.7715454656703  C 3.70246887606203 34.7570304761191  2.9818194940555 32.7432793192847  2.25899059734513 30.7302954695713  C 1.3904950221239 28.3101136529523  0.679964048672568 26.060522745314  0.679964048672568 25.7306932000724  C 0.679964048672568 25.4008636548309  1.02222068584071 24.7924432006783  1.44036227876106 24.3782386554912  C 2.04651272123894 23.7774886558791  2.51668971238938 23.625000019614  3.76337112831859 23.625000019614  L 5.32598174778761 23.625000019614  L 5.32598174778761 19.3755682041761  C 5.32598174778761 17.0379204784129  5.47496404867257 14.7021136617393  5.65739767699115 14.1842045711647  C 6.05881360619469 13.042840935538  7.53562776548673 12.2727272996717  9.32155696902655 12.2727272996717  L 11 12.2727272996717  L 11 1.79365912462012  L 11.4968224557522 0.896829579744683  C 12.3761587389381 0.0257727621253298  12.4910702433628 0  15.4812472345133 0  C 19.7078844026549 0  19.7010702433628 -0.007363601489637  21.4581941371681 6.74570457596791  C 22.2052737831858 9.61690911956844  22.9232383849558 11.9659091180516  23.053326880531 11.9659091180516  C 23.1840348451327 11.9659091180516  23.2905835176991 9.63746593773698  23.2905835176991 6.79172730321092  L 23.2905835176991 1.61785230655183  L 24.1070436946903 0.808772761619726  C 24.8798313053097 0.0432613984776734  25.0889021017699 0  28.0025746681416 0  C 32.3047870575221 0  32.3484596238938 0.0500113984733148  34.1473976769911 7.04270457577613  L 35.5250967920354 12.3979091177727  L 35.6799640486726 7.19611366658616  C 35.8902737831858 0.131931852965871  35.9835038716814 0  40.7527959070796 0  C 44.938548119469 0  44.9332826327434 -0.0061363287631569  46.6832826327434 6.66010230329591  C 47.4455392699115 9.56382957414817  48.069344579646 12.0150000271108  48.069344579646 12.106125027052  C 48.069344579646 12.1978636633564  49.4538578539823 12.2727272996717  51.1456277654867 12.2727272996717  L 54.2216012168142 12.2727272996717  L 57.5726189159292 14.8951022979784  C 59.4155392699115 16.3374545697743  61.1673976769912 17.9577613869098  61.4653622787611 18.4956136592898  C 61.8308490044248 19.1549659315913  62.0073976769912 20.1493636582219  62.0073976769912 21.5490682027726  L 62.0073976769912 23.625000019614  L 65.0629286504425 23.625000019614  C 67.685141039823 23.625000019614  68.2343003318584 23.7152045650103  68.9346100663717 24.2610341101123  C 69.4602295353982 24.6703295643935  69.7507605088496 25.1949886549638  69.7507605088496 25.7346818364335  C 69.7507605088496 26.1952159270452  68.5167782079646 29.4097500158786  67.0089905973451 32.8777159227301  L 64.2669109513274 39.1834431913856  L 66.7766897123894 40.8387272812259  C 69.111158738938 42.3789545529586  69.2861587389381 42.5685681891998  69.2861587389381 43.5565227340164  C 69.2861587389381 44.386159097117  69.106512721239 44.7184431878115  68.4653622787611 45.0752727330357  C 67.6789463495575 45.5121818236626  67.5535038716814 45.4716818236888  65.5228844026549 44.1281250063745  C 60.9171321902655 41.0814204628873  57.9105392699115 40.0474431908277  54.2631056415929 40.256386372511  C 52.2746100663717 40.3705227360736  51.5374419247788 40.5767045541223  49.7456277654867 41.5198636444224  C 43.7714684734513 44.664750006028  43.1420879424779 44.9040681876917  40.479919800885 45.0421363694207  C 37.4516454646018 45.1998409147734  36.2693888274336 44.7752045514113  32.3571321902655 42.1246022803955  C 30.2007605088496 40.6638409177024  29.5478401548673 40.376659099706  28.1128401548673 40.2591477361456  C 25.5900525442478 40.0517386453704  24.5137251106195 40.361318190625  21.9150525442478 42.0417613713581  C 17.5979728982301 44.8335000059191  16.648326880531 45.2035227329529  13.5339463495575 45.3087613692485  Z M 15.2845658185841 41.7192954624754  C 15.9071321902655 41.5480909171314  17.5096985619469 40.6988181904071  18.8465127212389 39.8317500091488  C 22.8327959070796 37.2468068289998  24.2913357300885 36.6982159202631  27.1622649336283 36.7031250111691  C 30.1000967920354 36.708034102075  31.3003180309735 37.1633522835992  35.0109375 39.6807954637918  C 36.3976189159292 40.6218068268205  38.0550082964602 41.4885681898972  38.6936808628319 41.6076136443657  C 40.5753180309734 41.957079553231  42.9729728982301 41.2578409173189  46.2471764380531 39.4055795548786  C 47.9206720132743 38.458738646399  49.9562472345133 37.4781477379413  50.7705392699115 37.2265568290129  C 52.7125746681416 36.6261136475824  57.3678844026549 36.6386931930289  59.3681498893805 37.249875010816  C 61.0840790929203 37.7739204650231  61.1342560840708 37.7509091014016  61.8079286504425 36.1278409206314  L 62.2855392699115 35  L 7.53996404867257 35  L 8.67854811946903 38.2065341011074  C 9.71182245575221 41.1372613719422  9.90292865044248 41.4606477353697  10.7463357300885 41.7073295533923  C 12.035141039823 42.0837954622401  13.9412472345133 42.0890113713276  15.2845658185841 41.7196022806571  Z M 64.7228401548673 29.3778409249901  L 65.6662914823009 27  L 35.2912472345133 27  C 18.5847870575221 27.0322159265047  4.8688136061947 27.0438750174063  4.8108932522124 27.1009431991876  C 4.75328263274337 27.1583181991506  5.07478705752214 28.1944431984815  5.52545077433629 29.4036136522462  L 6.34500829646018 31  L 63.7790790929204 31  L 64.722530420354 29.3778409249901  Z M 58.6003180309735 24  L 58.5956720132743 22.0142045661086  C 58.5931941371681 21.1281136575899  58.4885038716814 20.2579772945154  58.3633711283186 20.0800227491758  C 58.2382383849558 19.9020682038361  56.9720436946903 18.832193204527  55.5494330752212 17.7021818416203  L 52.9631498893805 16  L 9.04279590707965 16  L 9.04279590707965 24  L 58.6003180309735 24  Z M 16.6520436946903 12.2727272996717  C 19.0329728982301 12.2727272996717  19.2897428097345 12.2175000269801  19.1485038716814 11.7357954818366  C 19.0617782079646 11.4403295729365  18.8381498893805 10.6119204825623  18.6510702433628 9.89488639211621  L 18.3109817477876 8.59090912023096  L 13.998548119469 8.59090912023096  L 13.998548119469 12.2727272996717  L 16.6520436946903 12.2727272996717  Z M 29.1755392699115 12.2727272996717  C 31.2120436946903 12.2727272996717  31.6534153761062 12.1877386633629  31.6534153761062 11.7950113908893  C 31.6534153761062 11.5320682092409  31.4976189159292 10.7036591188667  31.3068224557522 9.95410230116888  L 30.9605392699115 8.59090912023096  L 26.6976631637168 8.59090912023096  L 26.6976631637168 12.2727272996717  L 29.1755392699115 12.2727272996717  Z M 39.2936366150443 12.0680795725311  C 39.6123534292035 12.3841022995998  44.352530420354 12.3101591178293  44.352530420354 11.9892272998547  C 44.352530420354 11.8333636635918  44.1893003318584 11.0049545732176  43.9895215707965 10.1483182101344  L 43.6265127212389 8.59090912023096  L 39.0870436946903 8.59090912023096  L 39.0870436946903 10.2271704828107  C 39.0870436946903 11.127375027684  39.1799640486726 11.9557841180582  39.2936366150443 12.0680795725311  Z M 15.7352295353982 5.21590912241029  C 17.1916012168142 5.21590912241029  17.4415569690266 5.13767048609717  17.2839021017699 4.73052275908735  C 17.1804507743363 4.46359094107789  17.0958932522124 4.04938639589081  17.0958932522124 3.81006821422716  C 17.0958932522124 3.4925113962504  16.677751659292 3.37500003268992  15.5472206858407 3.37500003268992  C 14.0329286504425 3.37500003268992  13.998548119469 3.39555685085846  13.998548119469 4.2954545775501  C 13.998548119469 5.20885230423302  14.0121764380531 5.21590912241029  15.7352295353982 5.21590912241029  Z M 29.738326880531 4.37215912295511  C 29.6485038716814 3.5995909416358  29.5162472345133 3.52043185077782  28.1689021017699 3.43482957810583  C 26.7140790929204 3.34247730543819  26.6976631637168 3.35198866906841  26.6976631637168 4.278579577561  C 26.6976631637168 5.20056821332928  26.7236808628319 5.21590912241028  28.2667782079646 5.21590912241028  C 29.7959375 5.21590912241028  29.8337251106195 5.19443184969688  29.7380171460177 4.37215912295511  Z M 40.9971764380531 5.21590912241028  C 42.0827959070797 5.21590912241028  42.494123340708 5.09625003157846  42.494123340708 4.78084094087304  C 42.494123340708 3.65297730523769  42.1199640486726 3.37500003268992  40.6025746681416 3.37500003268992  C 39.2211587389381 3.37500003268992  39.0870436946903 3.43851139628527  39.0870436946903 4.09080685040952  C 39.0870436946903 5.0922613952174  39.2970436946903 5.21590912241028  40.9971764380531 5.21590912241028  Z " fill-rule="nonzero" fill="#f4a121" stroke="none" transform="matrix(1 0 0 1 153 65 )" />
  </g>
</svg>