<?xml version="1.0" encoding="utf-8"?>
<svg version="1.1" xmlns:xlink="http://www.w3.org/1999/xlink" width="69px" height="54px" xmlns="http://www.w3.org/2000/svg">
  <g transform="matrix(1 0 0 1 -153 -65 )">
    <path d="M 15.891966796875 53.564625  C 14.1472525111607 54.08775  11.5043060825893 54.0862159090909  9.60927036830357 53.5609431818182  C 6.80244893973214 52.7831590909091  3.07182840401786 50.4099204545455  1.00860518973214 48.090375  C 0.0980516183035727 47.0668295454546  -0.00606445312499862 46.7931477272727  0.244060546875001 46.0807159090909  C 0.756323939732144 44.620875  1.91885072544643 44.8123295454546  4.18938197544643 46.7311704545455  C 7.484748046875 49.5155454545455  9.31940876116071 50.4028636363636  12.1151409040179 50.56425  C 14.953998046875 50.7277840909091  15.8756409040179 50.4246477272727  19.2911409040179 48.2038977272727  C 22.4558998325893 46.1460681818182  24.5249757254464 45.4075568181818  27.1020025111607 45.4158409090909  C 29.5835382254464 45.4238181818182  30.9077837611607 45.9592159090909  34.5071810825893 48.4091590909091  C 36.9579132254464 50.0773295454546  37.1716900111607 50.1601704545455  39.3008328683036 50.26725  L 41.5294712611607 50.3795454545455  L 45.5148373325893 48.3069886363636  C 47.7065114397321 47.1674659090909  50.1929757254464 46.0506477272727  51.0400739397321 45.8254431818182  C 55.4933462611607 44.6423522727273  61.0173507254464 46.0340795454545  66.5241051897322 49.7266363636364  C 68.5081632254464 51.057  69.1359400111607 52.0943522727273  68.5355784040179 53.0503977272727  C 67.9583194754464 53.9693181818182  66.7366498325893 53.7932045454546  64.8477748325893 52.5189886363636  C 62.0779176897322 50.6504659090909  59.331779296875 49.3915909090909  56.944810546875 48.8954659090909  C 53.5653507254464 48.1937727272727  51.592998046875 48.6380454545455  47.1896275111607 51.0928977272727  C 42.6199176897322 53.6404090909091  39.6131810825893 54.2491363636364  36.678216796875 53.2209886363637  C 35.9367748325893 52.9614204545455  34.0827078683036 51.9323522727273  32.5579310825893 50.9348863636364  C 30.9293462611607 49.8693068181818  29.1861721540179 48.9884318181818  28.3329132254464 48.8000454545455  C 26.5811141183036 48.4134545454546  24.4593641183036 48.7939090909091  22.804904296875 49.791375  C 21.7048096743048 50.4578836543055  20.6066577360054 51.1275682879879  19.5104623325893 51.8004204545455  C 18.3189801897322 52.5315681818182  16.6907034040179 53.3253068181818  15.891966796875 53.564625  Z M 20.6970159040178 42.4074886363636  C 16.3795873325893 45.2213181818182  13.1852569754464 45.9598295454545  9.60927036830357 44.9706477272727  C 7.27281947544643 44.3244886363636  4.88585072544643 42.9919772727273  2.49672572544643 41.0004204545455  C 0.675618582589288 39.4822840909091  0.195082868303573 38.9042386363637  0.119922154017859 38.140875  C 0.0493819754464302 37.4266022727273  0.203707868303573 37.0596477272727  0.727368582589287 36.6942272727273  C 1.67396233258929 36.0339545454546  1.67273018973214 36.0336477272727  3.29453822544643 37.4318181818182  C 4.07756501116072 38.1068181818182  4.77557393973214 38.6590909090909  4.84580608258929 38.6590909090909  C 4.91603822544643 38.6590909090909  4.82639983258929 38.27925  4.64681501116072 37.8153409090909  C 4.46723018973214 37.3514318181818  3.42822572544643 34.4875909090909  2.33747126116072 31.4519318181818  C 0.63372572544643 26.7085227272727  0.402082868303573 25.81875  0.690404296875002 25.1253409090909  C 1.11056501116072 24.1134545454545  2.16219893973214 23.625  3.91738643973214 23.625  L 5.28136858258929 23.625  L 5.36607840401786 18.6717272727273  C 5.44955608258929 13.7822727272727  5.46064536830357 13.7113977272727  6.225498046875 13.1431704545455  C 6.65120340401786 12.8268409090909  7.72563197544643 12.4822840909091  8.61277483258929 12.3776590909091  L 10.225341796875 12.1874318181818  L 10.225341796875 7.30534090909091  C 10.225341796875 0.377079545454545  10.4899444754464 0  15.3516721540179 0  C 19.1146364397321 0  19.2649578683036 0.186545454545455  20.9841051897321 6.98011363636364  C 21.7212346540179 9.89089772727273  22.4432703683036 12.2727272727273  22.5889712611607 12.2727272727273  C 22.7352882254464 12.2727272727273  22.8548060825893 9.91482954545455  22.8548060825893 7.03319318181818  L 22.8548060825893 1.79365909090909  L 23.783841796875 0.868295454545455  C 24.711029296875 -0.0552272727272721  24.7202703683036 -0.0570681818181813  27.7806051897321 0.0481704545454551  C 30.3557837611607 0.136534090909091  30.9441319754464 0.251897727272728  31.449310546875 0.767045454545455  C 31.9815962611607 1.31011363636364  32.4898551897321 2.98380681818182  34.5943551897321 11.1221590909091  C 35.2091944754464 13.5  35.4842703683036 12.2362159090909  35.4842703683036 7.03319318181818  L 35.4842703683036 1.79365909090909  L 36.3846587611607 0.896829545454546  C 37.2406900111607 0.0441818181818182  37.4159623325893 0  39.9424712611607 0  C 41.7121364397321 0  42.9008462611607 0.154943181818182  43.5012078683036 0.464215909090909  C 44.4998596540178 0.97875  44.7003909040179 1.51782954545455  46.4106051897321 8.28409090909091  L 47.3799935825893 12.1193181818182  L 50.4563462611607 12.2727272727273  C 53.9186676897321 12.4454659090909  53.6950337611607 12.3408409090909  57.8082346540178 15.7011136363636  C 60.8494712611607 18.1854204545455  61.2908864397321 18.9751704545455  61.3355516183036 22.0142045454545  L 61.3592703683036 23.625  L 64.2086007254464 23.6296022727273  C 67.4038551897321 23.6345113636364  68.4135962611607 23.9842840909091  68.8285203683036 25.2299659090909  C 69.0644757254464 25.9384090909091  68.6948328683036 27.0291477272727  66.4378551897321 32.2867840909091  C 65.4974786110428 34.4745704109444  64.5590987588797 36.6632076792492  63.622716796875 38.8526931818182  C 63.5426275111607 39.0438409090909  64.6001141183036 39.9379090909091  65.9724132254464 40.8396477272727  C 68.5599132254464 42.5400340909091  69.082341796875 43.3003295454545  68.4594935825893 44.4601022727273  C 67.9259757254464 45.4529659090909  66.6861319754464 45.2541477272727  64.6823596540179 43.8544431818182  C 60.543591796875 40.962375  55.8910203683036 39.5574545454545  52.5134087611607 40.179375  C 50.6867569754464 40.5159545454545  50.5872614397321 40.5589090909091  46.4968551897321 42.7762840909091  C 42.2552034040179 45.0755795454545  39.4258953683036 45.5947159090909  36.5094132254464 44.6082954545455  C 35.7060560825893 44.3367613636364  33.7648150111607 43.2411136363636  32.195373046875 42.174  C 27.7088328683036 39.1226931818182  25.6733328683036 39.1641136363636  20.6970159040178 42.4074886363636  Z M 15.6098060825893 41.5962613636364  C 16.1882971540179 41.3554090909091  17.466029296875 40.6153636363636  18.4489712611607 39.9511022727273  C 22.3517837611607 37.3155340909091  23.3033060825893 36.9718977272727  26.7052525111607 36.9718977272727  C 30.1937569754464 36.9715909090909  30.5316721540179 37.0986136363636  34.8694310825893 40.0403863636364  C 37.1824712611607 41.6091477272727  37.4818819754464 41.7272727272727  39.1538998325893 41.7272727272727  C 41.385310546875 41.7272727272727  42.6239221540178 41.2989545454545  46.0483551897321 39.3432954545455  C 49.6277301897321 37.2989659090909  51.9635650111607 36.6801136363636  55.2687882254464 36.9010227272727  C 56.6703507254464 36.9946022727273  58.4126007254464 37.2866931818182  59.1407971540178 37.5499431818182  L 60.4644266183036 38.0285795454545  L 61.0657123325893 36.6307159090909  C 61.3965426897321 35.8621363636364  61.6673060825893 35.1754772727273  61.6673060825893 35.1052159090909  C 61.6673060825893 35.0346477272727  49.3905426897321 34.9772727272727  34.3855069754464 35  L 7.10339983258929 35  L 7.31779268973214 35.6676136363636  C 8.40731501116071 39.1776136363636  9.444779296875 41.4953181818182  10.0322034040179 41.7315681818182  C 11.083529296875 42.1546704545455  14.4654534040179 42.0724431818182  15.609498046875 41.5962613636364  Z M 63.215185546875 31  L 63.9510828683036 29.9451477272727  C 64.355841796875 29.0338977272727  64.7790828683036 27.9980795454546  64.8921319754464 27.6440113636364  L 65.0972837611607 27  L 34.7348194754464 27  C 18.0355873325893 27  4.37266322544644 27.1165909090909  4.37266322544644 27.2586477272727  C 4.37266322544644 27.5847954545455  5.51116322544643 30.8962840909091  5.76252036830358 31.3012840909091  C 5.882654296875 31.4945795454545  16.1919935825893 31.6022727272727  34.582341796875 31  L 63.215185546875 31  Z M 57.971185546875 24  L 57.9708775111607 21.8040340909091  L 57.9708775111607 19.983375  L 55.0198953683036 17.6619886363636  L 52.0698373325893 16  L 31.3787703683036 16  C 19.9986989397321 15.346125  10.1677391183036 15.4332613636364  9.53256947544643 15.5375795454545  L 8.377435546875 15.7278068181818  L 8.377435546875 24  L 57.971185546875 24  Z M 16.2320382254464 12.2727272727273  C 18.123685546875 12.2727272727273  18.8491096540179 12.1662613636364  18.8457212611607 11.8892045454545  C 18.8429489397321 11.6781136363636  18.6547391183036 10.884375  18.427716796875 10.125  L 18.0143328683036 8.74431818181818  L 15.8140337611607 8.65411363636364  L 13.6137346540179 8.56390909090909  L 13.6137346540179 12.2727272727273  L 16.2320382254464 12.2727272727273  Z M 28.728123046875 12.2727272727273  C 31.2426185825893 12.2727272727273  31.5056810825893 12.2190340909091  31.3649087611607 11.7357954545455  C 31.2786587611607 11.4403295454545  31.0562569754464 10.6119204545455  30.8702034040179 9.89488636363636  L 30.5319801897321 8.59090909090909  L 25.9351632254464 8.59090909090909  L 25.9351632254464 12.2727272727273  L 28.728123046875 12.2727272727273  Z M 44.0405784040179 12.2727272727273  L 43.5748284040179 10.4318181818182  L 43.1093864397321 8.59090909090909  L 38.5646275111607 8.59090909090909  L 38.5646275111607 12.2727272727273  L 44.0405784040179 12.2727272727273  Z M 15.3079310825893 5.21590909090909  C 16.5650248325893 5.21590909090909  17.0021275111607 5.10361363636364  17.0021275111607 4.78084090909091  C 17.0021275111607 3.65297727272727  16.6300203683036 3.375  15.1209534040179 3.375  C 13.651623046875 3.375  13.6137346540179 3.39801136363636  13.6137346540179 4.29545454545455  C 13.6137346540179 5.20670454545455  13.6309846540179 5.21590909090909  15.3079310825893 5.21590909090909  Z M 27.8194176897321 5.21590909090909  C 29.622966796875 5.21590909090909  29.6953551897321 5.18645454545455  29.5176185825893 4.52556818181818  C 29.4156587611607 4.14572727272727  29.3300248325893 3.73182954545455  29.3278685825893 3.60511363636364  C 29.325404296875 3.47839772727273  28.5611676897321 3.375  27.6293596540179 3.375  C 25.9524132254464 3.375  25.9351632254464 3.38420454545455  25.9351632254464 4.29545454545455  L 25.9351632254464 5.21590909090909  L 27.8194176897321 5.21590909090909  Z M 40.4458016183036 5.21590909090909  C 42.0346498325893 5.21590909090909  42.2980203683036 5.14043181818182  42.139998046875 4.73052272727273  C 42.0371141183036 4.46359090909091  41.9530203683036 4.04938636363636  41.9530203683036 3.81006818181818  C 41.9530203683036 3.48729545454546  41.5159176897321 3.375  40.2588239397322 3.375  C 38.5818775111607 3.375  38.5646275111607 3.38420454545455  38.5646275111607 4.29545454545455  L 38.5646275111607 5.21590909090909  L 40.4458016183036 5.21590909090909  Z " fill-rule="nonzero" fill="#f4a121" stroke="none" transform="matrix(1 0 0 1 153 65 )" />
  </g>
</svg>