<?xml version="1.0" encoding="utf-8"?>
<svg version="1.1" xmlns:xlink="http://www.w3.org/1999/xlink" width="70px" height="54px" xmlns="http://www.w3.org/2000/svg">
  <g transform="matrix(1 0 0 1 -153 -65 )">
    <path d="M 21.0296527777778 50.9358068181818  C 16.3807194444444 53.9058068181818  13.6127638888889 54.5427613636364  9.77676388888889 53.5244318181818  C 7.01938611111111 52.7920568181818  4.496275 51.2794431818182  1.69409722222222 48.6773181818182  C -0.0107916666666652 47.0944431818182  -0.270258333333332 46.3930568181818  0.549519444444446 45.5845909090909  C 1.38516388888889 44.7604772727273  2.16605277777778 45.0375340909091  4.49658611111111 46.9836818181818  C 9.970275 51.5552727272727  14.3407638888889 51.9498409090909  19.3468527777778 48.3257045454545  C 22.7398305555556 45.869625  26.3658305555556 44.9470227272727  29.6097861111111 45.714375  C 30.6317861111111 45.9561477272727  32.3435194444444 46.8256704545455  34.2328972222222 48.0630681818182  C 35.8833416666667 49.1436818181818  37.7944972222222 50.1810340909091  38.4804972222222 50.3681931818182  C 40.2227194444445 50.8437613636364  42.9340527777778 50.1092386363636  46.118275 48.2977840909091  C 49.4210305555556 46.4191363636364  51.2503638888889 45.7619318181818  53.8369416666667 45.5247613636364  C 57.6667194444444 45.1737613636364  61.9805861111111 46.5354204545455  67.0582305555556 49.6981022727273  C 69.1955638888889 51.0293863636364  69.8541861111111 52.0507840909091  69.2192083333333 53.0503977272727  C 68.6209416666667 53.9923295454545  67.5849416666667 53.7784772727273  65.1383638888889 52.2084886363636  C 60.9088083333333 49.4937613636364  56.8531638888889 48.232125  53.6309861111111 48.6291477272727  C 52.3834305555555 48.7828636363636  50.7805861111111 49.4170568181818  47.8390305555555 50.9204659090909  C 40.5160972222222 54.6633409090909  38.3616527777778 54.6019772727273  32.2514305555556 50.4765  C 28.2552083333333 47.7783409090909  25.8157861111111 47.8780568181818  21.0296527777778 50.9358068181818  Z M 17.2620972222222 44.4002727272727  C 15.1633416666667 45.3529431818182  12.0232972222222 45.5753863636364  9.70925277777778 44.9359772727273  C 7.37809722222222 44.2916590909091  4.77316388888889 42.822  2.39005277777778 40.8068181818182  C 0.344808333333334 39.0775909090909  -0.267769444444444 38.0172272727273  0.279786111111112 37.1541477272727  C 0.894852777777778 36.1846022727273  2.22640833333333 36.3748295454546  3.51689722222222 37.61775  C 4.17645277777778 38.2528636363636  4.77503055555556 38.7124772727273  4.84720833333333 38.6391477272727  C 4.919075 38.5655113636364  4.01156388888889 35.8320681818182  2.83058611111111 32.5647613636364  C 1.64929722222222 29.2971477272727  0.682986111111113 26.2464545454545  0.682986111111113 25.7856136363636  C 0.682986111111113 24.5730681818182  1.60543055555556 23.9201590909091  3.60649722222222 23.7164318181818  L 5.34965277777778 23.5390909090909  L 5.34965277777778 18.8263636363636  C 5.34965277777778 14.5753977272727  5.40876388888889 14.0553409090909  5.95165277777778 13.5199431818182  C 6.57418611111111 12.906  8.41876388888889 12.2773295454545  9.60720833333333 12.2742613636364  C 10.2751638888889 12.2727272727273  10.2882305555556 12.1852840909091  10.3849861111111 7.03073863636364  L 10.4829861111111 1.78905681818182  L 11.499075 0.894681818181822  C 12.442675 0.0638181818181819  12.6931194444444 0  15.0146305555556 0  C 17.8435638888889 0  19.2043638888889 0.503795454545454  19.6756972222222 1.72615909090909  C 19.840275 2.15325  20.4018305555556 4.18315909090909  20.9232527777778 6.237  C 21.4449861111111 8.29114772727273  22.0096527777778 10.4895  22.178275 11.1221590909091  C 22.7973861111111 13.4469204545455  23.0829861111111 12.2653636363636  23.0829861111111 7.37805681818182  C 23.0829861111111 2.04003409090909  23.2883194444444 1.14872727272727  24.6836527777778 0.437215909090909  C 25.8375638888889 -0.151261363636363  29.987475 -0.143590909090909  31.149475 0.448875  C 32.2492527777778 1.00973863636364  32.2262305555556 0.952056818181818  33.7917416666667 7.03595454545454  C 34.5051194444444 9.80867045454545  35.2576972222222 12.1328181818182  35.4636527777778 12.200625  C 35.7461416666667 12.2935909090909  35.8385416666667 11.0377840909091  35.8385416666667 7.09946590909091  C 35.8385416666667 2.02009090909091  35.8593861111111 1.85134090909091  36.5889416666667 1.01434090909091  C 37.2967194444444 0.202499999999999  37.5057861111111 0.147579545454545  40.2650305555555 0.049090909090908  C 43.0342305555555 -0.0497045454545462  43.2417416666667 -0.0128863636363641  44.1476972222222 0.738818181818181  C 45.0119638888889 1.45615909090909  45.2347194444444 2.052  46.451475 6.90279545454545  L 47.7985861111111 12.2727272727273  L 50.545075 12.2727272727273  C 52.4748972222222 12.2727272727273  53.583075 12.4215340909091  54.271875 12.7728409090909  C 55.6451194444444 13.473  60.9284083333333 17.7055568181818  61.2252083333333 18.3425113636364  C 61.3596083333333 18.6324545454545  61.5478305555556 19.9738636363636  61.6430305555556 21.3238636363636  L 61.8163194444444 23.7784090909091  L 65.2061861111111 23.9318181818182  C 68.4513861111111 24.0787840909091  68.6231194444445 24.1208181818182  69.2263638888889 24.9194659090909  L 69.856675 25.7537045454545  L 66.9580527777778 32.5196590909091  C 65.3636083333333 36.2413636363636  64.1144972222222 39.3224318181818  64.1823194444444 39.3672272727273  C 64.2498305555555 39.4117159090909  65.1452083333333 39.9787159090909  66.171875 40.6264090909091  C 69.4967194444445 42.7250454545454  70.0508083333334 43.5402613636364  68.8695194444445 44.5944886363636  C 68.0824083333333 45.2971022727273  67.3341861111111 45.2302159090909  66.1681416666667 44.3533295454545  C 61.5534305555556 40.8819886363636  55.9512527777778 39.2524772727273  52.1345416666667 40.2711136363636  C 51.2587638888889 40.5049090909091  49.1587638888889 41.4741477272727  47.467875 42.4249772727273  C 44.4420083333333 44.1268977272727  41.6189861111111 45.1022727272727  39.7184083333334 45.1022727272727  C 37.9936083333333 45.1022727272727  35.579075 44.1910227272727  33.5870305555556 42.78825  C 28.3712527777778 39.1147159090909  26.1287638888889 38.9867727272727  21.3245861111111 42.0887045454545  C 19.9815194444445 42.9554659090909  18.1537416666667 43.9958863636364  17.2620972222222 44.4002727272727  Z M 12.0385416666667 42.2003863636364  C 12.6697861111111 42.4354090909091  15.1701861111111 41.958  16.3091638888889 41.3848636363636  C 16.9550305555556 41.0596363636364  18.5510305555556 40.1066590909091  19.8558305555556 39.2665909090909  C 22.5883194444444 37.5076022727273  24.650675 36.8138863636364  27.106275 36.8283068181818  C 29.4924972222222 36.8421136363636  31.5025861111111 37.6085454545455  34.517875 39.6547159090909  C 38.9378305555556 42.6541704545455  40.6529861111111 42.6440454545455  46.1241861111111 39.5856818181818  C 51.1103638888889 36.7982386363636  54.425875 36.2330795454546  58.9575194444444 37.398375  L 61.0761861111111 37.9432840909091  L 61.484675 37.1504659090909  C 61.7092972222222 36.7147840909091  61.9902305555556 36.0471477272727  62.109075 35.6676136363636  L 62.3249861111111 35  L 34.7704972222222 35  C 19.6156527777778 34.9772727272727  7.21507500000001 35.0809772727273  7.21351944444445 35.2073863636364  C 7.2119638888889 35.3337954545455  7.71938611111112 36.8497840909091  8.34098611111112 38.5756363636364  C 9.45756388888889 41.6751136363636  9.48525277777778 41.7159204545455  10.5996527777778 41.8990909090909  C 11.2196972222222 42.0009545454545  11.8674305555556 42.1365681818182  12.0385416666667 42.2003863636364  Z M 63.864675 31.6022727272727  L 64.7849416666667 29.5794204545455  C 65.2911194444444 28.4668977272727  65.7052083333333 27.4313863636364  65.7052083333333 27.2782840909091  C 65.7052083333333 27.1138295454546  53.1313416666667 27  34.9325861111111 27  L 4.160275 27  L 4.98814166666667 29.2996022727273  L 5.81631944444445 31  L 34.8404972222222 31  L 63.864675 31.6022727272727  Z M 58.5779638888889 24  L 58.4861861111111 21.8684659090909  L 58.3940972222222 19.8048068181818  L 55.5940972222222 17.5825227272727  L 52.7940972222222 16  L 31.1196083333333 16  C 19.1984527777778 15.3452045454545  9.22360833333333 15.4246704545455  8.95294166666666 15.5271477272727  C 8.53791944444443 15.6842386363636  8.46076388888888 16.358625  8.46076388888888 19.8226022727273  L 8.46076388888888 24  L 58.5779638888889 24  Z M 19.0323194444444 11.8892045454545  C 19.0292083333333 11.6781136363636  18.8447194444445 10.8153409090909  18.6228972222222 9.97159090909091  L 18.2196972222222 8.4375  L 13.5940972222222 8.4375  L 13.5013861111111 10.3551136363636  L 13.4089861111111 12.2727272727273  L 16.2236083333333 12.2727272727273  C 18.2713416666667 12.2727272727273  19.0369861111111 12.1684090909091  19.0326305555556 11.8892045454545  Z M 31.8616083333333 12.2727272727273  L 31.6547194444444 11.4289772727273  C 31.4892477349972 10.7628841081937  31.318442404302 10.0980906332583  31.1423194444444 9.43465909090909  L 30.8368083333333 8.28409090909091  L 26.1940972222222 8.28409090909091  L 26.1940972222222 12.2727272727273  L 31.8616083333333 12.2727272727273  Z M 44.4289416666667 11.7357954545455  C 44.3393416666667 11.4403295454545  44.1035194444444 10.5428863636364  43.9040972222222 9.74147727272727  L 43.5425861111111 8.28409090909091  L 38.9496527777778 8.28409090909091  L 38.9496527777778 12.2727272727273  L 41.7704972222222 12.2727272727273  C 44.3116527777778 12.2727272727273  44.575475 12.2193409090909  44.4292527777778 11.7357954545455  Z M 17.4394305555556 5.21590909090909  L 17.1500972222222 4.22089772727273  C 16.9911194444444 3.67353409090909  16.8607638888889 3.18293181818182  16.8607638888889 3.13077272727273  C 16.8607638888889 3.07861363636364  16.1259194444444 3.07769318181818  15.2274305555556 3.12893181818182  C 13.6345416666667 3.21944318181818  13.5916083333333 3.24644318181818  13.4967194444444 4.21875  L 13.3990305555556 5.21590909090909  L 17.4394305555556 5.21590909090909  Z M 28.0607638888889 5.21590909090909  C 29.3487638888889 5.21590909090909  29.9261861111111 5.09717045454546  29.923075 4.83238636363636  C 29.9068972222222 3.34984090909091  29.5789861111111 3.06818181818182  27.8688083333333 3.06818181818182  L 26.1940972222222 3.06818181818182  L 26.1940972222222 5.21590909090909  L 28.0607638888889 5.21590909090909  Z M 40.8163194444444 5.21590909090909  C 41.8429861111111 5.21590909090909  42.6829861111111 5.08704545454546  42.6829861111111 4.92903409090909  C 42.6829861111111 4.77132954545455  42.5464083333333 4.28778409090909  42.3796527777778 3.85517045454545  C 42.1092972222222 3.15439772727273  41.9045861111111 3.06818181818182  40.5129861111111 3.06818181818182  L 38.9496527777778 3.06818181818182  L 38.9496527777778 5.21590909090909  L 40.8163194444444 5.21590909090909  Z " fill-rule="nonzero" fill="#f4a121" stroke="none" transform="matrix(1 0 0 1 153 65 )" />
  </g>
</svg>