<?xml version="1.0" encoding="utf-8"?>
<svg version="1.1" xmlns:xlink="http://www.w3.org/1999/xlink" width="70px" height="55px" xmlns="http://www.w3.org/2000/svg">
  <g transform="matrix(1 0 0 1 -153 -65 )">
    <path d="M 13.2366012168142 54.9755898876404  C 12.7187251106195 54.9619943820225  11.4147428097345 54.7602247191011  10.3390348451327 54.5272471910112  C 7.65208794247788 53.9454213483146  4.64518528761062 52.188202247191  2.11930033185841 49.7240168539326  C 0.31943307522124 47.9677247191011  0.029831305309735 47.5422471910112  0.214742809734514 46.9233426966292  C 0.725804756637169 45.2118539325843  2.29244192477876 44.9609550561798  3.64195519911505 46.3739606741573  C 5.94792865044248 48.7887078651685  10.7463357300885 51.2921348314607  13.069344579646 51.2921348314607  C 14.6288578539823 51.2921348314607  17.0419994469027 50.352808988764  19.1082383849558 48.9413483146067  C 25.0985038716814 44.8497191011236  28.8246100663717 44.7153089887641  34.371955199115 48.3907303370787  C 36.0284153761062 49.4879494382023  37.919344579646 50.5462359550562  38.5744330752212 50.7421348314607  C 40.3904065265487 51.2856460674157  42.631955199115 50.6723033707865  46.2053622787611 48.6536797752809  C 49.6558047566372 46.7048876404494  51.0855392699115 46.1966011235955  53.9874419247788 45.8863764044944  C 57.7216012168142 45.4877808988764  63.1376189159292 47.2956741573034  67.6665569690265 50.4532303370787  C 69.6606277654867 51.8436797752809  70.0871321902655 52.7422191011236  69.3131056415929 53.920702247191  C 68.588326880531 55.0244101123596  67.7963357300885 54.8862921348315  65.1357162610619 53.191797752809  C 59.4768667035398 49.5880617977528  55.1706277654867 48.6360674157303  51.4448313053097 50.1649438202247  C 50.4905392699115 50.5564325842697  48.7303180309734 51.4401404494382  47.5335038716814 52.1285674157303  C 44.5036808628319 53.8712640449438  42.443326880531 54.505308988764  39.8613799778761 54.4901685393258  C 37.499344579646 54.4765730337079  35.7093888274336 53.7748595505618  32.8427959070796 51.7398595505618  C 30.5439463495575 50.1077808988764  28.9983711283186 49.438202247191  27.5308490044248 49.438202247191  C 25.6114242256637 49.438202247191  24.4948313053097 49.8914887640449  20.9675746681416 52.1032303370786  C 17.8916012168142 54.0319382022472  15.2136366150443 55.0268820224719  13.2366012168142 54.9755898876404  Z M 11.8304065265487 46.1258426966292  C 8.63859236725664 45.7912078651685  5.03668971238938 43.9073033707865  1.78788440265487 40.8724157303371  C -0.0293279867256626 39.1751404494382  -0.246142146017698 38.5800280898876  0.542751659292037 37.4565449438202  C 1.24275165929204 36.4588202247191  2.46310564159292 36.5759269662921  3.68500829646018 37.757191011236  C 4.24686670353982 38.300393258427  4.70403484513275 38.6130898876404  4.7009375 38.4524157303371  C 4.69784015486726 38.2917415730337  3.79186670353982 35.6585393258427  2.68766316371681 32.601404494382  C 1.58345962389381 29.5439606741573  0.679964048672568 26.6830337078652  0.679964048672568 26.2436516853933  C 0.679964048672568 24.9295224719101  1.8550967920354 24.1011235955056  3.7196985619469 24.1011235955056  L 5.32598174778761 24.1011235955056  L 5.32598174778761 19.4458988764045  C 5.32598174778761 16.8442134831461  5.46660121681416 14.5286516853933  5.64500829646018 14.1961797752809  C 6.07306139380531 13.3980617977528  7.3367782079646 12.7939887640449  9.12022953539823 12.5353651685393  L 10.5914684734513 12.3215449438202  L 10.5914684734513 7.14598314606741  C 10.5914684734513 2.31865168539326  10.635141039823 1.92376404494382  11.2406720132743 1.27519662921348  C 12.1565569690266 0.294466292134831  13.1226189159292 0  15.4223976769912 0  C 17.8590790929204 0  19.3863799778761 0.588314606741572  19.9730171460177 1.75227528089888  C 20.214919800885 2.23306179775281  20.9561144911504 4.7816011235955  21.6195658185841 7.41573033707865  L 22.8259817477876 12.2050561797753  L 22.9808490044248 7.26123595505618  C 23.0839905973451 3.97266853932584  23.273548119469 2.07578651685393  23.5476631637168 1.59592696629213  C 24.1324419247788 0.572556179775281  25.7421321902655 0  28.0357162610619 0  C 30.4346100663717 0  31.764919800885 0.424241573033708  32.4004950221239 1.39199438202247  C 32.6637693584071 1.79244382022472  33.474344579646 4.45870786516854  34.2019109513274 7.31685393258427  L 35.5250967920354 12.5140449438202  L 35.6799640486726 7.21550561797753  C 35.8146985619469 2.60601123595506  35.9100967920354 1.83384831460674  36.4140348451327 1.27890449438202  C 37.2936808628319 0.31115168539326  38.8937693584071 -0.0775561797752791  41.4682826327434 0.0522191011235973  C 44.7173976769912 0.215983146067417  45.1612472345133 0.746825842696631  46.4844330752212 6.04969101123596  C 47.0320436946903 8.24567415730337  47.6180613938053 10.5633988764045  47.7868667035398 11.2008426966292  L 48.0935038716814 12.3595505617978  L 50.6488136061947 12.3595505617978  C 53.7263357300885 12.3595505617978  54.2600082964602 12.5968539325843  58.2515569690265 15.7417415730337  C 61.560141039823 18.3483707865169  62.0073976769912 19.1035393258427  62.0073976769912 22.082808988764  L 62.0073976769912 24.1011235955056  L 65.247530420354 24.1011235955056  C 68.1819551991151 24.1011235955056  68.5474419247788 24.1650842696629  69.1192118362832 24.7775  C 69.4664242256637 25.1492134831461  69.7507605088496 25.8311516853933  69.7507605088496 26.2918539325843  C 69.7507605088496 26.7531741573034  68.5660259955752 29.9224719101124  67.1180171460177 33.3349438202247  C 65.6700082964602 36.7474157303371  64.4852737831858 39.5910393258427  64.4852737831858 39.6543820224719  C 64.4852737831858 39.7174157303371  65.4566012168142 40.4132584269663  66.6435038716814 41.2005617977528  C 67.830716261062 41.9881741573034  69.0368224557522 42.989606741573  69.3236366150442 43.4265168539326  C 69.8185923672566 44.1804494382022  69.8136366150442 44.2632584269663  69.2248313053097 45.0527247191011  C 68.8838136061947 45.5103370786517  68.3396100663717 45.9240730337079  68.0162472345133 45.9725842696629  C 67.6925746681416 46.021095505618  66.4520879424779 45.4130056179775  65.2596100663717 44.6216853932584  C 60.0814684734513 41.1851123595506  55.7699640486726 40.0851123595506  51.9605392699115 41.2286797752809  C 51.1505835176991 41.4718539325843  49.2816454646018 42.3614325842697  47.8073091814159 43.2055898876405  C 44.2778844026549 45.2263764044944  42.5102295353982 45.8041853932584  39.860141039823 45.8032584269663  C 37.3153622787611 45.8020224719101  36.0950082964602 45.3564606741573  33.3061587389381 43.4116853932584  C 30.3323976769912 41.3380617977528  29.0872649336283 40.7865168539326  27.3759817477876 40.7865168539326  C 25.2874419247788 40.7865168539326  24.1819994469027 41.2225  21.0561587389381 43.2794382022472  C 17.5158932522124 45.608595505618  14.8230613938053 46.4394662921348  11.830716261062 46.1258426966292  Z M 10.9228844026549 42.2369101123596  C 12.2714684734513 42.7047191011236  13.5144330752212 42.7251123595506  15.0826189159292 42.3048876404494  C 15.7640348451327 42.1222752808989  17.5998313053097 41.1384550561798  19.1624419247788 40.1187921348315  C 25.1914242256637 36.1841292134831  28.9351852876106 36.121404494382  34.4800525442478 39.8629494382022  C 35.9497428097345 40.8544943820225  37.7269994469027 41.8373876404494  38.4297870575221 42.0475  C 40.2593888274336 42.5944101123595  42.3711587389381 42.0419382022472  45.7559375 40.1311516853932  C 49.1868667035398 38.1937921348315  51.3042118362832 37.4349157303371  53.9347870575221 37.1988483146067  C 55.7609817477876 37.0350842696629  58.6889021017699 37.4599438202247  60.4742118362832 38.1483707865168  C 60.8105835176991 38.2781460674157  61.1122649336283 38.0031460674157  61.4808490044248 37.2319101123595  C 61.7704507743363 36.6262921348315  62.0073976769911 35.9962640449438  62.0073976769911 35.8321910112359  C 62.0073976769911 35.6424719101124  52.0906277654867 35.5337078651685  34.788548119469 35  L 7.5696985619469 35  L 8.7150967920354 38.7008426966292  C 9.78089325221239 41.6482865168539  9.93421183628319 41.8936235955056  10.9228844026549 42.2369101123596  Z M 64.6906277654867 29.8124719101124  L 65.6703180309734 27  L 4.74894634955752 27  L 5.5300967920354 29.8174157303371  L 6.31124723451327 32  L 35.0112472345133 32  L 63.7109375 32.1246348314607  L 64.6906277654867 29.8121629213483  Z M 58.2905835176991 25  L 58.2905835176991 22.2576966292135  L 58.2905835176991 20.4136516853933  L 55.5835038716814 18.2405337078652  L 52.8773534292035 16  L 9.04279590707965 16  L 9.04279590707965 25  L 58.2905835176991 25  Z M 18.9543003318584 12.0326404494382  C 18.9543003318584 11.852808988764  18.7985038716814 11.0880617977528  18.6077074115044 10.333202247191  L 18.2614242256637 8.96067415730337  L 13.998548119469 8.96067415730337  L 13.998548119469 12.3595505617978  L 16.4764242256637 12.3595505617978  C 18.0111587389381 12.3595505617978  18.9543003318584 12.2353370786517  18.9543003318584 12.0329494382022  Z M 31.7206277654867 12.3595505617978  L 31.5171321902655 11.5506179775281  C 31.3784953856541 10.9867331731241  31.2511690777265 10.4201406420551  31.1352295353982 9.8511797752809  C 30.9589905973451 8.97334269662921  30.9261587389381 8.96067415730337  28.8270879424779 8.96067415730337  L 26.6976631637168 8.96067415730337  L 26.6976631637168 12.3595505617978  L 31.7206277654867 12.3595505617978  Z M 44.3643003318584 12.3595505617978  L 44.1533711283186 11.5095224719101  C 43.5122206858407 8.9285393258427  43.722530420354 9.12320224719101  41.4664242256637 9.0233988764045  L 39.3967782079646 8.93286516853933  L 39.3967782079646 12.3595505617978  L 44.3643003318584 12.3595505617978  Z M 15.6590348451327 5.25280898876405  C 17.2634596238938 5.25280898876405  17.3145658185841 5.22654494382022  17.1717782079646 4.48033707865169  C 17.0379728982301 3.78202247191011  16.8784596238938 3.70786516853933  15.5109817477876 3.70786516853933  C 14.1041675884956 3.70786516853933  13.998548119469 3.76193820224719  13.998548119469 4.48033707865169  C 13.998548119469 5.20831460674157  14.0945658185841 5.25280898876405  15.6590348451327 5.25280898876405  Z M 28.2463357300885 5.25280898876405  C 29.0981056415929 5.25280898876405  29.7950082964602 5.12519662921348  29.7950082964602 4.96915730337079  C 29.7950082964602 4.02705056179775  29.3554950221239 3.70786516853933  28.058326880531 3.70786516853933  C 26.8131941371681 3.70786516853933  26.6976631637168 3.7736797752809  26.6976631637168 4.48033707865169  C 26.6976631637168 5.20120786516854  26.8008047566372 5.25280898876405  28.2463357300885 5.25280898876405  Z M 40.9785923672566 5.25280898876405  C 42.2937251106195 5.25280898876405  42.5288136061947 5.17030898876405  42.3723976769912 4.76398876404495  C 42.2689463495575 4.49516853932584  42.1843888274336 4.14755617977528  42.1843888274336 3.99151685393258  C 42.1843888274336 3.83547752808989  41.5571764380531 3.70786516853933  40.7905835176991 3.70786516853933  C 39.5104507743363 3.70786516853933  39.3967782079646 3.77089887640449  39.3967782079646 4.48033707865169  C 39.3967782079646 5.20337078651685  39.497751659292 5.25280898876405  40.9785923672566 5.25280898876405  Z " fill-rule="nonzero" fill="#f4a121" stroke="none" transform="matrix(1 0 0 1 153 65 )" />
  </g>
</svg>