<?xml version="1.0" encoding="utf-8"?>
<svg version="1.1" xmlns:xlink="http://www.w3.org/1999/xlink" width="70px" height="54px" xmlns="http://www.w3.org/2000/svg">
  <g transform="matrix(1 0 0 1 -153 -65 )">
    <path d="M 16.4161861111111 53.4955909090909  C 14.4288083333333 54.1494204545454  11.2417861111111 54.1126022727273  9.08298611111111 53.4106022727273  C 6.80378611111111 52.6693295454545  5.00431944444445 51.6215454545454  2.47716388888889 49.5643295454545  C -0.174747222222221 47.40525  -0.690880555555554 45.7849431818182  1.06471944444445 45.1311136363636  C 1.96911944444445 44.7945340909091  2.58480833333333 45.1151590909091  4.72743055555556 47.0379886363636  C 5.66854166666667 47.8826590909091  7.41449722222222 49.035375  8.60760833333333 49.5993068181818  C 12.3997416666667 51.3923522727273  15.4688527777778 50.9578977272727  19.5789416666667 48.0455795454545  C 22.0563194444444 46.2905795454545  24.5648083333333 45.4090909090909  27.0820083333333 45.4090909090909  C 29.7435638888889 45.4090909090909  31.2879194444444 45.9331363636364  33.8673416666667 47.7114545454546  C 36.858675 49.7735795454545  38.104675 50.3181818181818  39.8313416666667 50.3181818181818  C 41.7907194444444 50.3181818181818  43.3524972222222 49.7640681818182  46.6851194444444 47.8866477272727  C 49.9651638888889 46.0389886363636  52.068275 45.4090909090909  54.9569416666667 45.4090909090909  C 58.8623194444444 45.4090909090909  63.8456972222222 47.239875  67.9607638888889 50.18625  C 69.1143638888889 51.0125113636364  69.4385416666667 51.4325454545455  69.4385416666667 52.1007954545454  C 69.4385416666667 54.1101477272727  67.8403638888889 54.1926818181818  65.1268527777778 52.3238522727273  C 61.2504083333333 49.6539204545455  56.5940083333333 48.2922613636364  53.165875 48.826125  C 52.2770305555555 48.9641931818182  50.6396527777778 49.568625  49.5274305555555 50.169375  C 43.8816972222222 53.2179204545455  43.0476083333333 53.5127727272727  40.0385416666667 53.5268863636364  C 36.8960083333333 53.5413068181818  36.2899638888889 53.3127272727273  32.2193861111111 50.5771363636363  C 29.7357861111111 48.9080454545454  27.9083194444444 48.4125340909091  25.723075 48.8153863636363  C 24.085075 49.1169886363636  23.8355638888889 49.2387954545454  20.4824083333333 51.3763977272727  C 19.0892527777778 52.2643295454545  17.2596083333333 53.2179204545454  16.4161861111111 53.4955909090909  Z M 20.0876083333333 42.9606818181818  C 16.329075 45.3805568181818  13.2680527777778 45.9401931818182  9.39409722222222 44.9166477272727  C 5.80791944444445 43.9685795454546  0.0607638888888907 39.7363295454545  0.0607638888888907 38.0426931818182  C 0.0607638888888904 37.1292954545455  0.753919444444446 36.2045454545455  1.43836388888889 36.2045454545455  C 1.65800833333333 36.2045454545455  2.48805277777778 36.6942272727273  3.28263055555556 37.2925227272727  C 4.07720833333333 37.8908181818182  4.72743055555556 38.3203636363636  4.72743055555556 38.2473409090909  C 4.72743055555556 38.1737045454545  3.74058611111111 35.3816590909091  2.53471944444445 32.0425568181818  C 0.566319444444446 26.5928522727273  0.379652777777779 25.8813409090909  0.710675000000002 25.093125  C 1.19289722222222 23.9453181818182  1.85898611111111 23.625  3.76578611111111 23.625  L 5.33409722222222 23.625  L 5.41965277777778 18.6717272727273  L 5.50520833333333 13.7187613636364  L 6.33774166666667 13.1063522727273  C 6.80005277777778 12.7657840909091  7.86249722222222 12.4282840909091  8.72894166666667 12.3460568181818  L 10.2882305555556 12.1984772727273  L 10.3856083333333 6.83897727272727  L 10.4829861111111 1.47947727272727  L 11.3559638888889 0.740045454545455  C 12.1461861111111 0.0696477272727274  12.5092527777778 0  15.1910305555556 0  C 19.375475 0  19.459475 0.0975681818181817  21.1976527777778 6.98011363636364  C 21.9328083333333 9.89089772727273  22.6580083333333 12.2727272727273  22.8085861111111 12.2727272727273  C 22.959475 12.2727272727273  23.0829861111111 9.91482954545455  23.0829861111111 7.03319318181818  L 23.0829861111111 1.79365909090909  L 23.9923638888889 0.896829545454546  C 24.8703194444444 0.0312954545454546  25.0047194444444 0  27.8638305555556 0  C 32.0072083333333 0  32.1297861111111 0.122727272727273  33.537875 5.67613636363636  C 35.1920527777778 12.2012386363636  35.2240972222222 12.3040227272727  35.5420527777778 12.1104204545455  C 35.7109861111111 12.0073295454545  35.8385416666667 9.7065  35.8385416666667 6.75920454545455  L 35.8385416666667 1.58870454545454  L 36.7958305555556 0.794045454545454  C 37.6750305555556 0.0650454545454545  37.9880083333333 0  40.6389861111111 0  C 43.2591638888889 0  43.5998305555556 0.0684204545454542  44.3359194444444 0.740965909090909  C 44.7817416666667 1.14842045454546  45.2468527777778 1.873125  45.3694305555556 2.35176136363636  C 45.4920083333333 2.83039772727273  46.1005416666667 5.22357954545455  46.7224527777778 7.67045454545455  L 47.8527194444444 12.1193181818182  L 50.9744083333333 12.2727272727273  C 54.4964972222222 12.4457727272727  54.5683638888889 12.4801363636364  58.8604527777778 16.038  C 61.4635194444444 18.1955454545455  61.9261416666667 19.0669090909091  61.9541416666667 21.8607954545455  L 61.971875 23.625  L 65.0969861111111 23.625  C 68.0005861111111 23.625  68.2765416666667 23.6783863636364  68.985875 24.3782386363636  C 69.405875 24.7924431818182  69.7496527777778 25.4014772727273  69.7496527777778 25.7319204545455  C 69.7496527777778 26.0623636363636  68.616275 28.9335681818182  67.2312083333333 32.1122045454545  C 65.8461416666667 35.2911477272727  64.5942305555556 38.1902727272727  64.4492527777778 38.5553863636364  C 64.2159194444445 39.1435568181818  64.4669861111111 39.4006704545455  66.6612527777778 40.8215454545455  C 69.2422305555556 42.4924772727273  69.7816972222222 43.2834545454545  69.1429861111111 44.4601022727273  C 68.6035194444444 45.4541931818182  67.4091638888889 45.2455568181818  65.124675 43.7587159090909  C 61.1825861111111 41.1921818181818  58.2550305555555 40.1348863636364  54.9992527777778 40.1014431818182  C 52.5153416666667 40.0756704545455  51.1371194444444 40.4978522727273  48.1274305555555 42.2056022727273  C 44.8473861111111 44.0670681818182  43.0028083333333 44.7718295454546  40.8225416666666 44.9967272727273  C 38.0816527777778 45.279  36.2249416666666 44.6899090909091  32.8556083333333 42.4685454545454  C 27.5984527777778 39.0021136363636  26.1496083333333 39.0579545454546  20.0876083333333 42.9606818181818  Z M 15.7569416666667 41.5999431818182  C 16.3365416666667 41.360625  17.9073416666667 40.4328068181818  19.2469861111111 39.5375113636364  C 22.3537416666667 37.4615795454545  24.1628527777778 36.8399659090909  27.1274305555556 36.831375  C 29.872675 36.8230909090909  31.4419194444444 37.4345795454545  35.0508083333333 39.9198068181818  C 36.8807638888889 41.1796022727273  37.6772083333333 41.5373522727273  38.9132527777778 41.6545568181818  C 41.2316527777778 41.8742386363636  42.2191194444444 41.590125  45.6385416666667 39.7176136363636  C 47.3496527777778 38.7805909090909  49.5501416666667 37.7447727272727  50.5285861111111 37.4161704545455  C 52.7051194444444 36.6847159090909  56.4188527777778 36.6239659090909  58.9659194444444 37.2784090909091  C 59.9515194444444 37.5315340909091  60.8627638888889 37.7386363636364  60.9912527777778 37.7386363636364  C 61.1197416666667 37.7386363636364  61.4268083333333 37.2207272727273  61.6744527777778 36.5880681818182  C 61.9217861111111 35.9551022727273  62.1716083333333 35.3337954545454  62.229475 35.2073863636364  C 62.2873416666667 35.0809772727273  49.9331194444444 34.9772727272727  34.775475 34.9772727272727  C 19.6181416666667 34.9772727272727  7.22471944444443 35.0809772727273  7.2349861111111 35.2073863636364  C 7.24525277777777 35.3337954545454  7.77165277777777 36.8120454545454  8.40445277777777 38.4924886363636  C 9.35769722222221 41.0237386363636  9.68778611111111 41.5839886363636  10.3302305555555 41.7601022727273  C 11.6972527777778 42.1353409090909  14.6702305555556 42.0475909090909  15.7569416666667 41.5996363636363  Z M 63.8873861111111 31  L 64.7961416666667 29.3474659090909  C 65.2960972222222 28.1916818181818  65.7052083333333 27.1905340909091  65.7052083333333 27.1230340909091  C 65.7052083333333 27.0555340909091  51.9152083333333 27  35.0607638888889 27  C 15.6237861111111 27  4.41631944444445 27.108  4.41631944444445 27.2954659090909  C 4.41631944444445 27.4580795454545  4.67423055555556 28.2518181818182  4.98938611111112 29.0596704545455  C 5.25082411358718 29.7267573202593  5.50698005965888 30.3958458705344  5.75783055555556 31.066875  C 5.94294166666668 31.5761931818182  7.54111944444445 31.6010454545454  34.9204527777778 31  L 63.8873861111111 31  Z M 58.5496527777778 24  L 58.5496527777778 21.8175340909091  L 58.5496527777778 20.0097613636364  L 55.671875 17.7521931818182  L 52.7940972222222 16  L 32.571875 16  C 21.4496527777778 15.3491931818182  11.4744972222222 15.3946022727273  10.4052083333333 15.5019886363636  L 8.46076388888888 15.6965113636364  L 8.46076388888888 24  L 58.5496527777778 24  Z M 16.3940972222222 12.2727272727273  C 17.8485416666667 12.2727272727273  19.0357416666667 12.1690227272727  19.0323194444444 12.0426136363636  C 19.0292083333333 11.9162045454545  18.8456527777778 11.1221590909091  18.6244527777778 10.2784090909091  L 18.2221861111111 8.74431818181818  L 15.9859194444445 8.65411363636364  L 13.7496527777778 8.56390909090909  L 13.7496527777778 12.2727272727273  L 16.3940972222222 12.2727272727273  Z M 29.2224527777778 12.2727272727273  C 31.5644972222222 12.2727272727273  31.8196083333333 12.2168863636364  31.6780527777778 11.7357954545455  C 31.5909416666667 11.4403295454545  31.3663194444444 10.6119204545455  31.1784083333333 9.89488636363636  L 30.8368083333333 8.59090909090909  L 26.1940972222222 8.59090909090909  L 26.1940972222222 10.2271704545455  C 26.1940972222222 11.127375  26.2874305555556 11.9557840909091  26.4016083333333 12.0680795454545  C 26.515475 12.1806818181818  27.7851194444444 12.2727272727273  29.2224527777778 12.2727272727273  Z M 41.5940972222222 12.2727272727273  C 43.7805861111111 12.2727272727273  44.2385416666667 12.1898863636364  44.2385416666667 11.7950113636364  C 44.2385416666667 11.5320681818182  44.0820527777778 10.7036590909091  43.8904083333333 9.95410227272727  L 43.5425861111111 8.59090909090909  L 38.9496527777778 8.59090909090909  L 38.9496527777778 12.2727272727273  L 41.5940972222222 12.2727272727273  Z M 15.4607638888889 5.21590909090909  C 16.7304083333333 5.21590909090909  17.171875 5.10361363636364  17.171875 4.78084090909091  C 17.171875 3.65297727272727  16.7960527777778 3.375  15.2719194444444 3.375  C 13.7879194444444 3.375  13.7496527777778 3.39801136363636  13.7496527777778 4.29545454545455  C 13.7496527777778 5.20670454545455  13.767075 5.21590909090909  15.4607638888889 5.21590909090909  Z M 28.3043638888889 5.21590909090909  C 29.9109416666667 5.21590909090909  29.990275 5.17970454545454  29.8123194444444 4.52556818181818  C 29.7093416666667 4.14572727272727  29.6228527777778 3.73182954545455  29.620675 3.60511363636364  C 29.6181861111111 3.47839772727273  28.8463194444444 3.375  27.9052083333333 3.375  C 26.3200972222222 3.375  26.1940972222222 3.42777272727273  26.1940972222222 4.09080681818182  C 26.1940972222222 5.106375  26.3997416666667 5.21590909090909  28.3043638888889 5.21590909090909  Z M 40.8163194444444 5.21590909090909  C 41.8429861111111 5.21590909090909  42.6829861111111 5.15577272727273  42.6829861111111 5.08244318181818  C 42.6829861111111 5.00880681818182  42.5464083333333 4.59460227272727  42.3796527777778 4.16198863636364  C 42.1092972222222 3.46121590909091  41.9045861111111 3.375  40.5129861111111 3.375  C 38.9832527777778 3.375  38.9496527777778 3.39494318181818  38.9496527777778 4.29545454545455  L 38.9496527777778 5.21590909090909  L 40.8163194444444 5.21590909090909  Z " fill-rule="nonzero" fill="#f4a121" stroke="none" transform="matrix(1 0 0 1 153 65 )" />
  </g>
</svg>