<?xml version="1.0" encoding="utf-8"?>
<svg version="1.1" xmlns:xlink="http://www.w3.org/1999/xlink" width="28px" height="28px" xmlns="http://www.w3.org/2000/svg">
  <g transform="matrix(1 0 0 1 -1106 -20 )">
    <path d="M 27.125 14  C 27.125 6.7625151171875  21.2374848828125 0.875  14 0.875  C 6.7625151171875 0.875  0.875 6.7625151171875  0.875 14  C 0.875 21.2374848828125  6.7625151171875 27.125  14 27.125  C 21.2374848828125 27.125  27.125 21.2374848828125  27.125 14  Z M 15.4062625976563 21.9790686816406  C 15.4062625976563 22.7553252441406  14.7762565625 23.3853312792969  14 23.3853312792969  C 13.2237434375 23.3853312792969  12.5937374023438 22.7553252441406  12.5937374023438 21.9790686816406  C 12.5937374023438 21.2028121191406  13.2237434375 20.5728060839844  14 20.5728060839844  C 14.7762565625 20.5728060839844  15.4062625976563 21.2028121191406  15.4062625976563 21.9790686816406  Z M 18.6875251953125 10.3062928613281  C 18.6875251953125 11.7087253027344  17.6234545214844 12.7718888574219  16.5950141210938 13.8003292578125  C 15.7793979394531 14.6150382910156  14.9375251953125 15.4569110351563  14.9375251953125 16.213462578125  L 14.9375251953125 17.7987837792969  C 14.9375251953125 18.3163049316406  14.5175211523438 18.7363089746094  14 18.7363089746094  C 13.4824788476563 18.7363089746094  13.0624748046875 18.3163049316406  13.0624748046875 17.7987837792969  L 13.0624748046875 16.213462578125  C 13.0624748046875 14.6796969628906  14.2343435058594 13.5078282617188  15.2693354492188 12.4737938574219  C 16.0277516503906 11.71537765625  16.8124748046875 10.9316120410156  16.8124748046875 10.3062928613281  C 16.8124748046875 8.74349887695313  15.550598046875 7.47224837890625  14 7.47224837890625  C 12.4231454199219 7.47224837890625  11.1875251953125 8.68912112304687  11.1875251953125 10.2425413378906  C 11.1875251953125 10.7600624902344  10.7675211523438 11.1800161425781  10.25 11.1800161425781  C 9.73247884765625 11.1800161425781  9.3124748046875 10.7600120996094  9.3124748046875 10.2425413378906  C 9.3124748046875 7.68129286132812  11.4152667675781 5.59724837890625  14 5.59724837890625  C 16.5847332324219 5.59724837890625  18.6875251953125 7.70941408203125  18.6875251953125 10.3062928613281  Z " fill-rule="nonzero" fill="#f4a121" stroke="none" transform="matrix(1 0 0 1 1106 20 )" />
  </g>
</svg>