<?xml version="1.0" encoding="utf-8"?>
<svg version="1.1" xmlns:xlink="http://www.w3.org/1999/xlink" width="12px" height="12px" viewBox="5 6.5  12 12" xmlns="http://www.w3.org/2000/svg">
  <path d="M 11 6.5  C 14.36 6.5  17 9.14  17 12.5  C 17 15.86  14.36 18.5  11 18.5  C 7.64 18.5  5 15.86  5 12.5  C 5 9.14  7.64 6.5  11 6.5  Z " fill-rule="nonzero" fill="#ffffff" stroke="none" />
  <path d="M 11 7  C 14.08 7  16.5 9.42  16.5 12.5  C 16.5 15.58  14.08 18  11 18  C 7.92 18  5.5 15.58  5.5 12.5  C 5.5 9.42  7.92 7  11 7  Z " stroke-width="1" stroke="#f4a121" fill="none" />
  <path d="M 11 15.5  C 9.32 15.5  8 14.18  8 12.5  C 8 10.82  9.32 9.5  11 9.5  C 12.68 9.5  14 10.82  14 12.5  C 14 14.18  12.68 15.5  11 15.5  " fill-rule="nonzero" fill="#f4a121" stroke="none" />
</svg>