<?xml version="1.0" encoding="utf-8"?>
<svg version="1.1" xmlns:xlink="http://www.w3.org/1999/xlink" width="12px" height="12px" viewBox="180 6.5  12 12" xmlns="http://www.w3.org/2000/svg">
  <path d="M 186 6.5  C 189.36 6.5  192 9.14  192 12.5  C 192 15.86  189.36 18.5  186 18.5  C 182.64 18.5  180 15.86  180 12.5  C 180 9.14  182.64 6.5  186 6.5  Z " fill-rule="nonzero" fill="#ffffff" stroke="none" />
  <path d="M 186 7  C 189.08 7  191.5 9.42  191.5 12.5  C 191.5 15.58  189.08 18  186 18  C 182.92 18  180.5 15.58  180.5 12.5  C 180.5 9.42  182.92 7  186 7  Z " stroke-width="1" stroke="#f4a121" fill="none" />
  <path d="M 186 15.5  C 184.32 15.5  183 14.18  183 12.5  C 183 10.82  184.32 9.5  186 9.5  C 187.68 9.5  189 10.82  189 12.5  C 189 14.18  187.68 15.5  186 15.5  " fill-rule="nonzero" fill="#f4a121" stroke="none" />
</svg>